<?xml version="1.0" encoding="utf-8" standalone="no"?>
<!DOCTYPE svg PUBLIC "-//W3C//DTD SVG 1.1//EN"
  "http://www.w3.org/Graphics/SVG/1.1/DTD/svg11.dtd">
<svg xmlns:xlink="http://www.w3.org/1999/xlink" width="792pt" height="648pt" viewBox="0 0 792 648" xmlns="http://www.w3.org/2000/svg" version="1.1">
 <metadata>
  <rdf:RDF xmlns:dc="http://purl.org/dc/elements/1.1/" xmlns:cc="http://creativecommons.org/ns#" xmlns:rdf="http://www.w3.org/1999/02/22-rdf-syntax-ns#">
   <cc:Work>
    <dc:type rdf:resource="http://purl.org/dc/dcmitype/StillImage"/>
    <dc:date>2024-01-04T02:41:29.685730</dc:date>
    <dc:format>image/svg+xml</dc:format>
    <dc:creator>
     <cc:Agent>
      <dc:title>Matplotlib v3.8.2, https://matplotlib.org/</dc:title>
     </cc:Agent>
    </dc:creator>
   </cc:Work>
  </rdf:RDF>
 </metadata>
 <defs>
  <style type="text/css">*{stroke-linejoin: round; stroke-linecap: butt}</style>
 </defs>
 <g id="figure_1">
  <g id="patch_1">
   <path d="M 0 648 
L 792 648 
L 792 0 
L 0 0 
z
" style="fill: #ffffff"/>
  </g>
  <g id="axes_1">
   <g id="patch_2">
    <path d="M 99 576.72 
L 712.8 576.72 
L 712.8 77.76 
L 99 77.76 
z
" style="fill: #ffffff"/>
   </g>
   <g id="matplotlib.axis_1">
    <g id="xtick_1">
     <g id="line2d_1">
      <defs>
       <path id="me14ba14ca6" d="M 0 0 
L 0 3.5 
" style="stroke: #000000; stroke-width: 0.8"/>
      </defs>
      <g>
       <use xlink:href="#me14ba14ca6" x="99" y="576.72" style="stroke: #000000; stroke-width: 0.8"/>
      </g>
     </g>
     <g id="text_1">
      <!-- 0 -->
      <g transform="translate(95.81875 591.318438) scale(0.1 -0.1)">
       <defs>
        <path id="DejaVuSans-30" d="M 2034 4250 
Q 1547 4250 1301 3770 
Q 1056 3291 1056 2328 
Q 1056 1369 1301 889 
Q 1547 409 2034 409 
Q 2525 409 2770 889 
Q 3016 1369 3016 2328 
Q 3016 3291 2770 3770 
Q 2525 4250 2034 4250 
z
M 2034 4750 
Q 2819 4750 3233 4129 
Q 3647 3509 3647 2328 
Q 3647 1150 3233 529 
Q 2819 -91 2034 -91 
Q 1250 -91 836 529 
Q 422 1150 422 2328 
Q 422 3509 836 4129 
Q 1250 4750 2034 4750 
z
" transform="scale(0.015625)"/>
       </defs>
       <use xlink:href="#DejaVuSans-30"/>
      </g>
     </g>
    </g>
    <g id="xtick_2">
     <g id="line2d_2">
      <g>
       <use xlink:href="#me14ba14ca6" x="122.607692" y="576.72" style="stroke: #000000; stroke-width: 0.8"/>
      </g>
     </g>
     <g id="text_2">
      <!-- 10 -->
      <g transform="translate(116.245192 591.318438) scale(0.1 -0.1)">
       <defs>
        <path id="DejaVuSans-31" d="M 794 531 
L 1825 531 
L 1825 4091 
L 703 3866 
L 703 4441 
L 1819 4666 
L 2450 4666 
L 2450 531 
L 3481 531 
L 3481 0 
L 794 0 
L 794 531 
z
" transform="scale(0.015625)"/>
       </defs>
       <use xlink:href="#DejaVuSans-31"/>
       <use xlink:href="#DejaVuSans-30" x="63.623047"/>
      </g>
     </g>
    </g>
    <g id="xtick_3">
     <g id="line2d_3">
      <g>
       <use xlink:href="#me14ba14ca6" x="146.215385" y="576.72" style="stroke: #000000; stroke-width: 0.8"/>
      </g>
     </g>
     <g id="text_3">
      <!-- 20 -->
      <g transform="translate(139.852885 591.318438) scale(0.1 -0.1)">
       <defs>
        <path id="DejaVuSans-32" d="M 1228 531 
L 3431 531 
L 3431 0 
L 469 0 
L 469 531 
Q 828 903 1448 1529 
Q 2069 2156 2228 2338 
Q 2531 2678 2651 2914 
Q 2772 3150 2772 3378 
Q 2772 3750 2511 3984 
Q 2250 4219 1831 4219 
Q 1534 4219 1204 4116 
Q 875 4013 500 3803 
L 500 4441 
Q 881 4594 1212 4672 
Q 1544 4750 1819 4750 
Q 2544 4750 2975 4387 
Q 3406 4025 3406 3419 
Q 3406 3131 3298 2873 
Q 3191 2616 2906 2266 
Q 2828 2175 2409 1742 
Q 1991 1309 1228 531 
z
" transform="scale(0.015625)"/>
       </defs>
       <use xlink:href="#DejaVuSans-32"/>
       <use xlink:href="#DejaVuSans-30" x="63.623047"/>
      </g>
     </g>
    </g>
    <g id="xtick_4">
     <g id="line2d_4">
      <g>
       <use xlink:href="#me14ba14ca6" x="169.823077" y="576.72" style="stroke: #000000; stroke-width: 0.8"/>
      </g>
     </g>
     <g id="text_4">
      <!-- 30 -->
      <g transform="translate(163.460577 591.318438) scale(0.1 -0.1)">
       <defs>
        <path id="DejaVuSans-33" d="M 2597 2516 
Q 3050 2419 3304 2112 
Q 3559 1806 3559 1356 
Q 3559 666 3084 287 
Q 2609 -91 1734 -91 
Q 1441 -91 1130 -33 
Q 819 25 488 141 
L 488 750 
Q 750 597 1062 519 
Q 1375 441 1716 441 
Q 2309 441 2620 675 
Q 2931 909 2931 1356 
Q 2931 1769 2642 2001 
Q 2353 2234 1838 2234 
L 1294 2234 
L 1294 2753 
L 1863 2753 
Q 2328 2753 2575 2939 
Q 2822 3125 2822 3475 
Q 2822 3834 2567 4026 
Q 2313 4219 1838 4219 
Q 1578 4219 1281 4162 
Q 984 4106 628 3988 
L 628 4550 
Q 988 4650 1302 4700 
Q 1616 4750 1894 4750 
Q 2613 4750 3031 4423 
Q 3450 4097 3450 3541 
Q 3450 3153 3228 2886 
Q 3006 2619 2597 2516 
z
" transform="scale(0.015625)"/>
       </defs>
       <use xlink:href="#DejaVuSans-33"/>
       <use xlink:href="#DejaVuSans-30" x="63.623047"/>
      </g>
     </g>
    </g>
    <g id="xtick_5">
     <g id="line2d_5">
      <g>
       <use xlink:href="#me14ba14ca6" x="193.430769" y="576.72" style="stroke: #000000; stroke-width: 0.8"/>
      </g>
     </g>
     <g id="text_5">
      <!-- 40 -->
      <g transform="translate(187.068269 591.318438) scale(0.1 -0.1)">
       <defs>
        <path id="DejaVuSans-34" d="M 2419 4116 
L 825 1625 
L 2419 1625 
L 2419 4116 
z
M 2253 4666 
L 3047 4666 
L 3047 1625 
L 3713 1625 
L 3713 1100 
L 3047 1100 
L 3047 0 
L 2419 0 
L 2419 1100 
L 313 1100 
L 313 1709 
L 2253 4666 
z
" transform="scale(0.015625)"/>
       </defs>
       <use xlink:href="#DejaVuSans-34"/>
       <use xlink:href="#DejaVuSans-30" x="63.623047"/>
      </g>
     </g>
    </g>
    <g id="xtick_6">
     <g id="line2d_6">
      <g>
       <use xlink:href="#me14ba14ca6" x="217.038462" y="576.72" style="stroke: #000000; stroke-width: 0.8"/>
      </g>
     </g>
     <g id="text_6">
      <!-- 50 -->
      <g transform="translate(210.675962 591.318438) scale(0.1 -0.1)">
       <defs>
        <path id="DejaVuSans-35" d="M 691 4666 
L 3169 4666 
L 3169 4134 
L 1269 4134 
L 1269 2991 
Q 1406 3038 1543 3061 
Q 1681 3084 1819 3084 
Q 2600 3084 3056 2656 
Q 3513 2228 3513 1497 
Q 3513 744 3044 326 
Q 2575 -91 1722 -91 
Q 1428 -91 1123 -41 
Q 819 9 494 109 
L 494 744 
Q 775 591 1075 516 
Q 1375 441 1709 441 
Q 2250 441 2565 725 
Q 2881 1009 2881 1497 
Q 2881 1984 2565 2268 
Q 2250 2553 1709 2553 
Q 1456 2553 1204 2497 
Q 953 2441 691 2322 
L 691 4666 
z
" transform="scale(0.015625)"/>
       </defs>
       <use xlink:href="#DejaVuSans-35"/>
       <use xlink:href="#DejaVuSans-30" x="63.623047"/>
      </g>
     </g>
    </g>
    <g id="xtick_7">
     <g id="line2d_7">
      <g>
       <use xlink:href="#me14ba14ca6" x="240.646154" y="576.72" style="stroke: #000000; stroke-width: 0.8"/>
      </g>
     </g>
     <g id="text_7">
      <!-- 60 -->
      <g transform="translate(234.283654 591.318438) scale(0.1 -0.1)">
       <defs>
        <path id="DejaVuSans-36" d="M 2113 2584 
Q 1688 2584 1439 2293 
Q 1191 2003 1191 1497 
Q 1191 994 1439 701 
Q 1688 409 2113 409 
Q 2538 409 2786 701 
Q 3034 994 3034 1497 
Q 3034 2003 2786 2293 
Q 2538 2584 2113 2584 
z
M 3366 4563 
L 3366 3988 
Q 3128 4100 2886 4159 
Q 2644 4219 2406 4219 
Q 1781 4219 1451 3797 
Q 1122 3375 1075 2522 
Q 1259 2794 1537 2939 
Q 1816 3084 2150 3084 
Q 2853 3084 3261 2657 
Q 3669 2231 3669 1497 
Q 3669 778 3244 343 
Q 2819 -91 2113 -91 
Q 1303 -91 875 529 
Q 447 1150 447 2328 
Q 447 3434 972 4092 
Q 1497 4750 2381 4750 
Q 2619 4750 2861 4703 
Q 3103 4656 3366 4563 
z
" transform="scale(0.015625)"/>
       </defs>
       <use xlink:href="#DejaVuSans-36"/>
       <use xlink:href="#DejaVuSans-30" x="63.623047"/>
      </g>
     </g>
    </g>
    <g id="xtick_8">
     <g id="line2d_8">
      <g>
       <use xlink:href="#me14ba14ca6" x="264.253846" y="576.72" style="stroke: #000000; stroke-width: 0.8"/>
      </g>
     </g>
     <g id="text_8">
      <!-- 70 -->
      <g transform="translate(257.891346 591.318438) scale(0.1 -0.1)">
       <defs>
        <path id="DejaVuSans-37" d="M 525 4666 
L 3525 4666 
L 3525 4397 
L 1831 0 
L 1172 0 
L 2766 4134 
L 525 4134 
L 525 4666 
z
" transform="scale(0.015625)"/>
       </defs>
       <use xlink:href="#DejaVuSans-37"/>
       <use xlink:href="#DejaVuSans-30" x="63.623047"/>
      </g>
     </g>
    </g>
    <g id="xtick_9">
     <g id="line2d_9">
      <g>
       <use xlink:href="#me14ba14ca6" x="287.861538" y="576.72" style="stroke: #000000; stroke-width: 0.8"/>
      </g>
     </g>
     <g id="text_9">
      <!-- 80 -->
      <g transform="translate(281.499038 591.318438) scale(0.1 -0.1)">
       <defs>
        <path id="DejaVuSans-38" d="M 2034 2216 
Q 1584 2216 1326 1975 
Q 1069 1734 1069 1313 
Q 1069 891 1326 650 
Q 1584 409 2034 409 
Q 2484 409 2743 651 
Q 3003 894 3003 1313 
Q 3003 1734 2745 1975 
Q 2488 2216 2034 2216 
z
M 1403 2484 
Q 997 2584 770 2862 
Q 544 3141 544 3541 
Q 544 4100 942 4425 
Q 1341 4750 2034 4750 
Q 2731 4750 3128 4425 
Q 3525 4100 3525 3541 
Q 3525 3141 3298 2862 
Q 3072 2584 2669 2484 
Q 3125 2378 3379 2068 
Q 3634 1759 3634 1313 
Q 3634 634 3220 271 
Q 2806 -91 2034 -91 
Q 1263 -91 848 271 
Q 434 634 434 1313 
Q 434 1759 690 2068 
Q 947 2378 1403 2484 
z
M 1172 3481 
Q 1172 3119 1398 2916 
Q 1625 2713 2034 2713 
Q 2441 2713 2670 2916 
Q 2900 3119 2900 3481 
Q 2900 3844 2670 4047 
Q 2441 4250 2034 4250 
Q 1625 4250 1398 4047 
Q 1172 3844 1172 3481 
z
" transform="scale(0.015625)"/>
       </defs>
       <use xlink:href="#DejaVuSans-38"/>
       <use xlink:href="#DejaVuSans-30" x="63.623047"/>
      </g>
     </g>
    </g>
    <g id="xtick_10">
     <g id="line2d_10">
      <g>
       <use xlink:href="#me14ba14ca6" x="311.469231" y="576.72" style="stroke: #000000; stroke-width: 0.8"/>
      </g>
     </g>
     <g id="text_10">
      <!-- 90 -->
      <g transform="translate(305.106731 591.318438) scale(0.1 -0.1)">
       <defs>
        <path id="DejaVuSans-39" d="M 703 97 
L 703 672 
Q 941 559 1184 500 
Q 1428 441 1663 441 
Q 2288 441 2617 861 
Q 2947 1281 2994 2138 
Q 2813 1869 2534 1725 
Q 2256 1581 1919 1581 
Q 1219 1581 811 2004 
Q 403 2428 403 3163 
Q 403 3881 828 4315 
Q 1253 4750 1959 4750 
Q 2769 4750 3195 4129 
Q 3622 3509 3622 2328 
Q 3622 1225 3098 567 
Q 2575 -91 1691 -91 
Q 1453 -91 1209 -44 
Q 966 3 703 97 
z
M 1959 2075 
Q 2384 2075 2632 2365 
Q 2881 2656 2881 3163 
Q 2881 3666 2632 3958 
Q 2384 4250 1959 4250 
Q 1534 4250 1286 3958 
Q 1038 3666 1038 3163 
Q 1038 2656 1286 2365 
Q 1534 2075 1959 2075 
z
" transform="scale(0.015625)"/>
       </defs>
       <use xlink:href="#DejaVuSans-39"/>
       <use xlink:href="#DejaVuSans-30" x="63.623047"/>
      </g>
     </g>
    </g>
    <g id="xtick_11">
     <g id="line2d_11">
      <g>
       <use xlink:href="#me14ba14ca6" x="335.076923" y="576.72" style="stroke: #000000; stroke-width: 0.8"/>
      </g>
     </g>
     <g id="text_11">
      <!-- 100 -->
      <g transform="translate(325.533173 591.318438) scale(0.1 -0.1)">
       <use xlink:href="#DejaVuSans-31"/>
       <use xlink:href="#DejaVuSans-30" x="63.623047"/>
       <use xlink:href="#DejaVuSans-30" x="127.246094"/>
      </g>
     </g>
    </g>
    <g id="xtick_12">
     <g id="line2d_12">
      <g>
       <use xlink:href="#me14ba14ca6" x="358.684615" y="576.72" style="stroke: #000000; stroke-width: 0.8"/>
      </g>
     </g>
     <g id="text_12">
      <!-- 110 -->
      <g transform="translate(349.140865 591.318438) scale(0.1 -0.1)">
       <use xlink:href="#DejaVuSans-31"/>
       <use xlink:href="#DejaVuSans-31" x="63.623047"/>
       <use xlink:href="#DejaVuSans-30" x="127.246094"/>
      </g>
     </g>
    </g>
    <g id="xtick_13">
     <g id="line2d_13">
      <g>
       <use xlink:href="#me14ba14ca6" x="382.292308" y="576.72" style="stroke: #000000; stroke-width: 0.8"/>
      </g>
     </g>
     <g id="text_13">
      <!-- 120 -->
      <g transform="translate(372.748558 591.318438) scale(0.1 -0.1)">
       <use xlink:href="#DejaVuSans-31"/>
       <use xlink:href="#DejaVuSans-32" x="63.623047"/>
       <use xlink:href="#DejaVuSans-30" x="127.246094"/>
      </g>
     </g>
    </g>
    <g id="xtick_14">
     <g id="line2d_14">
      <g>
       <use xlink:href="#me14ba14ca6" x="405.9" y="576.72" style="stroke: #000000; stroke-width: 0.8"/>
      </g>
     </g>
     <g id="text_14">
      <!-- 130 -->
      <g transform="translate(396.35625 591.318438) scale(0.1 -0.1)">
       <use xlink:href="#DejaVuSans-31"/>
       <use xlink:href="#DejaVuSans-33" x="63.623047"/>
       <use xlink:href="#DejaVuSans-30" x="127.246094"/>
      </g>
     </g>
    </g>
    <g id="xtick_15">
     <g id="line2d_15">
      <g>
       <use xlink:href="#me14ba14ca6" x="429.507692" y="576.72" style="stroke: #000000; stroke-width: 0.8"/>
      </g>
     </g>
     <g id="text_15">
      <!-- 140 -->
      <g transform="translate(419.963942 591.318438) scale(0.1 -0.1)">
       <use xlink:href="#DejaVuSans-31"/>
       <use xlink:href="#DejaVuSans-34" x="63.623047"/>
       <use xlink:href="#DejaVuSans-30" x="127.246094"/>
      </g>
     </g>
    </g>
    <g id="xtick_16">
     <g id="line2d_16">
      <g>
       <use xlink:href="#me14ba14ca6" x="453.115385" y="576.72" style="stroke: #000000; stroke-width: 0.8"/>
      </g>
     </g>
     <g id="text_16">
      <!-- 150 -->
      <g transform="translate(443.571635 591.318438) scale(0.1 -0.1)">
       <use xlink:href="#DejaVuSans-31"/>
       <use xlink:href="#DejaVuSans-35" x="63.623047"/>
       <use xlink:href="#DejaVuSans-30" x="127.246094"/>
      </g>
     </g>
    </g>
    <g id="xtick_17">
     <g id="line2d_17">
      <g>
       <use xlink:href="#me14ba14ca6" x="476.723077" y="576.72" style="stroke: #000000; stroke-width: 0.8"/>
      </g>
     </g>
     <g id="text_17">
      <!-- 160 -->
      <g transform="translate(467.179327 591.318438) scale(0.1 -0.1)">
       <use xlink:href="#DejaVuSans-31"/>
       <use xlink:href="#DejaVuSans-36" x="63.623047"/>
       <use xlink:href="#DejaVuSans-30" x="127.246094"/>
      </g>
     </g>
    </g>
    <g id="xtick_18">
     <g id="line2d_18">
      <g>
       <use xlink:href="#me14ba14ca6" x="500.330769" y="576.72" style="stroke: #000000; stroke-width: 0.8"/>
      </g>
     </g>
     <g id="text_18">
      <!-- 170 -->
      <g transform="translate(490.787019 591.318438) scale(0.1 -0.1)">
       <use xlink:href="#DejaVuSans-31"/>
       <use xlink:href="#DejaVuSans-37" x="63.623047"/>
       <use xlink:href="#DejaVuSans-30" x="127.246094"/>
      </g>
     </g>
    </g>
    <g id="xtick_19">
     <g id="line2d_19">
      <g>
       <use xlink:href="#me14ba14ca6" x="523.938462" y="576.72" style="stroke: #000000; stroke-width: 0.8"/>
      </g>
     </g>
     <g id="text_19">
      <!-- 180 -->
      <g transform="translate(514.394712 591.318438) scale(0.1 -0.1)">
       <use xlink:href="#DejaVuSans-31"/>
       <use xlink:href="#DejaVuSans-38" x="63.623047"/>
       <use xlink:href="#DejaVuSans-30" x="127.246094"/>
      </g>
     </g>
    </g>
    <g id="xtick_20">
     <g id="line2d_20">
      <g>
       <use xlink:href="#me14ba14ca6" x="547.546154" y="576.72" style="stroke: #000000; stroke-width: 0.8"/>
      </g>
     </g>
     <g id="text_20">
      <!-- 190 -->
      <g transform="translate(538.002404 591.318438) scale(0.1 -0.1)">
       <use xlink:href="#DejaVuSans-31"/>
       <use xlink:href="#DejaVuSans-39" x="63.623047"/>
       <use xlink:href="#DejaVuSans-30" x="127.246094"/>
      </g>
     </g>
    </g>
    <g id="xtick_21">
     <g id="line2d_21">
      <g>
       <use xlink:href="#me14ba14ca6" x="571.153846" y="576.72" style="stroke: #000000; stroke-width: 0.8"/>
      </g>
     </g>
     <g id="text_21">
      <!-- 200 -->
      <g transform="translate(561.610096 591.318438) scale(0.1 -0.1)">
       <use xlink:href="#DejaVuSans-32"/>
       <use xlink:href="#DejaVuSans-30" x="63.623047"/>
       <use xlink:href="#DejaVuSans-30" x="127.246094"/>
      </g>
     </g>
    </g>
    <g id="xtick_22">
     <g id="line2d_22">
      <g>
       <use xlink:href="#me14ba14ca6" x="594.761538" y="576.72" style="stroke: #000000; stroke-width: 0.8"/>
      </g>
     </g>
     <g id="text_22">
      <!-- 210 -->
      <g transform="translate(585.217788 591.318438) scale(0.1 -0.1)">
       <use xlink:href="#DejaVuSans-32"/>
       <use xlink:href="#DejaVuSans-31" x="63.623047"/>
       <use xlink:href="#DejaVuSans-30" x="127.246094"/>
      </g>
     </g>
    </g>
    <g id="xtick_23">
     <g id="line2d_23">
      <g>
       <use xlink:href="#me14ba14ca6" x="618.369231" y="576.72" style="stroke: #000000; stroke-width: 0.8"/>
      </g>
     </g>
     <g id="text_23">
      <!-- 220 -->
      <g transform="translate(608.825481 591.318438) scale(0.1 -0.1)">
       <use xlink:href="#DejaVuSans-32"/>
       <use xlink:href="#DejaVuSans-32" x="63.623047"/>
       <use xlink:href="#DejaVuSans-30" x="127.246094"/>
      </g>
     </g>
    </g>
    <g id="xtick_24">
     <g id="line2d_24">
      <g>
       <use xlink:href="#me14ba14ca6" x="641.976923" y="576.72" style="stroke: #000000; stroke-width: 0.8"/>
      </g>
     </g>
     <g id="text_24">
      <!-- 230 -->
      <g transform="translate(632.433173 591.318438) scale(0.1 -0.1)">
       <use xlink:href="#DejaVuSans-32"/>
       <use xlink:href="#DejaVuSans-33" x="63.623047"/>
       <use xlink:href="#DejaVuSans-30" x="127.246094"/>
      </g>
     </g>
    </g>
    <g id="xtick_25">
     <g id="line2d_25">
      <g>
       <use xlink:href="#me14ba14ca6" x="665.584615" y="576.72" style="stroke: #000000; stroke-width: 0.8"/>
      </g>
     </g>
     <g id="text_25">
      <!-- 240 -->
      <g transform="translate(656.040865 591.318438) scale(0.1 -0.1)">
       <use xlink:href="#DejaVuSans-32"/>
       <use xlink:href="#DejaVuSans-34" x="63.623047"/>
       <use xlink:href="#DejaVuSans-30" x="127.246094"/>
      </g>
     </g>
    </g>
    <g id="xtick_26">
     <g id="line2d_26">
      <g>
       <use xlink:href="#me14ba14ca6" x="689.192308" y="576.72" style="stroke: #000000; stroke-width: 0.8"/>
      </g>
     </g>
     <g id="text_26">
      <!-- 250 -->
      <g transform="translate(679.648558 591.318438) scale(0.1 -0.1)">
       <use xlink:href="#DejaVuSans-32"/>
       <use xlink:href="#DejaVuSans-35" x="63.623047"/>
       <use xlink:href="#DejaVuSans-30" x="127.246094"/>
      </g>
     </g>
    </g>
    <g id="text_27">
     <!-- Input Latency (ms) -->
     <g transform="translate(358.634375 604.996562) scale(0.1 -0.1)">
      <defs>
       <path id="DejaVuSans-49" d="M 628 4666 
L 1259 4666 
L 1259 0 
L 628 0 
L 628 4666 
z
" transform="scale(0.015625)"/>
       <path id="DejaVuSans-6e" d="M 3513 2113 
L 3513 0 
L 2938 0 
L 2938 2094 
Q 2938 2591 2744 2837 
Q 2550 3084 2163 3084 
Q 1697 3084 1428 2787 
Q 1159 2491 1159 1978 
L 1159 0 
L 581 0 
L 581 3500 
L 1159 3500 
L 1159 2956 
Q 1366 3272 1645 3428 
Q 1925 3584 2291 3584 
Q 2894 3584 3203 3211 
Q 3513 2838 3513 2113 
z
" transform="scale(0.015625)"/>
       <path id="DejaVuSans-70" d="M 1159 525 
L 1159 -1331 
L 581 -1331 
L 581 3500 
L 1159 3500 
L 1159 2969 
Q 1341 3281 1617 3432 
Q 1894 3584 2278 3584 
Q 2916 3584 3314 3078 
Q 3713 2572 3713 1747 
Q 3713 922 3314 415 
Q 2916 -91 2278 -91 
Q 1894 -91 1617 61 
Q 1341 213 1159 525 
z
M 3116 1747 
Q 3116 2381 2855 2742 
Q 2594 3103 2138 3103 
Q 1681 3103 1420 2742 
Q 1159 2381 1159 1747 
Q 1159 1113 1420 752 
Q 1681 391 2138 391 
Q 2594 391 2855 752 
Q 3116 1113 3116 1747 
z
" transform="scale(0.015625)"/>
       <path id="DejaVuSans-75" d="M 544 1381 
L 544 3500 
L 1119 3500 
L 1119 1403 
Q 1119 906 1312 657 
Q 1506 409 1894 409 
Q 2359 409 2629 706 
Q 2900 1003 2900 1516 
L 2900 3500 
L 3475 3500 
L 3475 0 
L 2900 0 
L 2900 538 
Q 2691 219 2414 64 
Q 2138 -91 1772 -91 
Q 1169 -91 856 284 
Q 544 659 544 1381 
z
M 1991 3584 
L 1991 3584 
z
" transform="scale(0.015625)"/>
       <path id="DejaVuSans-74" d="M 1172 4494 
L 1172 3500 
L 2356 3500 
L 2356 3053 
L 1172 3053 
L 1172 1153 
Q 1172 725 1289 603 
Q 1406 481 1766 481 
L 2356 481 
L 2356 0 
L 1766 0 
Q 1100 0 847 248 
Q 594 497 594 1153 
L 594 3053 
L 172 3053 
L 172 3500 
L 594 3500 
L 594 4494 
L 1172 4494 
z
" transform="scale(0.015625)"/>
       <path id="DejaVuSans-20" transform="scale(0.015625)"/>
       <path id="DejaVuSans-4c" d="M 628 4666 
L 1259 4666 
L 1259 531 
L 3531 531 
L 3531 0 
L 628 0 
L 628 4666 
z
" transform="scale(0.015625)"/>
       <path id="DejaVuSans-61" d="M 2194 1759 
Q 1497 1759 1228 1600 
Q 959 1441 959 1056 
Q 959 750 1161 570 
Q 1363 391 1709 391 
Q 2188 391 2477 730 
Q 2766 1069 2766 1631 
L 2766 1759 
L 2194 1759 
z
M 3341 1997 
L 3341 0 
L 2766 0 
L 2766 531 
Q 2569 213 2275 61 
Q 1981 -91 1556 -91 
Q 1019 -91 701 211 
Q 384 513 384 1019 
Q 384 1609 779 1909 
Q 1175 2209 1959 2209 
L 2766 2209 
L 2766 2266 
Q 2766 2663 2505 2880 
Q 2244 3097 1772 3097 
Q 1472 3097 1187 3025 
Q 903 2953 641 2809 
L 641 3341 
Q 956 3463 1253 3523 
Q 1550 3584 1831 3584 
Q 2591 3584 2966 3190 
Q 3341 2797 3341 1997 
z
" transform="scale(0.015625)"/>
       <path id="DejaVuSans-65" d="M 3597 1894 
L 3597 1613 
L 953 1613 
Q 991 1019 1311 708 
Q 1631 397 2203 397 
Q 2534 397 2845 478 
Q 3156 559 3463 722 
L 3463 178 
Q 3153 47 2828 -22 
Q 2503 -91 2169 -91 
Q 1331 -91 842 396 
Q 353 884 353 1716 
Q 353 2575 817 3079 
Q 1281 3584 2069 3584 
Q 2775 3584 3186 3129 
Q 3597 2675 3597 1894 
z
M 3022 2063 
Q 3016 2534 2758 2815 
Q 2500 3097 2075 3097 
Q 1594 3097 1305 2825 
Q 1016 2553 972 2059 
L 3022 2063 
z
" transform="scale(0.015625)"/>
       <path id="DejaVuSans-63" d="M 3122 3366 
L 3122 2828 
Q 2878 2963 2633 3030 
Q 2388 3097 2138 3097 
Q 1578 3097 1268 2742 
Q 959 2388 959 1747 
Q 959 1106 1268 751 
Q 1578 397 2138 397 
Q 2388 397 2633 464 
Q 2878 531 3122 666 
L 3122 134 
Q 2881 22 2623 -34 
Q 2366 -91 2075 -91 
Q 1284 -91 818 406 
Q 353 903 353 1747 
Q 353 2603 823 3093 
Q 1294 3584 2113 3584 
Q 2378 3584 2631 3529 
Q 2884 3475 3122 3366 
z
" transform="scale(0.015625)"/>
       <path id="DejaVuSans-79" d="M 2059 -325 
Q 1816 -950 1584 -1140 
Q 1353 -1331 966 -1331 
L 506 -1331 
L 506 -850 
L 844 -850 
Q 1081 -850 1212 -737 
Q 1344 -625 1503 -206 
L 1606 56 
L 191 3500 
L 800 3500 
L 1894 763 
L 2988 3500 
L 3597 3500 
L 2059 -325 
z
" transform="scale(0.015625)"/>
       <path id="DejaVuSans-28" d="M 1984 4856 
Q 1566 4138 1362 3434 
Q 1159 2731 1159 2009 
Q 1159 1288 1364 580 
Q 1569 -128 1984 -844 
L 1484 -844 
Q 1016 -109 783 600 
Q 550 1309 550 2009 
Q 550 2706 781 3412 
Q 1013 4119 1484 4856 
L 1984 4856 
z
" transform="scale(0.015625)"/>
       <path id="DejaVuSans-6d" d="M 3328 2828 
Q 3544 3216 3844 3400 
Q 4144 3584 4550 3584 
Q 5097 3584 5394 3201 
Q 5691 2819 5691 2113 
L 5691 0 
L 5113 0 
L 5113 2094 
Q 5113 2597 4934 2840 
Q 4756 3084 4391 3084 
Q 3944 3084 3684 2787 
Q 3425 2491 3425 1978 
L 3425 0 
L 2847 0 
L 2847 2094 
Q 2847 2600 2669 2842 
Q 2491 3084 2119 3084 
Q 1678 3084 1418 2786 
Q 1159 2488 1159 1978 
L 1159 0 
L 581 0 
L 581 3500 
L 1159 3500 
L 1159 2956 
Q 1356 3278 1631 3431 
Q 1906 3584 2284 3584 
Q 2666 3584 2933 3390 
Q 3200 3197 3328 2828 
z
" transform="scale(0.015625)"/>
       <path id="DejaVuSans-73" d="M 2834 3397 
L 2834 2853 
Q 2591 2978 2328 3040 
Q 2066 3103 1784 3103 
Q 1356 3103 1142 2972 
Q 928 2841 928 2578 
Q 928 2378 1081 2264 
Q 1234 2150 1697 2047 
L 1894 2003 
Q 2506 1872 2764 1633 
Q 3022 1394 3022 966 
Q 3022 478 2636 193 
Q 2250 -91 1575 -91 
Q 1294 -91 989 -36 
Q 684 19 347 128 
L 347 722 
Q 666 556 975 473 
Q 1284 391 1588 391 
Q 1994 391 2212 530 
Q 2431 669 2431 922 
Q 2431 1156 2273 1281 
Q 2116 1406 1581 1522 
L 1381 1569 
Q 847 1681 609 1914 
Q 372 2147 372 2553 
Q 372 3047 722 3315 
Q 1072 3584 1716 3584 
Q 2034 3584 2315 3537 
Q 2597 3491 2834 3397 
z
" transform="scale(0.015625)"/>
       <path id="DejaVuSans-29" d="M 513 4856 
L 1013 4856 
Q 1481 4119 1714 3412 
Q 1947 2706 1947 2009 
Q 1947 1309 1714 600 
Q 1481 -109 1013 -844 
L 513 -844 
Q 928 -128 1133 580 
Q 1338 1288 1338 2009 
Q 1338 2731 1133 3434 
Q 928 4138 513 4856 
z
" transform="scale(0.015625)"/>
      </defs>
      <use xlink:href="#DejaVuSans-49"/>
      <use xlink:href="#DejaVuSans-6e" x="29.492188"/>
      <use xlink:href="#DejaVuSans-70" x="92.871094"/>
      <use xlink:href="#DejaVuSans-75" x="156.347656"/>
      <use xlink:href="#DejaVuSans-74" x="219.726562"/>
      <use xlink:href="#DejaVuSans-20" x="258.935547"/>
      <use xlink:href="#DejaVuSans-4c" x="290.722656"/>
      <use xlink:href="#DejaVuSans-61" x="346.435547"/>
      <use xlink:href="#DejaVuSans-74" x="407.714844"/>
      <use xlink:href="#DejaVuSans-65" x="446.923828"/>
      <use xlink:href="#DejaVuSans-6e" x="508.447266"/>
      <use xlink:href="#DejaVuSans-63" x="571.826172"/>
      <use xlink:href="#DejaVuSans-79" x="626.806641"/>
      <use xlink:href="#DejaVuSans-20" x="685.986328"/>
      <use xlink:href="#DejaVuSans-28" x="717.773438"/>
      <use xlink:href="#DejaVuSans-6d" x="756.787109"/>
      <use xlink:href="#DejaVuSans-73" x="854.199219"/>
      <use xlink:href="#DejaVuSans-29" x="906.298828"/>
     </g>
    </g>
   </g>
   <g id="matplotlib.axis_2">
    <g id="ytick_1">
     <g id="line2d_27">
      <defs>
       <path id="m37036e4db8" d="M 0 0 
L -3.5 0 
" style="stroke: #000000; stroke-width: 0.8"/>
      </defs>
      <g>
       <use xlink:href="#m37036e4db8" x="99" y="576.72" style="stroke: #000000; stroke-width: 0.8"/>
      </g>
     </g>
     <g id="text_28">
      <!-- 0.0 -->
      <g transform="translate(76.096875 580.519219) scale(0.1 -0.1)">
       <defs>
        <path id="DejaVuSans-2e" d="M 684 794 
L 1344 794 
L 1344 0 
L 684 0 
L 684 794 
z
" transform="scale(0.015625)"/>
       </defs>
       <use xlink:href="#DejaVuSans-30"/>
       <use xlink:href="#DejaVuSans-2e" x="63.623047"/>
       <use xlink:href="#DejaVuSans-30" x="95.410156"/>
      </g>
     </g>
    </g>
    <g id="ytick_2">
     <g id="line2d_28">
      <g>
       <use xlink:href="#m37036e4db8" x="99" y="531.36" style="stroke: #000000; stroke-width: 0.8"/>
      </g>
     </g>
     <g id="text_29">
      <!-- 0.1 -->
      <g transform="translate(76.096875 535.159219) scale(0.1 -0.1)">
       <use xlink:href="#DejaVuSans-30"/>
       <use xlink:href="#DejaVuSans-2e" x="63.623047"/>
       <use xlink:href="#DejaVuSans-31" x="95.410156"/>
      </g>
     </g>
    </g>
    <g id="ytick_3">
     <g id="line2d_29">
      <g>
       <use xlink:href="#m37036e4db8" x="99" y="486" style="stroke: #000000; stroke-width: 0.8"/>
      </g>
     </g>
     <g id="text_30">
      <!-- 0.2 -->
      <g transform="translate(76.096875 489.799219) scale(0.1 -0.1)">
       <use xlink:href="#DejaVuSans-30"/>
       <use xlink:href="#DejaVuSans-2e" x="63.623047"/>
       <use xlink:href="#DejaVuSans-32" x="95.410156"/>
      </g>
     </g>
    </g>
    <g id="ytick_4">
     <g id="line2d_30">
      <g>
       <use xlink:href="#m37036e4db8" x="99" y="440.64" style="stroke: #000000; stroke-width: 0.8"/>
      </g>
     </g>
     <g id="text_31">
      <!-- 0.3 -->
      <g transform="translate(76.096875 444.439219) scale(0.1 -0.1)">
       <use xlink:href="#DejaVuSans-30"/>
       <use xlink:href="#DejaVuSans-2e" x="63.623047"/>
       <use xlink:href="#DejaVuSans-33" x="95.410156"/>
      </g>
     </g>
    </g>
    <g id="ytick_5">
     <g id="line2d_31">
      <g>
       <use xlink:href="#m37036e4db8" x="99" y="395.28" style="stroke: #000000; stroke-width: 0.8"/>
      </g>
     </g>
     <g id="text_32">
      <!-- 0.4 -->
      <g transform="translate(76.096875 399.079219) scale(0.1 -0.1)">
       <use xlink:href="#DejaVuSans-30"/>
       <use xlink:href="#DejaVuSans-2e" x="63.623047"/>
       <use xlink:href="#DejaVuSans-34" x="95.410156"/>
      </g>
     </g>
    </g>
    <g id="ytick_6">
     <g id="line2d_32">
      <g>
       <use xlink:href="#m37036e4db8" x="99" y="349.92" style="stroke: #000000; stroke-width: 0.8"/>
      </g>
     </g>
     <g id="text_33">
      <!-- 0.5 -->
      <g transform="translate(76.096875 353.719219) scale(0.1 -0.1)">
       <use xlink:href="#DejaVuSans-30"/>
       <use xlink:href="#DejaVuSans-2e" x="63.623047"/>
       <use xlink:href="#DejaVuSans-35" x="95.410156"/>
      </g>
     </g>
    </g>
    <g id="ytick_7">
     <g id="line2d_33">
      <g>
       <use xlink:href="#m37036e4db8" x="99" y="304.56" style="stroke: #000000; stroke-width: 0.8"/>
      </g>
     </g>
     <g id="text_34">
      <!-- 0.6 -->
      <g transform="translate(76.096875 308.359219) scale(0.1 -0.1)">
       <use xlink:href="#DejaVuSans-30"/>
       <use xlink:href="#DejaVuSans-2e" x="63.623047"/>
       <use xlink:href="#DejaVuSans-36" x="95.410156"/>
      </g>
     </g>
    </g>
    <g id="ytick_8">
     <g id="line2d_34">
      <g>
       <use xlink:href="#m37036e4db8" x="99" y="259.2" style="stroke: #000000; stroke-width: 0.8"/>
      </g>
     </g>
     <g id="text_35">
      <!-- 0.7 -->
      <g transform="translate(76.096875 262.999219) scale(0.1 -0.1)">
       <use xlink:href="#DejaVuSans-30"/>
       <use xlink:href="#DejaVuSans-2e" x="63.623047"/>
       <use xlink:href="#DejaVuSans-37" x="95.410156"/>
      </g>
     </g>
    </g>
    <g id="ytick_9">
     <g id="line2d_35">
      <g>
       <use xlink:href="#m37036e4db8" x="99" y="213.84" style="stroke: #000000; stroke-width: 0.8"/>
      </g>
     </g>
     <g id="text_36">
      <!-- 0.8 -->
      <g transform="translate(76.096875 217.639219) scale(0.1 -0.1)">
       <use xlink:href="#DejaVuSans-30"/>
       <use xlink:href="#DejaVuSans-2e" x="63.623047"/>
       <use xlink:href="#DejaVuSans-38" x="95.410156"/>
      </g>
     </g>
    </g>
    <g id="ytick_10">
     <g id="line2d_36">
      <g>
       <use xlink:href="#m37036e4db8" x="99" y="168.48" style="stroke: #000000; stroke-width: 0.8"/>
      </g>
     </g>
     <g id="text_37">
      <!-- 0.9 -->
      <g transform="translate(76.096875 172.279219) scale(0.1 -0.1)">
       <use xlink:href="#DejaVuSans-30"/>
       <use xlink:href="#DejaVuSans-2e" x="63.623047"/>
       <use xlink:href="#DejaVuSans-39" x="95.410156"/>
      </g>
     </g>
    </g>
    <g id="ytick_11">
     <g id="line2d_37">
      <g>
       <use xlink:href="#m37036e4db8" x="99" y="123.12" style="stroke: #000000; stroke-width: 0.8"/>
      </g>
     </g>
     <g id="text_38">
      <!-- 1.0 -->
      <g transform="translate(76.096875 126.919219) scale(0.1 -0.1)">
       <use xlink:href="#DejaVuSans-31"/>
       <use xlink:href="#DejaVuSans-2e" x="63.623047"/>
       <use xlink:href="#DejaVuSans-30" x="95.410156"/>
      </g>
     </g>
    </g>
    <g id="text_39">
     <!-- Likelihood of occurrence -->
     <g transform="translate(70.017187 388.151719) rotate(-90) scale(0.1 -0.1)">
      <defs>
       <path id="DejaVuSans-69" d="M 603 3500 
L 1178 3500 
L 1178 0 
L 603 0 
L 603 3500 
z
M 603 4863 
L 1178 4863 
L 1178 4134 
L 603 4134 
L 603 4863 
z
" transform="scale(0.015625)"/>
       <path id="DejaVuSans-6b" d="M 581 4863 
L 1159 4863 
L 1159 1991 
L 2875 3500 
L 3609 3500 
L 1753 1863 
L 3688 0 
L 2938 0 
L 1159 1709 
L 1159 0 
L 581 0 
L 581 4863 
z
" transform="scale(0.015625)"/>
       <path id="DejaVuSans-6c" d="M 603 4863 
L 1178 4863 
L 1178 0 
L 603 0 
L 603 4863 
z
" transform="scale(0.015625)"/>
       <path id="DejaVuSans-68" d="M 3513 2113 
L 3513 0 
L 2938 0 
L 2938 2094 
Q 2938 2591 2744 2837 
Q 2550 3084 2163 3084 
Q 1697 3084 1428 2787 
Q 1159 2491 1159 1978 
L 1159 0 
L 581 0 
L 581 4863 
L 1159 4863 
L 1159 2956 
Q 1366 3272 1645 3428 
Q 1925 3584 2291 3584 
Q 2894 3584 3203 3211 
Q 3513 2838 3513 2113 
z
" transform="scale(0.015625)"/>
       <path id="DejaVuSans-6f" d="M 1959 3097 
Q 1497 3097 1228 2736 
Q 959 2375 959 1747 
Q 959 1119 1226 758 
Q 1494 397 1959 397 
Q 2419 397 2687 759 
Q 2956 1122 2956 1747 
Q 2956 2369 2687 2733 
Q 2419 3097 1959 3097 
z
M 1959 3584 
Q 2709 3584 3137 3096 
Q 3566 2609 3566 1747 
Q 3566 888 3137 398 
Q 2709 -91 1959 -91 
Q 1206 -91 779 398 
Q 353 888 353 1747 
Q 353 2609 779 3096 
Q 1206 3584 1959 3584 
z
" transform="scale(0.015625)"/>
       <path id="DejaVuSans-64" d="M 2906 2969 
L 2906 4863 
L 3481 4863 
L 3481 0 
L 2906 0 
L 2906 525 
Q 2725 213 2448 61 
Q 2172 -91 1784 -91 
Q 1150 -91 751 415 
Q 353 922 353 1747 
Q 353 2572 751 3078 
Q 1150 3584 1784 3584 
Q 2172 3584 2448 3432 
Q 2725 3281 2906 2969 
z
M 947 1747 
Q 947 1113 1208 752 
Q 1469 391 1925 391 
Q 2381 391 2643 752 
Q 2906 1113 2906 1747 
Q 2906 2381 2643 2742 
Q 2381 3103 1925 3103 
Q 1469 3103 1208 2742 
Q 947 2381 947 1747 
z
" transform="scale(0.015625)"/>
       <path id="DejaVuSans-66" d="M 2375 4863 
L 2375 4384 
L 1825 4384 
Q 1516 4384 1395 4259 
Q 1275 4134 1275 3809 
L 1275 3500 
L 2222 3500 
L 2222 3053 
L 1275 3053 
L 1275 0 
L 697 0 
L 697 3053 
L 147 3053 
L 147 3500 
L 697 3500 
L 697 3744 
Q 697 4328 969 4595 
Q 1241 4863 1831 4863 
L 2375 4863 
z
" transform="scale(0.015625)"/>
       <path id="DejaVuSans-72" d="M 2631 2963 
Q 2534 3019 2420 3045 
Q 2306 3072 2169 3072 
Q 1681 3072 1420 2755 
Q 1159 2438 1159 1844 
L 1159 0 
L 581 0 
L 581 3500 
L 1159 3500 
L 1159 2956 
Q 1341 3275 1631 3429 
Q 1922 3584 2338 3584 
Q 2397 3584 2469 3576 
Q 2541 3569 2628 3553 
L 2631 2963 
z
" transform="scale(0.015625)"/>
      </defs>
      <use xlink:href="#DejaVuSans-4c"/>
      <use xlink:href="#DejaVuSans-69" x="55.712891"/>
      <use xlink:href="#DejaVuSans-6b" x="83.496094"/>
      <use xlink:href="#DejaVuSans-65" x="137.78125"/>
      <use xlink:href="#DejaVuSans-6c" x="199.304688"/>
      <use xlink:href="#DejaVuSans-69" x="227.087891"/>
      <use xlink:href="#DejaVuSans-68" x="254.871094"/>
      <use xlink:href="#DejaVuSans-6f" x="318.25"/>
      <use xlink:href="#DejaVuSans-6f" x="379.431641"/>
      <use xlink:href="#DejaVuSans-64" x="440.613281"/>
      <use xlink:href="#DejaVuSans-20" x="504.089844"/>
      <use xlink:href="#DejaVuSans-6f" x="535.876953"/>
      <use xlink:href="#DejaVuSans-66" x="597.058594"/>
      <use xlink:href="#DejaVuSans-20" x="632.263672"/>
      <use xlink:href="#DejaVuSans-6f" x="664.050781"/>
      <use xlink:href="#DejaVuSans-63" x="725.232422"/>
      <use xlink:href="#DejaVuSans-63" x="780.212891"/>
      <use xlink:href="#DejaVuSans-75" x="835.193359"/>
      <use xlink:href="#DejaVuSans-72" x="898.572266"/>
      <use xlink:href="#DejaVuSans-72" x="937.935547"/>
      <use xlink:href="#DejaVuSans-65" x="976.798828"/>
      <use xlink:href="#DejaVuSans-6e" x="1038.322266"/>
      <use xlink:href="#DejaVuSans-63" x="1101.701172"/>
      <use xlink:href="#DejaVuSans-65" x="1156.681641"/>
     </g>
    </g>
   </g>
   <g id="line2d_38">
    <path d="M 160.503147 576.72 
L 162.863917 576.621391 
L 177.329194 576.424174 
L 183.979281 576.226957 
L 191.331807 575.93113 
L 191.980774 575.733913 
L 192.221675 575.536696 
L 192.712481 575.438087 
L 195.67927 575.24087 
L 195.894842 575.142261 
L 198.460318 574.846435 
L 198.845871 574.747826 
L 200.064444 574.550609 
L 200.28677 574.452 
L 201.830108 574.254783 
L 204.774946 573.66313 
L 206.111155 573.367304 
L 208.117157 573.170087 
L 208.127288 573.071478 
L 210.337042 572.775652 
L 213.698953 572.282609 
L 214.289946 571.789565 
L 215.466868 571.592348 
L 217.213396 571.197913 
L 217.722213 570.803478 
L 218.892381 570.507652 
L 219.133844 570.409043 
L 220.032155 570.211826 
L 220.095757 570.113217 
L 220.316957 570.014609 
L 221.83947 569.817391 
L 222.182809 569.620174 
L 223.835341 569.422957 
L 223.936091 569.225739 
L 224.720706 569.028522 
L 225.785057 568.535478 
L 226.110385 568.338261 
L 226.282055 568.141043 
L 226.664231 567.943826 
L 226.666482 567.845217 
L 227.894061 567.253565 
L 228.049971 566.957739 
L 228.790683 566.760522 
L 229.298375 566.070261 
L 229.724453 565.774435 
L 230.002502 565.577217 
L 230.558036 565.38 
L 230.725766 565.281391 
L 230.815822 564.985565 
L 231.196872 564.59113 
L 232.417134 564.393913 
L 232.63946 564.295304 
L 233.219197 564.098087 
L 234.218258 563.407826 
L 234.257657 563.210609 
L 234.697807 563.013391 
L 234.701747 562.914783 
L 235.030452 562.618957 
L 235.034955 562.520348 
L 235.633828 562.125913 
L 235.702496 561.928696 
L 236.320507 561.435652 
L 236.592927 560.844 
L 236.858593 560.646783 
L 236.872101 560.548174 
L 238.393488 560.252348 
L 238.520692 560.05513 
L 238.555026 559.956522 
L 239.136452 559.759304 
L 239.261405 559.463478 
L 240.224443 558.970435 
L 240.536263 558.576 
L 240.581854 558.181565 
L 240.681478 557.885739 
L 240.68373 557.78713 
L 242.769657 556.209391 
L 242.855773 556.012174 
L 243.00718 555.814957 
L 243.214309 555.617739 
L 243.340388 555.420522 
L 243.682038 555.124696 
L 243.783352 554.927478 
L 244.338886 554.631652 
L 244.603989 554.237217 
L 244.850518 554.04 
L 245.085789 553.744174 
L 245.092544 553.645565 
L 245.312618 553.448348 
L 245.476408 553.152522 
L 245.95652 552.166435 
L 246.27228 551.476174 
L 246.27622 551.377565 
L 246.675844 551.081739 
L 246.720872 550.884522 
L 247.192542 550.490087 
L 248.265899 549.701217 
L 248.531565 549.504 
L 248.823122 548.813739 
L 249.058393 548.616522 
L 249.355016 548.222087 
L 249.556517 547.926261 
L 249.844697 547.729043 
L 249.974152 547.531826 
L 250.257267 547.137391 
L 250.610737 546.940174 
L 250.656328 546.841565 
L 250.847698 546.644348 
L 250.8522 546.545739 
L 251.593475 546.052696 
L 252.071336 545.855478 
L 252.339816 545.559652 
L 252.372462 545.461043 
L 252.740003 545.165217 
L 252.830623 544.968 
L 253.840941 544.474957 
L 254.681277 543.587478 
L 254.901352 543.390261 
L 255.437187 542.7 
L 255.622365 542.601391 
L 256.113734 542.404174 
L 256.575835 542.206957 
L 257.061575 541.91113 
L 257.291781 541.713913 
L 257.631181 541.418087 
L 258.124801 541.22087 
L 258.127053 541.122261 
L 258.79178 540.727826 
L 258.796846 540.629217 
L 259.009604 540.432 
L 259.71373 540.234783 
L 259.858946 540.037565 
L 259.87752 539.938957 
L 260.534368 539.64313 
L 260.709977 539.248696 
L 261.036431 538.95287 
L 261.137744 538.854261 
L 261.672453 538.657043 
L 262.298906 537.966783 
L 263.086898 537.572348 
L 263.711663 537.177913 
L 263.780894 537.079304 
L 264.321231 536.882087 
L 264.434927 536.68487 
L 264.794589 536.487652 
L 264.850874 536.389043 
L 265.246558 536.093217 
L 265.912411 535.10713 
L 266.101529 534.712696 
L 266.331735 534.41687 
L 266.33455 534.318261 
L 266.467945 534.219652 
L 268.113722 533.628 
L 268.628731 533.332174 
L 268.816161 532.83913 
L 269.055373 532.543304 
L 269.425166 532.14887 
L 269.630044 531.853043 
L 269.975071 531.557217 
L 270.29646 531.064174 
L 270.764752 530.472522 
L 270.834545 530.373913 
L 271.398522 530.078087 
L 271.552744 529.88087 
L 272.571504 528.894783 
L 272.899084 528.697565 
L 273.061185 528.30313 
L 273.191766 528.105913 
L 273.940921 526.528174 
L 274.325912 526.330957 
L 274.424411 526.133739 
L 274.472253 525.739304 
L 275.392515 525.049043 
L 275.493265 524.753217 
L 277.102457 522.781043 
L 277.181256 522.583826 
L 277.627034 522.386609 
L 278.385195 521.400522 
L 278.654238 521.203304 
L 278.70996 520.80887 
L 278.929472 520.414435 
L 278.95874 520.217217 
L 279.253674 519.921391 
L 279.411273 519.724174 
L 279.574499 519.428348 
L 279.961741 518.343652 
L 280.306769 518.146435 
L 280.621966 517.850609 
L 280.806018 517.456174 
L 280.874123 517.258957 
L 281.104329 517.061739 
L 281.198888 516.864522 
L 281.456111 516.667304 
L 281.595135 516.371478 
L 282.051608 515.582609 
L 282.157987 515.188174 
L 282.40733 514.990957 
L 282.994946 514.793739 
L 283.114834 514.497913 
L 283.3608 514.202087 
L 283.476747 513.709043 
L 283.727216 513.018783 
L 284.050855 512.624348 
L 284.599073 511.934087 
L 284.937909 511.441043 
L 285.154607 510.849391 
L 285.868865 509.764696 
L 286.105262 509.46887 
L 286.359671 508.975826 
L 286.451416 508.778609 
L 286.539784 508.482783 
L 286.643911 507.989739 
L 286.860609 507.595304 
L 286.99907 507.20087 
L 287.27149 506.707826 
L 287.391378 506.412 
L 287.566424 506.017565 
L 288.324585 504.637043 
L 288.447849 504.439826 
L 288.519331 504.144 
L 288.713515 503.749565 
L 289.407511 501.777391 
L 289.717642 501.481565 
L 290.000756 500.791304 
L 290.043533 500.495478 
L 290.302444 500.199652 
L 290.390249 499.903826 
L 290.704883 499.608 
L 290.807322 499.509391 
L 291.178241 499.312174 
L 291.579554 498.12887 
L 291.718578 497.931652 
L 291.937527 497.734435 
L 292.115951 497.142783 
L 292.436776 496.945565 
L 292.454787 496.846957 
L 292.604506 496.649739 
L 292.620828 496.55113 
L 292.801504 496.353913 
L 293.019327 495.762261 
L 293.093061 495.663652 
L 293.357601 495.466435 
L 293.80957 494.480348 
L 293.987994 494.085913 
L 294.093247 493.790087 
L 294.180489 493.198435 
L 294.324016 493.001217 
L 294.42139 492.606783 
L 294.613322 492.310957 
L 294.716887 492.01513 
L 294.724766 491.817913 
L 295.127768 491.423478 
L 295.306755 490.930435 
L 295.391745 490.634609 
L 295.492496 490.240174 
L 295.74015 489.944348 
L 295.933208 489.74713 
L 297.671293 485.802783 
L 297.925701 485.21113 
L 297.994932 484.816696 
L 298.143525 484.619478 
L 298.24709 484.126435 
L 298.273544 484.027826 
L 298.695119 483.732 
L 298.700185 483.633391 
L 298.872417 483.436174 
L 299.05647 483.041739 
L 299.620447 481.957043 
L 299.751028 481.661217 
L 299.924386 481.266783 
L 300.174292 481.069565 
L 300.381421 480.280696 
L 300.484423 479.98487 
L 300.682547 478.801565 
L 300.790051 478.308522 
L 301.288738 476.829391 
L 301.515004 476.632174 
L 301.602246 476.336348 
L 301.629826 476.040522 
L 301.800369 475.941913 
L 301.921382 475.44887 
L 302.072227 475.153043 
L 302.15384 474.561391 
L 302.362095 474.265565 
L 302.525322 473.87113 
L 302.739768 473.378087 
L 302.976166 472.687826 
L 303.110124 472.293391 
L 303.530011 470.814261 
L 303.822131 470.025391 
L 304.05684 469.236522 
L 304.18911 469.039304 
L 304.207684 468.743478 
L 304.347271 468.546261 
L 304.486296 468.053217 
L 304.515001 467.954609 
L 304.804869 467.658783 
L 305.045207 466.771304 
L 305.346895 465.489391 
L 305.869221 463.024174 
L 306.069033 462.826957 
L 306.755712 460.361739 
L 306.88967 460.164522 
L 306.976912 459.671478 
L 307.085543 459.079826 
L 307.2983 458.389565 
L 307.525692 457.896522 
L 307.677099 457.403478 
L 307.925317 456.910435 
L 308.024379 456.417391 
L 308.184228 456.022957 
L 309.222126 452.177217 
L 309.328505 451.98 
L 309.49342 450.993913 
L 310.374282 449.120348 
L 310.6028 448.725913 
L 310.734507 448.23287 
L 311.636758 444.682957 
L 311.890041 444.38713 
L 311.972217 443.894087 
L 312.121373 443.302435 
L 312.271091 442.809391 
L 312.545763 441.921913 
L 313.320809 440.048348 
L 313.403548 439.555304 
L 313.48685 439.358087 
L 313.580846 438.766435 
L 313.832441 438.372 
L 313.978782 438.174783 
L 314.090226 437.484522 
L 314.41274 436.202609 
L 314.630564 435.709565 
L 314.849513 434.822087 
L 315.14501 433.638783 
L 315.382533 433.145739 
L 315.534503 432.554087 
L 316.523432 429.595826 
L 316.753638 429.398609 
L 316.809361 429.102783 
L 316.959079 428.905565 
L 317.085158 428.412522 
L 317.256265 427.426435 
L 317.339567 427.032 
L 317.614238 425.355652 
L 317.723994 424.961217 
L 317.884407 424.369565 
L 318.054951 424.172348 
L 318.255326 423.482087 
L 318.839565 422.101565 
L 318.97071 421.608522 
L 319.113674 421.01687 
L 319.253824 420.523826 
L 319.430559 419.932174 
L 319.439565 419.833565 
L 319.591534 419.636348 
L 319.817801 418.650261 
L 319.917988 418.453043 
L 320.031684 417.96 
L 320.19266 417.762783 
L 321.188343 413.917043 
L 321.456823 413.522609 
L 321.608793 412.437913 
L 321.872208 411.846261 
L 322.041063 410.958783 
L 322.357948 410.36713 
L 322.418173 410.071304 
L 322.540312 409.874087 
L 322.694533 409.479652 
L 322.801475 408.986609 
L 322.919111 408.592174 
L 323.011981 408.000522 
L 323.273707 407.606087 
L 323.329992 407.211652 
L 323.460574 407.014435 
L 323.524739 406.521391 
L 323.661512 406.324174 
L 323.819673 405.83113 
L 323.985714 404.943652 
L 324.322862 404.647826 
L 325.618546 399.914609 
L 325.716482 399.618783 
L 325.830741 399.322957 
L 326.210665 397.843826 
L 326.535993 397.548 
L 326.937869 396.06887 
L 327.075767 395.477217 
L 327.202409 395.082783 
L 327.310476 394.589739 
L 327.583459 393.80087 
L 327.764135 393.307826 
L 328.21723 391.53287 
L 328.350063 391.237043 
L 328.499781 390.645391 
L 328.613477 390.349565 
L 328.616854 390.152348 
L 328.8707 389.856522 
L 329.116103 388.969043 
L 329.460005 386.99687 
L 329.59903 386.701043 
L 329.721168 386.109391 
L 329.906909 385.912174 
L 330.469198 384.334435 
L 330.873325 382.953913 
L 330.994338 382.658087 
L 331.072011 382.362261 
L 331.305595 381.277565 
L 331.71929 379.206783 
L 331.832423 378.910957 
L 331.982705 378.516522 
L 332.089646 378.319304 
L 332.280453 377.431826 
L 332.364318 377.136 
L 332.830359 376.149913 
L 333.025105 375.65687 
L 333.093773 375.459652 
L 333.444429 375.163826 
L 333.577262 374.966609 
L 333.625105 374.670783 
L 333.760752 374.473565 
L 333.91441 374.07913 
L 334.128856 373.290261 
L 334.249869 372.895826 
L 334.397899 372.6 
L 334.665254 372.008348 
L 334.890957 371.515304 
L 335.020413 371.022261 
L 337.510467 364.021043 
L 337.903337 363.725217 
L 338.033356 363.330783 
L 338.225288 363.034957 
L 338.529227 362.04887 
L 338.637858 361.753043 
L 338.693017 361.457217 
L 338.870878 361.26 
L 339.034668 360.372522 
L 339.186075 360.175304 
L 339.505774 359.485043 
L 339.792829 358.597565 
L 340.324723 358.301739 
L 340.393954 357.414261 
L 340.562246 357.118435 
L 340.806524 356.132348 
L 340.901083 355.639304 
L 341.006336 355.146261 
L 341.1099 354.850435 
L 341.122846 354.653217 
L 341.283259 354.456 
L 341.373878 354.061565 
L 341.7099 353.469913 
L 342.090387 352.188 
L 342.399393 351.892174 
L 342.605959 351.39913 
L 342.723032 351.004696 
L 342.910462 350.511652 
L 343.080443 350.117217 
L 343.171625 349.821391 
L 343.33654 349.525565 
L 343.563369 348.736696 
L 343.653425 348.44087 
L 344.095263 347.257565 
L 344.319841 347.060348 
L 345.327345 345.285391 
L 345.431472 344.59513 
L 345.62453 344.102087 
L 345.732598 343.90487 
L 345.842354 343.510435 
L 345.95999 343.214609 
L 346.112522 342.721565 
L 346.213273 342.524348 
L 346.384942 342.031304 
L 346.827343 340.552174 
L 347.028281 340.157739 
L 347.427906 338.777217 
L 347.555673 338.58 
L 347.931658 338.086957 
L 348.217586 337.692522 
L 348.425841 337.10087 
L 348.688692 336.410609 
L 349.052294 335.030087 
L 349.230718 334.537043 
L 349.309517 334.241217 
L 349.44235 333.846783 
L 349.677622 332.860696 
L 350.067678 331.874609 
L 350.076121 331.776 
L 350.305764 331.578783 
L 350.566927 331.085739 
L 350.617584 330.691304 
L 350.750417 330.494087 
L 350.86355 330.001043 
L 350.986251 329.705217 
L 351.322273 328.71913 
L 351.678558 327.338609 
L 352.717019 324.972 
L 352.768238 324.577565 
L 353.109326 324.18313 
L 353.125086 324.084522 
L 353.523022 323.690087 
L 353.695817 323.394261 
L 353.842158 322.999826 
L 354.110076 322.704 
L 354.257543 322.112348 
L 354.35773 321.91513 
L 354.659418 321.619304 
L 354.732589 321.126261 
L 354.90651 320.633217 
L 355.417579 318.463826 
L 355.684371 318.168 
L 355.89544 317.576348 
L 356.198817 316.886087 
L 356.308573 316.491652 
L 356.593938 316.195826 
L 356.732962 315.801391 
L 356.859604 315.604174 
L 356.967671 315.012522 
L 357.510823 314.125043 
L 357.651536 313.533391 
L 358.623017 312.054261 
L 358.83296 311.659826 
L 359.007444 311.462609 
L 359.151534 311.166783 
L 359.154911 311.068174 
L 359.453785 310.772348 
L 359.552284 310.279304 
L 359.771796 309.983478 
L 359.846656 309.687652 
L 360.114573 309.490435 
L 360.25022 309.096 
L 360.441589 308.701565 
L 360.564291 308.405739 
L 360.992621 307.912696 
L 361.0596 307.61687 
L 361.19975 307.222435 
L 361.209881 307.123826 
L 361.47611 306.828 
L 361.659599 305.743304 
L 361.812132 305.447478 
L 362.515133 303.672522 
L 362.765039 303.376696 
L 363.085302 302.982261 
L 363.194495 302.785043 
L 363.704438 302.094783 
L 363.861473 301.700348 
L 364.147965 301.404522 
L 364.251529 301.108696 
L 364.528452 300.714261 
L 364.804812 299.728174 
L 364.956219 299.432348 
L 365.148151 299.136522 
L 365.352466 298.939304 
L 365.434643 298.742087 
L 365.783048 298.051826 
L 366.029014 297.756 
L 366.225449 297.262957 
L 366.424698 297.065739 
L 366.471978 296.868522 
L 366.667287 296.474087 
L 366.757906 296.27687 
L 367.08436 295.586609 
L 367.162596 295.290783 
L 367.868974 294.600522 
L 368.055841 294.304696 
L 368.431826 293.022783 
L 368.526385 292.825565 
L 368.888861 292.43113 
L 368.993551 291.938087 
L 369.201806 291.74087 
L 369.397115 291.346435 
L 369.438204 291.149217 
L 369.649273 290.853391 
L 369.756215 290.656174 
L 369.849648 290.458957 
L 369.997115 289.965913 
L 370.318503 289.47287 
L 370.827883 288.486783 
L 371.03839 288.190957 
L 371.258465 287.89513 
L 371.337827 287.599304 
L 371.546644 287.402087 
L 371.620378 287.106261 
L 371.764468 286.613217 
L 372.332948 284.542435 
L 372.52488 284.345217 
L 372.604242 283.950783 
L 372.767469 283.654957 
L 373.088857 282.866087 
L 373.327506 282.66887 
L 373.336511 282.570261 
L 373.473847 282.373043 
L 373.474973 282.274435 
L 373.624128 282.077217 
L 373.90668 281.386957 
L 374.174597 281.189739 
L 374.329944 280.598087 
L 374.581538 280.105043 
L 374.953583 279.020348 
L 375.184352 278.82313 
L 375.820937 276.949565 
L 376.186227 276.160696 
L 376.391105 275.766261 
L 376.691105 275.273217 
L 376.693356 275.174609 
L 376.85208 274.977391 
L 376.979847 274.385739 
L 377.096358 274.089913 
L 377.210054 273.695478 
L 377.416057 273.498261 
L 377.780222 272.906609 
L 377.923749 272.709391 
L 378.161835 272.512174 
L 378.271028 272.216348 
L 379.196919 270.046957 
L 379.833503 268.863652 
L 380.132377 268.272 
L 380.368212 267.778957 
L 380.465585 267.285913 
L 380.614178 266.990087 
L 380.853953 266.694261 
L 380.895604 266.497043 
L 381.11005 266.299826 
L 381.348136 265.708174 
L 381.562582 265.21513 
L 381.929561 264.229043 
L 382.194101 263.933217 
L 382.290912 263.736 
L 382.313989 263.538783 
L 382.718116 263.242957 
L 382.773275 263.045739 
L 383.331624 262.651304 
L 383.342318 262.552696 
L 383.617552 262.355478 
L 383.793162 262.158261 
L 384.028996 261.566609 
L 384.361079 260.876348 
L 384.659953 260.67913 
L 384.986406 259.98887 
L 385.047194 259.890261 
L 385.485093 259.693043 
L 385.967456 259.2 
L 385.998976 259.002783 
L 386.147006 258.805565 
L 386.29785 258.509739 
L 386.593347 258.115304 
L 386.71042 257.72087 
L 387.303665 256.932 
L 387.463515 256.537565 
L 387.679087 256.14313 
L 387.686404 256.044522 
L 387.860888 255.847304 
L 387.95995 255.551478 
L 388.320174 255.255652 
L 388.441187 255.058435 
L 388.541938 254.664 
L 388.790155 254.368174 
L 389.704226 252.593217 
L 390.160135 251.60713 
L 390.641936 251.311304 
L 391.083211 250.621043 
L 391.391091 250.423826 
L 391.530678 250.128 
L 391.631428 249.733565 
L 392.006287 249.240522 
L 392.402534 248.155826 
L 392.764448 247.86 
L 392.972703 247.268348 
L 393.389213 247.07113 
L 394.057317 246.085043 
L 394.483396 245.000348 
L 394.822232 244.80313 
L 395.051875 244.408696 
L 395.119417 244.11287 
L 395.468948 243.915652 
L 395.881518 243.521217 
L 396.165195 243.126783 
L 396.267634 242.830957 
L 396.928984 242.337913 
L 397.029735 242.042087 
L 397.264444 241.647652 
L 397.271198 241.549043 
L 397.69221 241.253217 
L 398.221853 240.562957 
L 398.353561 240.365739 
L 399.343053 239.478261 
L 399.37007 239.379652 
L 399.628982 239.083826 
L 400.08264 238.492174 
L 400.407405 238.196348 
L 400.504215 237.900522 
L 400.714722 237.703304 
L 400.868943 237.30887 
L 400.895397 237.013043 
L 401.221288 236.815826 
L 401.228605 236.717217 
L 401.367066 236.52 
L 401.480199 236.224174 
L 401.995771 235.139478 
L 402.590142 234.745043 
L 402.616033 234.646435 
L 403.102899 234.252 
L 403.271192 234.054783 
L 403.416408 233.561739 
L 403.559935 233.265913 
L 404.629352 231.786783 
L 405.186012 231.096522 
L 405.766874 230.702087 
L 405.768 230.603478 
L 406.302709 230.110435 
L 406.362934 230.011826 
L 406.774941 229.716 
L 406.949425 229.420174 
L 407.73404 228.631304 
L 408.185446 228.434087 
L 408.1922 228.335478 
L 408.37175 228.138261 
L 408.379067 228.039652 
L 408.529348 227.842435 
L 408.594639 227.645217 
L 409.105708 227.349391 
L 409.194076 227.053565 
L 409.318466 226.461913 
L 409.478878 225.96887 
L 409.845857 225.18 
L 410.241542 224.686957 
L 410.618089 224.292522 
L 410.887132 224.095304 
L 411.121278 223.799478 
L 411.175312 223.405043 
L 411.600828 223.010609 
L 411.63291 222.912 
L 412.035349 222.714783 
L 412.060114 222.616174 
L 412.299889 222.418957 
L 412.326906 222.12313 
L 412.47775 221.827304 
L 412.559926 221.43287 
L 412.729344 221.038435 
L 412.947731 220.150957 
L 413.866867 218.869043 
L 413.879249 218.770435 
L 414.044165 218.573217 
L 414.173621 218.178783 
L 414.451106 217.981565 
L 415.653919 216.89687 
L 415.908891 216.699652 
L 416.182437 216.009391 
L 416.918646 215.516348 
L 417.244537 214.530261 
L 417.440409 214.333043 
L 417.591816 213.84 
L 417.63009 213.741391 
L 418.031403 213.445565 
L 418.496318 212.853913 
L 418.761421 212.459478 
L 419.237593 212.262261 
L 419.612452 211.572 
L 419.855604 211.374783 
L 420.418455 211.177565 
L 421.186184 210.78313 
L 421.497441 210.388696 
L 422.576427 209.501217 
L 422.656915 209.008174 
L 422.931023 208.810957 
L 423.085807 208.317913 
L 423.364981 208.120696 
L 423.556351 207.82487 
L 424.201378 207.430435 
L 424.594249 206.937391 
L 424.812635 206.740174 
L 424.963479 206.24713 
L 425.760476 205.261043 
L 426.056536 204.866609 
L 426.387493 204.472174 
L 426.552971 204.373565 
L 426.999875 204.176348 
L 427.021263 204.077739 
L 427.215447 203.880522 
L 427.244715 203.781913 
L 427.54978 203.584696 
L 427.590306 203.486087 
L 428.194245 203.28887 
L 428.350718 202.894435 
L 428.482425 202.5 
L 428.646215 202.302783 
L 428.825764 201.809739 
L 429.086364 201.415304 
L 429.379047 201.218087 
L 429.649216 200.823652 
L 430.000435 200.626435 
L 430.212067 200.232 
L 430.349403 200.034783 
L 430.356157 199.936174 
L 431.23533 199.44313 
L 431.874167 199.245913 
L 432.495554 197.766783 
L 432.840582 197.569565 
L 433.191801 197.372348 
L 433.573977 197.17513 
L 434.399117 195.794609 
L 434.673789 195.597391 
L 434.678854 195.498783 
L 435.188798 195.301565 
L 435.328948 194.90713 
L 435.7539 194.512696 
L 435.787108 194.414087 
L 436.22557 194.118261 
L 436.496301 193.723826 
L 436.926882 193.230783 
L 437.318627 192.836348 
L 437.627069 192.63913 
L 437.738514 192.441913 
L 439.701739 190.666957 
L 440.488605 190.272522 
L 441.306428 189.385043 
L 441.836071 189.187826 
L 441.93851 188.990609 
L 442.232881 188.793391 
L 442.30774 188.694783 
L 442.595357 188.497565 
L 442.617871 188.398957 
L 442.923499 188.10313 
L 443.060272 187.708696 
L 443.435131 187.511478 
L 443.826313 187.117043 
L 444.004174 186.919826 
L 444.583911 186.722609 
L 446.123872 184.356 
L 446.187474 184.158783 
L 447.054828 183.468522 
L 447.574902 183.271304 
L 447.741506 182.87687 
L 448.116365 182.679652 
L 448.140568 182.482435 
L 448.519929 182.285217 
L 449.519553 181.989391 
L 449.688971 181.792174 
L 449.810547 181.693565 
L 450.840565 181.29913 
L 451.715236 180.707478 
L 452.332121 180.510261 
L 452.652946 180.313043 
L 453.415609 179.918609 
L 453.503977 179.82 
L 454.34938 179.425565 
L 454.526678 179.326957 
L 454.976396 179.129739 
L 455.70754 178.439478 
L 456.464012 178.045043 
L 457.340934 177.256174 
L 457.620108 177.058957 
L 457.907725 176.664522 
L 458.065886 176.467304 
L 458.448625 176.270087 
L 458.574141 176.07287 
L 459.500031 175.875652 
L 459.889524 175.579826 
L 460.157442 175.284 
L 460.270575 175.185391 
L 460.765884 174.988174 
L 461.006221 174.593739 
L 461.302281 174.396522 
L 461.455377 174.199304 
L 462.560254 173.903478 
L 462.639053 173.706261 
L 463.293649 173.311826 
L 463.416913 173.016 
L 463.665694 172.818783 
L 463.768132 172.621565 
L 463.839052 172.522957 
L 464.497588 172.22713 
L 465.005842 171.53687 
L 465.411658 171.241043 
L 466.302652 171.043826 
L 466.715784 170.550783 
L 468.336796 170.057739 
L 468.559685 169.860522 
L 468.601899 169.761913 
L 469.054431 169.564696 
L 469.371879 169.26887 
L 470.026475 169.071652 
L 470.659683 168.578609 
L 471.376756 168.184174 
L 471.448801 168.085565 
L 471.680132 167.888348 
L 471.81578 167.69113 
L 471.953678 167.395304 
L 472.927411 166.902261 
L 473.020844 166.705043 
L 473.634352 165.817565 
L 473.637729 165.718957 
L 473.878067 165.521739 
L 473.930975 165.42313 
L 475.450673 164.831478 
L 475.715776 164.634261 
L 476.373186 164.437043 
L 476.490259 164.338435 
L 478.464178 163.648174 
L 478.678062 163.450957 
L 479.751982 163.253739 
L 479.776748 163.15513 
L 481.137159 162.366261 
L 481.194007 162.267652 
L 481.522149 162.070435 
L 481.683125 161.873217 
L 482.039972 161.676 
L 483.695881 161.281565 
L 483.757794 161.084348 
L 484.194567 160.88713 
L 484.575054 160.591304 
L 485.552164 160.394087 
L 485.620269 160.295478 
L 487.790061 159.999652 
L 487.790624 159.901043 
L 488.373175 159.408 
L 488.913512 159.210783 
L 488.929272 159.112174 
L 489.645781 158.717739 
L 490.153473 158.520522 
L 490.73715 158.126087 
L 493.06454 156.942783 
L 493.087617 156.844174 
L 494.249342 156.35113 
L 494.735645 156.153913 
L 494.830767 155.956696 
L 495.225889 155.858087 
L 496.780484 155.66087 
L 497.503748 155.365043 
L 497.527387 155.266435 
L 498.801683 154.970609 
L 499.051026 154.773391 
L 499.097742 154.674783 
L 499.802995 154.477565 
L 500.425508 153.984522 
L 500.790236 153.590087 
L 501.929447 153.39287 
L 501.991923 153.294261 
L 502.985919 153.097043 
L 502.999427 152.998435 
L 504.083479 152.702609 
L 504.112184 152.505391 
L 505.02738 152.209565 
L 506.384414 152.012348 
L 506.665277 151.81513 
L 507.895107 151.420696 
L 508.230567 151.223478 
L 508.233381 151.12487 
L 511.267712 150.533217 
L 511.415179 150.434609 
L 513.088536 149.941565 
L 516.141441 149.645739 
L 516.249508 149.54713 
L 517.102228 149.349913 
L 517.925679 148.955478 
L 518.251007 148.758261 
L 519.574833 148.363826 
L 521.749128 148.166609 
L 521.887026 148.068 
L 522.597345 147.870783 
L 522.680084 147.772174 
L 523.321734 147.574957 
L 524.624735 147.377739 
L 524.744622 147.180522 
L 524.823984 147.081913 
L 525.377267 146.983304 
L 527.162068 146.786087 
L 527.469948 146.490261 
L 529.139927 146.194435 
L 529.213661 145.8 
L 529.984767 145.701391 
L 533.139548 145.504174 
L 534.958684 145.01113 
L 536.953991 144.813913 
L 538.635791 144.32087 
L 538.933539 144.222261 
L 540.183069 144.025043 
L 541.355488 143.729217 
L 543.539351 143.433391 
L 543.749857 143.236174 
L 546.161675 142.940348 
L 549.867487 142.74313 
L 552.836528 142.348696 
L 552.897879 142.250087 
L 554.48737 141.855652 
L 556.726393 141.658435 
L 557.132771 141.461217 
L 559.18155 141.264 
L 561.263537 140.968174 
L 563.695054 140.672348 
L 566.005558 140.47513 
L 569.327506 139.78487 
L 569.499739 139.686261 
L 573.640073 139.094609 
L 573.766714 138.996 
L 576.889976 138.601565 
L 579.466146 138.009913 
L 579.908547 137.51687 
L 584.670269 137.122435 
L 585.299536 137.023826 
L 587.798596 136.826609 
L 589.729738 136.530783 
L 599.469879 135.840522 
L 599.555995 135.741913 
L 617.772676 134.361391 
L 620.704568 134.164174 
L 624.486928 133.868348 
L 624.670418 133.67113 
L 628.020509 133.079478 
L 631.300243 132.882261 
L 631.485984 132.783652 
L 636.536448 132.487826 
L 636.598362 132.389217 
L 638.718059 132.192 
L 639.316933 132.093391 
L 644.666834 131.797565 
L 652.273206 131.600348 
L 653.243561 131.40313 
L 669.476191 130.614261 
L 670.6109 130.417043 
L 676.991381 130.219826 
L 682.25404 129.924 
L 695.509187 129.529565 
L 706.431878 129.332348 
L 706.642948 129.233739 
L 710.235064 129.13513 
L 719.442185 129.036522 
L 719.442185 129.036522 
" clip-path="url(#pedf2d8d3cf)" style="fill: none; stroke: #ff0000; stroke-width: 1.5; stroke-linecap: square"/>
   </g>
   <g id="line2d_39">
    <path d="M 155.868067 576.72 
L 158.228837 576.624926 
L 168.207626 576.434777 
L 176.480977 576.149554 
L 177.738386 575.86433 
L 177.751332 575.769256 
L 179.62619 575.579107 
L 179.824876 575.388958 
L 181.476282 575.198809 
L 182.094855 575.103735 
L 182.125249 574.818512 
L 183.338193 574.248065 
L 183.467086 574.057917 
L 183.678718 573.962842 
L 184.48641 573.772693 
L 184.683971 573.582545 
L 185.547947 573.202247 
L 186.102919 573.012098 
L 186.156953 572.917024 
L 186.737815 572.6318 
L 187.268021 572.346577 
L 187.278152 572.251503 
L 187.705919 571.96628 
L 187.934437 571.681056 
L 187.958077 571.585982 
L 188.620552 571.205684 
L 188.631809 571.015536 
L 188.967832 570.825387 
L 189.673084 570.445089 
L 190.202164 570.064791 
L 190.376085 569.589419 
L 190.689031 569.399271 
L 190.833684 569.304196 
L 191.613795 569.018973 
L 191.626178 568.923899 
L 191.939686 568.638675 
L 191.944189 568.543601 
L 192.239123 568.258378 
L 192.26614 568.163303 
L 192.733306 567.973154 
L 193.789778 567.02241 
L 194.111166 566.642113 
L 194.488277 566.451964 
L 194.644749 566.261815 
L 194.85413 565.881518 
L 195.255443 565.691369 
L 195.821671 564.835699 
L 196.266324 564.64555 
L 196.510038 564.360327 
L 196.719982 563.980029 
L 197.116229 563.599732 
L 197.230488 563.409583 
L 197.509662 563.029285 
L 198.017917 562.648988 
L 198.027485 562.553913 
L 198.307222 562.363764 
L 198.445684 562.078541 
L 198.984332 561.793318 
L 199.103657 561.508095 
L 199.705345 560.652425 
L 200.086958 560.272127 
L 200.184894 560.081979 
L 200.261442 559.986904 
L 200.860878 559.701681 
L 201.259377 559.416458 
L 201.426544 559.226309 
L 201.559377 558.750937 
L 202.310783 557.705118 
L 203.050933 557.134672 
L 203.166317 556.6593 
L 203.412283 556.469151 
L 203.527105 556.183928 
L 204.811531 554.187365 
L 204.892582 553.807068 
L 205.158811 553.42677 
L 205.276446 553.141547 
L 205.901211 552.285877 
L 206.113406 552.000654 
L 206.140986 551.90558 
L 206.613218 551.715431 
L 206.837233 551.525282 
L 206.955995 550.954835 
L 207.061811 550.669612 
L 207.52166 550.099166 
L 207.666313 549.813943 
L 207.891453 549.623794 
L 208.324286 548.863198 
L 208.659182 548.387826 
L 208.748676 548.102603 
L 208.916405 547.437082 
L 209.074567 547.151859 
L 209.233854 546.771562 
L 209.666686 546.391264 
L 209.778131 546.201115 
L 209.877193 545.725743 
L 210.006086 545.44052 
L 210.045485 545.250371 
L 210.630288 544.965148 
L 210.738918 544.58485 
L 210.836291 544.299627 
L 211.096328 544.014404 
L 211.443045 543.72918 
L 211.61584 543.253808 
L 211.978879 542.303064 
L 212.47644 542.017841 
L 212.593513 541.732618 
L 213.185632 540.972023 
L 213.458052 540.591725 
L 213.480003 540.496651 
L 213.93141 539.926204 
L 214.070434 539.545907 
L 214.302329 539.165609 
L 214.726156 538.785311 
L 214.86518 538.214865 
L 215.855236 536.503525 
L 215.975686 536.313377 
L 216.031408 536.028153 
L 216.268931 535.838005 
L 216.432158 535.457707 
L 216.599888 535.172484 
L 216.80758 534.697112 
L 217.299512 534.316814 
L 217.419399 533.936516 
L 217.593883 533.746368 
L 217.699699 533.556219 
L 218.063301 532.5104 
L 218.365552 532.320252 
L 218.471368 532.035028 
L 218.654858 531.844879 
L 219.339848 531.179359 
L 219.417521 530.98921 
L 219.51602 530.894135 
L 219.91283 530.703987 
L 220.074369 529.753243 
L 220.286001 529.563094 
L 220.313018 529.372945 
L 220.686188 529.087722 
L 220.844912 528.707424 
L 220.939471 528.232052 
L 221.051478 528.041903 
L 221.475305 527.186233 
L 221.758982 526.90101 
L 221.856356 526.710861 
L 222.105136 526.330564 
L 222.387124 525.189671 
L 222.436092 524.809373 
L 222.610013 524.619224 
L 222.710201 524.143852 
L 222.801946 523.953704 
L 223.16611 522.812811 
L 223.308512 522.242364 
L 223.422771 522.052215 
L 223.480181 521.576843 
L 223.616954 521.386695 
L 223.726147 521.101471 
L 223.880932 520.626099 
L 224.064421 520.150727 
L 224.219768 519.675355 
L 224.320518 519.009834 
L 224.567047 518.534462 
L 224.669486 518.344314 
L 224.757291 518.05909 
L 224.849036 517.773867 
L 225.235715 517.108346 
L 225.311699 516.823123 
L 225.460855 516.252677 
L 225.561605 515.397007 
L 225.718078 515.206858 
L 225.826708 514.636412 
L 225.967421 514.16104 
L 226.124457 513.590593 
L 226.31076 513.210296 
L 226.448096 513.020147 
L 226.644531 512.354626 
L 226.881492 511.784179 
L 226.988433 511.403882 
L 227.064981 510.92851 
L 227.199503 510.358063 
L 227.308133 510.07284 
L 227.498377 509.312245 
L 227.782054 508.741798 
L 227.843404 508.361501 
L 228.039277 508.076278 
L 228.141715 507.69598 
L 228.540214 506.745236 
L 228.692184 506.174789 
L 228.753535 505.889566 
L 228.847531 505.699417 
L 229.247155 505.224045 
L 229.359163 504.558524 
L 229.827455 502.752111 
L 230.806253 500.470325 
L 230.971732 499.519581 
L 231.431581 498.093465 
L 231.579048 497.427944 
L 231.795746 495.811679 
L 231.93477 495.051084 
L 232.992368 490.677661 
L 233.149966 490.392438 
L 233.457846 489.251545 
L 233.610941 489.061396 
L 233.805125 488.110652 
L 234.131578 487.350057 
L 234.356719 485.828866 
L 234.468163 485.543643 
L 234.640959 484.687973 
L 234.732704 484.307676 
L 234.858782 483.832304 
L 234.987675 483.54708 
L 235.126699 483.261857 
L 235.23139 482.691411 
L 235.361408 482.311113 
L 235.457656 481.930815 
L 235.76441 480.219476 
L 235.869663 479.64903 
L 235.955216 479.458881 
L 236.131389 478.508137 
L 236.337955 477.93769 
L 236.44152 477.557393 
L 236.629512 476.606649 
L 236.743208 476.321425 
L 237.0297 475.180532 
L 237.115816 474.610086 
L 237.280731 474.134714 
L 237.437767 473.18397 
L 237.581294 472.993821 
L 237.649399 472.233226 
L 238.112062 470.331738 
L 238.282606 469.380994 
L 238.412625 468.905621 
L 238.51225 468.430249 
L 238.62876 468.145026 
L 239.285044 464.722348 
L 239.538328 463.296231 
L 239.614312 462.820859 
L 239.767408 461.584892 
L 239.881104 461.394743 
L 239.959903 460.919371 
L 240.066282 460.729222 
L 240.338702 459.398181 
L 240.424818 458.922809 
L 240.528383 458.257288 
L 241.003992 456.3558 
L 241.114311 455.119832 
L 243.191795 442.665085 
L 243.276785 442.284787 
L 243.408493 441.809415 
L 243.517686 441.143894 
L 243.96459 438.006439 
L 244.078286 436.96062 
L 244.178473 436.675397 
L 244.287103 436.009876 
L 244.463839 435.249281 
L 244.537009 434.203463 
L 244.775658 432.587198 
L 245.496671 428.784221 
L 246.611679 422.50931 
L 246.700047 421.938864 
L 247.024249 419.752153 
L 247.837006 415.663953 
L 247.941134 414.808283 
L 248.66102 410.244712 
L 248.72012 409.864414 
L 248.845636 408.91367 
L 249.588599 405.015619 
L 249.749575 404.445173 
L 249.862708 403.874726 
L 250.121619 402.543685 
L 250.260081 402.068313 
L 250.577529 400.92742 
L 251.886158 391.895351 
L 251.984657 391.610128 
L 252.089347 390.659384 
L 252.168147 390.374161 
L 252.370773 389.613565 
L 252.587471 388.472672 
L 253.242067 384.574622 
L 253.391785 384.194324 
L 253.970396 381.342092 
L 254.118426 380.296273 
L 254.20398 379.915976 
L 254.321615 378.870157 
L 255.071333 375.352404 
L 255.339813 373.355842 
L 255.540188 372.88047 
L 255.684278 371.739577 
L 255.817674 370.978981 
L 256.015798 369.362716 
L 256.132871 368.316898 
L 256.74863 365.654815 
L 256.818424 365.274517 
L 257.841687 359.95035 
L 257.95482 359.665127 
L 258.138873 358.809457 
L 258.530054 356.432597 
L 258.674144 355.672002 
L 258.843562 355.006481 
L 258.96739 354.34096 
L 259.502098 352.059174 
L 259.615231 351.488728 
L 259.72555 351.298579 
L 259.862323 350.347835 
L 260.357632 348.066049 
L 260.469077 347.115305 
L 260.554067 346.639933 
L 260.85069 345.879338 
L 260.988588 345.594114 
L 261.105662 345.213817 
L 261.461946 344.358147 
L 261.601533 344.072924 
L 261.89703 342.836957 
L 262.11598 341.791138 
L 262.230801 341.505915 
L 262.320857 340.840394 
L 262.429488 340.555171 
L 262.921983 338.368459 
L 263.027799 338.178311 
L 263.121232 337.893087 
L 263.356504 337.322641 
L 264.012788 335.231004 
L 264.907722 332.663995 
L 265.022543 332.283697 
L 265.549372 330.762507 
L 266.022167 329.336391 
L 266.200028 329.051167 
L 266.425169 328.100423 
L 266.572073 327.720126 
L 266.663818 327.529977 
L 266.773574 327.244754 
L 266.970572 327.054605 
L 268.714848 322.110736 
L 268.840363 321.825512 
L 268.954622 321.255066 
L 269.03117 320.969843 
L 269.098712 320.589545 
L 269.219162 320.209248 
L 269.362126 320.019099 
L 270.34599 316.216122 
L 270.660624 315.550602 
L 270.810343 315.265378 
L 270.979761 314.504783 
L 271.235295 313.839262 
L 271.615783 312.413146 
L 271.806027 312.222997 
L 271.942799 312.032848 
L 272.466251 310.036286 
L 272.747114 309.846137 
L 272.839984 309.560914 
L 272.976757 309.275691 
L 273.123661 309.085542 
L 273.538483 307.659426 
L 273.981447 306.993905 
L 274.150302 306.423458 
L 274.406399 305.662863 
L 276.067936 301.479589 
L 276.356679 301.004217 
L 276.524409 300.338696 
L 276.822157 299.197803 
L 276.952738 298.627357 
L 277.045609 298.437208 
L 277.192513 297.866762 
L 277.392325 297.296315 
L 277.498141 297.106166 
L 277.721593 296.820943 
L 277.839229 296.060348 
L 278.166808 295.109604 
L 278.242231 294.919455 
L 278.426283 294.634232 
L 278.487634 294.349009 
L 278.612587 294.15886 
L 278.688572 293.778562 
L 278.86193 293.588413 
L 278.923281 293.398265 
L 279.180504 293.017967 
L 279.283505 292.732744 
L 279.700578 291.211553 
L 279.818777 290.831256 
L 279.93191 290.07066 
L 280.057426 289.595288 
L 280.330972 288.644544 
L 280.418213 288.454395 
L 280.501515 287.883949 
L 280.736224 287.6938 
L 280.869057 287.313502 
L 281.071121 286.933205 
L 281.110521 286.743056 
L 281.312584 286.552907 
L 282.024028 284.936642 
L 282.439975 284.366196 
L 282.532283 284.080973 
L 282.671307 283.605601 
L 282.849731 283.225303 
L 283.078248 283.035154 
L 283.459299 282.179484 
L 283.690631 281.704112 
L 283.90564 281.323815 
L 284.017084 280.753368 
L 284.202825 280.563219 
L 284.269242 280.373071 
L 284.857421 279.612475 
L 284.957046 279.137103 
L 285.070179 278.946955 
L 285.163612 278.756806 
L 285.460798 278.566657 
L 285.614456 278.091285 
L 285.748415 277.806062 
L 286.027026 276.760243 
L 286.069803 276.47502 
L 286.339409 276.284871 
L 286.589877 275.904573 
L 287.58331 273.337564 
L 287.879932 272.862192 
L 288.008825 272.291746 
L 288.94147 270.580407 
L 288.95329 270.390258 
L 289.17449 270.200109 
L 291.118016 265.351314 
L 291.258166 265.161165 
L 291.384807 264.590719 
L 291.532274 264.210421 
L 291.726458 264.020272 
L 292.560041 262.02371 
L 292.62308 261.738487 
L 292.89944 261.548338 
L 293.023267 261.16804 
L 293.182554 260.312371 
L 294.739401 257.26999 
L 295.096811 256.984766 
L 295.217261 256.604469 
L 295.334897 256.224171 
L 295.521201 255.938948 
L 295.694559 255.368501 
L 295.780675 255.083278 
L 295.936585 254.702981 
L 296.071669 254.322683 
L 296.800562 252.896567 
L 296.854596 252.706418 
L 297.076359 252.231046 
L 297.12589 251.945823 
L 297.259286 251.660599 
L 297.512006 250.900004 
L 297.622888 250.709855 
L 297.741086 250.139409 
L 297.860411 249.759111 
L 298.012381 249.473888 
L 298.154219 249.09359 
L 298.623074 248.142846 
L 298.727202 247.857623 
L 298.852155 247.5724 
L 298.972042 247.001953 
L 298.979359 246.811805 
L 299.270353 246.526581 
L 299.400935 246.336433 
L 299.757219 245.385689 
L 299.868101 245.005391 
L 300.242397 243.959572 
L 300.299808 243.769424 
L 300.706749 243.198977 
L 300.712941 243.103903 
L 300.949338 242.913754 
L 301.119882 242.248233 
L 301.222884 241.867935 
L 301.310689 241.582712 
L 301.45309 241.202415 
L 301.542584 241.012266 
L 301.686111 240.822117 
L 301.763221 240.156596 
L 302.142583 239.396001 
L 302.236579 239.015703 
L 302.662658 238.160034 
L 302.762282 237.779736 
L 303.000931 237.494513 
L 303.11519 237.019141 
L 303.165847 236.828992 
L 303.326822 236.638843 
L 303.685358 235.783173 
L 303.908247 234.927504 
L 304.043895 234.547206 
L 304.614626 232.740792 
L 304.770535 232.455569 
L 304.90562 232.26542 
L 305.086295 231.980197 
L 305.156089 231.790048 
L 305.389109 231.504825 
L 306.103367 229.983634 
L 306.26378 229.793486 
L 306.408433 229.318114 
L 306.568282 228.652593 
L 306.790609 228.177221 
L 306.912747 227.796923 
L 307.186856 227.226477 
L 307.371471 226.941253 
L 307.648394 225.705286 
L 308.00299 225.324988 
L 308.118375 224.944691 
L 308.285541 224.754542 
L 308.707117 223.708724 
L 308.922126 223.518575 
L 309.321188 222.757979 
L 309.523814 221.807235 
L 309.669593 221.426938 
L 310.074283 220.476194 
L 310.472781 219.715598 
L 310.493607 219.52545 
L 310.651768 219.335301 
L 310.805427 218.859929 
L 310.908428 218.384557 
L 311.230379 218.099333 
L 311.375032 217.909185 
L 311.545013 217.243664 
L 311.748202 216.768292 
L 311.94126 216.483069 
L 312.320622 215.912622 
L 312.451204 215.627399 
L 312.659459 215.43725 
L 313.239758 213.820985 
L 313.349514 213.630836 
L 313.401296 213.535762 
L 313.645011 213.345613 
L 313.757018 212.965315 
L 313.782347 212.870241 
L 314.496042 212.585018 
L 314.928875 211.539199 
L 315.117993 211.253976 
L 315.12137 211.158902 
L 315.298668 210.968753 
L 315.559831 210.208158 
L 315.788911 209.82786 
L 315.863208 209.542637 
L 315.992101 209.257414 
L 316.121557 209.067265 
L 316.341069 208.782042 
L 316.588723 208.401744 
L 316.687222 208.211595 
L 316.693413 208.116521 
L 316.84482 207.926372 
L 316.969773 207.451 
L 317.236002 207.165777 
L 317.491536 206.785479 
L 317.556264 206.500256 
L 317.71724 206.024884 
L 317.863581 205.73966 
L 317.962643 205.454437 
L 318.07859 204.979065 
L 318.296414 204.598768 
L 318.430372 204.408619 
L 318.734312 204.21847 
L 318.874462 203.933247 
L 319.029809 203.267726 
L 319.158139 203.077577 
L 319.964142 200.225345 
L 320.208419 200.035196 
L 320.247819 199.845047 
L 320.435811 199.654898 
L 321.374084 196.707592 
L 321.582902 196.23222 
L 321.726992 195.566699 
L 321.876148 195.186401 
L 322.070894 194.615955 
L 322.534121 194.330732 
L 322.538061 194.235657 
L 322.745753 194.045508 
L 323.279336 192.99969 
L 323.532056 192.809541 
L 323.602412 192.524318 
L 323.843313 192.239095 
L 323.919861 191.858797 
L 324.396033 191.478499 
L 324.882336 190.147458 
L 325.078771 189.957309 
L 325.116482 189.672086 
L 325.390028 189.481937 
L 325.594906 189.101639 
L 326.073892 188.055821 
L 326.579333 187.770597 
L 327.051565 187.200151 
L 327.187212 186.724779 
L 327.428675 185.964184 
L 327.795091 185.67896 
L 328.113102 185.298663 
L 328.390025 185.108514 
L 328.523984 184.918365 
L 328.811601 184.633142 
L 328.997342 184.15777 
L 329.764508 182.636579 
L 330.479329 181.685835 
L 330.829422 181.495686 
L 330.954938 181.305538 
L 331.662442 180.06957 
L 332.183643 179.689273 
L 332.42004 179.118826 
L 332.597338 178.643454 
L 332.725668 178.453305 
L 332.729608 178.358231 
L 333.499589 177.69271 
L 333.62229 177.502561 
L 333.80184 177.312412 
L 333.981389 176.741966 
L 334.154185 176.551817 
L 334.169945 176.456743 
L 334.508218 176.17152 
L 334.838049 175.791222 
L 335.211219 175.601073 
L 335.7206 174.174957 
L 336.12135 173.984808 
L 336.647616 173.224213 
L 336.748929 172.843915 
L 336.930167 172.558692 
L 336.956621 172.463618 
L 337.379322 172.178394 
L 337.645551 171.893171 
L 337.957933 171.607948 
L 338.010279 171.322725 
L 338.26525 171.132576 
L 338.436357 170.657204 
L 338.663186 170.467055 
L 338.759996 170.276906 
L 339.138233 169.991683 
L 339.197895 169.801534 
L 339.364499 169.611385 
L 339.508589 169.421237 
L 339.801271 169.136013 
L 340.323597 168.090195 
L 340.449113 167.900046 
L 340.591514 167.424674 
L 340.848737 167.234525 
L 340.933165 166.949302 
L 341.189825 166.759153 
L 341.221345 166.47393 
L 341.423971 166.283781 
L 341.475191 166.093632 
L 342.496203 165.333037 
L 342.590199 165.142888 
L 342.725846 164.857665 
L 342.875565 164.287219 
L 343.132225 164.001995 
L 343.980442 162.575879 
L 344.292824 162.290656 
L 344.709334 161.625135 
L 345.469746 160.959614 
L 346.014023 160.389168 
L 346.156425 160.103945 
L 346.252109 159.628573 
L 346.557738 159.438424 
L 347.074998 158.963052 
L 347.998074 158.677829 
L 348.270494 158.107382 
L 348.977435 157.822159 
L 349.005578 157.63201 
L 349.460924 157.156638 
L 349.639911 156.871415 
L 349.916271 156.586192 
L 350.006327 156.396043 
L 350.328841 156.015745 
L 350.624338 155.540373 
L 351.082499 155.25515 
L 351.533343 154.39948 
L 351.755669 154.209331 
L 352.591503 153.353662 
L 353.111015 153.068438 
L 353.352478 152.497992 
L 353.570301 152.117694 
L 354.527148 151.452174 
L 354.594128 151.16695 
L 354.960544 150.881727 
L 355.452476 150.406355 
L 355.885308 150.216206 
L 355.908385 150.026057 
L 357.200129 149.075313 
L 357.671798 148.124569 
L 357.693187 147.93442 
L 358.340466 147.459048 
L 358.868983 146.508304 
L 358.879114 146.41323 
L 360.551345 145.082188 
L 360.67067 144.892039 
L 361.041589 144.701891 
L 361.129956 144.511742 
L 361.685491 144.131444 
L 363.074607 143.465923 
L 363.2035 143.275774 
L 363.692055 142.895477 
L 364.647214 142.515179 
L 364.686051 142.229956 
L 364.955656 142.039807 
L 364.961285 141.944733 
L 365.996931 141.564435 
L 367.536329 140.328468 
L 367.592052 140.233393 
L 367.932577 140.043245 
L 368.042895 139.94817 
L 368.665409 139.662947 
L 368.833701 139.377724 
L 369.039142 139.187575 
L 369.701055 138.997426 
L 369.806871 138.712203 
L 369.886796 138.617128 
L 370.223944 138.42698 
L 370.295989 138.236831 
L 370.432199 138.046682 
L 371.629384 137.856533 
L 371.641766 137.761459 
L 372.463529 137.57131 
L 372.93745 137.381161 
L 372.938576 137.286087 
L 373.426568 137.095938 
L 373.621877 136.810715 
L 374.24045 136.525492 
L 374.285479 136.430417 
L 375.635196 136.145194 
L 375.947015 135.764896 
L 377.496545 135.19445 
L 377.798233 134.814152 
L 378.11343 134.624003 
L 378.770277 134.433855 
L 378.945887 134.243706 
L 379.570089 133.863408 
L 380.374403 133.673259 
L 380.570838 133.48311 
L 380.644009 133.388036 
L 381.334065 133.007738 
L 381.383033 132.912664 
L 382.477216 132.437292 
L 382.690536 132.152069 
L 383.515676 131.96192 
L 384.299165 131.581622 
L 385.105731 131.391473 
L 385.36014 131.296399 
L 386.224116 131.10625 
L 386.401977 130.916101 
L 388.210981 130.345655 
L 389.530867 130.155506 
L 389.972143 130.060432 
L 392.9485 129.775209 
L 394.124859 129.58506 
L 394.192964 129.489985 
L 395.66088 129.299837 
L 396.312662 129.014613 
L 398.910221 128.824464 
L 399.034611 128.72939 
L 404.284324 128.254018 
L 404.838733 128.158944 
L 407.186948 127.968795 
L 409.396702 127.778646 
L 413.438537 127.398348 
L 415.324651 127.018051 
L 422.861792 126.447604 
L 423.464043 126.35253 
L 431.12276 125.782083 
L 431.131203 125.687009 
L 431.98336 125.591935 
L 436.549772 125.401786 
L 438.231009 125.116563 
L 441.344702 124.831339 
L 441.934007 124.736265 
L 470.71822 123.880595 
L 501.577102 123.690446 
L 502.939765 123.595372 
L 567.519628 123.405223 
L 647.154074 123.310149 
L 793 123.277614 
L 793 123.277614 
" clip-path="url(#pedf2d8d3cf)" style="fill: none; stroke: #0000ff; stroke-width: 1.5; stroke-linecap: square"/>
   </g>
   <g id="patch_3">
    <path d="M 99 576.72 
L 99 77.76 
" style="fill: none; stroke: #000000; stroke-width: 0.8; stroke-linejoin: miter; stroke-linecap: square"/>
   </g>
   <g id="patch_4">
    <path d="M 712.8 576.72 
L 712.8 77.76 
" style="fill: none; stroke: #000000; stroke-width: 0.8; stroke-linejoin: miter; stroke-linecap: square"/>
   </g>
   <g id="patch_5">
    <path d="M 99 576.72 
L 712.8 576.72 
" style="fill: none; stroke: #000000; stroke-width: 0.8; stroke-linejoin: miter; stroke-linecap: square"/>
   </g>
   <g id="patch_6">
    <path d="M 99 77.76 
L 712.8 77.76 
" style="fill: none; stroke: #000000; stroke-width: 0.8; stroke-linejoin: miter; stroke-linecap: square"/>
   </g>
   <g id="legend_1">
    <g id="patch_7">
     <path d="M 106 115.11625 
L 240.93125 115.11625 
Q 242.93125 115.11625 242.93125 113.11625 
L 242.93125 84.76 
Q 242.93125 82.76 240.93125 82.76 
L 106 82.76 
Q 104 82.76 104 84.76 
L 104 113.11625 
Q 104 115.11625 106 115.11625 
z
" style="fill: #ffffff; opacity: 0.8; stroke: #cccccc; stroke-linejoin: miter"/>
    </g>
    <g id="line2d_40">
     <path d="M 108 90.858437 
L 118 90.858437 
L 128 90.858437 
" style="fill: none; stroke: #ff0000; stroke-width: 1.5; stroke-linecap: square"/>
    </g>
    <g id="text_40">
     <!-- Victoria Starlink CDF -->
     <g transform="translate(136 94.358437) scale(0.1 -0.1)">
      <defs>
       <path id="DejaVuSans-56" d="M 1831 0 
L 50 4666 
L 709 4666 
L 2188 738 
L 3669 4666 
L 4325 4666 
L 2547 0 
L 1831 0 
z
" transform="scale(0.015625)"/>
       <path id="DejaVuSans-53" d="M 3425 4513 
L 3425 3897 
Q 3066 4069 2747 4153 
Q 2428 4238 2131 4238 
Q 1616 4238 1336 4038 
Q 1056 3838 1056 3469 
Q 1056 3159 1242 3001 
Q 1428 2844 1947 2747 
L 2328 2669 
Q 3034 2534 3370 2195 
Q 3706 1856 3706 1288 
Q 3706 609 3251 259 
Q 2797 -91 1919 -91 
Q 1588 -91 1214 -16 
Q 841 59 441 206 
L 441 856 
Q 825 641 1194 531 
Q 1563 422 1919 422 
Q 2459 422 2753 634 
Q 3047 847 3047 1241 
Q 3047 1584 2836 1778 
Q 2625 1972 2144 2069 
L 1759 2144 
Q 1053 2284 737 2584 
Q 422 2884 422 3419 
Q 422 4038 858 4394 
Q 1294 4750 2059 4750 
Q 2388 4750 2728 4690 
Q 3069 4631 3425 4513 
z
" transform="scale(0.015625)"/>
       <path id="DejaVuSans-43" d="M 4122 4306 
L 4122 3641 
Q 3803 3938 3442 4084 
Q 3081 4231 2675 4231 
Q 1875 4231 1450 3742 
Q 1025 3253 1025 2328 
Q 1025 1406 1450 917 
Q 1875 428 2675 428 
Q 3081 428 3442 575 
Q 3803 722 4122 1019 
L 4122 359 
Q 3791 134 3420 21 
Q 3050 -91 2638 -91 
Q 1578 -91 968 557 
Q 359 1206 359 2328 
Q 359 3453 968 4101 
Q 1578 4750 2638 4750 
Q 3056 4750 3426 4639 
Q 3797 4528 4122 4306 
z
" transform="scale(0.015625)"/>
       <path id="DejaVuSans-44" d="M 1259 4147 
L 1259 519 
L 2022 519 
Q 2988 519 3436 956 
Q 3884 1394 3884 2338 
Q 3884 3275 3436 3711 
Q 2988 4147 2022 4147 
L 1259 4147 
z
M 628 4666 
L 1925 4666 
Q 3281 4666 3915 4102 
Q 4550 3538 4550 2338 
Q 4550 1131 3912 565 
Q 3275 0 1925 0 
L 628 0 
L 628 4666 
z
" transform="scale(0.015625)"/>
       <path id="DejaVuSans-46" d="M 628 4666 
L 3309 4666 
L 3309 4134 
L 1259 4134 
L 1259 2759 
L 3109 2759 
L 3109 2228 
L 1259 2228 
L 1259 0 
L 628 0 
L 628 4666 
z
" transform="scale(0.015625)"/>
      </defs>
      <use xlink:href="#DejaVuSans-56"/>
      <use xlink:href="#DejaVuSans-69" x="66.158203"/>
      <use xlink:href="#DejaVuSans-63" x="93.941406"/>
      <use xlink:href="#DejaVuSans-74" x="148.921875"/>
      <use xlink:href="#DejaVuSans-6f" x="188.130859"/>
      <use xlink:href="#DejaVuSans-72" x="249.3125"/>
      <use xlink:href="#DejaVuSans-69" x="290.425781"/>
      <use xlink:href="#DejaVuSans-61" x="318.208984"/>
      <use xlink:href="#DejaVuSans-20" x="379.488281"/>
      <use xlink:href="#DejaVuSans-53" x="411.275391"/>
      <use xlink:href="#DejaVuSans-74" x="474.751953"/>
      <use xlink:href="#DejaVuSans-61" x="513.960938"/>
      <use xlink:href="#DejaVuSans-72" x="575.240234"/>
      <use xlink:href="#DejaVuSans-6c" x="616.353516"/>
      <use xlink:href="#DejaVuSans-69" x="644.136719"/>
      <use xlink:href="#DejaVuSans-6e" x="671.919922"/>
      <use xlink:href="#DejaVuSans-6b" x="735.298828"/>
      <use xlink:href="#DejaVuSans-20" x="793.208984"/>
      <use xlink:href="#DejaVuSans-43" x="824.996094"/>
      <use xlink:href="#DejaVuSans-44" x="894.820312"/>
      <use xlink:href="#DejaVuSans-46" x="971.822266"/>
     </g>
    </g>
    <g id="line2d_41">
     <path d="M 108 105.536562 
L 118 105.536562 
L 128 105.536562 
" style="fill: none; stroke: #0000ff; stroke-width: 1.5; stroke-linecap: square"/>
    </g>
    <g id="text_41">
     <!-- Victoria Telus CDF -->
     <g transform="translate(136 109.036562) scale(0.1 -0.1)">
      <defs>
       <path id="DejaVuSans-54" d="M -19 4666 
L 3928 4666 
L 3928 4134 
L 2272 4134 
L 2272 0 
L 1638 0 
L 1638 4134 
L -19 4134 
L -19 4666 
z
" transform="scale(0.015625)"/>
      </defs>
      <use xlink:href="#DejaVuSans-56"/>
      <use xlink:href="#DejaVuSans-69" x="66.158203"/>
      <use xlink:href="#DejaVuSans-63" x="93.941406"/>
      <use xlink:href="#DejaVuSans-74" x="148.921875"/>
      <use xlink:href="#DejaVuSans-6f" x="188.130859"/>
      <use xlink:href="#DejaVuSans-72" x="249.3125"/>
      <use xlink:href="#DejaVuSans-69" x="290.425781"/>
      <use xlink:href="#DejaVuSans-61" x="318.208984"/>
      <use xlink:href="#DejaVuSans-20" x="379.488281"/>
      <use xlink:href="#DejaVuSans-54" x="411.275391"/>
      <use xlink:href="#DejaVuSans-65" x="455.359375"/>
      <use xlink:href="#DejaVuSans-6c" x="516.882812"/>
      <use xlink:href="#DejaVuSans-75" x="544.666016"/>
      <use xlink:href="#DejaVuSans-73" x="608.044922"/>
      <use xlink:href="#DejaVuSans-20" x="660.144531"/>
      <use xlink:href="#DejaVuSans-43" x="691.931641"/>
      <use xlink:href="#DejaVuSans-44" x="761.755859"/>
      <use xlink:href="#DejaVuSans-46" x="838.757812"/>
     </g>
    </g>
   </g>
  </g>
 </g>
 <defs>
  <clipPath id="pedf2d8d3cf">
   <rect x="99" y="77.76" width="613.8" height="498.96"/>
  </clipPath>
 </defs>
</svg>
