<?xml version="1.0" encoding="utf-8" standalone="no"?>
<!DOCTYPE svg PUBLIC "-//W3C//DTD SVG 1.1//EN"
  "http://www.w3.org/Graphics/SVG/1.1/DTD/svg11.dtd">
<svg xmlns:xlink="http://www.w3.org/1999/xlink" width="792pt" height="648pt" viewBox="0 0 792 648" xmlns="http://www.w3.org/2000/svg" version="1.1">
 <metadata>
  <rdf:RDF xmlns:dc="http://purl.org/dc/elements/1.1/" xmlns:cc="http://creativecommons.org/ns#" xmlns:rdf="http://www.w3.org/1999/02/22-rdf-syntax-ns#">
   <cc:Work>
    <dc:type rdf:resource="http://purl.org/dc/dcmitype/StillImage"/>
    <dc:date>2024-01-04T02:40:44.338044</dc:date>
    <dc:format>image/svg+xml</dc:format>
    <dc:creator>
     <cc:Agent>
      <dc:title>Matplotlib v3.8.2, https://matplotlib.org/</dc:title>
     </cc:Agent>
    </dc:creator>
   </cc:Work>
  </rdf:RDF>
 </metadata>
 <defs>
  <style type="text/css">*{stroke-linejoin: round; stroke-linecap: butt}</style>
 </defs>
 <g id="figure_1">
  <g id="patch_1">
   <path d="M 0 648 
L 792 648 
L 792 0 
L 0 0 
z
" style="fill: #ffffff"/>
  </g>
  <g id="axes_1">
   <g id="patch_2">
    <path d="M 99 576.72 
L 712.8 576.72 
L 712.8 77.76 
L 99 77.76 
z
" style="fill: #ffffff"/>
   </g>
   <g id="matplotlib.axis_1">
    <g id="xtick_1">
     <g id="line2d_1">
      <defs>
       <path id="m9e9cb36b7f" d="M 0 0 
L 0 3.5 
" style="stroke: #000000; stroke-width: 0.8"/>
      </defs>
      <g>
       <use xlink:href="#m9e9cb36b7f" x="99" y="576.72" style="stroke: #000000; stroke-width: 0.8"/>
      </g>
     </g>
     <g id="text_1">
      <!-- 0 -->
      <g transform="translate(95.81875 591.318438) scale(0.1 -0.1)">
       <defs>
        <path id="DejaVuSans-30" d="M 2034 4250 
Q 1547 4250 1301 3770 
Q 1056 3291 1056 2328 
Q 1056 1369 1301 889 
Q 1547 409 2034 409 
Q 2525 409 2770 889 
Q 3016 1369 3016 2328 
Q 3016 3291 2770 3770 
Q 2525 4250 2034 4250 
z
M 2034 4750 
Q 2819 4750 3233 4129 
Q 3647 3509 3647 2328 
Q 3647 1150 3233 529 
Q 2819 -91 2034 -91 
Q 1250 -91 836 529 
Q 422 1150 422 2328 
Q 422 3509 836 4129 
Q 1250 4750 2034 4750 
z
" transform="scale(0.015625)"/>
       </defs>
       <use xlink:href="#DejaVuSans-30"/>
      </g>
     </g>
    </g>
    <g id="xtick_2">
     <g id="line2d_2">
      <g>
       <use xlink:href="#m9e9cb36b7f" x="122.607692" y="576.72" style="stroke: #000000; stroke-width: 0.8"/>
      </g>
     </g>
     <g id="text_2">
      <!-- 10 -->
      <g transform="translate(116.245192 591.318438) scale(0.1 -0.1)">
       <defs>
        <path id="DejaVuSans-31" d="M 794 531 
L 1825 531 
L 1825 4091 
L 703 3866 
L 703 4441 
L 1819 4666 
L 2450 4666 
L 2450 531 
L 3481 531 
L 3481 0 
L 794 0 
L 794 531 
z
" transform="scale(0.015625)"/>
       </defs>
       <use xlink:href="#DejaVuSans-31"/>
       <use xlink:href="#DejaVuSans-30" x="63.623047"/>
      </g>
     </g>
    </g>
    <g id="xtick_3">
     <g id="line2d_3">
      <g>
       <use xlink:href="#m9e9cb36b7f" x="146.215385" y="576.72" style="stroke: #000000; stroke-width: 0.8"/>
      </g>
     </g>
     <g id="text_3">
      <!-- 20 -->
      <g transform="translate(139.852885 591.318438) scale(0.1 -0.1)">
       <defs>
        <path id="DejaVuSans-32" d="M 1228 531 
L 3431 531 
L 3431 0 
L 469 0 
L 469 531 
Q 828 903 1448 1529 
Q 2069 2156 2228 2338 
Q 2531 2678 2651 2914 
Q 2772 3150 2772 3378 
Q 2772 3750 2511 3984 
Q 2250 4219 1831 4219 
Q 1534 4219 1204 4116 
Q 875 4013 500 3803 
L 500 4441 
Q 881 4594 1212 4672 
Q 1544 4750 1819 4750 
Q 2544 4750 2975 4387 
Q 3406 4025 3406 3419 
Q 3406 3131 3298 2873 
Q 3191 2616 2906 2266 
Q 2828 2175 2409 1742 
Q 1991 1309 1228 531 
z
" transform="scale(0.015625)"/>
       </defs>
       <use xlink:href="#DejaVuSans-32"/>
       <use xlink:href="#DejaVuSans-30" x="63.623047"/>
      </g>
     </g>
    </g>
    <g id="xtick_4">
     <g id="line2d_4">
      <g>
       <use xlink:href="#m9e9cb36b7f" x="169.823077" y="576.72" style="stroke: #000000; stroke-width: 0.8"/>
      </g>
     </g>
     <g id="text_4">
      <!-- 30 -->
      <g transform="translate(163.460577 591.318438) scale(0.1 -0.1)">
       <defs>
        <path id="DejaVuSans-33" d="M 2597 2516 
Q 3050 2419 3304 2112 
Q 3559 1806 3559 1356 
Q 3559 666 3084 287 
Q 2609 -91 1734 -91 
Q 1441 -91 1130 -33 
Q 819 25 488 141 
L 488 750 
Q 750 597 1062 519 
Q 1375 441 1716 441 
Q 2309 441 2620 675 
Q 2931 909 2931 1356 
Q 2931 1769 2642 2001 
Q 2353 2234 1838 2234 
L 1294 2234 
L 1294 2753 
L 1863 2753 
Q 2328 2753 2575 2939 
Q 2822 3125 2822 3475 
Q 2822 3834 2567 4026 
Q 2313 4219 1838 4219 
Q 1578 4219 1281 4162 
Q 984 4106 628 3988 
L 628 4550 
Q 988 4650 1302 4700 
Q 1616 4750 1894 4750 
Q 2613 4750 3031 4423 
Q 3450 4097 3450 3541 
Q 3450 3153 3228 2886 
Q 3006 2619 2597 2516 
z
" transform="scale(0.015625)"/>
       </defs>
       <use xlink:href="#DejaVuSans-33"/>
       <use xlink:href="#DejaVuSans-30" x="63.623047"/>
      </g>
     </g>
    </g>
    <g id="xtick_5">
     <g id="line2d_5">
      <g>
       <use xlink:href="#m9e9cb36b7f" x="193.430769" y="576.72" style="stroke: #000000; stroke-width: 0.8"/>
      </g>
     </g>
     <g id="text_5">
      <!-- 40 -->
      <g transform="translate(187.068269 591.318438) scale(0.1 -0.1)">
       <defs>
        <path id="DejaVuSans-34" d="M 2419 4116 
L 825 1625 
L 2419 1625 
L 2419 4116 
z
M 2253 4666 
L 3047 4666 
L 3047 1625 
L 3713 1625 
L 3713 1100 
L 3047 1100 
L 3047 0 
L 2419 0 
L 2419 1100 
L 313 1100 
L 313 1709 
L 2253 4666 
z
" transform="scale(0.015625)"/>
       </defs>
       <use xlink:href="#DejaVuSans-34"/>
       <use xlink:href="#DejaVuSans-30" x="63.623047"/>
      </g>
     </g>
    </g>
    <g id="xtick_6">
     <g id="line2d_6">
      <g>
       <use xlink:href="#m9e9cb36b7f" x="217.038462" y="576.72" style="stroke: #000000; stroke-width: 0.8"/>
      </g>
     </g>
     <g id="text_6">
      <!-- 50 -->
      <g transform="translate(210.675962 591.318438) scale(0.1 -0.1)">
       <defs>
        <path id="DejaVuSans-35" d="M 691 4666 
L 3169 4666 
L 3169 4134 
L 1269 4134 
L 1269 2991 
Q 1406 3038 1543 3061 
Q 1681 3084 1819 3084 
Q 2600 3084 3056 2656 
Q 3513 2228 3513 1497 
Q 3513 744 3044 326 
Q 2575 -91 1722 -91 
Q 1428 -91 1123 -41 
Q 819 9 494 109 
L 494 744 
Q 775 591 1075 516 
Q 1375 441 1709 441 
Q 2250 441 2565 725 
Q 2881 1009 2881 1497 
Q 2881 1984 2565 2268 
Q 2250 2553 1709 2553 
Q 1456 2553 1204 2497 
Q 953 2441 691 2322 
L 691 4666 
z
" transform="scale(0.015625)"/>
       </defs>
       <use xlink:href="#DejaVuSans-35"/>
       <use xlink:href="#DejaVuSans-30" x="63.623047"/>
      </g>
     </g>
    </g>
    <g id="xtick_7">
     <g id="line2d_7">
      <g>
       <use xlink:href="#m9e9cb36b7f" x="240.646154" y="576.72" style="stroke: #000000; stroke-width: 0.8"/>
      </g>
     </g>
     <g id="text_7">
      <!-- 60 -->
      <g transform="translate(234.283654 591.318438) scale(0.1 -0.1)">
       <defs>
        <path id="DejaVuSans-36" d="M 2113 2584 
Q 1688 2584 1439 2293 
Q 1191 2003 1191 1497 
Q 1191 994 1439 701 
Q 1688 409 2113 409 
Q 2538 409 2786 701 
Q 3034 994 3034 1497 
Q 3034 2003 2786 2293 
Q 2538 2584 2113 2584 
z
M 3366 4563 
L 3366 3988 
Q 3128 4100 2886 4159 
Q 2644 4219 2406 4219 
Q 1781 4219 1451 3797 
Q 1122 3375 1075 2522 
Q 1259 2794 1537 2939 
Q 1816 3084 2150 3084 
Q 2853 3084 3261 2657 
Q 3669 2231 3669 1497 
Q 3669 778 3244 343 
Q 2819 -91 2113 -91 
Q 1303 -91 875 529 
Q 447 1150 447 2328 
Q 447 3434 972 4092 
Q 1497 4750 2381 4750 
Q 2619 4750 2861 4703 
Q 3103 4656 3366 4563 
z
" transform="scale(0.015625)"/>
       </defs>
       <use xlink:href="#DejaVuSans-36"/>
       <use xlink:href="#DejaVuSans-30" x="63.623047"/>
      </g>
     </g>
    </g>
    <g id="xtick_8">
     <g id="line2d_8">
      <g>
       <use xlink:href="#m9e9cb36b7f" x="264.253846" y="576.72" style="stroke: #000000; stroke-width: 0.8"/>
      </g>
     </g>
     <g id="text_8">
      <!-- 70 -->
      <g transform="translate(257.891346 591.318438) scale(0.1 -0.1)">
       <defs>
        <path id="DejaVuSans-37" d="M 525 4666 
L 3525 4666 
L 3525 4397 
L 1831 0 
L 1172 0 
L 2766 4134 
L 525 4134 
L 525 4666 
z
" transform="scale(0.015625)"/>
       </defs>
       <use xlink:href="#DejaVuSans-37"/>
       <use xlink:href="#DejaVuSans-30" x="63.623047"/>
      </g>
     </g>
    </g>
    <g id="xtick_9">
     <g id="line2d_9">
      <g>
       <use xlink:href="#m9e9cb36b7f" x="287.861538" y="576.72" style="stroke: #000000; stroke-width: 0.8"/>
      </g>
     </g>
     <g id="text_9">
      <!-- 80 -->
      <g transform="translate(281.499038 591.318438) scale(0.1 -0.1)">
       <defs>
        <path id="DejaVuSans-38" d="M 2034 2216 
Q 1584 2216 1326 1975 
Q 1069 1734 1069 1313 
Q 1069 891 1326 650 
Q 1584 409 2034 409 
Q 2484 409 2743 651 
Q 3003 894 3003 1313 
Q 3003 1734 2745 1975 
Q 2488 2216 2034 2216 
z
M 1403 2484 
Q 997 2584 770 2862 
Q 544 3141 544 3541 
Q 544 4100 942 4425 
Q 1341 4750 2034 4750 
Q 2731 4750 3128 4425 
Q 3525 4100 3525 3541 
Q 3525 3141 3298 2862 
Q 3072 2584 2669 2484 
Q 3125 2378 3379 2068 
Q 3634 1759 3634 1313 
Q 3634 634 3220 271 
Q 2806 -91 2034 -91 
Q 1263 -91 848 271 
Q 434 634 434 1313 
Q 434 1759 690 2068 
Q 947 2378 1403 2484 
z
M 1172 3481 
Q 1172 3119 1398 2916 
Q 1625 2713 2034 2713 
Q 2441 2713 2670 2916 
Q 2900 3119 2900 3481 
Q 2900 3844 2670 4047 
Q 2441 4250 2034 4250 
Q 1625 4250 1398 4047 
Q 1172 3844 1172 3481 
z
" transform="scale(0.015625)"/>
       </defs>
       <use xlink:href="#DejaVuSans-38"/>
       <use xlink:href="#DejaVuSans-30" x="63.623047"/>
      </g>
     </g>
    </g>
    <g id="xtick_10">
     <g id="line2d_10">
      <g>
       <use xlink:href="#m9e9cb36b7f" x="311.469231" y="576.72" style="stroke: #000000; stroke-width: 0.8"/>
      </g>
     </g>
     <g id="text_10">
      <!-- 90 -->
      <g transform="translate(305.106731 591.318438) scale(0.1 -0.1)">
       <defs>
        <path id="DejaVuSans-39" d="M 703 97 
L 703 672 
Q 941 559 1184 500 
Q 1428 441 1663 441 
Q 2288 441 2617 861 
Q 2947 1281 2994 2138 
Q 2813 1869 2534 1725 
Q 2256 1581 1919 1581 
Q 1219 1581 811 2004 
Q 403 2428 403 3163 
Q 403 3881 828 4315 
Q 1253 4750 1959 4750 
Q 2769 4750 3195 4129 
Q 3622 3509 3622 2328 
Q 3622 1225 3098 567 
Q 2575 -91 1691 -91 
Q 1453 -91 1209 -44 
Q 966 3 703 97 
z
M 1959 2075 
Q 2384 2075 2632 2365 
Q 2881 2656 2881 3163 
Q 2881 3666 2632 3958 
Q 2384 4250 1959 4250 
Q 1534 4250 1286 3958 
Q 1038 3666 1038 3163 
Q 1038 2656 1286 2365 
Q 1534 2075 1959 2075 
z
" transform="scale(0.015625)"/>
       </defs>
       <use xlink:href="#DejaVuSans-39"/>
       <use xlink:href="#DejaVuSans-30" x="63.623047"/>
      </g>
     </g>
    </g>
    <g id="xtick_11">
     <g id="line2d_11">
      <g>
       <use xlink:href="#m9e9cb36b7f" x="335.076923" y="576.72" style="stroke: #000000; stroke-width: 0.8"/>
      </g>
     </g>
     <g id="text_11">
      <!-- 100 -->
      <g transform="translate(325.533173 591.318438) scale(0.1 -0.1)">
       <use xlink:href="#DejaVuSans-31"/>
       <use xlink:href="#DejaVuSans-30" x="63.623047"/>
       <use xlink:href="#DejaVuSans-30" x="127.246094"/>
      </g>
     </g>
    </g>
    <g id="xtick_12">
     <g id="line2d_12">
      <g>
       <use xlink:href="#m9e9cb36b7f" x="358.684615" y="576.72" style="stroke: #000000; stroke-width: 0.8"/>
      </g>
     </g>
     <g id="text_12">
      <!-- 110 -->
      <g transform="translate(349.140865 591.318438) scale(0.1 -0.1)">
       <use xlink:href="#DejaVuSans-31"/>
       <use xlink:href="#DejaVuSans-31" x="63.623047"/>
       <use xlink:href="#DejaVuSans-30" x="127.246094"/>
      </g>
     </g>
    </g>
    <g id="xtick_13">
     <g id="line2d_13">
      <g>
       <use xlink:href="#m9e9cb36b7f" x="382.292308" y="576.72" style="stroke: #000000; stroke-width: 0.8"/>
      </g>
     </g>
     <g id="text_13">
      <!-- 120 -->
      <g transform="translate(372.748558 591.318438) scale(0.1 -0.1)">
       <use xlink:href="#DejaVuSans-31"/>
       <use xlink:href="#DejaVuSans-32" x="63.623047"/>
       <use xlink:href="#DejaVuSans-30" x="127.246094"/>
      </g>
     </g>
    </g>
    <g id="xtick_14">
     <g id="line2d_14">
      <g>
       <use xlink:href="#m9e9cb36b7f" x="405.9" y="576.72" style="stroke: #000000; stroke-width: 0.8"/>
      </g>
     </g>
     <g id="text_14">
      <!-- 130 -->
      <g transform="translate(396.35625 591.318438) scale(0.1 -0.1)">
       <use xlink:href="#DejaVuSans-31"/>
       <use xlink:href="#DejaVuSans-33" x="63.623047"/>
       <use xlink:href="#DejaVuSans-30" x="127.246094"/>
      </g>
     </g>
    </g>
    <g id="xtick_15">
     <g id="line2d_15">
      <g>
       <use xlink:href="#m9e9cb36b7f" x="429.507692" y="576.72" style="stroke: #000000; stroke-width: 0.8"/>
      </g>
     </g>
     <g id="text_15">
      <!-- 140 -->
      <g transform="translate(419.963942 591.318438) scale(0.1 -0.1)">
       <use xlink:href="#DejaVuSans-31"/>
       <use xlink:href="#DejaVuSans-34" x="63.623047"/>
       <use xlink:href="#DejaVuSans-30" x="127.246094"/>
      </g>
     </g>
    </g>
    <g id="xtick_16">
     <g id="line2d_16">
      <g>
       <use xlink:href="#m9e9cb36b7f" x="453.115385" y="576.72" style="stroke: #000000; stroke-width: 0.8"/>
      </g>
     </g>
     <g id="text_16">
      <!-- 150 -->
      <g transform="translate(443.571635 591.318438) scale(0.1 -0.1)">
       <use xlink:href="#DejaVuSans-31"/>
       <use xlink:href="#DejaVuSans-35" x="63.623047"/>
       <use xlink:href="#DejaVuSans-30" x="127.246094"/>
      </g>
     </g>
    </g>
    <g id="xtick_17">
     <g id="line2d_17">
      <g>
       <use xlink:href="#m9e9cb36b7f" x="476.723077" y="576.72" style="stroke: #000000; stroke-width: 0.8"/>
      </g>
     </g>
     <g id="text_17">
      <!-- 160 -->
      <g transform="translate(467.179327 591.318438) scale(0.1 -0.1)">
       <use xlink:href="#DejaVuSans-31"/>
       <use xlink:href="#DejaVuSans-36" x="63.623047"/>
       <use xlink:href="#DejaVuSans-30" x="127.246094"/>
      </g>
     </g>
    </g>
    <g id="xtick_18">
     <g id="line2d_18">
      <g>
       <use xlink:href="#m9e9cb36b7f" x="500.330769" y="576.72" style="stroke: #000000; stroke-width: 0.8"/>
      </g>
     </g>
     <g id="text_18">
      <!-- 170 -->
      <g transform="translate(490.787019 591.318438) scale(0.1 -0.1)">
       <use xlink:href="#DejaVuSans-31"/>
       <use xlink:href="#DejaVuSans-37" x="63.623047"/>
       <use xlink:href="#DejaVuSans-30" x="127.246094"/>
      </g>
     </g>
    </g>
    <g id="xtick_19">
     <g id="line2d_19">
      <g>
       <use xlink:href="#m9e9cb36b7f" x="523.938462" y="576.72" style="stroke: #000000; stroke-width: 0.8"/>
      </g>
     </g>
     <g id="text_19">
      <!-- 180 -->
      <g transform="translate(514.394712 591.318438) scale(0.1 -0.1)">
       <use xlink:href="#DejaVuSans-31"/>
       <use xlink:href="#DejaVuSans-38" x="63.623047"/>
       <use xlink:href="#DejaVuSans-30" x="127.246094"/>
      </g>
     </g>
    </g>
    <g id="xtick_20">
     <g id="line2d_20">
      <g>
       <use xlink:href="#m9e9cb36b7f" x="547.546154" y="576.72" style="stroke: #000000; stroke-width: 0.8"/>
      </g>
     </g>
     <g id="text_20">
      <!-- 190 -->
      <g transform="translate(538.002404 591.318438) scale(0.1 -0.1)">
       <use xlink:href="#DejaVuSans-31"/>
       <use xlink:href="#DejaVuSans-39" x="63.623047"/>
       <use xlink:href="#DejaVuSans-30" x="127.246094"/>
      </g>
     </g>
    </g>
    <g id="xtick_21">
     <g id="line2d_21">
      <g>
       <use xlink:href="#m9e9cb36b7f" x="571.153846" y="576.72" style="stroke: #000000; stroke-width: 0.8"/>
      </g>
     </g>
     <g id="text_21">
      <!-- 200 -->
      <g transform="translate(561.610096 591.318438) scale(0.1 -0.1)">
       <use xlink:href="#DejaVuSans-32"/>
       <use xlink:href="#DejaVuSans-30" x="63.623047"/>
       <use xlink:href="#DejaVuSans-30" x="127.246094"/>
      </g>
     </g>
    </g>
    <g id="xtick_22">
     <g id="line2d_22">
      <g>
       <use xlink:href="#m9e9cb36b7f" x="594.761538" y="576.72" style="stroke: #000000; stroke-width: 0.8"/>
      </g>
     </g>
     <g id="text_22">
      <!-- 210 -->
      <g transform="translate(585.217788 591.318438) scale(0.1 -0.1)">
       <use xlink:href="#DejaVuSans-32"/>
       <use xlink:href="#DejaVuSans-31" x="63.623047"/>
       <use xlink:href="#DejaVuSans-30" x="127.246094"/>
      </g>
     </g>
    </g>
    <g id="xtick_23">
     <g id="line2d_23">
      <g>
       <use xlink:href="#m9e9cb36b7f" x="618.369231" y="576.72" style="stroke: #000000; stroke-width: 0.8"/>
      </g>
     </g>
     <g id="text_23">
      <!-- 220 -->
      <g transform="translate(608.825481 591.318438) scale(0.1 -0.1)">
       <use xlink:href="#DejaVuSans-32"/>
       <use xlink:href="#DejaVuSans-32" x="63.623047"/>
       <use xlink:href="#DejaVuSans-30" x="127.246094"/>
      </g>
     </g>
    </g>
    <g id="xtick_24">
     <g id="line2d_24">
      <g>
       <use xlink:href="#m9e9cb36b7f" x="641.976923" y="576.72" style="stroke: #000000; stroke-width: 0.8"/>
      </g>
     </g>
     <g id="text_24">
      <!-- 230 -->
      <g transform="translate(632.433173 591.318438) scale(0.1 -0.1)">
       <use xlink:href="#DejaVuSans-32"/>
       <use xlink:href="#DejaVuSans-33" x="63.623047"/>
       <use xlink:href="#DejaVuSans-30" x="127.246094"/>
      </g>
     </g>
    </g>
    <g id="xtick_25">
     <g id="line2d_25">
      <g>
       <use xlink:href="#m9e9cb36b7f" x="665.584615" y="576.72" style="stroke: #000000; stroke-width: 0.8"/>
      </g>
     </g>
     <g id="text_25">
      <!-- 240 -->
      <g transform="translate(656.040865 591.318438) scale(0.1 -0.1)">
       <use xlink:href="#DejaVuSans-32"/>
       <use xlink:href="#DejaVuSans-34" x="63.623047"/>
       <use xlink:href="#DejaVuSans-30" x="127.246094"/>
      </g>
     </g>
    </g>
    <g id="xtick_26">
     <g id="line2d_26">
      <g>
       <use xlink:href="#m9e9cb36b7f" x="689.192308" y="576.72" style="stroke: #000000; stroke-width: 0.8"/>
      </g>
     </g>
     <g id="text_26">
      <!-- 250 -->
      <g transform="translate(679.648558 591.318438) scale(0.1 -0.1)">
       <use xlink:href="#DejaVuSans-32"/>
       <use xlink:href="#DejaVuSans-35" x="63.623047"/>
       <use xlink:href="#DejaVuSans-30" x="127.246094"/>
      </g>
     </g>
    </g>
    <g id="text_27">
     <!-- Input Latency (ms) -->
     <g transform="translate(358.634375 604.996562) scale(0.1 -0.1)">
      <defs>
       <path id="DejaVuSans-49" d="M 628 4666 
L 1259 4666 
L 1259 0 
L 628 0 
L 628 4666 
z
" transform="scale(0.015625)"/>
       <path id="DejaVuSans-6e" d="M 3513 2113 
L 3513 0 
L 2938 0 
L 2938 2094 
Q 2938 2591 2744 2837 
Q 2550 3084 2163 3084 
Q 1697 3084 1428 2787 
Q 1159 2491 1159 1978 
L 1159 0 
L 581 0 
L 581 3500 
L 1159 3500 
L 1159 2956 
Q 1366 3272 1645 3428 
Q 1925 3584 2291 3584 
Q 2894 3584 3203 3211 
Q 3513 2838 3513 2113 
z
" transform="scale(0.015625)"/>
       <path id="DejaVuSans-70" d="M 1159 525 
L 1159 -1331 
L 581 -1331 
L 581 3500 
L 1159 3500 
L 1159 2969 
Q 1341 3281 1617 3432 
Q 1894 3584 2278 3584 
Q 2916 3584 3314 3078 
Q 3713 2572 3713 1747 
Q 3713 922 3314 415 
Q 2916 -91 2278 -91 
Q 1894 -91 1617 61 
Q 1341 213 1159 525 
z
M 3116 1747 
Q 3116 2381 2855 2742 
Q 2594 3103 2138 3103 
Q 1681 3103 1420 2742 
Q 1159 2381 1159 1747 
Q 1159 1113 1420 752 
Q 1681 391 2138 391 
Q 2594 391 2855 752 
Q 3116 1113 3116 1747 
z
" transform="scale(0.015625)"/>
       <path id="DejaVuSans-75" d="M 544 1381 
L 544 3500 
L 1119 3500 
L 1119 1403 
Q 1119 906 1312 657 
Q 1506 409 1894 409 
Q 2359 409 2629 706 
Q 2900 1003 2900 1516 
L 2900 3500 
L 3475 3500 
L 3475 0 
L 2900 0 
L 2900 538 
Q 2691 219 2414 64 
Q 2138 -91 1772 -91 
Q 1169 -91 856 284 
Q 544 659 544 1381 
z
M 1991 3584 
L 1991 3584 
z
" transform="scale(0.015625)"/>
       <path id="DejaVuSans-74" d="M 1172 4494 
L 1172 3500 
L 2356 3500 
L 2356 3053 
L 1172 3053 
L 1172 1153 
Q 1172 725 1289 603 
Q 1406 481 1766 481 
L 2356 481 
L 2356 0 
L 1766 0 
Q 1100 0 847 248 
Q 594 497 594 1153 
L 594 3053 
L 172 3053 
L 172 3500 
L 594 3500 
L 594 4494 
L 1172 4494 
z
" transform="scale(0.015625)"/>
       <path id="DejaVuSans-20" transform="scale(0.015625)"/>
       <path id="DejaVuSans-4c" d="M 628 4666 
L 1259 4666 
L 1259 531 
L 3531 531 
L 3531 0 
L 628 0 
L 628 4666 
z
" transform="scale(0.015625)"/>
       <path id="DejaVuSans-61" d="M 2194 1759 
Q 1497 1759 1228 1600 
Q 959 1441 959 1056 
Q 959 750 1161 570 
Q 1363 391 1709 391 
Q 2188 391 2477 730 
Q 2766 1069 2766 1631 
L 2766 1759 
L 2194 1759 
z
M 3341 1997 
L 3341 0 
L 2766 0 
L 2766 531 
Q 2569 213 2275 61 
Q 1981 -91 1556 -91 
Q 1019 -91 701 211 
Q 384 513 384 1019 
Q 384 1609 779 1909 
Q 1175 2209 1959 2209 
L 2766 2209 
L 2766 2266 
Q 2766 2663 2505 2880 
Q 2244 3097 1772 3097 
Q 1472 3097 1187 3025 
Q 903 2953 641 2809 
L 641 3341 
Q 956 3463 1253 3523 
Q 1550 3584 1831 3584 
Q 2591 3584 2966 3190 
Q 3341 2797 3341 1997 
z
" transform="scale(0.015625)"/>
       <path id="DejaVuSans-65" d="M 3597 1894 
L 3597 1613 
L 953 1613 
Q 991 1019 1311 708 
Q 1631 397 2203 397 
Q 2534 397 2845 478 
Q 3156 559 3463 722 
L 3463 178 
Q 3153 47 2828 -22 
Q 2503 -91 2169 -91 
Q 1331 -91 842 396 
Q 353 884 353 1716 
Q 353 2575 817 3079 
Q 1281 3584 2069 3584 
Q 2775 3584 3186 3129 
Q 3597 2675 3597 1894 
z
M 3022 2063 
Q 3016 2534 2758 2815 
Q 2500 3097 2075 3097 
Q 1594 3097 1305 2825 
Q 1016 2553 972 2059 
L 3022 2063 
z
" transform="scale(0.015625)"/>
       <path id="DejaVuSans-63" d="M 3122 3366 
L 3122 2828 
Q 2878 2963 2633 3030 
Q 2388 3097 2138 3097 
Q 1578 3097 1268 2742 
Q 959 2388 959 1747 
Q 959 1106 1268 751 
Q 1578 397 2138 397 
Q 2388 397 2633 464 
Q 2878 531 3122 666 
L 3122 134 
Q 2881 22 2623 -34 
Q 2366 -91 2075 -91 
Q 1284 -91 818 406 
Q 353 903 353 1747 
Q 353 2603 823 3093 
Q 1294 3584 2113 3584 
Q 2378 3584 2631 3529 
Q 2884 3475 3122 3366 
z
" transform="scale(0.015625)"/>
       <path id="DejaVuSans-79" d="M 2059 -325 
Q 1816 -950 1584 -1140 
Q 1353 -1331 966 -1331 
L 506 -1331 
L 506 -850 
L 844 -850 
Q 1081 -850 1212 -737 
Q 1344 -625 1503 -206 
L 1606 56 
L 191 3500 
L 800 3500 
L 1894 763 
L 2988 3500 
L 3597 3500 
L 2059 -325 
z
" transform="scale(0.015625)"/>
       <path id="DejaVuSans-28" d="M 1984 4856 
Q 1566 4138 1362 3434 
Q 1159 2731 1159 2009 
Q 1159 1288 1364 580 
Q 1569 -128 1984 -844 
L 1484 -844 
Q 1016 -109 783 600 
Q 550 1309 550 2009 
Q 550 2706 781 3412 
Q 1013 4119 1484 4856 
L 1984 4856 
z
" transform="scale(0.015625)"/>
       <path id="DejaVuSans-6d" d="M 3328 2828 
Q 3544 3216 3844 3400 
Q 4144 3584 4550 3584 
Q 5097 3584 5394 3201 
Q 5691 2819 5691 2113 
L 5691 0 
L 5113 0 
L 5113 2094 
Q 5113 2597 4934 2840 
Q 4756 3084 4391 3084 
Q 3944 3084 3684 2787 
Q 3425 2491 3425 1978 
L 3425 0 
L 2847 0 
L 2847 2094 
Q 2847 2600 2669 2842 
Q 2491 3084 2119 3084 
Q 1678 3084 1418 2786 
Q 1159 2488 1159 1978 
L 1159 0 
L 581 0 
L 581 3500 
L 1159 3500 
L 1159 2956 
Q 1356 3278 1631 3431 
Q 1906 3584 2284 3584 
Q 2666 3584 2933 3390 
Q 3200 3197 3328 2828 
z
" transform="scale(0.015625)"/>
       <path id="DejaVuSans-73" d="M 2834 3397 
L 2834 2853 
Q 2591 2978 2328 3040 
Q 2066 3103 1784 3103 
Q 1356 3103 1142 2972 
Q 928 2841 928 2578 
Q 928 2378 1081 2264 
Q 1234 2150 1697 2047 
L 1894 2003 
Q 2506 1872 2764 1633 
Q 3022 1394 3022 966 
Q 3022 478 2636 193 
Q 2250 -91 1575 -91 
Q 1294 -91 989 -36 
Q 684 19 347 128 
L 347 722 
Q 666 556 975 473 
Q 1284 391 1588 391 
Q 1994 391 2212 530 
Q 2431 669 2431 922 
Q 2431 1156 2273 1281 
Q 2116 1406 1581 1522 
L 1381 1569 
Q 847 1681 609 1914 
Q 372 2147 372 2553 
Q 372 3047 722 3315 
Q 1072 3584 1716 3584 
Q 2034 3584 2315 3537 
Q 2597 3491 2834 3397 
z
" transform="scale(0.015625)"/>
       <path id="DejaVuSans-29" d="M 513 4856 
L 1013 4856 
Q 1481 4119 1714 3412 
Q 1947 2706 1947 2009 
Q 1947 1309 1714 600 
Q 1481 -109 1013 -844 
L 513 -844 
Q 928 -128 1133 580 
Q 1338 1288 1338 2009 
Q 1338 2731 1133 3434 
Q 928 4138 513 4856 
z
" transform="scale(0.015625)"/>
      </defs>
      <use xlink:href="#DejaVuSans-49"/>
      <use xlink:href="#DejaVuSans-6e" x="29.492188"/>
      <use xlink:href="#DejaVuSans-70" x="92.871094"/>
      <use xlink:href="#DejaVuSans-75" x="156.347656"/>
      <use xlink:href="#DejaVuSans-74" x="219.726562"/>
      <use xlink:href="#DejaVuSans-20" x="258.935547"/>
      <use xlink:href="#DejaVuSans-4c" x="290.722656"/>
      <use xlink:href="#DejaVuSans-61" x="346.435547"/>
      <use xlink:href="#DejaVuSans-74" x="407.714844"/>
      <use xlink:href="#DejaVuSans-65" x="446.923828"/>
      <use xlink:href="#DejaVuSans-6e" x="508.447266"/>
      <use xlink:href="#DejaVuSans-63" x="571.826172"/>
      <use xlink:href="#DejaVuSans-79" x="626.806641"/>
      <use xlink:href="#DejaVuSans-20" x="685.986328"/>
      <use xlink:href="#DejaVuSans-28" x="717.773438"/>
      <use xlink:href="#DejaVuSans-6d" x="756.787109"/>
      <use xlink:href="#DejaVuSans-73" x="854.199219"/>
      <use xlink:href="#DejaVuSans-29" x="906.298828"/>
     </g>
    </g>
   </g>
   <g id="matplotlib.axis_2">
    <g id="ytick_1">
     <g id="line2d_27">
      <defs>
       <path id="m05358b0a0b" d="M 0 0 
L -3.5 0 
" style="stroke: #000000; stroke-width: 0.8"/>
      </defs>
      <g>
       <use xlink:href="#m05358b0a0b" x="99" y="576.72" style="stroke: #000000; stroke-width: 0.8"/>
      </g>
     </g>
     <g id="text_28">
      <!-- 0.0 -->
      <g transform="translate(76.096875 580.519219) scale(0.1 -0.1)">
       <defs>
        <path id="DejaVuSans-2e" d="M 684 794 
L 1344 794 
L 1344 0 
L 684 0 
L 684 794 
z
" transform="scale(0.015625)"/>
       </defs>
       <use xlink:href="#DejaVuSans-30"/>
       <use xlink:href="#DejaVuSans-2e" x="63.623047"/>
       <use xlink:href="#DejaVuSans-30" x="95.410156"/>
      </g>
     </g>
    </g>
    <g id="ytick_2">
     <g id="line2d_28">
      <g>
       <use xlink:href="#m05358b0a0b" x="99" y="531.36" style="stroke: #000000; stroke-width: 0.8"/>
      </g>
     </g>
     <g id="text_29">
      <!-- 0.1 -->
      <g transform="translate(76.096875 535.159219) scale(0.1 -0.1)">
       <use xlink:href="#DejaVuSans-30"/>
       <use xlink:href="#DejaVuSans-2e" x="63.623047"/>
       <use xlink:href="#DejaVuSans-31" x="95.410156"/>
      </g>
     </g>
    </g>
    <g id="ytick_3">
     <g id="line2d_29">
      <g>
       <use xlink:href="#m05358b0a0b" x="99" y="486" style="stroke: #000000; stroke-width: 0.8"/>
      </g>
     </g>
     <g id="text_30">
      <!-- 0.2 -->
      <g transform="translate(76.096875 489.799219) scale(0.1 -0.1)">
       <use xlink:href="#DejaVuSans-30"/>
       <use xlink:href="#DejaVuSans-2e" x="63.623047"/>
       <use xlink:href="#DejaVuSans-32" x="95.410156"/>
      </g>
     </g>
    </g>
    <g id="ytick_4">
     <g id="line2d_30">
      <g>
       <use xlink:href="#m05358b0a0b" x="99" y="440.64" style="stroke: #000000; stroke-width: 0.8"/>
      </g>
     </g>
     <g id="text_31">
      <!-- 0.3 -->
      <g transform="translate(76.096875 444.439219) scale(0.1 -0.1)">
       <use xlink:href="#DejaVuSans-30"/>
       <use xlink:href="#DejaVuSans-2e" x="63.623047"/>
       <use xlink:href="#DejaVuSans-33" x="95.410156"/>
      </g>
     </g>
    </g>
    <g id="ytick_5">
     <g id="line2d_31">
      <g>
       <use xlink:href="#m05358b0a0b" x="99" y="395.28" style="stroke: #000000; stroke-width: 0.8"/>
      </g>
     </g>
     <g id="text_32">
      <!-- 0.4 -->
      <g transform="translate(76.096875 399.079219) scale(0.1 -0.1)">
       <use xlink:href="#DejaVuSans-30"/>
       <use xlink:href="#DejaVuSans-2e" x="63.623047"/>
       <use xlink:href="#DejaVuSans-34" x="95.410156"/>
      </g>
     </g>
    </g>
    <g id="ytick_6">
     <g id="line2d_32">
      <g>
       <use xlink:href="#m05358b0a0b" x="99" y="349.92" style="stroke: #000000; stroke-width: 0.8"/>
      </g>
     </g>
     <g id="text_33">
      <!-- 0.5 -->
      <g transform="translate(76.096875 353.719219) scale(0.1 -0.1)">
       <use xlink:href="#DejaVuSans-30"/>
       <use xlink:href="#DejaVuSans-2e" x="63.623047"/>
       <use xlink:href="#DejaVuSans-35" x="95.410156"/>
      </g>
     </g>
    </g>
    <g id="ytick_7">
     <g id="line2d_33">
      <g>
       <use xlink:href="#m05358b0a0b" x="99" y="304.56" style="stroke: #000000; stroke-width: 0.8"/>
      </g>
     </g>
     <g id="text_34">
      <!-- 0.6 -->
      <g transform="translate(76.096875 308.359219) scale(0.1 -0.1)">
       <use xlink:href="#DejaVuSans-30"/>
       <use xlink:href="#DejaVuSans-2e" x="63.623047"/>
       <use xlink:href="#DejaVuSans-36" x="95.410156"/>
      </g>
     </g>
    </g>
    <g id="ytick_8">
     <g id="line2d_34">
      <g>
       <use xlink:href="#m05358b0a0b" x="99" y="259.2" style="stroke: #000000; stroke-width: 0.8"/>
      </g>
     </g>
     <g id="text_35">
      <!-- 0.7 -->
      <g transform="translate(76.096875 262.999219) scale(0.1 -0.1)">
       <use xlink:href="#DejaVuSans-30"/>
       <use xlink:href="#DejaVuSans-2e" x="63.623047"/>
       <use xlink:href="#DejaVuSans-37" x="95.410156"/>
      </g>
     </g>
    </g>
    <g id="ytick_9">
     <g id="line2d_35">
      <g>
       <use xlink:href="#m05358b0a0b" x="99" y="213.84" style="stroke: #000000; stroke-width: 0.8"/>
      </g>
     </g>
     <g id="text_36">
      <!-- 0.8 -->
      <g transform="translate(76.096875 217.639219) scale(0.1 -0.1)">
       <use xlink:href="#DejaVuSans-30"/>
       <use xlink:href="#DejaVuSans-2e" x="63.623047"/>
       <use xlink:href="#DejaVuSans-38" x="95.410156"/>
      </g>
     </g>
    </g>
    <g id="ytick_10">
     <g id="line2d_36">
      <g>
       <use xlink:href="#m05358b0a0b" x="99" y="168.48" style="stroke: #000000; stroke-width: 0.8"/>
      </g>
     </g>
     <g id="text_37">
      <!-- 0.9 -->
      <g transform="translate(76.096875 172.279219) scale(0.1 -0.1)">
       <use xlink:href="#DejaVuSans-30"/>
       <use xlink:href="#DejaVuSans-2e" x="63.623047"/>
       <use xlink:href="#DejaVuSans-39" x="95.410156"/>
      </g>
     </g>
    </g>
    <g id="ytick_11">
     <g id="line2d_37">
      <g>
       <use xlink:href="#m05358b0a0b" x="99" y="123.12" style="stroke: #000000; stroke-width: 0.8"/>
      </g>
     </g>
     <g id="text_38">
      <!-- 1.0 -->
      <g transform="translate(76.096875 126.919219) scale(0.1 -0.1)">
       <use xlink:href="#DejaVuSans-31"/>
       <use xlink:href="#DejaVuSans-2e" x="63.623047"/>
       <use xlink:href="#DejaVuSans-30" x="95.410156"/>
      </g>
     </g>
    </g>
    <g id="text_39">
     <!-- Likelihood of occurrence -->
     <g transform="translate(70.017187 388.151719) rotate(-90) scale(0.1 -0.1)">
      <defs>
       <path id="DejaVuSans-69" d="M 603 3500 
L 1178 3500 
L 1178 0 
L 603 0 
L 603 3500 
z
M 603 4863 
L 1178 4863 
L 1178 4134 
L 603 4134 
L 603 4863 
z
" transform="scale(0.015625)"/>
       <path id="DejaVuSans-6b" d="M 581 4863 
L 1159 4863 
L 1159 1991 
L 2875 3500 
L 3609 3500 
L 1753 1863 
L 3688 0 
L 2938 0 
L 1159 1709 
L 1159 0 
L 581 0 
L 581 4863 
z
" transform="scale(0.015625)"/>
       <path id="DejaVuSans-6c" d="M 603 4863 
L 1178 4863 
L 1178 0 
L 603 0 
L 603 4863 
z
" transform="scale(0.015625)"/>
       <path id="DejaVuSans-68" d="M 3513 2113 
L 3513 0 
L 2938 0 
L 2938 2094 
Q 2938 2591 2744 2837 
Q 2550 3084 2163 3084 
Q 1697 3084 1428 2787 
Q 1159 2491 1159 1978 
L 1159 0 
L 581 0 
L 581 4863 
L 1159 4863 
L 1159 2956 
Q 1366 3272 1645 3428 
Q 1925 3584 2291 3584 
Q 2894 3584 3203 3211 
Q 3513 2838 3513 2113 
z
" transform="scale(0.015625)"/>
       <path id="DejaVuSans-6f" d="M 1959 3097 
Q 1497 3097 1228 2736 
Q 959 2375 959 1747 
Q 959 1119 1226 758 
Q 1494 397 1959 397 
Q 2419 397 2687 759 
Q 2956 1122 2956 1747 
Q 2956 2369 2687 2733 
Q 2419 3097 1959 3097 
z
M 1959 3584 
Q 2709 3584 3137 3096 
Q 3566 2609 3566 1747 
Q 3566 888 3137 398 
Q 2709 -91 1959 -91 
Q 1206 -91 779 398 
Q 353 888 353 1747 
Q 353 2609 779 3096 
Q 1206 3584 1959 3584 
z
" transform="scale(0.015625)"/>
       <path id="DejaVuSans-64" d="M 2906 2969 
L 2906 4863 
L 3481 4863 
L 3481 0 
L 2906 0 
L 2906 525 
Q 2725 213 2448 61 
Q 2172 -91 1784 -91 
Q 1150 -91 751 415 
Q 353 922 353 1747 
Q 353 2572 751 3078 
Q 1150 3584 1784 3584 
Q 2172 3584 2448 3432 
Q 2725 3281 2906 2969 
z
M 947 1747 
Q 947 1113 1208 752 
Q 1469 391 1925 391 
Q 2381 391 2643 752 
Q 2906 1113 2906 1747 
Q 2906 2381 2643 2742 
Q 2381 3103 1925 3103 
Q 1469 3103 1208 2742 
Q 947 2381 947 1747 
z
" transform="scale(0.015625)"/>
       <path id="DejaVuSans-66" d="M 2375 4863 
L 2375 4384 
L 1825 4384 
Q 1516 4384 1395 4259 
Q 1275 4134 1275 3809 
L 1275 3500 
L 2222 3500 
L 2222 3053 
L 1275 3053 
L 1275 0 
L 697 0 
L 697 3053 
L 147 3053 
L 147 3500 
L 697 3500 
L 697 3744 
Q 697 4328 969 4595 
Q 1241 4863 1831 4863 
L 2375 4863 
z
" transform="scale(0.015625)"/>
       <path id="DejaVuSans-72" d="M 2631 2963 
Q 2534 3019 2420 3045 
Q 2306 3072 2169 3072 
Q 1681 3072 1420 2755 
Q 1159 2438 1159 1844 
L 1159 0 
L 581 0 
L 581 3500 
L 1159 3500 
L 1159 2956 
Q 1341 3275 1631 3429 
Q 1922 3584 2338 3584 
Q 2397 3584 2469 3576 
Q 2541 3569 2628 3553 
L 2631 2963 
z
" transform="scale(0.015625)"/>
      </defs>
      <use xlink:href="#DejaVuSans-4c"/>
      <use xlink:href="#DejaVuSans-69" x="55.712891"/>
      <use xlink:href="#DejaVuSans-6b" x="83.496094"/>
      <use xlink:href="#DejaVuSans-65" x="137.78125"/>
      <use xlink:href="#DejaVuSans-6c" x="199.304688"/>
      <use xlink:href="#DejaVuSans-69" x="227.087891"/>
      <use xlink:href="#DejaVuSans-68" x="254.871094"/>
      <use xlink:href="#DejaVuSans-6f" x="318.25"/>
      <use xlink:href="#DejaVuSans-6f" x="379.431641"/>
      <use xlink:href="#DejaVuSans-64" x="440.613281"/>
      <use xlink:href="#DejaVuSans-20" x="504.089844"/>
      <use xlink:href="#DejaVuSans-6f" x="535.876953"/>
      <use xlink:href="#DejaVuSans-66" x="597.058594"/>
      <use xlink:href="#DejaVuSans-20" x="632.263672"/>
      <use xlink:href="#DejaVuSans-6f" x="664.050781"/>
      <use xlink:href="#DejaVuSans-63" x="725.232422"/>
      <use xlink:href="#DejaVuSans-63" x="780.212891"/>
      <use xlink:href="#DejaVuSans-75" x="835.193359"/>
      <use xlink:href="#DejaVuSans-72" x="898.572266"/>
      <use xlink:href="#DejaVuSans-72" x="937.935547"/>
      <use xlink:href="#DejaVuSans-65" x="976.798828"/>
      <use xlink:href="#DejaVuSans-6e" x="1038.322266"/>
      <use xlink:href="#DejaVuSans-63" x="1101.701172"/>
      <use xlink:href="#DejaVuSans-65" x="1156.681641"/>
     </g>
    </g>
   </g>
   <g id="line2d_38">
    <path d="M 151.583644 576.72 
L 164.770857 576.149554 
L 164.973483 576.054479 
L 165.721512 575.86433 
L 168.173855 575.674182 
L 169.027701 575.388958 
L 169.975542 575.198809 
L 170.371789 575.103735 
L 171.504809 574.913586 
L 172.442519 574.438214 
L 174.307245 574.057917 
L 174.412498 573.962842 
L 175.242704 573.772693 
L 175.964842 573.48747 
L 176.074598 573.297321 
L 178.026003 572.917024 
L 178.159399 572.821949 
L 179.019436 572.536726 
L 179.616058 572.061354 
L 179.616621 571.96628 
L 180.301611 571.776131 
L 181.094106 571.205684 
L 181.1048 571.11061 
L 182.142697 570.540163 
L 182.351515 570.350015 
L 182.789976 570.159866 
L 183.195792 569.874643 
L 183.290914 569.684494 
L 183.391664 569.589419 
L 183.922996 569.399271 
L 183.937067 569.304196 
L 184.305172 569.114047 
L 184.535378 568.828824 
L 185.469148 568.353452 
L 186.288097 567.973154 
L 186.962956 567.402708 
L 188.041941 567.212559 
L 188.330121 566.927336 
L 188.365018 566.832262 
L 188.906481 566.642113 
L 188.952072 566.547038 
L 189.296537 566.35689 
L 189.304417 566.261815 
L 189.554885 566.071666 
L 189.795223 565.691369 
L 190.298975 565.50122 
L 190.325992 565.215997 
L 190.735747 564.930773 
L 191.352632 564.550476 
L 192.405164 563.409583 
L 192.732744 563.12436 
L 192.79916 562.934211 
L 193.054695 562.744062 
L 193.198784 562.458839 
L 193.763887 562.26869 
L 194.066138 561.698244 
L 194.980209 561.032723 
L 195.088276 560.842574 
L 195.433867 560.367202 
L 195.447375 560.272127 
L 195.889776 560.081979 
L 195.947187 559.796755 
L 196.475704 559.416458 
L 197.259193 559.03616 
L 197.327861 558.846011 
L 197.544559 558.560788 
L 197.547936 558.465714 
L 198.054502 558.275565 
L 198.863319 557.610044 
L 199.226358 557.229746 
L 199.242118 557.134672 
L 199.645683 556.944523 
L 199.763319 556.754374 
L 199.99071 556.564226 
L 200.621667 555.518407 
L 200.662755 555.328258 
L 201.116976 555.043035 
L 201.328045 554.567663 
L 201.919039 554.377514 
L 202.071571 554.187365 
L 202.100277 553.997217 
L 202.260127 553.807068 
L 202.579826 553.046472 
L 202.94174 552.856324 
L 203.096524 552.5711 
L 203.331233 552.000654 
L 203.527105 551.810505 
L 203.746054 551.620356 
L 204.326916 550.859761 
L 204.686578 550.479463 
L 204.742301 550.289315 
L 204.952244 549.813943 
L 204.956184 549.718868 
L 205.259561 549.433645 
L 205.861812 548.768124 
L 206.000836 548.292752 
L 206.150554 548.102603 
L 206.179823 547.912454 
L 206.59971 547.627231 
L 206.836107 547.151859 
L 207.55712 545.44052 
L 207.884136 545.155297 
L 208.108714 544.965148 
L 208.23423 544.58485 
L 208.61922 543.919329 
L 208.721659 543.539032 
L 208.798207 543.253808 
L 208.806087 543.06366 
L 209.294079 542.778436 
L 209.434229 542.398139 
L 210.132727 541.447395 
L 210.871188 540.021279 
L 210.953364 539.260683 
L 211.173439 538.595162 
L 211.279255 538.309939 
L 211.512838 538.11979 
L 211.74811 537.739493 
L 212.092575 537.073972 
L 212.195577 536.883823 
L 212.241731 536.5986 
L 212.683569 536.123228 
L 212.779254 535.74293 
L 213.213775 535.077409 
L 213.379253 534.887261 
L 213.544168 534.316814 
L 214.18019 533.175921 
L 214.463867 532.985772 
L 214.660302 532.5104 
L 214.858426 532.225177 
L 215.15336 531.654731 
L 215.367244 531.179359 
L 215.533285 530.799061 
L 215.775311 530.608912 
L 215.876624 530.323689 
L 216.194635 529.658168 
L 216.445667 529.182796 
L 216.540226 528.802498 
L 216.774372 528.422201 
L 216.89257 527.946829 
L 217.152608 527.091159 
L 217.355797 526.805936 
L 217.448668 526.330564 
L 218.225965 524.429076 
L 218.421274 524.143852 
L 218.572681 523.478332 
L 218.916021 522.622662 
L 218.975683 522.337439 
L 219.140598 522.052215 
L 219.225026 521.671918 
L 219.983187 519.390132 
L 220.142474 518.629537 
L 220.374931 518.344314 
L 220.713768 517.393569 
L 220.779058 516.918197 
L 221.621084 515.301933 
L 221.72296 514.82656 
L 221.842847 514.256114 
L 221.992003 513.875816 
L 222.174367 513.115221 
L 222.398381 512.544775 
L 222.490126 512.164477 
L 222.795192 511.118659 
L 222.892002 510.92851 
L 223.067049 510.07284 
L 223.157668 509.692542 
L 223.159356 509.597468 
L 223.291063 509.407319 
L 223.596692 508.741798 
L 224.183746 507.69598 
L 224.333464 507.505831 
L 224.448848 506.745236 
L 224.652601 506.079715 
L 224.729148 505.604343 
L 224.850161 505.31912 
L 225.011137 504.938822 
L 225.152975 504.178227 
L 225.524457 503.037334 
L 225.845845 502.561962 
L 226.031586 501.801367 
L 226.137402 501.421069 
L 226.285995 500.280176 
L 226.551098 500.090027 
L 227.166857 498.188539 
L 227.300816 497.427944 
L 227.652598 496.382125 
L 227.796688 495.906753 
L 227.89181 495.526456 
L 228.429895 492.674223 
L 228.604942 492.484075 
L 228.769857 492.008703 
L 228.89087 491.343182 
L 229.838712 487.254982 
L 229.949031 487.064833 
L 230.180363 486.019015 
L 230.435897 485.25842 
L 230.544527 484.973196 
L 230.792745 484.497824 
L 231.006628 483.452006 
L 231.357285 482.406187 
L 231.625765 480.980071 
L 231.735521 480.694848 
L 232.015821 479.458881 
L 232.782424 475.846053 
L 233.43702 472.3283 
L 233.536082 471.948003 
L 233.702123 471.187407 
L 233.823699 470.236663 
L 233.945838 469.761291 
L 234.14959 469.190845 
L 234.837394 466.528761 
L 234.912253 465.86324 
L 235.019758 465.007571 
L 235.623134 462.725785 
L 235.785798 461.775041 
L 236.402683 459.112957 
L 236.516379 458.542511 
L 236.754465 458.067139 
L 236.894052 457.496693 
L 237.012251 456.641023 
L 238.322569 450.366112 
L 238.418816 449.985814 
L 238.522944 449.605517 
L 238.719942 449.03507 
L 239.891798 444.28135 
L 239.970034 443.996127 
L 240.289734 442.474936 
L 240.470972 442.094638 
L 240.594799 441.619266 
L 240.838514 440.668522 
L 240.969095 439.907927 
L 241.253335 438.006439 
L 241.524067 436.2951 
L 241.686731 435.534504 
L 241.816749 435.059132 
L 242.02219 433.537942 
L 244.436822 422.033938 
L 244.549955 421.463492 
L 244.703613 420.607822 
L 244.917497 419.276781 
L 245.031756 418.706334 
L 245.167966 417.565441 
L 245.293481 416.994995 
L 245.417309 416.614697 
L 245.584476 415.568879 
L 245.712243 415.283655 
L 246.173781 412.051126 
L 246.306051 411.575754 
L 246.427627 411.100381 
L 246.548077 410.625009 
L 246.662336 409.484117 
L 246.836257 408.153075 
L 247.31074 405.68114 
L 247.418245 405.110694 
L 247.519558 404.635322 
L 247.658582 403.589503 
L 248.071715 401.307717 
L 248.19104 401.117569 
L 249.455204 394.082062 
L 249.808674 392.751021 
L 250.594977 388.187449 
L 250.795352 386.666259 
L 250.896666 385.715515 
L 251.118429 384.479547 
L 251.192163 384.289398 
L 251.334001 383.623878 
L 251.589536 382.38791 
L 251.707171 381.722389 
L 252.315051 378.394785 
L 252.469272 377.63419 
L 252.655013 376.968669 
L 252.816551 375.922851 
L 252.905482 375.352404 
L 252.976401 375.067181 
L 253.170022 373.831214 
L 253.482967 372.595246 
L 253.60398 372.119874 
L 253.760453 371.739577 
L 254.128557 369.552865 
L 254.283904 369.267642 
L 254.457825 368.316898 
L 254.919363 366.700633 
L 255.087656 365.749889 
L 255.186155 365.369591 
L 255.299851 364.799145 
L 255.367393 364.323773 
L 255.750695 361.851838 
L 255.853134 361.566615 
L 256.106417 360.425722 
L 256.191407 360.140499 
L 256.346191 359.665127 
L 256.503227 359.474978 
L 257.153883 355.672002 
L 257.277147 355.19663 
L 257.379586 354.816332 
L 257.482025 354.531109 
L 257.901912 352.819769 
L 258.14619 351.773951 
L 258.270017 351.203505 
L 258.444501 351.013356 
L 258.603788 350.062612 
L 258.870579 349.111868 
L 259.019172 348.73157 
L 259.228553 347.115305 
L 259.553881 346.259635 
L 259.750316 345.213817 
L 259.954631 344.453222 
L 260.050878 344.167998 
L 260.14206 343.787701 
L 260.270953 343.217254 
L 260.498345 342.26651 
L 260.606412 342.076361 
L 260.683523 341.600989 
L 260.792153 341.41084 
L 260.952003 340.840394 
L 261.876205 337.037418 
L 262.107537 336.371897 
L 262.249938 335.896525 
L 262.555566 334.470409 
L 262.836992 333.709813 
L 262.900031 333.42459 
L 263.014853 333.234441 
L 263.096466 332.759069 
L 263.258005 332.093549 
L 263.880518 329.52654 
L 264.01898 328.67087 
L 264.441681 328.005349 
L 264.665696 327.434903 
L 264.780517 326.769382 
L 265.475076 324.012224 
L 265.549372 323.631926 
L 265.764381 323.441777 
L 265.880892 322.776257 
L 266.009222 322.300885 
L 266.203405 322.110736 
L 266.479202 321.159992 
L 266.612598 320.874768 
L 267.092147 319.733875 
L 267.192335 319.353578 
L 267.469258 318.783131 
L 267.727044 317.642239 
L 267.877325 317.071792 
L 268.032672 316.121048 
L 268.149182 315.930899 
L 268.254998 315.360453 
L 268.540364 315.170304 
L 269.238862 312.888518 
L 269.529293 312.603295 
L 269.667755 312.222997 
L 269.767942 312.032848 
L 269.928355 311.652551 
L 270.21766 311.272253 
L 270.361187 310.796881 
L 270.51372 310.226435 
L 270.640362 310.036286 
L 270.721412 309.751063 
L 270.897022 309.560914 
L 270.990455 309.370765 
L 271.59552 308.134798 
L 271.818972 307.944649 
L 271.947302 307.7545 
L 272.119535 307.184054 
L 272.632292 306.23331 
L 272.782011 305.853012 
L 273.28914 304.426896 
L 273.563811 303.951524 
L 273.7867 303.381077 
L 273.900396 302.715556 
L 274.036043 302.525408 
L 274.133979 302.14511 
L 274.386137 301.574664 
L 274.876943 300.338696 
L 274.976568 300.053473 
L 275.187074 299.007655 
L 275.329475 298.817506 
L 277.256115 294.634232 
L 277.50377 294.15886 
L 277.511087 294.063785 
L 277.762118 293.778562 
L 277.885383 293.588413 
L 277.917465 293.493339 
L 278.103206 293.30319 
L 278.503394 292.542595 
L 278.866433 291.306628 
L 279.040354 291.116479 
L 279.295325 290.165735 
L 279.429284 289.595288 
L 279.616713 289.310065 
L 279.810334 288.739619 
L 280.389508 287.979023 
L 280.497013 287.6938 
L 280.716525 287.123354 
L 281.596261 284.841568 
L 281.667743 284.651419 
L 282.295885 283.225303 
L 282.558174 283.035154 
L 283.880874 279.992773 
L 284.103763 278.946955 
L 284.27881 278.661731 
L 284.469054 277.901136 
L 284.839973 277.520838 
L 284.908641 277.235615 
L 285.157984 277.045466 
L 285.277308 276.379946 
L 285.678621 275.904573 
L 285.951604 275.714425 
L 285.955544 275.61935 
L 286.223461 275.334127 
L 286.312392 275.143978 
L 286.584812 274.573532 
L 286.735093 274.288309 
L 286.85498 274.003085 
L 286.979933 273.717862 
L 287.170177 273.24249 
L 287.332278 272.767118 
L 287.507325 272.576969 
L 287.826462 271.531151 
L 287.836593 271.436076 
L 288.226086 271.055779 
L 288.327962 270.675481 
L 288.396067 270.485332 
L 288.697192 270.295183 
L 288.963984 269.914886 
L 290.022707 267.538026 
L 290.079555 267.347877 
L 290.259105 266.872505 
L 291.011074 264.875942 
L 291.067359 264.780868 
L 291.354976 264.590719 
L 291.504132 264.305496 
L 291.923456 263.164603 
L 291.983118 262.974454 
L 292.094 262.689231 
L 292.203756 262.213859 
L 292.468859 261.358189 
L 292.786307 260.692668 
L 292.923642 260.122222 
L 294.017262 257.93551 
L 294.373547 257.650287 
L 294.464729 257.26999 
L 294.617825 256.984766 
L 294.842402 256.41432 
L 295.248781 255.653725 
L 295.423828 255.463576 
L 296.068292 253.467013 
L 296.18818 253.276864 
L 296.268105 253.086716 
L 296.718386 252.706418 
L 296.842776 252.421195 
L 296.978986 252.135971 
L 297.762475 251.185227 
L 297.876171 250.995079 
L 298.042212 250.614781 
L 298.190242 250.044335 
L 298.322512 249.664037 
L 298.602249 249.378814 
L 298.773355 248.808367 
L 299.063224 248.523144 
L 299.187614 248.142846 
L 299.405437 247.952698 
L 299.421197 247.857623 
L 299.742585 247.667474 
L 299.968289 246.71673 
L 300.116319 246.526581 
L 300.307688 245.861061 
L 300.396618 245.670912 
L 300.67917 244.815242 
L 301.029826 244.33987 
L 301.635454 243.959572 
L 301.74127 243.674349 
L 302.009187 243.103903 
L 302.298493 242.723605 
L 302.707123 241.392563 
L 303.059468 240.156596 
L 303.262657 239.491075 
L 303.67185 238.825554 
L 304.270724 237.969885 
L 304.448585 237.779736 
L 304.550461 237.494513 
L 304.771098 237.114215 
L 305.124006 236.543769 
L 305.354212 235.973322 
L 305.46228 235.688099 
L 305.574287 235.307801 
L 305.828133 234.357057 
L 305.973349 234.071834 
L 306.326256 233.216164 
L 306.484418 233.026016 
L 306.655524 232.26542 
L 306.724755 231.885123 
L 307.268469 231.124527 
L 307.383291 230.554081 
L 307.592672 230.363932 
L 307.717062 229.508262 
L 308.238262 228.652593 
L 308.497736 228.462444 
L 308.718937 227.701849 
L 309.009368 226.941253 
L 309.183289 226.465881 
L 309.385916 226.085584 
L 309.61387 225.895435 
L 309.8013 225.13484 
L 310.072031 224.754542 
L 310.257209 224.469319 
L 310.410305 223.993947 
L 310.440136 223.518575 
L 310.632631 223.233351 
L 310.766027 222.853054 
L 311.013119 222.567831 
L 311.279347 222.187533 
L 311.294544 222.092459 
L 311.479722 221.90231 
L 311.565839 221.331863 
L 311.685726 221.04664 
L 311.837696 220.286045 
L 311.913681 220.000822 
L 311.959272 219.715598 
L 312.075782 219.430375 
L 312.854205 217.528887 
L 313.115368 217.338738 
L 313.363585 216.958441 
L 313.720996 215.627399 
L 314.018181 215.247101 
L 314.125686 214.961878 
L 314.227562 214.771729 
L 314.394166 214.106208 
L 314.647449 213.91606 
L 314.863584 213.440687 
L 315.017242 213.250539 
L 315.167524 212.775167 
L 315.671838 211.634274 
L 315.890225 211.444125 
L 316.028123 211.253976 
L 316.120431 210.968753 
L 316.710862 210.303232 
L 316.842006 210.113083 
L 317.248385 209.732786 
L 317.465645 209.352488 
L 318.940316 206.119958 
L 319.092285 205.929809 
L 319.253824 205.359363 
L 319.347257 204.979065 
L 321.732058 200.605642 
L 322.155885 200.320419 
L 322.270706 200.13027 
L 322.462076 199.845047 
L 323.44594 197.658336 
L 323.54275 197.468187 
L 323.87033 197.278038 
L 324.205789 196.517443 
L 324.882336 194.996252 
L 325.137308 194.52088 
L 325.148002 194.425806 
L 325.540309 194.235657 
L 325.674268 193.855359 
L 325.912354 193.665211 
L 326.498282 192.619392 
L 326.700909 192.429243 
L 326.817982 192.239095 
L 326.900158 191.858797 
L 327.075767 191.668648 
L 327.164135 191.098202 
L 327.598093 190.717904 
L 327.845185 190.147458 
L 328.034866 189.957309 
L 328.122671 189.672086 
L 328.315166 189.196713 
L 328.489087 188.721341 
L 329.319293 187.770597 
L 329.538242 187.580449 
L 329.542182 187.485374 
L 329.780268 187.295225 
L 329.94856 186.819853 
L 330.082519 186.439556 
L 330.323419 186.249407 
L 330.330736 186.154332 
L 330.465258 185.964184 
L 330.577265 185.583886 
L 330.732612 185.298663 
L 330.999404 184.633142 
L 331.192461 184.252844 
L 331.226795 184.15777 
L 331.510472 183.967621 
L 331.715913 183.492249 
L 331.991147 183.111951 
L 332.27595 182.351356 
L 332.882704 181.78091 
L 333.104467 181.115389 
L 333.259251 180.544942 
L 333.550808 179.784347 
L 333.808594 179.118826 
L 333.95775 178.928677 
L 334.475573 178.073008 
L 334.858875 177.787785 
L 335.010844 177.597636 
L 335.664315 176.932115 
L 335.984014 176.266594 
L 336.862062 175.220776 
L 336.989266 174.935552 
L 337.186827 174.745403 
L 337.190767 174.650329 
L 337.587577 174.270031 
L 337.726602 174.079883 
L 337.927539 173.889734 
L 337.996207 173.604511 
L 338.613655 172.93899 
L 338.731854 172.653767 
L 339.048176 172.273469 
L 339.351553 171.607948 
L 339.609339 171.132576 
L 340.0478 170.847353 
L 340.124348 170.467055 
L 340.653428 169.991683 
L 340.815529 169.516311 
L 341.031664 169.231088 
L 341.225285 168.755716 
L 341.830913 168.090195 
L 342.314965 166.949302 
L 342.676878 166.759153 
L 342.862056 166.378856 
L 343.292075 165.428112 
L 343.858303 164.952739 
L 343.942731 164.762591 
L 344.284944 164.572442 
L 344.370498 164.09707 
L 344.906895 163.811847 
L 345.184943 163.336475 
L 345.490572 163.146326 
L 345.495637 163.051251 
L 345.805206 162.861102 
L 345.916087 162.670954 
L 346.97481 161.815284 
L 347.139163 161.530061 
L 347.32997 161.244838 
L 347.474059 160.86454 
L 347.934472 160.484242 
L 348.090382 160.294093 
L 348.60933 160.103945 
L 348.824902 159.913796 
L 349.169367 159.438424 
L 350.185314 158.392605 
L 350.53991 157.536936 
L 350.768428 157.346787 
L 350.893944 157.061564 
L 351.551917 156.300968 
L 351.718521 156.11082 
L 351.88231 155.920671 
L 352.017395 155.635447 
L 352.08156 155.350224 
L 352.593754 155.160075 
L 352.883623 154.779778 
L 352.942722 154.684703 
L 353.403697 154.39948 
L 353.454354 154.304406 
L 353.659795 154.114257 
L 353.794879 153.829034 
L 353.95698 153.638885 
L 354.174804 153.448736 
L 354.250226 153.258587 
L 354.397693 153.068438 
L 354.410075 152.973364 
L 354.823771 152.593066 
L 355.035966 152.307843 
L 355.067486 152.117694 
L 355.296566 151.927546 
L 356.51739 150.311281 
L 356.566358 150.026057 
L 357.132587 149.64576 
L 357.278928 149.550685 
L 357.720766 149.360537 
L 357.898065 148.980239 
L 358.253787 148.695016 
L 358.368608 148.504867 
L 358.374237 148.409792 
L 358.776675 148.219644 
L 358.816075 148.029495 
L 359.005193 147.839346 
L 359.038964 147.744272 
L 359.342904 147.554123 
L 359.976674 146.603379 
L 359.995811 146.508304 
L 360.232209 146.318156 
L 360.383616 145.937858 
L 361.180613 145.55756 
L 361.455284 145.272337 
L 362.468417 144.701891 
L 363.292994 144.511742 
L 363.836708 144.226519 
L 364.05228 143.846221 
L 364.42545 143.656072 
L 365.956406 142.800402 
L 366.389801 142.420105 
L 367.135579 142.134882 
L 367.216067 141.944733 
L 367.705747 141.754584 
L 367.715316 141.564435 
L 367.977042 141.374286 
L 368.120006 141.279212 
L 368.995803 140.993989 
L 369.2322 140.613691 
L 369.714564 140.233393 
L 369.883982 139.94817 
L 370.068034 139.758021 
L 370.106871 139.567873 
L 370.955651 139.092501 
L 371.023193 138.902352 
L 371.923192 138.617128 
L 371.971034 138.522054 
L 372.470283 138.331905 
L 372.571034 138.046682 
L 372.658276 137.951608 
L 373.057337 137.761459 
L 373.080414 137.666384 
L 373.884166 137.191012 
L 374.085104 137.000864 
L 374.571407 136.620566 
L 374.775159 136.335343 
L 375.108367 136.145194 
L 375.150581 136.050119 
L 375.472532 135.859971 
L 375.497297 135.764896 
L 376.203676 135.384599 
L 376.718684 135.19445 
L 376.781161 135.004301 
L 377.893355 134.719078 
L 378.474218 134.433855 
L 378.487726 134.33878 
L 378.920559 134.148631 
L 378.922247 134.053557 
L 379.443447 133.768334 
L 379.77947 133.388036 
L 380.328812 133.197887 
L 380.365398 133.102813 
L 381.170838 132.722515 
L 381.384721 132.532366 
L 381.957141 132.342218 
L 382.066334 132.247143 
L 383.466708 131.866846 
L 383.544382 131.676697 
L 384.094287 131.391473 
L 384.218114 131.201325 
L 386.591095 130.821027 
L 386.64738 130.725953 
L 388.110231 130.345655 
L 388.131619 130.250581 
L 388.384902 130.060432 
L 388.475521 129.965357 
L 389.353006 129.775209 
L 389.492594 129.58506 
L 390.418484 129.489985 
L 392.821859 129.299837 
L 393.016042 129.204762 
L 393.490526 129.014613 
L 393.679081 128.824464 
L 396.795588 128.254018 
L 397.970259 128.063869 
L 398.484705 127.778646 
L 399.955998 127.588497 
L 400.096711 127.493423 
L 401.30853 127.2082 
L 403.560498 126.637753 
L 404.988451 126.447604 
L 405.017719 126.35253 
L 405.238357 126.257455 
L 408.057116 125.972232 
L 414.825965 125.591935 
L 415.289755 125.49686 
L 418.624648 125.211637 
L 424.586369 124.926414 
L 433.555403 124.260893 
L 433.675853 124.165818 
L 436.161405 123.97567 
L 439.352208 123.880595 
L 467.745802 123.690446 
L 469.715219 123.595372 
L 621.387307 123.310149 
L 793 123.264378 
L 793 123.264378 
" clip-path="url(#pca8dd2fa0d)" style="fill: none; stroke: #ff0000; stroke-width: 1.5; stroke-linecap: square"/>
   </g>
   <g id="line2d_39">
    <path d="M 150.787772 576.72 
L 168.149653 575.958767 
L 171.062971 575.57815 
L 171.101245 575.482996 
L 176.623941 575.007225 
L 176.818125 574.91207 
L 177.594297 574.721762 
L 177.63651 574.531454 
L 177.790169 574.4363 
L 179.036321 574.150837 
L 179.254708 574.055683 
L 179.984726 573.865374 
L 180.286414 573.484758 
L 183.332565 572.913833 
L 184.632751 572.342907 
L 185.490537 572.152599 
L 185.661081 572.057445 
L 186.166521 571.867137 
L 186.206483 571.771982 
L 186.895976 571.581674 
L 187.229184 571.296211 
L 188.186594 571.010749 
L 188.371209 570.630132 
L 188.743817 570.439824 
L 189.426555 570.249515 
L 189.816611 570.059207 
L 189.911733 569.964053 
L 190.3592 569.773744 
L 191.050381 569.107665 
L 191.167454 568.917357 
L 191.428617 568.727048 
L 191.660512 568.346432 
L 191.822613 568.156123 
L 192.198598 567.965815 
L 192.852631 567.490044 
L 192.959573 567.299736 
L 193.659197 566.919119 
L 194.026176 566.443348 
L 194.265388 566.157885 
L 194.317733 566.062731 
L 194.615481 565.872423 
L 194.649815 565.777269 
L 194.921109 565.491806 
L 194.930678 565.396652 
L 195.261071 565.206344 
L 195.391653 565.016035 
L 195.68715 564.730573 
L 195.772703 564.540264 
L 196.10366 564.254802 
L 196.167262 564.159648 
L 196.552815 563.969339 
L 196.750376 563.398414 
L 197.21698 563.017797 
L 197.314916 562.827489 
L 197.729174 562.542026 
L 197.784334 562.351718 
L 198.183958 561.971101 
L 198.222795 561.875947 
L 198.52392 561.685639 
L 198.722044 561.49533 
L 199.117165 561.209868 
L 199.401968 561.019559 
L 199.503281 560.829251 
L 199.834801 560.638943 
L 199.955814 560.35348 
L 200.295776 559.592247 
L 200.56707 559.401938 
L 200.879453 559.21163 
L 200.970634 558.926167 
L 201.116413 558.450396 
L 202.207781 557.023084 
L 202.282641 556.832775 
L 202.887706 556.357004 
L 202.964254 556.26185 
L 203.317161 556.071542 
L 203.526542 555.786079 
L 203.883953 555.595771 
L 204.030857 555.215154 
L 204.823351 553.787841 
L 204.827291 553.692687 
L 205.654683 553.026608 
L 205.775696 552.741145 
L 206.19896 551.979912 
L 206.720723 551.694449 
L 206.839484 551.408987 
L 207.065751 551.218678 
L 207.105713 551.02837 
L 207.507026 550.552599 
L 207.621848 550.267137 
L 207.733292 550.076828 
L 207.77044 549.981674 
L 208.023161 549.791366 
L 208.190327 549.601057 
L 208.321472 549.030132 
L 208.574192 548.74467 
L 208.640608 548.459207 
L 208.917531 548.268899 
L 209.015467 547.983436 
L 209.19558 547.697974 
L 209.224848 547.602819 
L 209.418469 547.412511 
L 209.420157 547.317357 
L 209.627849 547.127048 
L 209.758431 546.556123 
L 209.96556 546.175507 
L 210.062371 545.890044 
L 210.346611 545.604581 
L 210.581882 545.319119 
L 210.784509 545.128811 
L 210.815466 544.938502 
L 210.943796 544.748194 
L 211.641731 543.416035 
L 212.601393 541.512952 
L 212.824845 541.132335 
L 213.232912 539.990485 
L 213.23854 539.89533 
L 213.416401 539.705022 
L 213.531223 539.514714 
L 213.829534 539.229251 
L 213.864431 539.038943 
L 214.208333 538.848634 
L 214.683379 538.468018 
L 214.956362 537.897093 
L 215.168557 537.706784 
L 215.261428 537.231013 
L 215.451671 536.945551 
L 215.53835 536.564934 
L 216.00608 535.994009 
L 217.534784 533.139383 
L 217.803827 532.853921 
L 217.914708 532.568458 
L 218.186566 532.282996 
L 218.340224 532.092687 
L 218.405515 531.807225 
L 218.612081 531.426608 
L 218.735908 530.950837 
L 219.273994 530.379912 
L 219.603262 529.42837 
L 219.94041 529.047753 
L 219.996695 528.762291 
L 220.182436 528.476828 
L 220.45373 527.430132 
L 220.720522 527.14467 
L 220.842098 526.954361 
L 221.044724 526.764053 
L 221.220897 526.002819 
L 222.928024 522.006344 
L 223.052977 521.720881 
L 223.211701 521.435419 
L 223.58656 520.388722 
L 223.700256 519.817797 
L 224.009262 519.342026 
L 224.161231 518.675947 
L 224.25579 518.390485 
L 224.383558 517.914714 
L 224.598004 517.629251 
L 225.200818 515.535859 
L 225.348285 514.86978 
L 225.541906 514.679471 
L 225.602694 514.394009 
L 225.791249 514.013392 
L 225.812637 513.918238 
L 225.982618 513.72793 
L 226.373237 512.395771 
L 226.513387 512.110308 
L 226.578678 511.824846 
L 226.653537 511.634537 
L 226.949034 511.349075 
L 227.066107 511.063612 
L 227.621078 508.875066 
L 227.752222 508.589604 
L 227.905881 508.304141 
L 228.23346 507.542907 
L 228.244717 507.447753 
L 228.385993 507.257445 
L 228.478863 506.971982 
L 228.716387 506.020441 
L 228.799689 505.830132 
L 229.082803 505.449515 
L 229.194247 505.164053 
L 229.390682 504.783436 
L 229.503253 504.497974 
L 229.573046 504.212511 
L 229.663665 503.641586 
L 229.845466 503.165815 
L 231.233457 499.074185 
L 232.469479 495.077709 
L 232.581486 494.601938 
L 232.931017 492.794009 
L 233.113943 492.508546 
L 233.542836 490.605463 
L 233.610378 490.224846 
L 233.824262 489.558767 
L 234.129327 488.416916 
L 234.433267 486.989604 
L 234.64321 486.799295 
L 234.893679 485.657445 
L 235.025386 484.896211 
L 235.185799 484.610749 
L 235.268538 483.94467 
L 235.426699 483.564053 
L 236.039081 480.233656 
L 236.191614 479.948194 
L 236.322195 479.18696 
L 236.437017 478.806344 
L 236.570413 478.235419 
L 236.804559 476.522643 
L 236.867598 476.142026 
L 236.962157 475.571101 
L 237.271163 474.429251 
L 237.319005 474.238943 
L 237.487298 474.048634 
L 237.884671 472.716476 
L 238.062532 472.526167 
L 238.497053 471.0037 
L 238.629323 469.671542 
L 238.789735 469.386079 
L 238.99011 468.72 
L 239.218065 467.292687 
L 239.320504 467.007225 
L 239.326695 466.91207 
L 239.615438 466.626608 
L 239.771911 465.865374 
L 240.454086 462.534978 
L 240.586357 461.773744 
L 241.358588 456.920881 
L 241.440202 456.540264 
L 241.561215 455.588722 
L 241.859526 454.066256 
L 242.025567 453.209868 
L 242.939075 448.92793 
L 243.043765 447.976388 
L 243.241326 447.405463 
L 243.342076 446.834537 
L 243.484478 445.692687 
L 244.123877 442.838062 
L 244.372094 441.125286 
L 244.594983 439.602819 
L 244.729505 438.93674 
L 245.175283 436.843348 
L 245.301361 436.082115 
L 245.484851 434.940264 
L 245.93682 433.227489 
L 246.350516 430.277709 
L 246.605488 429.516476 
L 246.705675 429.040705 
L 246.787289 428.564934 
L 246.901548 427.8037 
L 247.273029 425.424846 
L 247.383911 425.139383 
L 247.616931 423.426608 
L 247.703611 423.141145 
L 248.137569 420.857445 
L 248.219182 420.571982 
L 248.499482 419.239824 
L 248.638506 418.668899 
L 248.730814 418.097974 
L 248.846761 416.860969 
L 249.017868 415.909427 
L 249.134941 415.338502 
L 249.2098 414.767577 
L 249.347699 413.816035 
L 249.446198 413.24511 
L 249.690475 411.817797 
L 249.751263 411.532335 
L 249.91843 410.580793 
L 250.114302 408.772863 
L 250.231375 408.392247 
L 250.46721 407.060088 
L 250.75539 405.632775 
L 251.16796 402.492687 
L 251.275465 402.016916 
L 251.4325 401.350837 
L 252.200229 397.734978 
L 252.383719 396.688282 
L 252.461392 396.307665 
L 253.484656 391.454802 
L 253.558952 391.074185 
L 253.785218 389.36141 
L 254.138126 387.648634 
L 255.004354 382.129692 
L 255.072459 381.844229 
L 255.859325 377.752599 
L 255.976961 377.371982 
L 256.092908 377.08652 
L 256.209419 376.705903 
L 256.670957 374.327048 
L 257.310918 370.711189 
L 257.415046 370.330573 
L 257.550693 370.140264 
L 257.61317 369.664493 
L 257.748817 368.808106 
L 257.86195 367.76141 
L 258.027428 366.809868 
L 258.217672 366.429251 
L 259.475644 360.624846 
L 259.632117 360.339383 
L 259.712042 359.673304 
L 259.785213 359.387841 
L 259.885963 359.102379 
L 260.941309 355.296211 
L 261.018982 354.915595 
L 261.143935 354.534978 
L 261.378082 353.012511 
L 261.476018 352.727048 
L 261.526111 352.251278 
L 261.645999 352.060969 
L 261.862696 351.109427 
L 262.049 350.728811 
L 262.23249 349.682115 
L 262.560632 347.874185 
L 262.665322 347.30326 
L 262.954065 346.732335 
L 263.316541 345.209868 
L 263.469074 344.924405 
L 263.576016 344.734097 
L 263.966072 343.592247 
L 264.142807 343.21163 
L 264.335865 341.879471 
L 264.427047 341.594009 
L 264.648247 340.452159 
L 265.421042 337.31207 
L 265.819541 336.645991 
L 266.237739 334.838062 
L 266.348058 334.267137 
L 266.425169 334.076828 
L 266.52817 333.696211 
L 266.61485 333.410749 
L 266.698152 332.839824 
L 266.823104 332.649515 
L 266.933423 332.268899 
L 266.99984 331.888282 
L 267.083142 331.602819 
L 267.200778 331.317357 
L 267.20922 331.222203 
L 267.49346 330.93674 
L 267.712409 330.365815 
L 267.814848 329.890044 
L 268.151996 328.65304 
L 268.286518 328.462731 
L 268.603966 326.940264 
L 268.901151 326.464493 
L 269.016536 326.179031 
L 269.062127 325.70326 
L 269.297961 325.512952 
L 269.501151 324.846872 
L 269.622164 324.656564 
L 269.758374 324.180793 
L 270.00434 323.89533 
L 270.069068 323.324405 
L 270.300962 323.134097 
L 270.407904 322.848634 
L 270.590831 322.468018 
L 270.967378 321.897093 
L 271.162125 321.421322 
L 271.24993 321.231013 
L 271.45537 320.755242 
L 271.570192 320.46978 
L 271.666439 320.089163 
L 271.77901 319.8037 
L 271.900586 319.518238 
L 272.27263 318.757004 
L 272.401523 318.566696 
L 272.528165 317.900617 
L 272.807902 317.615154 
L 273.083136 317.044229 
L 273.191766 316.853921 
L 273.315594 316.282996 
L 274.265124 313.904141 
L 274.484636 313.713833 
L 275.170188 312.001057 
L 275.339044 311.810749 
L 275.344109 311.715595 
L 275.548987 311.525286 
L 275.776942 310.954361 
L 276.306022 310.097974 
L 276.404521 309.812511 
L 276.960055 308.956123 
L 277.51165 307.623965 
L 277.65968 307.338502 
L 277.820092 306.957885 
L 277.973751 306.482115 
L 278.177503 306.006344 
L 278.326658 305.24511 
L 278.868121 304.483877 
L 279.004331 303.722643 
L 279.199641 303.246872 
L 279.293637 303.056564 
L 279.57056 302.390485 
L 279.7957 302.009868 
L 279.917276 301.534097 
L 280.145793 300.963172 
L 280.297763 300.772863 
L 280.436788 300.392247 
L 280.59326 300.201938 
L 281.549544 297.72793 
L 281.775811 297.537621 
L 281.953109 296.966696 
L 282.202452 296.681233 
L 282.300951 296.300617 
L 282.942038 294.11207 
L 283.732282 292.684758 
L 283.857235 292.113833 
L 284.016521 291.638062 
L 284.098135 291.352599 
L 284.250668 291.162291 
L 284.345789 290.68652 
L 284.618772 290.305903 
L 284.838847 289.54467 
L 285.052731 289.354361 
L 285.82046 288.117357 
L 285.981998 287.927048 
L 286.066989 287.546432 
L 286.3456 286.975507 
L 286.550478 286.690044 
L 286.705825 286.119119 
L 286.912391 285.643348 
L 287.036781 285.45304 
L 287.222522 284.977269 
L 287.342972 284.78696 
L 287.501134 284.596652 
L 287.596818 284.216035 
L 287.632841 284.025727 
L 287.85967 283.835419 
L 288.135467 282.598414 
L 288.418018 281.932335 
L 288.534528 281.456564 
L 288.697192 281.266256 
L 288.826648 280.980793 
L 289.136779 279.838943 
L 289.341657 279.458326 
L 289.601694 278.887401 
L 289.721019 278.601938 
L 289.957416 278.126167 
L 290.143157 277.935859 
L 290.411074 277.555242 
L 290.57205 277.26978 
L 290.72008 277.079471 
L 290.97674 276.508546 
L 291.203006 276.223084 
L 291.322894 275.747313 
L 294.431521 268.039824 
L 294.55366 267.754361 
L 294.784992 267.183436 
L 295.169419 266.897974 
L 295.305629 266.707665 
L 295.426079 266.517357 
L 295.562289 266.327048 
L 295.742401 265.946432 
L 295.870169 265.280352 
L 295.997936 264.899736 
L 296.14484 264.519119 
L 296.344652 264.043348 
L 296.559099 263.757885 
L 296.691369 263.377269 
L 296.80225 263.091806 
L 296.839399 262.901498 
L 297.069605 262.711189 
L 297.315008 261.569339 
L 297.577297 260.998414 
L 298.338271 259.380793 
L 298.482361 258.714714 
L 298.798684 258.048634 
L 298.864537 257.477709 
L 299.05253 257.192247 
L 299.617069 255.955242 
L 299.770165 255.764934 
L 300.419132 254.147313 
L 301.003372 253.290925 
L 301.121571 253.005463 
L 301.292678 252.434537 
L 301.653465 251.387841 
L 301.887611 251.007225 
L 302.008062 250.4363 
L 302.218005 250.055683 
L 302.411626 249.865374 
L 302.548962 249.484758 
L 303.088173 248.152599 
L 303.195115 247.771982 
L 303.527197 247.48652 
L 304.105245 246.249515 
L 304.265095 245.67859 
L 304.374851 245.297974 
L 304.576915 244.631894 
L 304.894926 244.346432 
L 304.976539 243.965815 
L 305.60243 242.538502 
L 305.790422 242.348194 
L 305.922692 242.062731 
L 306.066782 241.872423 
L 306.072973 241.777269 
L 306.258714 241.58696 
L 306.424755 240.920881 
L 306.612748 240.540264 
L 306.731509 240.254802 
L 306.889108 239.493568 
L 307.038263 239.208106 
L 307.17391 238.732335 
L 307.45027 238.066256 
L 307.70693 237.019559 
L 307.923628 236.448634 
L 308.012559 235.877709 
L 308.253459 235.021322 
L 308.344078 234.640705 
L 308.503928 234.450396 
L 308.779725 233.784317 
L 308.996985 233.308546 
L 309.420812 232.26185 
L 309.82888 231.595771 
L 309.911056 231.024846 
L 310.075408 230.834537 
L 310.197547 230.453921 
L 310.437885 230.073304 
L 310.907303 229.882996 
L 312.0043 227.504141 
L 312.523249 225.88652 
L 312.891916 225.505903 
L 312.896982 225.410749 
L 313.113117 225.220441 
L 313.349514 224.934978 
L 313.560021 224.649515 
L 313.698482 224.268899 
L 313.830752 223.983436 
L 314.023247 223.412511 
L 314.247262 222.93674 
L 314.752139 222.460969 
L 314.843884 222.080352 
L 315.023997 221.604581 
L 315.162458 221.319119 
L 315.380281 220.177269 
L 315.483846 219.98696 
L 315.627936 219.416035 
L 315.89923 218.940264 
L 315.991538 218.654802 
L 316.561143 217.608106 
L 316.654577 217.322643 
L 316.804858 217.132335 
L 317.05195 216.656564 
L 317.19998 216.466256 
L 317.299041 216.085639 
L 317.410486 215.89533 
L 317.587221 215.419559 
L 318.026245 214.75348 
L 318.25814 213.897093 
L 318.464143 213.706784 
L 318.576151 213.421322 
L 318.642567 213.231013 
L 318.88009 213.040705 
L 319.370897 211.613392 
L 319.719865 211.423084 
L 319.747444 211.232775 
L 320.020427 210.852159 
L 320.05251 210.66185 
L 320.297913 210.376388 
L 320.714986 209.139383 
L 320.981214 208.568458 
L 321.569394 207.2363 
L 322.062451 206.379912 
L 322.588154 204.762291 
L 322.600537 204.667137 
L 322.894346 204.476828 
L 323.111043 203.525286 
L 323.413294 202.668899 
L 323.53487 202.383436 
L 323.829241 201.717357 
L 323.856821 201.527048 
L 323.989654 201.33674 
L 324.418547 200.290044 
L 324.614419 199.433656 
L 324.984775 198.672423 
L 325.222861 198.38696 
L 325.521735 197.625727 
L 325.991153 197.24511 
L 326.013104 197.149956 
L 326.217982 196.959648 
L 326.397532 196.293568 
L 326.544999 196.10326 
L 326.649126 195.912952 
L 327.166387 194.675947 
L 327.2874 194.200176 
L 327.366762 194.009868 
L 327.957755 193.629251 
L 328.427173 192.677709 
L 328.611226 192.392247 
L 329.162257 191.345551 
L 329.457191 191.155242 
L 329.819104 190.108546 
L 329.973889 189.918238 
L 330.127547 189.537621 
L 330.553062 188.681233 
L 331.029235 187.729692 
L 331.167696 187.444229 
L 331.51779 186.682996 
L 331.808221 186.016916 
L 332.015913 185.826608 
L 332.12004 185.255683 
L 332.293961 185.065374 
L 332.498276 184.018678 
L 332.761691 183.733216 
L 333.11291 182.68652 
L 333.471446 182.305903 
L 333.849119 181.639824 
L 333.904842 181.449515 
L 334.097337 181.068899 
L 334.491895 180.87859 
L 335.236548 179.73674 
L 335.60803 178.880352 
L 335.852307 178.690044 
L 335.913658 178.499736 
L 336.122476 178.309427 
L 336.272757 177.643348 
L 336.612156 177.167577 
L 336.650993 176.977269 
L 337.006715 176.78696 
L 337.671442 175.549956 
L 337.999022 175.359648 
L 338.402586 174.883877 
L 338.412717 174.693568 
L 338.769002 174.50326 
L 338.886638 174.312952 
L 339.985324 172.600176 
L 340.09902 172.029251 
L 340.197519 171.743789 
L 340.333729 171.363172 
L 340.585886 171.172863 
L 340.768813 170.887401 
L 341.284384 170.316476 
L 341.41778 169.745551 
L 341.626035 169.555242 
L 341.788136 169.079471 
L 342.28626 168.508546 
L 342.494515 167.842467 
L 343.225095 167.46185 
L 344.112712 166.034537 
L 344.224156 165.749075 
L 344.923218 165.273304 
L 345.610459 164.702379 
L 346.010083 164.51207 
L 346.497513 163.845991 
L 346.76543 163.655683 
L 346.841415 163.275066 
L 347.137474 162.704141 
L 347.409332 162.513833 
L 347.673872 162.22837 
L 347.919275 161.847753 
L 348.970681 160.420441 
L 349.248729 160.230132 
L 349.698448 160.039824 
L 350.244413 159.754361 
L 350.277059 159.564053 
L 350.747602 159.183436 
L 351.2249 158.707665 
L 351.569928 158.517357 
L 351.579496 158.422203 
L 351.810265 158.231894 
L 352.074243 157.565815 
L 352.141785 157.375507 
L 353.03503 156.519119 
L 354.164672 154.901498 
L 354.505197 154.616035 
L 354.593565 154.330573 
L 354.855291 154.140264 
L 354.93803 153.949956 
L 355.628085 153.474185 
L 356.121143 152.808106 
L 356.242719 152.332335 
L 356.698066 152.142026 
L 356.805007 151.856564 
L 356.828647 151.666256 
L 356.985683 151.475947 
L 356.994125 151.285639 
L 357.35041 151.09533 
L 357.61495 150.809868 
L 357.693187 150.619559 
L 358.231272 150.334097 
L 358.277426 150.143789 
L 358.590372 149.668018 
L 358.686056 149.382555 
L 358.718702 149.287401 
L 358.997313 149.001938 
L 359.315887 148.716476 
L 359.788682 148.526167 
L 359.892809 148.335859 
L 359.98174 148.145551 
L 360.403878 147.764934 
L 360.640276 147.574626 
L 361.888117 146.147313 
L 362.32489 145.766696 
L 362.387366 145.576388 
L 363.283988 145.195771 
L 363.349842 144.910308 
L 363.728641 144.72 
L 363.796183 144.529692 
L 364.263349 144.244229 
L 364.659034 143.958767 
L 365.394117 143.673304 
L 365.552841 143.57815 
L 366.074042 143.387841 
L 366.399933 143.102379 
L 366.868225 142.721762 
L 367.591489 142.4363 
L 368.317567 141.865374 
L 368.820756 141.675066 
L 369.066159 141.294449 
L 369.468598 141.104141 
L 369.476478 141.008987 
L 369.824882 140.818678 
L 370.025257 140.62837 
L 370.297115 140.438062 
L 370.407433 140.247753 
L 371.028821 139.962291 
L 371.512873 139.581674 
L 372.425255 138.820441 
L 372.443829 138.630132 
L 373.031446 138.439824 
L 373.059589 138.34467 
L 373.312309 138.154361 
L 373.321877 138.059207 
L 373.777787 137.773744 
L 374.081726 137.583436 
L 375.439324 137.012511 
L 375.478723 136.917357 
L 376.118685 136.727048 
L 377.507802 136.156123 
L 377.604612 135.870661 
L 378.021122 135.585198 
L 378.075719 135.39489 
L 378.62281 135.109427 
L 379.837443 133.967577 
L 381.880593 133.58696 
L 381.928998 133.301498 
L 382.480593 133.111189 
L 383.452637 132.635419 
L 384.152824 132.254802 
L 384.844005 131.969339 
L 387.044753 131.588722 
L 387.293534 131.398414 
L 389.762762 131.112952 
L 390.563137 130.922643 
L 392.670452 129.875947 
L 394.136679 129.685639 
L 395.406472 129.209868 
L 395.504971 129.019559 
L 395.745308 128.924405 
L 396.810785 128.734097 
L 398.289396 128.163172 
L 401.668755 127.782555 
L 401.807779 127.592247 
L 403.092205 127.401938 
L 408.557491 127.021322 
L 409.190136 126.926167 
L 412.110771 126.640705 
L 412.483378 126.545551 
L 420.555791 125.689163 
L 425.752034 125.498855 
L 426.00588 125.4037 
L 433.675853 124.832775 
L 433.792926 124.737621 
L 447.411675 124.547313 
L 448.174902 124.452159 
L 455.329867 124.166696 
L 477.977312 123.976388 
L 478.465867 123.881233 
L 507.604676 123.595771 
L 580.054325 123.405463 
L 580.688096 123.310308 
L 793 123.299821 
L 793 123.299821 
" clip-path="url(#pca8dd2fa0d)" style="fill: none; stroke: #0000ff; stroke-width: 1.5; stroke-linecap: square"/>
   </g>
   <g id="patch_3">
    <path d="M 99 576.72 
L 99 77.76 
" style="fill: none; stroke: #000000; stroke-width: 0.8; stroke-linejoin: miter; stroke-linecap: square"/>
   </g>
   <g id="patch_4">
    <path d="M 712.8 576.72 
L 712.8 77.76 
" style="fill: none; stroke: #000000; stroke-width: 0.8; stroke-linejoin: miter; stroke-linecap: square"/>
   </g>
   <g id="patch_5">
    <path d="M 99 576.72 
L 712.8 576.72 
" style="fill: none; stroke: #000000; stroke-width: 0.8; stroke-linejoin: miter; stroke-linecap: square"/>
   </g>
   <g id="patch_6">
    <path d="M 99 77.76 
L 712.8 77.76 
" style="fill: none; stroke: #000000; stroke-width: 0.8; stroke-linejoin: miter; stroke-linecap: square"/>
   </g>
   <g id="legend_1">
    <g id="patch_7">
     <path d="M 106 115.11625 
L 237.165625 115.11625 
Q 239.165625 115.11625 239.165625 113.11625 
L 239.165625 84.76 
Q 239.165625 82.76 237.165625 82.76 
L 106 82.76 
Q 104 82.76 104 84.76 
L 104 113.11625 
Q 104 115.11625 106 115.11625 
z
" style="fill: #ffffff; opacity: 0.8; stroke: #cccccc; stroke-linejoin: miter"/>
    </g>
    <g id="line2d_40">
     <path d="M 108 90.858437 
L 118 90.858437 
L 128 90.858437 
" style="fill: none; stroke: #ff0000; stroke-width: 1.5; stroke-linecap: square"/>
    </g>
    <g id="text_40">
     <!-- Victoria Telus 1 CDF -->
     <g transform="translate(136 94.358437) scale(0.1 -0.1)">
      <defs>
       <path id="DejaVuSans-56" d="M 1831 0 
L 50 4666 
L 709 4666 
L 2188 738 
L 3669 4666 
L 4325 4666 
L 2547 0 
L 1831 0 
z
" transform="scale(0.015625)"/>
       <path id="DejaVuSans-54" d="M -19 4666 
L 3928 4666 
L 3928 4134 
L 2272 4134 
L 2272 0 
L 1638 0 
L 1638 4134 
L -19 4134 
L -19 4666 
z
" transform="scale(0.015625)"/>
       <path id="DejaVuSans-43" d="M 4122 4306 
L 4122 3641 
Q 3803 3938 3442 4084 
Q 3081 4231 2675 4231 
Q 1875 4231 1450 3742 
Q 1025 3253 1025 2328 
Q 1025 1406 1450 917 
Q 1875 428 2675 428 
Q 3081 428 3442 575 
Q 3803 722 4122 1019 
L 4122 359 
Q 3791 134 3420 21 
Q 3050 -91 2638 -91 
Q 1578 -91 968 557 
Q 359 1206 359 2328 
Q 359 3453 968 4101 
Q 1578 4750 2638 4750 
Q 3056 4750 3426 4639 
Q 3797 4528 4122 4306 
z
" transform="scale(0.015625)"/>
       <path id="DejaVuSans-44" d="M 1259 4147 
L 1259 519 
L 2022 519 
Q 2988 519 3436 956 
Q 3884 1394 3884 2338 
Q 3884 3275 3436 3711 
Q 2988 4147 2022 4147 
L 1259 4147 
z
M 628 4666 
L 1925 4666 
Q 3281 4666 3915 4102 
Q 4550 3538 4550 2338 
Q 4550 1131 3912 565 
Q 3275 0 1925 0 
L 628 0 
L 628 4666 
z
" transform="scale(0.015625)"/>
       <path id="DejaVuSans-46" d="M 628 4666 
L 3309 4666 
L 3309 4134 
L 1259 4134 
L 1259 2759 
L 3109 2759 
L 3109 2228 
L 1259 2228 
L 1259 0 
L 628 0 
L 628 4666 
z
" transform="scale(0.015625)"/>
      </defs>
      <use xlink:href="#DejaVuSans-56"/>
      <use xlink:href="#DejaVuSans-69" x="66.158203"/>
      <use xlink:href="#DejaVuSans-63" x="93.941406"/>
      <use xlink:href="#DejaVuSans-74" x="148.921875"/>
      <use xlink:href="#DejaVuSans-6f" x="188.130859"/>
      <use xlink:href="#DejaVuSans-72" x="249.3125"/>
      <use xlink:href="#DejaVuSans-69" x="290.425781"/>
      <use xlink:href="#DejaVuSans-61" x="318.208984"/>
      <use xlink:href="#DejaVuSans-20" x="379.488281"/>
      <use xlink:href="#DejaVuSans-54" x="411.275391"/>
      <use xlink:href="#DejaVuSans-65" x="455.359375"/>
      <use xlink:href="#DejaVuSans-6c" x="516.882812"/>
      <use xlink:href="#DejaVuSans-75" x="544.666016"/>
      <use xlink:href="#DejaVuSans-73" x="608.044922"/>
      <use xlink:href="#DejaVuSans-20" x="660.144531"/>
      <use xlink:href="#DejaVuSans-31" x="691.931641"/>
      <use xlink:href="#DejaVuSans-20" x="755.554688"/>
      <use xlink:href="#DejaVuSans-43" x="787.341797"/>
      <use xlink:href="#DejaVuSans-44" x="857.166016"/>
      <use xlink:href="#DejaVuSans-46" x="934.167969"/>
     </g>
    </g>
    <g id="line2d_41">
     <path d="M 108 105.536562 
L 118 105.536562 
L 128 105.536562 
" style="fill: none; stroke: #0000ff; stroke-width: 1.5; stroke-linecap: square"/>
    </g>
    <g id="text_41">
     <!-- Victoria Telus 2 CDF -->
     <g transform="translate(136 109.036562) scale(0.1 -0.1)">
      <use xlink:href="#DejaVuSans-56"/>
      <use xlink:href="#DejaVuSans-69" x="66.158203"/>
      <use xlink:href="#DejaVuSans-63" x="93.941406"/>
      <use xlink:href="#DejaVuSans-74" x="148.921875"/>
      <use xlink:href="#DejaVuSans-6f" x="188.130859"/>
      <use xlink:href="#DejaVuSans-72" x="249.3125"/>
      <use xlink:href="#DejaVuSans-69" x="290.425781"/>
      <use xlink:href="#DejaVuSans-61" x="318.208984"/>
      <use xlink:href="#DejaVuSans-20" x="379.488281"/>
      <use xlink:href="#DejaVuSans-54" x="411.275391"/>
      <use xlink:href="#DejaVuSans-65" x="455.359375"/>
      <use xlink:href="#DejaVuSans-6c" x="516.882812"/>
      <use xlink:href="#DejaVuSans-75" x="544.666016"/>
      <use xlink:href="#DejaVuSans-73" x="608.044922"/>
      <use xlink:href="#DejaVuSans-20" x="660.144531"/>
      <use xlink:href="#DejaVuSans-32" x="691.931641"/>
      <use xlink:href="#DejaVuSans-20" x="755.554688"/>
      <use xlink:href="#DejaVuSans-43" x="787.341797"/>
      <use xlink:href="#DejaVuSans-44" x="857.166016"/>
      <use xlink:href="#DejaVuSans-46" x="934.167969"/>
     </g>
    </g>
   </g>
  </g>
 </g>
 <defs>
  <clipPath id="pca8dd2fa0d">
   <rect x="99" y="77.76" width="613.8" height="498.96"/>
  </clipPath>
 </defs>
</svg>
