<?xml version="1.0" encoding="utf-8" standalone="no"?>
<!DOCTYPE svg PUBLIC "-//W3C//DTD SVG 1.1//EN"
  "http://www.w3.org/Graphics/SVG/1.1/DTD/svg11.dtd">
<svg xmlns:xlink="http://www.w3.org/1999/xlink" width="792pt" height="648pt" viewBox="0 0 792 648" xmlns="http://www.w3.org/2000/svg" version="1.1">
 <metadata>
  <rdf:RDF xmlns:dc="http://purl.org/dc/elements/1.1/" xmlns:cc="http://creativecommons.org/ns#" xmlns:rdf="http://www.w3.org/1999/02/22-rdf-syntax-ns#">
   <cc:Work>
    <dc:type rdf:resource="http://purl.org/dc/dcmitype/StillImage"/>
    <dc:date>2024-01-04T02:41:38.689992</dc:date>
    <dc:format>image/svg+xml</dc:format>
    <dc:creator>
     <cc:Agent>
      <dc:title>Matplotlib v3.8.2, https://matplotlib.org/</dc:title>
     </cc:Agent>
    </dc:creator>
   </cc:Work>
  </rdf:RDF>
 </metadata>
 <defs>
  <style type="text/css">*{stroke-linejoin: round; stroke-linecap: butt}</style>
 </defs>
 <g id="figure_1">
  <g id="patch_1">
   <path d="M 0 648 
L 792 648 
L 792 0 
L 0 0 
z
" style="fill: #ffffff"/>
  </g>
  <g id="axes_1">
   <g id="patch_2">
    <path d="M 99 576.72 
L 712.8 576.72 
L 712.8 77.76 
L 99 77.76 
z
" style="fill: #ffffff"/>
   </g>
   <g id="matplotlib.axis_1">
    <g id="xtick_1">
     <g id="line2d_1">
      <defs>
       <path id="ma5e6ae07e4" d="M 0 0 
L 0 3.5 
" style="stroke: #000000; stroke-width: 0.8"/>
      </defs>
      <g>
       <use xlink:href="#ma5e6ae07e4" x="99" y="576.72" style="stroke: #000000; stroke-width: 0.8"/>
      </g>
     </g>
     <g id="text_1">
      <!-- 0 -->
      <g transform="translate(95.81875 591.318438) scale(0.1 -0.1)">
       <defs>
        <path id="DejaVuSans-30" d="M 2034 4250 
Q 1547 4250 1301 3770 
Q 1056 3291 1056 2328 
Q 1056 1369 1301 889 
Q 1547 409 2034 409 
Q 2525 409 2770 889 
Q 3016 1369 3016 2328 
Q 3016 3291 2770 3770 
Q 2525 4250 2034 4250 
z
M 2034 4750 
Q 2819 4750 3233 4129 
Q 3647 3509 3647 2328 
Q 3647 1150 3233 529 
Q 2819 -91 2034 -91 
Q 1250 -91 836 529 
Q 422 1150 422 2328 
Q 422 3509 836 4129 
Q 1250 4750 2034 4750 
z
" transform="scale(0.015625)"/>
       </defs>
       <use xlink:href="#DejaVuSans-30"/>
      </g>
     </g>
    </g>
    <g id="xtick_2">
     <g id="line2d_2">
      <g>
       <use xlink:href="#ma5e6ae07e4" x="122.607692" y="576.72" style="stroke: #000000; stroke-width: 0.8"/>
      </g>
     </g>
     <g id="text_2">
      <!-- 10 -->
      <g transform="translate(116.245192 591.318438) scale(0.1 -0.1)">
       <defs>
        <path id="DejaVuSans-31" d="M 794 531 
L 1825 531 
L 1825 4091 
L 703 3866 
L 703 4441 
L 1819 4666 
L 2450 4666 
L 2450 531 
L 3481 531 
L 3481 0 
L 794 0 
L 794 531 
z
" transform="scale(0.015625)"/>
       </defs>
       <use xlink:href="#DejaVuSans-31"/>
       <use xlink:href="#DejaVuSans-30" x="63.623047"/>
      </g>
     </g>
    </g>
    <g id="xtick_3">
     <g id="line2d_3">
      <g>
       <use xlink:href="#ma5e6ae07e4" x="146.215385" y="576.72" style="stroke: #000000; stroke-width: 0.8"/>
      </g>
     </g>
     <g id="text_3">
      <!-- 20 -->
      <g transform="translate(139.852885 591.318438) scale(0.1 -0.1)">
       <defs>
        <path id="DejaVuSans-32" d="M 1228 531 
L 3431 531 
L 3431 0 
L 469 0 
L 469 531 
Q 828 903 1448 1529 
Q 2069 2156 2228 2338 
Q 2531 2678 2651 2914 
Q 2772 3150 2772 3378 
Q 2772 3750 2511 3984 
Q 2250 4219 1831 4219 
Q 1534 4219 1204 4116 
Q 875 4013 500 3803 
L 500 4441 
Q 881 4594 1212 4672 
Q 1544 4750 1819 4750 
Q 2544 4750 2975 4387 
Q 3406 4025 3406 3419 
Q 3406 3131 3298 2873 
Q 3191 2616 2906 2266 
Q 2828 2175 2409 1742 
Q 1991 1309 1228 531 
z
" transform="scale(0.015625)"/>
       </defs>
       <use xlink:href="#DejaVuSans-32"/>
       <use xlink:href="#DejaVuSans-30" x="63.623047"/>
      </g>
     </g>
    </g>
    <g id="xtick_4">
     <g id="line2d_4">
      <g>
       <use xlink:href="#ma5e6ae07e4" x="169.823077" y="576.72" style="stroke: #000000; stroke-width: 0.8"/>
      </g>
     </g>
     <g id="text_4">
      <!-- 30 -->
      <g transform="translate(163.460577 591.318438) scale(0.1 -0.1)">
       <defs>
        <path id="DejaVuSans-33" d="M 2597 2516 
Q 3050 2419 3304 2112 
Q 3559 1806 3559 1356 
Q 3559 666 3084 287 
Q 2609 -91 1734 -91 
Q 1441 -91 1130 -33 
Q 819 25 488 141 
L 488 750 
Q 750 597 1062 519 
Q 1375 441 1716 441 
Q 2309 441 2620 675 
Q 2931 909 2931 1356 
Q 2931 1769 2642 2001 
Q 2353 2234 1838 2234 
L 1294 2234 
L 1294 2753 
L 1863 2753 
Q 2328 2753 2575 2939 
Q 2822 3125 2822 3475 
Q 2822 3834 2567 4026 
Q 2313 4219 1838 4219 
Q 1578 4219 1281 4162 
Q 984 4106 628 3988 
L 628 4550 
Q 988 4650 1302 4700 
Q 1616 4750 1894 4750 
Q 2613 4750 3031 4423 
Q 3450 4097 3450 3541 
Q 3450 3153 3228 2886 
Q 3006 2619 2597 2516 
z
" transform="scale(0.015625)"/>
       </defs>
       <use xlink:href="#DejaVuSans-33"/>
       <use xlink:href="#DejaVuSans-30" x="63.623047"/>
      </g>
     </g>
    </g>
    <g id="xtick_5">
     <g id="line2d_5">
      <g>
       <use xlink:href="#ma5e6ae07e4" x="193.430769" y="576.72" style="stroke: #000000; stroke-width: 0.8"/>
      </g>
     </g>
     <g id="text_5">
      <!-- 40 -->
      <g transform="translate(187.068269 591.318438) scale(0.1 -0.1)">
       <defs>
        <path id="DejaVuSans-34" d="M 2419 4116 
L 825 1625 
L 2419 1625 
L 2419 4116 
z
M 2253 4666 
L 3047 4666 
L 3047 1625 
L 3713 1625 
L 3713 1100 
L 3047 1100 
L 3047 0 
L 2419 0 
L 2419 1100 
L 313 1100 
L 313 1709 
L 2253 4666 
z
" transform="scale(0.015625)"/>
       </defs>
       <use xlink:href="#DejaVuSans-34"/>
       <use xlink:href="#DejaVuSans-30" x="63.623047"/>
      </g>
     </g>
    </g>
    <g id="xtick_6">
     <g id="line2d_6">
      <g>
       <use xlink:href="#ma5e6ae07e4" x="217.038462" y="576.72" style="stroke: #000000; stroke-width: 0.8"/>
      </g>
     </g>
     <g id="text_6">
      <!-- 50 -->
      <g transform="translate(210.675962 591.318438) scale(0.1 -0.1)">
       <defs>
        <path id="DejaVuSans-35" d="M 691 4666 
L 3169 4666 
L 3169 4134 
L 1269 4134 
L 1269 2991 
Q 1406 3038 1543 3061 
Q 1681 3084 1819 3084 
Q 2600 3084 3056 2656 
Q 3513 2228 3513 1497 
Q 3513 744 3044 326 
Q 2575 -91 1722 -91 
Q 1428 -91 1123 -41 
Q 819 9 494 109 
L 494 744 
Q 775 591 1075 516 
Q 1375 441 1709 441 
Q 2250 441 2565 725 
Q 2881 1009 2881 1497 
Q 2881 1984 2565 2268 
Q 2250 2553 1709 2553 
Q 1456 2553 1204 2497 
Q 953 2441 691 2322 
L 691 4666 
z
" transform="scale(0.015625)"/>
       </defs>
       <use xlink:href="#DejaVuSans-35"/>
       <use xlink:href="#DejaVuSans-30" x="63.623047"/>
      </g>
     </g>
    </g>
    <g id="xtick_7">
     <g id="line2d_7">
      <g>
       <use xlink:href="#ma5e6ae07e4" x="240.646154" y="576.72" style="stroke: #000000; stroke-width: 0.8"/>
      </g>
     </g>
     <g id="text_7">
      <!-- 60 -->
      <g transform="translate(234.283654 591.318438) scale(0.1 -0.1)">
       <defs>
        <path id="DejaVuSans-36" d="M 2113 2584 
Q 1688 2584 1439 2293 
Q 1191 2003 1191 1497 
Q 1191 994 1439 701 
Q 1688 409 2113 409 
Q 2538 409 2786 701 
Q 3034 994 3034 1497 
Q 3034 2003 2786 2293 
Q 2538 2584 2113 2584 
z
M 3366 4563 
L 3366 3988 
Q 3128 4100 2886 4159 
Q 2644 4219 2406 4219 
Q 1781 4219 1451 3797 
Q 1122 3375 1075 2522 
Q 1259 2794 1537 2939 
Q 1816 3084 2150 3084 
Q 2853 3084 3261 2657 
Q 3669 2231 3669 1497 
Q 3669 778 3244 343 
Q 2819 -91 2113 -91 
Q 1303 -91 875 529 
Q 447 1150 447 2328 
Q 447 3434 972 4092 
Q 1497 4750 2381 4750 
Q 2619 4750 2861 4703 
Q 3103 4656 3366 4563 
z
" transform="scale(0.015625)"/>
       </defs>
       <use xlink:href="#DejaVuSans-36"/>
       <use xlink:href="#DejaVuSans-30" x="63.623047"/>
      </g>
     </g>
    </g>
    <g id="xtick_8">
     <g id="line2d_8">
      <g>
       <use xlink:href="#ma5e6ae07e4" x="264.253846" y="576.72" style="stroke: #000000; stroke-width: 0.8"/>
      </g>
     </g>
     <g id="text_8">
      <!-- 70 -->
      <g transform="translate(257.891346 591.318438) scale(0.1 -0.1)">
       <defs>
        <path id="DejaVuSans-37" d="M 525 4666 
L 3525 4666 
L 3525 4397 
L 1831 0 
L 1172 0 
L 2766 4134 
L 525 4134 
L 525 4666 
z
" transform="scale(0.015625)"/>
       </defs>
       <use xlink:href="#DejaVuSans-37"/>
       <use xlink:href="#DejaVuSans-30" x="63.623047"/>
      </g>
     </g>
    </g>
    <g id="xtick_9">
     <g id="line2d_9">
      <g>
       <use xlink:href="#ma5e6ae07e4" x="287.861538" y="576.72" style="stroke: #000000; stroke-width: 0.8"/>
      </g>
     </g>
     <g id="text_9">
      <!-- 80 -->
      <g transform="translate(281.499038 591.318438) scale(0.1 -0.1)">
       <defs>
        <path id="DejaVuSans-38" d="M 2034 2216 
Q 1584 2216 1326 1975 
Q 1069 1734 1069 1313 
Q 1069 891 1326 650 
Q 1584 409 2034 409 
Q 2484 409 2743 651 
Q 3003 894 3003 1313 
Q 3003 1734 2745 1975 
Q 2488 2216 2034 2216 
z
M 1403 2484 
Q 997 2584 770 2862 
Q 544 3141 544 3541 
Q 544 4100 942 4425 
Q 1341 4750 2034 4750 
Q 2731 4750 3128 4425 
Q 3525 4100 3525 3541 
Q 3525 3141 3298 2862 
Q 3072 2584 2669 2484 
Q 3125 2378 3379 2068 
Q 3634 1759 3634 1313 
Q 3634 634 3220 271 
Q 2806 -91 2034 -91 
Q 1263 -91 848 271 
Q 434 634 434 1313 
Q 434 1759 690 2068 
Q 947 2378 1403 2484 
z
M 1172 3481 
Q 1172 3119 1398 2916 
Q 1625 2713 2034 2713 
Q 2441 2713 2670 2916 
Q 2900 3119 2900 3481 
Q 2900 3844 2670 4047 
Q 2441 4250 2034 4250 
Q 1625 4250 1398 4047 
Q 1172 3844 1172 3481 
z
" transform="scale(0.015625)"/>
       </defs>
       <use xlink:href="#DejaVuSans-38"/>
       <use xlink:href="#DejaVuSans-30" x="63.623047"/>
      </g>
     </g>
    </g>
    <g id="xtick_10">
     <g id="line2d_10">
      <g>
       <use xlink:href="#ma5e6ae07e4" x="311.469231" y="576.72" style="stroke: #000000; stroke-width: 0.8"/>
      </g>
     </g>
     <g id="text_10">
      <!-- 90 -->
      <g transform="translate(305.106731 591.318438) scale(0.1 -0.1)">
       <defs>
        <path id="DejaVuSans-39" d="M 703 97 
L 703 672 
Q 941 559 1184 500 
Q 1428 441 1663 441 
Q 2288 441 2617 861 
Q 2947 1281 2994 2138 
Q 2813 1869 2534 1725 
Q 2256 1581 1919 1581 
Q 1219 1581 811 2004 
Q 403 2428 403 3163 
Q 403 3881 828 4315 
Q 1253 4750 1959 4750 
Q 2769 4750 3195 4129 
Q 3622 3509 3622 2328 
Q 3622 1225 3098 567 
Q 2575 -91 1691 -91 
Q 1453 -91 1209 -44 
Q 966 3 703 97 
z
M 1959 2075 
Q 2384 2075 2632 2365 
Q 2881 2656 2881 3163 
Q 2881 3666 2632 3958 
Q 2384 4250 1959 4250 
Q 1534 4250 1286 3958 
Q 1038 3666 1038 3163 
Q 1038 2656 1286 2365 
Q 1534 2075 1959 2075 
z
" transform="scale(0.015625)"/>
       </defs>
       <use xlink:href="#DejaVuSans-39"/>
       <use xlink:href="#DejaVuSans-30" x="63.623047"/>
      </g>
     </g>
    </g>
    <g id="xtick_11">
     <g id="line2d_11">
      <g>
       <use xlink:href="#ma5e6ae07e4" x="335.076923" y="576.72" style="stroke: #000000; stroke-width: 0.8"/>
      </g>
     </g>
     <g id="text_11">
      <!-- 100 -->
      <g transform="translate(325.533173 591.318438) scale(0.1 -0.1)">
       <use xlink:href="#DejaVuSans-31"/>
       <use xlink:href="#DejaVuSans-30" x="63.623047"/>
       <use xlink:href="#DejaVuSans-30" x="127.246094"/>
      </g>
     </g>
    </g>
    <g id="xtick_12">
     <g id="line2d_12">
      <g>
       <use xlink:href="#ma5e6ae07e4" x="358.684615" y="576.72" style="stroke: #000000; stroke-width: 0.8"/>
      </g>
     </g>
     <g id="text_12">
      <!-- 110 -->
      <g transform="translate(349.140865 591.318438) scale(0.1 -0.1)">
       <use xlink:href="#DejaVuSans-31"/>
       <use xlink:href="#DejaVuSans-31" x="63.623047"/>
       <use xlink:href="#DejaVuSans-30" x="127.246094"/>
      </g>
     </g>
    </g>
    <g id="xtick_13">
     <g id="line2d_13">
      <g>
       <use xlink:href="#ma5e6ae07e4" x="382.292308" y="576.72" style="stroke: #000000; stroke-width: 0.8"/>
      </g>
     </g>
     <g id="text_13">
      <!-- 120 -->
      <g transform="translate(372.748558 591.318438) scale(0.1 -0.1)">
       <use xlink:href="#DejaVuSans-31"/>
       <use xlink:href="#DejaVuSans-32" x="63.623047"/>
       <use xlink:href="#DejaVuSans-30" x="127.246094"/>
      </g>
     </g>
    </g>
    <g id="xtick_14">
     <g id="line2d_14">
      <g>
       <use xlink:href="#ma5e6ae07e4" x="405.9" y="576.72" style="stroke: #000000; stroke-width: 0.8"/>
      </g>
     </g>
     <g id="text_14">
      <!-- 130 -->
      <g transform="translate(396.35625 591.318438) scale(0.1 -0.1)">
       <use xlink:href="#DejaVuSans-31"/>
       <use xlink:href="#DejaVuSans-33" x="63.623047"/>
       <use xlink:href="#DejaVuSans-30" x="127.246094"/>
      </g>
     </g>
    </g>
    <g id="xtick_15">
     <g id="line2d_15">
      <g>
       <use xlink:href="#ma5e6ae07e4" x="429.507692" y="576.72" style="stroke: #000000; stroke-width: 0.8"/>
      </g>
     </g>
     <g id="text_15">
      <!-- 140 -->
      <g transform="translate(419.963942 591.318438) scale(0.1 -0.1)">
       <use xlink:href="#DejaVuSans-31"/>
       <use xlink:href="#DejaVuSans-34" x="63.623047"/>
       <use xlink:href="#DejaVuSans-30" x="127.246094"/>
      </g>
     </g>
    </g>
    <g id="xtick_16">
     <g id="line2d_16">
      <g>
       <use xlink:href="#ma5e6ae07e4" x="453.115385" y="576.72" style="stroke: #000000; stroke-width: 0.8"/>
      </g>
     </g>
     <g id="text_16">
      <!-- 150 -->
      <g transform="translate(443.571635 591.318438) scale(0.1 -0.1)">
       <use xlink:href="#DejaVuSans-31"/>
       <use xlink:href="#DejaVuSans-35" x="63.623047"/>
       <use xlink:href="#DejaVuSans-30" x="127.246094"/>
      </g>
     </g>
    </g>
    <g id="xtick_17">
     <g id="line2d_17">
      <g>
       <use xlink:href="#ma5e6ae07e4" x="476.723077" y="576.72" style="stroke: #000000; stroke-width: 0.8"/>
      </g>
     </g>
     <g id="text_17">
      <!-- 160 -->
      <g transform="translate(467.179327 591.318438) scale(0.1 -0.1)">
       <use xlink:href="#DejaVuSans-31"/>
       <use xlink:href="#DejaVuSans-36" x="63.623047"/>
       <use xlink:href="#DejaVuSans-30" x="127.246094"/>
      </g>
     </g>
    </g>
    <g id="xtick_18">
     <g id="line2d_18">
      <g>
       <use xlink:href="#ma5e6ae07e4" x="500.330769" y="576.72" style="stroke: #000000; stroke-width: 0.8"/>
      </g>
     </g>
     <g id="text_18">
      <!-- 170 -->
      <g transform="translate(490.787019 591.318438) scale(0.1 -0.1)">
       <use xlink:href="#DejaVuSans-31"/>
       <use xlink:href="#DejaVuSans-37" x="63.623047"/>
       <use xlink:href="#DejaVuSans-30" x="127.246094"/>
      </g>
     </g>
    </g>
    <g id="xtick_19">
     <g id="line2d_19">
      <g>
       <use xlink:href="#ma5e6ae07e4" x="523.938462" y="576.72" style="stroke: #000000; stroke-width: 0.8"/>
      </g>
     </g>
     <g id="text_19">
      <!-- 180 -->
      <g transform="translate(514.394712 591.318438) scale(0.1 -0.1)">
       <use xlink:href="#DejaVuSans-31"/>
       <use xlink:href="#DejaVuSans-38" x="63.623047"/>
       <use xlink:href="#DejaVuSans-30" x="127.246094"/>
      </g>
     </g>
    </g>
    <g id="xtick_20">
     <g id="line2d_20">
      <g>
       <use xlink:href="#ma5e6ae07e4" x="547.546154" y="576.72" style="stroke: #000000; stroke-width: 0.8"/>
      </g>
     </g>
     <g id="text_20">
      <!-- 190 -->
      <g transform="translate(538.002404 591.318438) scale(0.1 -0.1)">
       <use xlink:href="#DejaVuSans-31"/>
       <use xlink:href="#DejaVuSans-39" x="63.623047"/>
       <use xlink:href="#DejaVuSans-30" x="127.246094"/>
      </g>
     </g>
    </g>
    <g id="xtick_21">
     <g id="line2d_21">
      <g>
       <use xlink:href="#ma5e6ae07e4" x="571.153846" y="576.72" style="stroke: #000000; stroke-width: 0.8"/>
      </g>
     </g>
     <g id="text_21">
      <!-- 200 -->
      <g transform="translate(561.610096 591.318438) scale(0.1 -0.1)">
       <use xlink:href="#DejaVuSans-32"/>
       <use xlink:href="#DejaVuSans-30" x="63.623047"/>
       <use xlink:href="#DejaVuSans-30" x="127.246094"/>
      </g>
     </g>
    </g>
    <g id="xtick_22">
     <g id="line2d_22">
      <g>
       <use xlink:href="#ma5e6ae07e4" x="594.761538" y="576.72" style="stroke: #000000; stroke-width: 0.8"/>
      </g>
     </g>
     <g id="text_22">
      <!-- 210 -->
      <g transform="translate(585.217788 591.318438) scale(0.1 -0.1)">
       <use xlink:href="#DejaVuSans-32"/>
       <use xlink:href="#DejaVuSans-31" x="63.623047"/>
       <use xlink:href="#DejaVuSans-30" x="127.246094"/>
      </g>
     </g>
    </g>
    <g id="xtick_23">
     <g id="line2d_23">
      <g>
       <use xlink:href="#ma5e6ae07e4" x="618.369231" y="576.72" style="stroke: #000000; stroke-width: 0.8"/>
      </g>
     </g>
     <g id="text_23">
      <!-- 220 -->
      <g transform="translate(608.825481 591.318438) scale(0.1 -0.1)">
       <use xlink:href="#DejaVuSans-32"/>
       <use xlink:href="#DejaVuSans-32" x="63.623047"/>
       <use xlink:href="#DejaVuSans-30" x="127.246094"/>
      </g>
     </g>
    </g>
    <g id="xtick_24">
     <g id="line2d_24">
      <g>
       <use xlink:href="#ma5e6ae07e4" x="641.976923" y="576.72" style="stroke: #000000; stroke-width: 0.8"/>
      </g>
     </g>
     <g id="text_24">
      <!-- 230 -->
      <g transform="translate(632.433173 591.318438) scale(0.1 -0.1)">
       <use xlink:href="#DejaVuSans-32"/>
       <use xlink:href="#DejaVuSans-33" x="63.623047"/>
       <use xlink:href="#DejaVuSans-30" x="127.246094"/>
      </g>
     </g>
    </g>
    <g id="xtick_25">
     <g id="line2d_25">
      <g>
       <use xlink:href="#ma5e6ae07e4" x="665.584615" y="576.72" style="stroke: #000000; stroke-width: 0.8"/>
      </g>
     </g>
     <g id="text_25">
      <!-- 240 -->
      <g transform="translate(656.040865 591.318438) scale(0.1 -0.1)">
       <use xlink:href="#DejaVuSans-32"/>
       <use xlink:href="#DejaVuSans-34" x="63.623047"/>
       <use xlink:href="#DejaVuSans-30" x="127.246094"/>
      </g>
     </g>
    </g>
    <g id="xtick_26">
     <g id="line2d_26">
      <g>
       <use xlink:href="#ma5e6ae07e4" x="689.192308" y="576.72" style="stroke: #000000; stroke-width: 0.8"/>
      </g>
     </g>
     <g id="text_26">
      <!-- 250 -->
      <g transform="translate(679.648558 591.318438) scale(0.1 -0.1)">
       <use xlink:href="#DejaVuSans-32"/>
       <use xlink:href="#DejaVuSans-35" x="63.623047"/>
       <use xlink:href="#DejaVuSans-30" x="127.246094"/>
      </g>
     </g>
    </g>
    <g id="text_27">
     <!-- Input Latency (ms) -->
     <g transform="translate(358.634375 604.996562) scale(0.1 -0.1)">
      <defs>
       <path id="DejaVuSans-49" d="M 628 4666 
L 1259 4666 
L 1259 0 
L 628 0 
L 628 4666 
z
" transform="scale(0.015625)"/>
       <path id="DejaVuSans-6e" d="M 3513 2113 
L 3513 0 
L 2938 0 
L 2938 2094 
Q 2938 2591 2744 2837 
Q 2550 3084 2163 3084 
Q 1697 3084 1428 2787 
Q 1159 2491 1159 1978 
L 1159 0 
L 581 0 
L 581 3500 
L 1159 3500 
L 1159 2956 
Q 1366 3272 1645 3428 
Q 1925 3584 2291 3584 
Q 2894 3584 3203 3211 
Q 3513 2838 3513 2113 
z
" transform="scale(0.015625)"/>
       <path id="DejaVuSans-70" d="M 1159 525 
L 1159 -1331 
L 581 -1331 
L 581 3500 
L 1159 3500 
L 1159 2969 
Q 1341 3281 1617 3432 
Q 1894 3584 2278 3584 
Q 2916 3584 3314 3078 
Q 3713 2572 3713 1747 
Q 3713 922 3314 415 
Q 2916 -91 2278 -91 
Q 1894 -91 1617 61 
Q 1341 213 1159 525 
z
M 3116 1747 
Q 3116 2381 2855 2742 
Q 2594 3103 2138 3103 
Q 1681 3103 1420 2742 
Q 1159 2381 1159 1747 
Q 1159 1113 1420 752 
Q 1681 391 2138 391 
Q 2594 391 2855 752 
Q 3116 1113 3116 1747 
z
" transform="scale(0.015625)"/>
       <path id="DejaVuSans-75" d="M 544 1381 
L 544 3500 
L 1119 3500 
L 1119 1403 
Q 1119 906 1312 657 
Q 1506 409 1894 409 
Q 2359 409 2629 706 
Q 2900 1003 2900 1516 
L 2900 3500 
L 3475 3500 
L 3475 0 
L 2900 0 
L 2900 538 
Q 2691 219 2414 64 
Q 2138 -91 1772 -91 
Q 1169 -91 856 284 
Q 544 659 544 1381 
z
M 1991 3584 
L 1991 3584 
z
" transform="scale(0.015625)"/>
       <path id="DejaVuSans-74" d="M 1172 4494 
L 1172 3500 
L 2356 3500 
L 2356 3053 
L 1172 3053 
L 1172 1153 
Q 1172 725 1289 603 
Q 1406 481 1766 481 
L 2356 481 
L 2356 0 
L 1766 0 
Q 1100 0 847 248 
Q 594 497 594 1153 
L 594 3053 
L 172 3053 
L 172 3500 
L 594 3500 
L 594 4494 
L 1172 4494 
z
" transform="scale(0.015625)"/>
       <path id="DejaVuSans-20" transform="scale(0.015625)"/>
       <path id="DejaVuSans-4c" d="M 628 4666 
L 1259 4666 
L 1259 531 
L 3531 531 
L 3531 0 
L 628 0 
L 628 4666 
z
" transform="scale(0.015625)"/>
       <path id="DejaVuSans-61" d="M 2194 1759 
Q 1497 1759 1228 1600 
Q 959 1441 959 1056 
Q 959 750 1161 570 
Q 1363 391 1709 391 
Q 2188 391 2477 730 
Q 2766 1069 2766 1631 
L 2766 1759 
L 2194 1759 
z
M 3341 1997 
L 3341 0 
L 2766 0 
L 2766 531 
Q 2569 213 2275 61 
Q 1981 -91 1556 -91 
Q 1019 -91 701 211 
Q 384 513 384 1019 
Q 384 1609 779 1909 
Q 1175 2209 1959 2209 
L 2766 2209 
L 2766 2266 
Q 2766 2663 2505 2880 
Q 2244 3097 1772 3097 
Q 1472 3097 1187 3025 
Q 903 2953 641 2809 
L 641 3341 
Q 956 3463 1253 3523 
Q 1550 3584 1831 3584 
Q 2591 3584 2966 3190 
Q 3341 2797 3341 1997 
z
" transform="scale(0.015625)"/>
       <path id="DejaVuSans-65" d="M 3597 1894 
L 3597 1613 
L 953 1613 
Q 991 1019 1311 708 
Q 1631 397 2203 397 
Q 2534 397 2845 478 
Q 3156 559 3463 722 
L 3463 178 
Q 3153 47 2828 -22 
Q 2503 -91 2169 -91 
Q 1331 -91 842 396 
Q 353 884 353 1716 
Q 353 2575 817 3079 
Q 1281 3584 2069 3584 
Q 2775 3584 3186 3129 
Q 3597 2675 3597 1894 
z
M 3022 2063 
Q 3016 2534 2758 2815 
Q 2500 3097 2075 3097 
Q 1594 3097 1305 2825 
Q 1016 2553 972 2059 
L 3022 2063 
z
" transform="scale(0.015625)"/>
       <path id="DejaVuSans-63" d="M 3122 3366 
L 3122 2828 
Q 2878 2963 2633 3030 
Q 2388 3097 2138 3097 
Q 1578 3097 1268 2742 
Q 959 2388 959 1747 
Q 959 1106 1268 751 
Q 1578 397 2138 397 
Q 2388 397 2633 464 
Q 2878 531 3122 666 
L 3122 134 
Q 2881 22 2623 -34 
Q 2366 -91 2075 -91 
Q 1284 -91 818 406 
Q 353 903 353 1747 
Q 353 2603 823 3093 
Q 1294 3584 2113 3584 
Q 2378 3584 2631 3529 
Q 2884 3475 3122 3366 
z
" transform="scale(0.015625)"/>
       <path id="DejaVuSans-79" d="M 2059 -325 
Q 1816 -950 1584 -1140 
Q 1353 -1331 966 -1331 
L 506 -1331 
L 506 -850 
L 844 -850 
Q 1081 -850 1212 -737 
Q 1344 -625 1503 -206 
L 1606 56 
L 191 3500 
L 800 3500 
L 1894 763 
L 2988 3500 
L 3597 3500 
L 2059 -325 
z
" transform="scale(0.015625)"/>
       <path id="DejaVuSans-28" d="M 1984 4856 
Q 1566 4138 1362 3434 
Q 1159 2731 1159 2009 
Q 1159 1288 1364 580 
Q 1569 -128 1984 -844 
L 1484 -844 
Q 1016 -109 783 600 
Q 550 1309 550 2009 
Q 550 2706 781 3412 
Q 1013 4119 1484 4856 
L 1984 4856 
z
" transform="scale(0.015625)"/>
       <path id="DejaVuSans-6d" d="M 3328 2828 
Q 3544 3216 3844 3400 
Q 4144 3584 4550 3584 
Q 5097 3584 5394 3201 
Q 5691 2819 5691 2113 
L 5691 0 
L 5113 0 
L 5113 2094 
Q 5113 2597 4934 2840 
Q 4756 3084 4391 3084 
Q 3944 3084 3684 2787 
Q 3425 2491 3425 1978 
L 3425 0 
L 2847 0 
L 2847 2094 
Q 2847 2600 2669 2842 
Q 2491 3084 2119 3084 
Q 1678 3084 1418 2786 
Q 1159 2488 1159 1978 
L 1159 0 
L 581 0 
L 581 3500 
L 1159 3500 
L 1159 2956 
Q 1356 3278 1631 3431 
Q 1906 3584 2284 3584 
Q 2666 3584 2933 3390 
Q 3200 3197 3328 2828 
z
" transform="scale(0.015625)"/>
       <path id="DejaVuSans-73" d="M 2834 3397 
L 2834 2853 
Q 2591 2978 2328 3040 
Q 2066 3103 1784 3103 
Q 1356 3103 1142 2972 
Q 928 2841 928 2578 
Q 928 2378 1081 2264 
Q 1234 2150 1697 2047 
L 1894 2003 
Q 2506 1872 2764 1633 
Q 3022 1394 3022 966 
Q 3022 478 2636 193 
Q 2250 -91 1575 -91 
Q 1294 -91 989 -36 
Q 684 19 347 128 
L 347 722 
Q 666 556 975 473 
Q 1284 391 1588 391 
Q 1994 391 2212 530 
Q 2431 669 2431 922 
Q 2431 1156 2273 1281 
Q 2116 1406 1581 1522 
L 1381 1569 
Q 847 1681 609 1914 
Q 372 2147 372 2553 
Q 372 3047 722 3315 
Q 1072 3584 1716 3584 
Q 2034 3584 2315 3537 
Q 2597 3491 2834 3397 
z
" transform="scale(0.015625)"/>
       <path id="DejaVuSans-29" d="M 513 4856 
L 1013 4856 
Q 1481 4119 1714 3412 
Q 1947 2706 1947 2009 
Q 1947 1309 1714 600 
Q 1481 -109 1013 -844 
L 513 -844 
Q 928 -128 1133 580 
Q 1338 1288 1338 2009 
Q 1338 2731 1133 3434 
Q 928 4138 513 4856 
z
" transform="scale(0.015625)"/>
      </defs>
      <use xlink:href="#DejaVuSans-49"/>
      <use xlink:href="#DejaVuSans-6e" x="29.492188"/>
      <use xlink:href="#DejaVuSans-70" x="92.871094"/>
      <use xlink:href="#DejaVuSans-75" x="156.347656"/>
      <use xlink:href="#DejaVuSans-74" x="219.726562"/>
      <use xlink:href="#DejaVuSans-20" x="258.935547"/>
      <use xlink:href="#DejaVuSans-4c" x="290.722656"/>
      <use xlink:href="#DejaVuSans-61" x="346.435547"/>
      <use xlink:href="#DejaVuSans-74" x="407.714844"/>
      <use xlink:href="#DejaVuSans-65" x="446.923828"/>
      <use xlink:href="#DejaVuSans-6e" x="508.447266"/>
      <use xlink:href="#DejaVuSans-63" x="571.826172"/>
      <use xlink:href="#DejaVuSans-79" x="626.806641"/>
      <use xlink:href="#DejaVuSans-20" x="685.986328"/>
      <use xlink:href="#DejaVuSans-28" x="717.773438"/>
      <use xlink:href="#DejaVuSans-6d" x="756.787109"/>
      <use xlink:href="#DejaVuSans-73" x="854.199219"/>
      <use xlink:href="#DejaVuSans-29" x="906.298828"/>
     </g>
    </g>
   </g>
   <g id="matplotlib.axis_2">
    <g id="ytick_1">
     <g id="line2d_27">
      <defs>
       <path id="meaa6bbbcfe" d="M 0 0 
L -3.5 0 
" style="stroke: #000000; stroke-width: 0.8"/>
      </defs>
      <g>
       <use xlink:href="#meaa6bbbcfe" x="99" y="576.72" style="stroke: #000000; stroke-width: 0.8"/>
      </g>
     </g>
     <g id="text_28">
      <!-- 0.0 -->
      <g transform="translate(76.096875 580.519219) scale(0.1 -0.1)">
       <defs>
        <path id="DejaVuSans-2e" d="M 684 794 
L 1344 794 
L 1344 0 
L 684 0 
L 684 794 
z
" transform="scale(0.015625)"/>
       </defs>
       <use xlink:href="#DejaVuSans-30"/>
       <use xlink:href="#DejaVuSans-2e" x="63.623047"/>
       <use xlink:href="#DejaVuSans-30" x="95.410156"/>
      </g>
     </g>
    </g>
    <g id="ytick_2">
     <g id="line2d_28">
      <g>
       <use xlink:href="#meaa6bbbcfe" x="99" y="531.36" style="stroke: #000000; stroke-width: 0.8"/>
      </g>
     </g>
     <g id="text_29">
      <!-- 0.1 -->
      <g transform="translate(76.096875 535.159219) scale(0.1 -0.1)">
       <use xlink:href="#DejaVuSans-30"/>
       <use xlink:href="#DejaVuSans-2e" x="63.623047"/>
       <use xlink:href="#DejaVuSans-31" x="95.410156"/>
      </g>
     </g>
    </g>
    <g id="ytick_3">
     <g id="line2d_29">
      <g>
       <use xlink:href="#meaa6bbbcfe" x="99" y="486" style="stroke: #000000; stroke-width: 0.8"/>
      </g>
     </g>
     <g id="text_30">
      <!-- 0.2 -->
      <g transform="translate(76.096875 489.799219) scale(0.1 -0.1)">
       <use xlink:href="#DejaVuSans-30"/>
       <use xlink:href="#DejaVuSans-2e" x="63.623047"/>
       <use xlink:href="#DejaVuSans-32" x="95.410156"/>
      </g>
     </g>
    </g>
    <g id="ytick_4">
     <g id="line2d_30">
      <g>
       <use xlink:href="#meaa6bbbcfe" x="99" y="440.64" style="stroke: #000000; stroke-width: 0.8"/>
      </g>
     </g>
     <g id="text_31">
      <!-- 0.3 -->
      <g transform="translate(76.096875 444.439219) scale(0.1 -0.1)">
       <use xlink:href="#DejaVuSans-30"/>
       <use xlink:href="#DejaVuSans-2e" x="63.623047"/>
       <use xlink:href="#DejaVuSans-33" x="95.410156"/>
      </g>
     </g>
    </g>
    <g id="ytick_5">
     <g id="line2d_31">
      <g>
       <use xlink:href="#meaa6bbbcfe" x="99" y="395.28" style="stroke: #000000; stroke-width: 0.8"/>
      </g>
     </g>
     <g id="text_32">
      <!-- 0.4 -->
      <g transform="translate(76.096875 399.079219) scale(0.1 -0.1)">
       <use xlink:href="#DejaVuSans-30"/>
       <use xlink:href="#DejaVuSans-2e" x="63.623047"/>
       <use xlink:href="#DejaVuSans-34" x="95.410156"/>
      </g>
     </g>
    </g>
    <g id="ytick_6">
     <g id="line2d_32">
      <g>
       <use xlink:href="#meaa6bbbcfe" x="99" y="349.92" style="stroke: #000000; stroke-width: 0.8"/>
      </g>
     </g>
     <g id="text_33">
      <!-- 0.5 -->
      <g transform="translate(76.096875 353.719219) scale(0.1 -0.1)">
       <use xlink:href="#DejaVuSans-30"/>
       <use xlink:href="#DejaVuSans-2e" x="63.623047"/>
       <use xlink:href="#DejaVuSans-35" x="95.410156"/>
      </g>
     </g>
    </g>
    <g id="ytick_7">
     <g id="line2d_33">
      <g>
       <use xlink:href="#meaa6bbbcfe" x="99" y="304.56" style="stroke: #000000; stroke-width: 0.8"/>
      </g>
     </g>
     <g id="text_34">
      <!-- 0.6 -->
      <g transform="translate(76.096875 308.359219) scale(0.1 -0.1)">
       <use xlink:href="#DejaVuSans-30"/>
       <use xlink:href="#DejaVuSans-2e" x="63.623047"/>
       <use xlink:href="#DejaVuSans-36" x="95.410156"/>
      </g>
     </g>
    </g>
    <g id="ytick_8">
     <g id="line2d_34">
      <g>
       <use xlink:href="#meaa6bbbcfe" x="99" y="259.2" style="stroke: #000000; stroke-width: 0.8"/>
      </g>
     </g>
     <g id="text_35">
      <!-- 0.7 -->
      <g transform="translate(76.096875 262.999219) scale(0.1 -0.1)">
       <use xlink:href="#DejaVuSans-30"/>
       <use xlink:href="#DejaVuSans-2e" x="63.623047"/>
       <use xlink:href="#DejaVuSans-37" x="95.410156"/>
      </g>
     </g>
    </g>
    <g id="ytick_9">
     <g id="line2d_35">
      <g>
       <use xlink:href="#meaa6bbbcfe" x="99" y="213.84" style="stroke: #000000; stroke-width: 0.8"/>
      </g>
     </g>
     <g id="text_36">
      <!-- 0.8 -->
      <g transform="translate(76.096875 217.639219) scale(0.1 -0.1)">
       <use xlink:href="#DejaVuSans-30"/>
       <use xlink:href="#DejaVuSans-2e" x="63.623047"/>
       <use xlink:href="#DejaVuSans-38" x="95.410156"/>
      </g>
     </g>
    </g>
    <g id="ytick_10">
     <g id="line2d_36">
      <g>
       <use xlink:href="#meaa6bbbcfe" x="99" y="168.48" style="stroke: #000000; stroke-width: 0.8"/>
      </g>
     </g>
     <g id="text_37">
      <!-- 0.9 -->
      <g transform="translate(76.096875 172.279219) scale(0.1 -0.1)">
       <use xlink:href="#DejaVuSans-30"/>
       <use xlink:href="#DejaVuSans-2e" x="63.623047"/>
       <use xlink:href="#DejaVuSans-39" x="95.410156"/>
      </g>
     </g>
    </g>
    <g id="ytick_11">
     <g id="line2d_37">
      <g>
       <use xlink:href="#meaa6bbbcfe" x="99" y="123.12" style="stroke: #000000; stroke-width: 0.8"/>
      </g>
     </g>
     <g id="text_38">
      <!-- 1.0 -->
      <g transform="translate(76.096875 126.919219) scale(0.1 -0.1)">
       <use xlink:href="#DejaVuSans-31"/>
       <use xlink:href="#DejaVuSans-2e" x="63.623047"/>
       <use xlink:href="#DejaVuSans-30" x="95.410156"/>
      </g>
     </g>
    </g>
    <g id="text_39">
     <!-- Likelihood of occurrence -->
     <g transform="translate(70.017187 388.151719) rotate(-90) scale(0.1 -0.1)">
      <defs>
       <path id="DejaVuSans-69" d="M 603 3500 
L 1178 3500 
L 1178 0 
L 603 0 
L 603 3500 
z
M 603 4863 
L 1178 4863 
L 1178 4134 
L 603 4134 
L 603 4863 
z
" transform="scale(0.015625)"/>
       <path id="DejaVuSans-6b" d="M 581 4863 
L 1159 4863 
L 1159 1991 
L 2875 3500 
L 3609 3500 
L 1753 1863 
L 3688 0 
L 2938 0 
L 1159 1709 
L 1159 0 
L 581 0 
L 581 4863 
z
" transform="scale(0.015625)"/>
       <path id="DejaVuSans-6c" d="M 603 4863 
L 1178 4863 
L 1178 0 
L 603 0 
L 603 4863 
z
" transform="scale(0.015625)"/>
       <path id="DejaVuSans-68" d="M 3513 2113 
L 3513 0 
L 2938 0 
L 2938 2094 
Q 2938 2591 2744 2837 
Q 2550 3084 2163 3084 
Q 1697 3084 1428 2787 
Q 1159 2491 1159 1978 
L 1159 0 
L 581 0 
L 581 4863 
L 1159 4863 
L 1159 2956 
Q 1366 3272 1645 3428 
Q 1925 3584 2291 3584 
Q 2894 3584 3203 3211 
Q 3513 2838 3513 2113 
z
" transform="scale(0.015625)"/>
       <path id="DejaVuSans-6f" d="M 1959 3097 
Q 1497 3097 1228 2736 
Q 959 2375 959 1747 
Q 959 1119 1226 758 
Q 1494 397 1959 397 
Q 2419 397 2687 759 
Q 2956 1122 2956 1747 
Q 2956 2369 2687 2733 
Q 2419 3097 1959 3097 
z
M 1959 3584 
Q 2709 3584 3137 3096 
Q 3566 2609 3566 1747 
Q 3566 888 3137 398 
Q 2709 -91 1959 -91 
Q 1206 -91 779 398 
Q 353 888 353 1747 
Q 353 2609 779 3096 
Q 1206 3584 1959 3584 
z
" transform="scale(0.015625)"/>
       <path id="DejaVuSans-64" d="M 2906 2969 
L 2906 4863 
L 3481 4863 
L 3481 0 
L 2906 0 
L 2906 525 
Q 2725 213 2448 61 
Q 2172 -91 1784 -91 
Q 1150 -91 751 415 
Q 353 922 353 1747 
Q 353 2572 751 3078 
Q 1150 3584 1784 3584 
Q 2172 3584 2448 3432 
Q 2725 3281 2906 2969 
z
M 947 1747 
Q 947 1113 1208 752 
Q 1469 391 1925 391 
Q 2381 391 2643 752 
Q 2906 1113 2906 1747 
Q 2906 2381 2643 2742 
Q 2381 3103 1925 3103 
Q 1469 3103 1208 2742 
Q 947 2381 947 1747 
z
" transform="scale(0.015625)"/>
       <path id="DejaVuSans-66" d="M 2375 4863 
L 2375 4384 
L 1825 4384 
Q 1516 4384 1395 4259 
Q 1275 4134 1275 3809 
L 1275 3500 
L 2222 3500 
L 2222 3053 
L 1275 3053 
L 1275 0 
L 697 0 
L 697 3053 
L 147 3053 
L 147 3500 
L 697 3500 
L 697 3744 
Q 697 4328 969 4595 
Q 1241 4863 1831 4863 
L 2375 4863 
z
" transform="scale(0.015625)"/>
       <path id="DejaVuSans-72" d="M 2631 2963 
Q 2534 3019 2420 3045 
Q 2306 3072 2169 3072 
Q 1681 3072 1420 2755 
Q 1159 2438 1159 1844 
L 1159 0 
L 581 0 
L 581 3500 
L 1159 3500 
L 1159 2956 
Q 1341 3275 1631 3429 
Q 1922 3584 2338 3584 
Q 2397 3584 2469 3576 
Q 2541 3569 2628 3553 
L 2631 2963 
z
" transform="scale(0.015625)"/>
      </defs>
      <use xlink:href="#DejaVuSans-4c"/>
      <use xlink:href="#DejaVuSans-69" x="55.712891"/>
      <use xlink:href="#DejaVuSans-6b" x="83.496094"/>
      <use xlink:href="#DejaVuSans-65" x="137.78125"/>
      <use xlink:href="#DejaVuSans-6c" x="199.304688"/>
      <use xlink:href="#DejaVuSans-69" x="227.087891"/>
      <use xlink:href="#DejaVuSans-68" x="254.871094"/>
      <use xlink:href="#DejaVuSans-6f" x="318.25"/>
      <use xlink:href="#DejaVuSans-6f" x="379.431641"/>
      <use xlink:href="#DejaVuSans-64" x="440.613281"/>
      <use xlink:href="#DejaVuSans-20" x="504.089844"/>
      <use xlink:href="#DejaVuSans-6f" x="535.876953"/>
      <use xlink:href="#DejaVuSans-66" x="597.058594"/>
      <use xlink:href="#DejaVuSans-20" x="632.263672"/>
      <use xlink:href="#DejaVuSans-6f" x="664.050781"/>
      <use xlink:href="#DejaVuSans-63" x="725.232422"/>
      <use xlink:href="#DejaVuSans-63" x="780.212891"/>
      <use xlink:href="#DejaVuSans-75" x="835.193359"/>
      <use xlink:href="#DejaVuSans-72" x="898.572266"/>
      <use xlink:href="#DejaVuSans-72" x="937.935547"/>
      <use xlink:href="#DejaVuSans-65" x="976.798828"/>
      <use xlink:href="#DejaVuSans-6e" x="1038.322266"/>
      <use xlink:href="#DejaVuSans-63" x="1101.701172"/>
      <use xlink:href="#DejaVuSans-65" x="1156.681641"/>
     </g>
    </g>
   </g>
   <g id="line2d_38">
    <path d="M 170.45886 576.72 
L 172.819629 576.620939 
L 184.609112 576.422817 
L 185.54063 576.323756 
L 188.957137 576.125634 
L 191.930681 575.63033 
L 195.755818 575.432208 
L 197.127486 575.234086 
L 197.622795 575.035964 
L 205.945114 573.55005 
L 206.912655 573.351928 
L 207.181698 573.252867 
L 208.724473 573.054746 
L 208.767813 572.856624 
L 208.914717 572.757563 
L 210.449612 572.46038 
L 212.255802 572.163197 
L 214.201016 571.568832 
L 216.945479 571.271649 
L 219.490129 570.479161 
L 221.362172 570.28104 
L 221.422397 570.181979 
L 222.432715 569.983857 
L 224.051475 569.587613 
L 224.873801 569.389491 
L 225.293125 569.191369 
L 225.374739 569.092308 
L 226.088434 568.795126 
L 226.140779 568.597004 
L 226.801567 568.398882 
L 228.70513 568.20076 
L 228.798 568.101699 
L 229.554472 567.903577 
L 229.655222 567.804516 
L 230.429706 567.606394 
L 230.702689 567.309212 
L 230.777548 567.11109 
L 231.89143 566.615785 
L 232.232518 566.417663 
L 232.239273 566.318602 
L 232.47567 566.12048 
L 232.504938 566.02142 
L 234.002686 565.228932 
L 234.781109 565.03081 
L 235.637768 563.94114 
L 235.906811 563.743018 
L 235.970976 563.643957 
L 236.356529 563.445835 
L 236.891801 563.049592 
L 237.071351 562.653348 
L 237.615628 562.257104 
L 238.251087 561.662739 
L 238.557841 561.464617 
L 239.384106 561.266495 
L 239.841141 560.77119 
L 241.269658 559.879642 
L 241.32538 559.68152 
L 241.409245 559.582459 
L 242.436449 559.087154 
L 242.749957 558.789972 
L 243.622376 558.195606 
L 244.552206 557.105936 
L 244.676034 556.907814 
L 244.692356 556.808753 
L 245.001925 556.51157 
L 245.353707 556.115326 
L 246.134944 555.620022 
L 246.441698 555.223778 
L 247.126688 555.025656 
L 247.251641 554.926595 
L 247.637757 554.728473 
L 248.17528 554.431291 
L 248.2068 554.233169 
L 248.648638 554.035047 
L 249.013365 553.539742 
L 249.297042 553.34162 
L 249.608299 552.945377 
L 250.078843 552.747255 
L 250.272464 552.549133 
L 250.301732 552.450072 
L 250.753701 552.25195 
L 250.847698 551.855706 
L 251.038504 551.558524 
L 251.25689 551.360402 
L 251.276027 551.261341 
L 251.956515 550.964158 
L 251.97734 550.865097 
L 252.387659 550.666975 
L 252.442255 550.567914 
L 253.262892 550.270732 
L 253.287095 550.171671 
L 254.122929 549.676366 
L 254.927806 549.478244 
L 255.573959 549.082 
L 256.133434 548.784818 
L 256.288218 548.289513 
L 256.833058 548.091391 
L 256.87302 547.99233 
L 257.280524 547.794208 
L 257.821425 546.90266 
L 257.912044 546.605477 
L 258.322362 546.407355 
L 258.821048 546.110173 
L 259.271892 545.912051 
L 259.311292 545.81299 
L 260.063261 545.614868 
L 262.463822 544.327076 
L 262.89778 543.831771 
L 263.830987 542.940223 
L 263.901907 542.742101 
L 265.364757 541.256187 
L 265.968696 540.859943 
L 266.39196 540.661821 
L 266.486519 540.463699 
L 267.518226 540.067456 
L 267.691021 539.869334 
L 268.240927 539.572151 
L 268.46269 539.175907 
L 268.603966 538.977786 
L 268.620851 538.779664 
L 269.567567 538.185298 
L 269.670006 537.888115 
L 270.769817 536.996567 
L 270.791206 536.798445 
L 271.015221 536.600323 
L 271.037735 536.501262 
L 271.441299 536.30314 
L 271.660248 536.005958 
L 271.679948 535.906897 
L 272.14036 535.708775 
L 272.326101 535.21347 
L 272.56475 534.916287 
L 272.668878 534.718166 
L 273.083136 534.520044 
L 273.249177 534.321922 
L 273.660621 533.826617 
L 273.906025 533.628495 
L 274.470002 532.935069 
L 275.488762 532.538825 
L 275.595704 532.340703 
L 276.078068 531.944459 
L 276.50302 531.548216 
L 276.559868 531.350094 
L 277.077128 531.151972 
L 277.61634 530.854789 
L 277.73679 530.557606 
L 277.87694 530.161363 
L 278.039604 529.963241 
L 278.344669 529.765119 
L 278.765682 529.269814 
L 278.86587 529.071693 
L 278.919341 528.873571 
L 279.772623 527.486718 
L 279.7957 527.189535 
L 280.059114 526.991413 
L 280.176187 526.496108 
L 280.228533 526.397047 
L 280.459302 526.198926 
L 280.929282 525.901743 
L 281.259113 525.703621 
L 281.422903 525.406438 
L 281.557987 525.109255 
L 282.019525 524.713012 
L 282.276748 524.51489 
L 282.291945 524.415829 
L 282.711832 524.118646 
L 282.862676 523.920524 
L 282.907705 523.722402 
L 283.321963 523.425219 
L 283.659111 522.929915 
L 283.838098 522.731793 
L 283.857797 522.632732 
L 284.072244 522.43461 
L 284.540536 521.939306 
L 284.595133 521.741184 
L 284.944663 521.245879 
L 285.335845 520.552453 
L 285.682561 520.25527 
L 285.714081 519.958087 
L 285.961173 519.660904 
L 286.153105 519.363721 
L 286.281998 519.066539 
L 286.316332 518.769356 
L 286.840346 518.274051 
L 287.215205 517.679686 
L 287.612578 517.283442 
L 287.988563 516.193772 
L 288.120833 515.896589 
L 288.132653 515.698467 
L 288.545785 515.500345 
L 288.670738 515.401284 
L 289.079931 515.203162 
L 289.314077 515.00504 
L 289.816704 514.410675 
L 290.170174 513.519126 
L 290.46736 513.321005 
L 290.646909 512.924761 
L 291.071299 512.330395 
L 291.217077 512.033212 
L 291.48218 511.636969 
L 291.810323 510.943542 
L 291.904882 510.547299 
L 291.944844 510.448238 
L 292.294938 510.151055 
L 292.607883 509.160446 
L 292.800941 508.665141 
L 292.897188 508.367958 
L 293.117263 507.773592 
L 293.351409 507.47641 
L 293.365481 507.377349 
L 293.709946 507.080166 
L 293.904129 506.4858 
L 294.150658 506.089557 
L 294.215386 505.891435 
L 294.306568 505.693313 
L 294.431521 505.098947 
L 294.524954 504.504582 
L 294.653284 504.207399 
L 296.019324 500.344023 
L 296.225328 499.947779 
L 296.44484 499.452474 
L 296.605252 498.95717 
L 296.776359 498.560926 
L 296.926641 498.164682 
L 297.130956 497.570317 
L 297.521011 496.579707 
L 297.935833 495.490037 
L 298.17223 495.291915 
L 298.616883 494.301306 
L 299.019321 493.211636 
L 299.180297 492.815392 
L 299.84221 491.923844 
L 299.976731 491.5276 
L 300.445024 491.329478 
L 300.597556 490.536991 
L 300.790614 490.140747 
L 301.168287 489.051077 
L 301.482921 488.753894 
L 302.212939 486.574553 
L 302.508436 485.881127 
L 303.27504 484.296152 
L 303.621193 484.09803 
L 303.638079 483.998969 
L 303.870536 483.701786 
L 304.428885 482.314933 
L 304.545395 481.91869 
L 304.679916 481.720568 
L 304.782918 481.423385 
L 304.910685 481.225263 
L 305.344644 480.036532 
L 305.375038 479.83841 
L 305.601867 479.640288 
L 305.722317 479.244045 
L 306.063405 478.352496 
L 306.157401 477.956252 
L 306.397176 477.163765 
L 307.266781 474.588181 
L 307.840889 472.210718 
L 308.153271 471.913536 
L 308.284979 471.517292 
L 309.189481 468.644525 
L 309.329631 467.554855 
L 309.496797 467.257672 
L 309.560962 466.960489 
L 309.736009 466.663306 
L 310.006178 465.771758 
L 310.165465 465.573636 
L 310.639948 464.384905 
L 310.772781 464.186783 
L 311.950829 460.719651 
L 312.071842 460.422468 
L 312.226063 459.62998 
L 312.400547 459.332798 
L 312.504674 459.035615 
L 312.635256 458.738432 
L 312.779909 458.144066 
L 312.911053 457.648762 
L 313.111991 457.054396 
L 313.285349 456.856274 
L 313.65064 455.271299 
L 313.834129 454.974117 
L 314.730751 452.10135 
L 314.851201 451.506984 
L 315.335816 450.318253 
L 315.609925 450.02107 
L 315.714052 449.822948 
L 315.920619 449.030461 
L 316.021932 448.733278 
L 316.114239 448.436095 
L 316.269586 448.138912 
L 316.424933 447.84173 
L 316.456453 447.643608 
L 316.601669 447.346425 
L 316.713676 446.950181 
L 317.363769 444.968963 
L 317.454951 444.67178 
L 317.555702 444.275536 
L 317.648009 444.077414 
L 317.765082 443.879292 
L 317.86921 443.383988 
L 317.959829 443.086805 
L 318.084782 442.492439 
L 318.294725 441.997135 
L 318.418552 441.799013 
L 318.549134 441.303708 
L 318.667333 440.907465 
L 318.760766 440.511221 
L 319.07146 440.214038 
L 319.190784 439.718733 
L 319.434499 439.025307 
L 319.454199 438.827185 
L 319.658514 438.530002 
L 319.759264 438.133758 
L 319.829621 437.836576 
L 319.843129 437.638454 
L 320.053072 437.440332 
L 320.250633 437.044088 
L 320.675023 435.459113 
L 320.793222 435.260991 
L 320.900726 434.765687 
L 321.128118 433.874138 
L 321.314422 433.676017 
L 323.269205 427.038934 
L 323.427929 426.840812 
L 323.518548 426.147386 
L 323.534307 426.048325 
L 323.866953 425.751142 
L 323.984588 424.760533 
L 324.09547 424.265228 
L 324.180461 423.868984 
L 324.299222 423.670863 
L 324.460761 423.175558 
L 324.570517 422.977436 
L 324.723612 422.581192 
L 325.335431 420.996218 
L 325.456444 420.599974 
L 325.556069 420.20373 
L 325.748564 420.005608 
L 325.817232 419.411243 
L 325.932617 419.11406 
L 326.097532 418.519694 
L 326.313104 417.925329 
L 326.547813 417.430024 
L 326.593967 417.231902 
L 326.976143 416.637537 
L 327.163009 415.646927 
L 327.335805 415.448805 
L 327.367324 415.250684 
L 327.531114 414.953501 
L 327.69603 414.458196 
L 328.020795 414.061952 
L 328.1086 413.76477 
L 328.184584 413.368526 
L 328.482333 412.476978 
L 328.985522 411.486368 
L 329.000719 411.387307 
L 329.196028 411.189185 
L 329.269762 410.792942 
L 329.397529 410.59482 
L 329.92492 409.406089 
L 330.12417 408.613601 
L 330.26826 408.217358 
L 330.459066 407.42487 
L 330.65325 406.632383 
L 330.792274 406.137078 
L 330.862631 405.839895 
L 330.96507 405.641773 
L 331.286458 404.651164 
L 331.62248 403.462433 
L 331.71141 403.264311 
L 331.740679 403.066189 
L 331.878577 402.868067 
L 332.044618 402.372763 
L 332.24837 402.174641 
L 332.344618 401.679336 
L 332.972197 400.589666 
L 333.303717 399.599057 
L 333.465255 399.400935 
L 333.712909 399.004691 
L 334.130545 397.81596 
L 334.424916 396.924411 
L 334.651745 396.627229 
L 334.997336 395.636619 
L 335.218536 395.438497 
L 335.33167 394.943193 
L 335.533733 394.249766 
L 335.772945 393.358218 
L 335.94574 393.160096 
L 336.987578 391.178877 
L 337.092268 390.782634 
L 337.386077 390.584512 
L 337.537484 389.891085 
L 338.227539 387.018318 
L 338.390766 386.820197 
L 338.507276 386.523014 
L 338.774068 385.433344 
L 338.878195 385.334283 
L 338.987951 384.343673 
L 339.032979 384.244612 
L 339.263186 384.046491 
L 339.845174 381.669028 
L 339.965624 381.371845 
L 340.050052 381.074663 
L 340.202021 380.876541 
L 340.352303 380.282175 
L 340.619657 379.68781 
L 340.817218 379.489688 
L 341.987948 376.914104 
L 342.324533 376.418799 
L 342.419092 375.725372 
L 342.519843 375.52725 
L 343.262806 373.34791 
L 343.43335 373.050727 
L 343.530161 372.654484 
L 343.715902 372.357301 
L 343.878566 372.159179 
L 344.067684 371.762935 
L 344.618152 370.475143 
L 344.832036 370.277021 
L 345.074062 369.385473 
L 345.210835 369.08829 
L 345.536163 368.097681 
L 345.665056 367.899559 
L 345.835599 367.404254 
L 346.199764 366.413645 
L 346.498075 366.215523 
L 346.567869 366.017401 
L 346.721527 365.819279 
L 347.045167 365.224914 
L 347.233159 364.927731 
L 347.340101 364.531487 
L 348.64479 360.56905 
L 348.755109 360.073745 
L 348.976309 359.380319 
L 349.471619 358.785953 
L 350.329404 356.30943 
L 350.465051 355.913186 
L 350.51627 355.616003 
L 350.636158 355.318821 
L 350.986251 353.832907 
L 351.166926 353.337602 
L 351.389816 352.346993 
L 351.632967 352.04981 
L 351.731466 351.554505 
L 351.952667 351.356383 
L 352.271803 350.167652 
L 352.684373 348.87986 
L 352.907263 348.681738 
L 353.214579 347.195824 
L 353.314204 346.799581 
L 353.380058 346.304276 
L 353.444223 345.908032 
L 353.530902 345.61085 
L 354.547974 343.134326 
L 354.738218 342.837143 
L 354.874428 342.4409 
L 354.981932 342.143717 
L 355.084371 341.945595 
L 355.192439 341.648412 
L 355.34666 341.252169 
L 355.624708 340.162498 
L 356.26073 338.973767 
L 356.30801 338.577523 
L 356.475177 338.379402 
L 356.522456 338.18128 
L 356.771799 337.884097 
L 357.169735 336.299122 
L 357.614388 336.001939 
L 357.717389 335.704756 
L 357.947595 335.506635 
L 358.316826 334.714147 
L 358.485118 334.416964 
L 358.624705 334.119782 
L 358.739527 333.723538 
L 358.741779 333.624477 
L 358.981553 333.327294 
L 359.171234 332.435746 
L 359.475174 331.346076 
L 359.94234 330.454527 
L 360.10219 329.761101 
L 360.622827 329.265796 
L 361.28868 327.58176 
L 361.738961 325.897724 
L 362.043464 325.40242 
L 362.126203 325.204298 
L 362.288304 324.907115 
L 362.402563 324.708993 
L 362.724514 324.015567 
L 362.857347 323.718384 
L 363.053782 322.727775 
L 363.19562 322.529653 
L 363.272168 322.034348 
L 363.732581 321.836226 
L 363.936896 321.1428 
L 364.397871 320.548434 
L 364.50819 320.350312 
L 364.97423 318.963459 
L 365.05303 318.666276 
L 365.117757 318.170972 
L 365.264662 317.97285 
L 365.359784 317.576606 
L 365.686237 317.378484 
L 365.852841 316.982241 
L 366.053779 316.486936 
L 366.145524 315.991631 
L 366.380796 315.496327 
L 366.596368 314.703839 
L 367.176104 313.911352 
L 367.223384 313.614169 
L 367.388299 313.416047 
L 367.549275 312.920743 
L 367.964659 312.227316 
L 368.094115 311.930133 
L 368.935015 309.45361 
L 369.040831 309.156427 
L 369.238391 308.562062 
L 369.428072 308.165818 
L 369.934076 307.274269 
L 370.15021 306.977087 
L 370.244207 306.679904 
L 370.391111 306.481782 
L 370.756964 305.887416 
L 370.759778 305.788356 
L 370.927508 305.590234 
L 370.932011 305.491173 
L 371.089046 305.293051 
L 371.611372 304.10432 
L 371.975537 303.807137 
L 372.291859 302.816528 
L 372.526006 302.420284 
L 372.625067 302.02404 
L 373.174973 300.538126 
L 373.659588 300.141883 
L 374.014747 299.547517 
L 374.247768 299.349395 
L 374.392983 299.052212 
L 374.670469 298.556908 
L 374.821876 298.061603 
L 374.938949 297.76442 
L 375.182663 296.971933 
L 375.321688 296.67475 
L 375.468592 296.080384 
L 375.735383 295.882263 
L 375.751143 295.684141 
L 375.965027 295.486019 
L 376.292606 294.891653 
L 376.476096 294.59447 
L 376.57966 294.297288 
L 376.757521 294.099166 
L 376.928065 293.702922 
L 376.978722 293.306678 
L 377.338384 293.108556 
L 377.513993 292.712313 
L 377.758834 292.514191 
L 377.901798 292.217008 
L 377.914181 292.018886 
L 378.192229 291.820764 
L 378.4669 291.028277 
L 378.695981 290.731094 
L 378.823185 290.136729 
L 379.194104 289.938607 
L 379.442322 289.344241 
L 380.901232 286.768657 
L 380.905172 286.669596 
L 381.09035 286.471474 
L 381.813051 284.787438 
L 382.062394 284.490256 
L 382.165396 284.193073 
L 382.427122 283.89589 
L 382.575715 283.499646 
L 382.836878 282.905281 
L 383.000104 282.608098 
L 383.05639 282.310915 
L 383.235376 282.112793 
L 383.516239 281.518428 
L 383.753762 281.221245 
L 384.69091 280.032514 
L 385.050571 279.339087 
L 385.785655 277.754112 
L 386.007981 277.060686 
L 386.040627 276.862564 
L 386.413797 276.565381 
L 386.73406 275.475711 
L 386.938937 275.277589 
L 386.973834 275.079467 
L 387.153384 274.881345 
L 387.310982 274.28698 
L 387.674021 273.989797 
L 388.023552 273.29637 
L 388.137248 272.999188 
L 388.680399 272.2067 
L 388.867829 271.612335 
L 389.367078 271.017969 
L 389.888278 270.02736 
L 390.000285 269.829238 
L 390.165764 269.631116 
L 390.464075 268.838629 
L 390.634619 268.541446 
L 391.01004 267.94708 
L 391.220547 267.550836 
L 391.304975 267.253654 
L 391.312854 267.055532 
L 391.574017 266.85741 
L 391.697845 266.362105 
L 391.73443 266.263044 
L 391.939308 266.064922 
L 392.166137 265.371496 
L 392.540433 265.173374 
L 392.842121 264.975252 
L 393.234991 264.182765 
L 393.496154 263.885582 
L 393.784897 263.68746 
L 394.204221 262.795912 
L 394.528424 262.201546 
L 394.742307 261.805302 
L 395.099155 261.012815 
L 395.40028 260.418449 
L 395.580955 260.220328 
L 395.642869 259.923145 
L 396.911536 257.842865 
L 397.266132 257.149439 
L 398.308533 254.771976 
L 398.610784 254.573855 
L 398.778513 254.276672 
L 399.637987 253.880428 
L 399.807968 253.583245 
L 401.112095 252.097331 
L 401.264627 251.602027 
L 401.458248 251.403905 
L 401.55731 251.007661 
L 401.602338 250.809539 
L 401.77851 250.512356 
L 402.703275 248.630199 
L 402.812468 248.432077 
L 402.953744 248.134894 
L 403.056183 247.73865 
L 403.378134 247.342407 
L 403.637045 247.144285 
L 403.769315 247.045224 
L 404.314718 246.847102 
L 404.475694 246.351797 
L 404.642298 246.153675 
L 404.753179 245.757432 
L 404.917532 245.55931 
L 405.500646 244.865883 
L 405.763497 244.073396 
L 406.0089 243.875274 
L 406.979256 242.686543 
L 407.387323 242.38936 
L 407.486948 241.993116 
L 407.82691 241.497812 
L 407.9316 241.101568 
L 408.041356 240.705324 
L 408.179255 240.408142 
L 408.371187 240.110959 
L 409.243044 238.625045 
L 409.653362 238.426923 
L 409.916777 238.030679 
L 410.137977 237.733496 
L 410.373249 237.535375 
L 410.565181 237.238192 
L 410.986757 236.247582 
L 411.760114 235.653217 
L 412.194636 235.455095 
L 412.516024 235.058851 
L 412.603829 234.761668 
L 412.86668 234.563547 
L 413.352421 234.266364 
L 413.360301 234.068242 
L 413.737411 233.771059 
L 413.858987 233.374815 
L 413.978874 233.176694 
L 413.985065 233.077633 
L 414.269868 232.78045 
L 414.446603 232.285145 
L 414.795008 231.987962 
L 414.831594 231.888902 
L 415.528966 231.492658 
L 415.845289 231.096414 
L 415.921274 230.898292 
L 416.293881 230.70017 
L 417.090316 229.907683 
L 417.269865 229.511439 
L 417.479809 229.313317 
L 417.55298 229.115195 
L 417.913204 228.818013 
L 418.006075 228.421769 
L 418.34266 227.926464 
L 418.356731 227.827403 
L 418.866674 227.629282 
L 419.202697 227.332099 
L 419.286561 227.133977 
L 419.377743 226.935855 
L 419.864047 226.737733 
L 420.195003 226.143368 
L 420.617142 225.549002 
L 420.779243 225.152758 
L 421.3511 224.756515 
L 421.372488 224.657454 
L 421.579617 224.459332 
L 421.592563 224.360271 
L 422.267422 223.765905 
L 422.495939 223.369661 
L 422.753162 223.072479 
L 422.772299 222.874357 
L 423.108884 222.676235 
L 423.223143 222.279991 
L 423.370047 222.081869 
L 424.170422 220.794077 
L 425.027081 220.397834 
L 425.222953 219.902529 
L 425.499876 219.605346 
L 425.706443 219.407224 
L 426.001377 219.209102 
L 426.437024 218.713798 
L 426.545091 218.515676 
L 426.698749 218.317554 
L 426.728581 218.218493 
L 427.047717 218.020371 
L 427.082614 217.822249 
L 427.350531 217.624128 
L 427.628017 217.029762 
L 428.150906 216.435396 
L 428.162725 216.336335 
L 428.476234 216.138214 
L 428.84265 215.74197 
L 428.84659 215.642909 
L 429.210755 215.345726 
L 429.272668 215.246665 
L 429.536083 215.048543 
L 429.568165 214.949482 
L 429.902499 214.6523 
L 430.270603 213.958873 
L 431.23927 213.66169 
L 431.41094 213.463568 
L 432.439269 213.067325 
L 433.928574 211.779533 
L 433.996679 211.284228 
L 434.055778 211.185167 
L 434.317504 210.987045 
L 434.403057 210.689862 
L 434.468348 210.590801 
L 435.022194 210.293619 
L 435.178666 210.095497 
L 435.318253 209.798314 
L 436.062343 209.501131 
L 436.272286 209.203948 
L 436.612248 209.005827 
L 436.676976 208.708644 
L 437.233636 208.3124 
L 437.52463 208.015217 
L 438.391421 207.618974 
L 438.480915 207.321791 
L 438.716749 207.123669 
L 438.812434 206.826486 
L 439.211495 206.529303 
L 441.031194 204.845268 
L 441.856896 204.05278 
L 442.188416 203.656536 
L 442.590291 203.458415 
L 442.63926 203.359354 
L 443.368715 203.062171 
L 443.539259 202.665927 
L 443.776782 202.467805 
L 444.183723 201.87344 
L 444.637381 201.675318 
L 444.975655 201.080952 
L 445.649951 200.684708 
L 445.879594 200.288465 
L 445.940945 199.892221 
L 447.22312 198.010063 
L 447.581093 197.811941 
L 447.677904 197.712881 
L 448.042069 197.514759 
L 448.505295 197.019454 
L 449.318052 196.326028 
L 450.552948 194.939174 
L 451.111859 194.741053 
L 451.323491 194.146687 
L 451.692159 193.948565 
L 452.246567 193.3542 
L 452.583152 193.156078 
L 452.700226 192.957956 
L 452.923115 192.759834 
L 452.943377 192.561712 
L 453.438124 192.165468 
L 453.798911 191.769225 
L 453.838311 191.571103 
L 454.331931 191.372981 
L 454.844689 190.976737 
L 455.27133 190.778615 
L 456.834931 189.292701 
L 456.95313 189.09458 
L 457.349377 188.896458 
L 457.520484 188.500214 
L 457.955005 188.203031 
L 457.96007 188.10397 
L 458.422171 187.806788 
L 460.094402 186.518995 
L 460.213727 186.221813 
L 460.235115 186.122752 
L 461.188022 185.429325 
L 461.64562 185.231203 
L 461.679391 185.132142 
L 462.176389 184.83496 
L 462.415601 184.537777 
L 463.115225 184.339655 
L 463.244681 184.141533 
L 464.84937 182.853741 
L 464.869632 182.75468 
L 465.057625 182.655619 
L 465.519726 182.457497 
L 465.628919 182.160314 
L 466.0595 181.962193 
L 466.085391 181.863132 
L 466.289706 181.764071 
L 466.761938 181.565949 
L 467.090643 181.367827 
L 467.111469 181.268766 
L 468.077322 180.971583 
L 468.420098 180.773461 
L 468.754994 180.57534 
L 469.241298 180.179096 
L 469.880697 179.881913 
L 470.074881 179.58473 
L 470.113155 179.485669 
L 470.351803 179.287547 
L 470.63548 178.990365 
L 471.079007 178.792243 
L 471.282197 178.693182 
L 471.993641 178.49506 
L 472.166999 178.296938 
L 472.412965 178.197877 
L 473.231913 177.999755 
L 473.396829 177.801634 
L 473.620843 177.603512 
L 473.954614 177.40539 
L 474.586133 176.711963 
L 475.014463 176.414781 
L 475.075251 176.31572 
L 476.431723 175.919476 
L 476.517276 175.721354 
L 477.047482 175.523232 
L 477.399827 175.226049 
L 478.633597 174.631684 
L 479.29551 174.136379 
L 479.407517 173.938257 
L 480.063802 173.740135 
L 480.098136 173.641074 
L 480.980124 173.442953 
L 480.985752 173.343892 
L 482.855544 173.046709 
L 482.995131 172.749526 
L 483.233217 172.551404 
L 483.282185 172.353282 
L 483.776931 172.155161 
L 484.701696 171.857978 
L 484.75179 171.560795 
L 485.075429 171.263612 
L 485.328149 171.06549 
L 485.40132 170.867368 
L 485.707511 170.669247 
L 486.666047 170.273003 
L 488.096252 169.97582 
L 488.42158 169.678637 
L 488.458165 169.480515 
L 490.819326 168.489906 
L 492.344653 168.291784 
L 492.490431 167.895541 
L 492.599062 167.697419 
L 492.951407 167.499297 
L 493.105065 167.301175 
L 494.22345 166.904931 
L 494.580298 166.508687 
L 497.139583 164.725591 
L 497.84371 164.527469 
L 499.889674 163.933103 
L 499.90262 163.834042 
L 500.123257 163.635921 
L 500.173351 163.53686 
L 501.841642 162.744372 
L 501.905807 162.645311 
L 502.521004 162.447189 
L 502.645394 162.249067 
L 504.096987 161.852824 
L 504.487043 161.45658 
L 506.307867 160.961275 
L 506.480662 160.763154 
L 507.89961 160.168788 
L 507.944075 160.069727 
L 509.266213 159.673483 
L 509.642197 159.475361 
L 509.686663 159.376301 
L 511.642571 158.484752 
L 511.730376 158.385691 
L 512.900543 158.187569 
L 513.014802 157.989447 
L 513.713301 157.791326 
L 513.794351 157.593204 
L 515.276338 157.19696 
L 515.689471 156.899777 
L 515.956826 156.701655 
L 516.53994 156.503534 
L 517.04538 156.10729 
L 517.912734 155.810107 
L 519.580462 155.01762 
L 520.586277 154.720437 
L 522.706538 154.522315 
L 523.218732 154.126071 
L 523.666762 154.02701 
L 524.967511 153.828888 
L 525.392464 153.531706 
L 527.243682 153.135462 
L 527.381017 152.93734 
L 528.10203 152.739218 
L 528.957001 152.243914 
L 529.072948 152.045792 
L 529.108408 151.946731 
L 531.070507 151.649548 
L 531.981201 151.451426 
L 532.058311 151.253304 
L 532.720787 151.055182 
L 532.792269 150.85706 
L 533.662437 150.460817 
L 533.81497 150.361756 
L 535.243486 150.163634 
L 536.156431 149.668329 
L 536.661872 149.569268 
L 537.829225 149.371147 
L 540.083444 149.073964 
L 540.334476 148.974903 
L 541.522092 148.776781 
L 541.693199 148.67772 
L 543.385693 148.479598 
L 544.263178 148.281476 
L 544.325091 148.182415 
L 545.37312 147.984294 
L 548.012893 147.389928 
L 548.051166 147.290867 
L 548.28869 147.191806 
L 549.549477 146.993684 
L 551.250976 146.59744 
L 553.249098 146.399319 
L 556.377425 146.102136 
L 556.377988 146.003075 
L 556.587368 145.904014 
L 558.641776 145.705892 
L 559.188867 145.606831 
L 561.914193 145.408709 
L 562.101059 145.309648 
L 562.793366 145.111527 
L 566.364657 144.913405 
L 566.508747 144.814344 
L 568.822066 144.616222 
L 570.835948 144.219978 
L 571.477035 144.021856 
L 571.514184 143.922795 
L 571.85302 143.823734 
L 572.742325 143.625613 
L 572.997859 143.526552 
L 576.032753 143.130308 
L 576.170652 143.031247 
L 577.394853 142.833125 
L 577.397668 142.734064 
L 579.198229 142.535942 
L 579.369336 142.436881 
L 585.183026 141.24815 
L 585.465577 141.050028 
L 586.762949 140.851907 
L 587.261073 140.653785 
L 587.557695 140.554724 
L 589.98077 140.356602 
L 590.346623 140.15848 
L 595.443241 139.465054 
L 601.796706 139.167871 
L 605.377566 138.969749 
L 605.452988 138.870688 
L 607.524843 138.672566 
L 612.684501 138.474444 
L 613.077934 138.276322 
L 614.492942 138.0782 
L 614.55373 137.97914 
L 618.906821 137.781018 
L 619.807383 137.681957 
L 625.949779 137.384774 
L 627.764974 137.186652 
L 630.640018 136.889469 
L 634.003617 136.493226 
L 634.435887 136.394165 
L 638.020687 136.096982 
L 638.827253 135.89886 
L 647.339252 135.403555 
L 647.465331 135.304494 
L 651.569642 135.007312 
L 655.660445 134.80919 
L 656.431551 134.710129 
L 658.483144 134.512007 
L 659.080892 134.313885 
L 660.029859 134.115763 
L 663.852745 133.917641 
L 669.465497 133.620459 
L 669.548236 133.521398 
L 675.380501 133.323276 
L 676.617085 133.224215 
L 681.643347 133.026093 
L 682.998693 132.827971 
L 683.827772 132.629849 
L 687.086118 132.431727 
L 687.398501 132.332667 
L 689.658911 132.134545 
L 696.914627 131.738301 
L 704.837884 131.540179 
L 705.10355 131.441118 
L 706.073905 131.342057 
L 713.420802 131.242996 
L 713.420802 131.242996 
" clip-path="url(#p9947bb1150)" style="fill: none; stroke: #ff0000; stroke-width: 1.5; stroke-linecap: square"/>
   </g>
   <g id="line2d_39">
    <path d="M 160.058495 576.72 
L 162.419264 576.620896 
L 182.9684 576.323583 
L 186.312862 576.125375 
L 186.603294 576.02627 
L 192.864451 575.629854 
L 193.702536 575.332541 
L 197.697092 574.936124 
L 200.493899 574.737916 
L 200.598027 574.638811 
L 202.73855 574.440603 
L 203.787705 574.242395 
L 203.94868 573.845978 
L 205.081137 573.350457 
L 206.904212 573.053144 
L 208.952991 572.656727 
L 212.256365 572.359414 
L 212.455614 572.26031 
L 214.513398 571.863893 
L 218.678497 571.566581 
L 218.946415 571.368372 
L 222.586374 570.872851 
L 222.674178 570.674643 
L 223.381683 570.476434 
L 226.155976 569.881809 
L 226.19031 569.782705 
L 226.370985 569.683601 
L 227.875487 569.485392 
L 229.640026 568.692558 
L 230.228205 568.296142 
L 231.206441 568.097933 
L 231.215446 567.998829 
L 231.63477 567.80062 
L 231.773795 567.602412 
L 232.642274 567.404204 
L 232.722199 567.205995 
L 232.873606 567.007787 
L 233.001936 566.61137 
L 233.536082 566.314057 
L 233.591804 566.115849 
L 233.901935 565.91764 
L 234.117507 565.521224 
L 234.308877 565.323015 
L 234.603248 565.124807 
L 235.220696 564.431077 
L 235.408688 564.03466 
L 235.649588 563.638243 
L 235.771727 563.340931 
L 236.883358 562.746305 
L 236.926135 562.647201 
L 237.715252 562.349889 
L 237.798554 562.15168 
L 238.211124 561.953472 
L 238.22801 561.755263 
L 239.164594 561.259742 
L 239.230448 561.160638 
L 239.500616 560.96243 
L 239.729697 560.566013 
L 240.606619 559.971387 
L 240.80024 559.674075 
L 241.338326 558.881241 
L 241.750333 558.088407 
L 241.940577 557.592886 
L 242.728568 557.295574 
L 243.034197 556.998261 
L 243.434384 556.800052 
L 243.815997 555.908114 
L 243.979787 555.610802 
L 244.032695 555.412593 
L 244.17003 555.214385 
L 244.367591 554.718864 
L 245.098735 554.520655 
L 245.264213 554.223343 
L 245.556333 554.025134 
L 245.82031 553.430509 
L 245.825376 553.331405 
L 246.15183 553.133196 
L 246.217683 552.934988 
L 246.62575 552.73678 
L 247.197044 551.745737 
L 247.251641 551.547529 
L 247.951265 550.952904 
L 248.304736 550.358278 
L 248.659332 550.16007 
L 248.84057 549.862757 
L 249.246386 549.664549 
L 249.335879 549.268132 
L 250.961394 547.781569 
L 251.082407 547.484256 
L 251.959329 546.889631 
L 251.977903 546.790527 
L 252.858202 546.592318 
L 252.884656 546.493214 
L 253.16777 546.195901 
L 253.320866 545.997693 
L 253.328746 545.898589 
L 253.760453 545.502172 
L 253.843192 545.204859 
L 254.390846 544.907546 
L 254.486531 544.610234 
L 254.789345 544.412025 
L 254.959889 544.114713 
L 255.685404 543.024566 
L 256.018049 542.727254 
L 256.117674 542.429941 
L 256.706979 542.132628 
L 256.942814 541.93442 
L 257.123489 541.736211 
L 259.696282 539.258606 
L 259.723862 539.159502 
L 259.975456 538.862189 
L 260.338495 538.465772 
L 261.258757 537.47473 
L 261.850877 537.276522 
L 262.03718 537.078313 
L 262.764947 536.781001 
L 263.038493 536.483688 
L 263.098718 536.28548 
L 263.648061 535.988167 
L 264.809223 534.699812 
L 265.212787 534.501604 
L 265.456502 534.303395 
L 265.494776 534.105187 
L 265.889897 533.807874 
L 266.151623 533.411457 
L 266.156126 533.312353 
L 266.455 533.01504 
L 266.494962 532.915936 
L 267.143367 532.717728 
L 267.249183 532.618624 
L 267.817663 532.420415 
L 267.904342 532.123102 
L 268.655185 531.627581 
L 268.889331 531.231165 
L 269.239988 531.032956 
L 269.309218 530.933852 
L 269.826479 530.636539 
L 270.179386 530.240122 
L 270.401713 530.041914 
L 270.70509 529.843705 
L 270.890268 529.546393 
L 271.257809 529.348184 
L 271.614094 528.951768 
L 271.794207 528.753559 
L 272.380135 528.158934 
L 272.589516 527.960725 
L 272.631166 527.663413 
L 272.819159 527.465204 
L 273.195706 527.266996 
L 273.317282 527.068787 
L 274.126099 526.771475 
L 274.298895 526.474162 
L 274.533604 526.275954 
L 274.589889 526.176849 
L 275.169063 525.879537 
L 275.223659 525.780433 
L 275.723471 525.582224 
L 276.284071 525.185807 
L 276.911087 524.987599 
L 277.50377 524.293869 
L 277.965871 523.897452 
L 278.552362 523.302827 
L 278.646358 522.90641 
L 279.248046 522.410889 
L 279.305457 522.212681 
L 279.874499 521.71716 
L 280.066994 521.320743 
L 280.186319 521.02343 
L 280.474499 520.825222 
L 280.688382 520.527909 
L 280.918025 520.230596 
L 281.313147 519.536867 
L 281.614272 519.239554 
L 281.623278 519.14045 
L 281.763428 518.942242 
L 281.998137 518.347616 
L 282.177686 518.149408 
L 282.182189 518.050304 
L 282.523277 517.852095 
L 282.645979 517.653887 
L 282.892508 517.455678 
L 283.359111 516.761949 
L 283.677122 516.464636 
L 283.795321 516.068219 
L 284.045227 515.770907 
L 284.248979 515.473594 
L 284.579373 514.978073 
L 284.69532 514.482552 
L 285.402261 514.185239 
L 285.522149 513.987031 
L 285.855357 513.788822 
L 286.555543 513.293301 
L 286.580309 513.194197 
L 286.727213 512.995989 
L 286.817269 512.79778 
L 286.956856 512.500468 
L 289.025335 509.824654 
L 289.503195 509.626445 
L 289.553852 509.527341 
L 289.988373 509.329133 
L 290.000193 509.230028 
L 290.133026 509.03182 
L 290.395878 508.238986 
L 290.571487 508.040778 
L 290.579367 507.941674 
L 290.769048 507.743465 
L 290.833213 507.545257 
L 291.035839 507.247944 
L 291.262106 506.752423 
L 291.680867 506.356006 
L 291.831711 506.157798 
L 292.17505 505.761381 
L 292.603943 504.770339 
L 292.618577 504.671234 
L 292.817826 504.473026 
L 292.838089 504.274818 
L 293.095312 503.977505 
L 293.239965 503.581088 
L 293.628332 503.283775 
L 294.157412 502.292733 
L 294.420827 501.797212 
L 295.21501 500.310649 
L 295.6197 499.815128 
L 295.773921 499.517815 
L 296.02833 499.022294 
L 296.584427 498.031252 
L 296.860787 497.833043 
L 297.01332 497.535731 
L 297.545214 496.544689 
L 297.755158 495.751855 
L 297.963975 495.15723 
L 298.065289 494.760813 
L 298.252155 494.364396 
L 298.348966 494.166187 
L 298.669228 493.472458 
L 298.84146 492.976937 
L 298.951779 492.679624 
L 299.232642 491.88679 
L 299.395306 491.688582 
L 299.529828 491.093957 
L 299.898495 490.69754 
L 299.928889 490.499331 
L 300.159658 490.301123 
L 300.2863 489.805602 
L 300.529451 488.913664 
L 300.796806 488.517247 
L 301.950651 485.643225 
L 302.127386 485.246808 
L 302.221382 484.949495 
L 302.362095 484.652183 
L 302.470725 484.453974 
L 302.57035 484.057557 
L 302.694177 483.760245 
L 303.12307 482.372786 
L 303.401118 482.174577 
L 303.481606 481.877265 
L 303.69155 481.679056 
L 303.813688 481.381744 
L 303.925696 480.886222 
L 304.028698 480.489806 
L 304.525695 479.89518 
L 304.623068 479.399659 
L 304.747459 479.201451 
L 304.842018 478.70593 
L 305.368846 477.516679 
L 305.496614 477.021158 
L 305.644081 476.624741 
L 305.822504 475.931012 
L 305.942955 475.633699 
L 306.252523 474.642657 
L 306.480478 473.849823 
L 307.448582 471.174009 
L 307.620814 470.975801 
L 307.827943 470.579384 
L 308.045767 470.381175 
L 308.250082 469.78655 
L 308.385729 469.092821 
L 308.969406 467.90357 
L 309.016122 467.408049 
L 309.257586 466.912528 
L 309.36115 466.417007 
L 309.518749 466.02059 
L 309.723064 465.425965 
L 309.863214 464.732235 
L 309.981412 464.534027 
L 310.154208 464.13761 
L 310.315746 463.939401 
L 310.384414 463.542984 
L 310.627003 463.245672 
L 310.765464 462.551942 
L 310.951768 462.353734 
L 311.005239 462.155525 
L 311.110492 461.858213 
L 311.217996 461.362692 
L 311.501674 460.173441 
L 311.609741 459.67792 
L 312.489477 457.200315 
L 312.662273 456.407481 
L 312.819871 456.110168 
L 312.976907 455.317334 
L 313.132816 454.02898 
L 313.309552 453.830771 
L 313.375968 453.434354 
L 313.552141 452.839729 
L 313.713679 452.641521 
L 313.793604 452.344208 
L 313.896043 452.146 
L 314.01593 451.551374 
L 314.427374 449.965707 
L 314.709363 448.677352 
L 314.780845 448.280935 
L 315.033565 446.893476 
L 315.157392 446.596163 
L 315.329625 446.100642 
L 315.424184 445.902434 
L 315.509737 445.506017 
L 315.661144 445.010496 
L 315.943696 443.523933 
L 316.253827 442.631995 
L 316.461519 441.938265 
L 316.686096 441.640953 
L 316.822306 441.145432 
L 317.154951 440.352598 
L 318.217615 436.586638 
L 318.327371 435.992012 
L 318.613299 435.298283 
L 318.849134 434.703657 
L 318.954387 434.406345 
L 319.0557 433.910824 
L 319.150822 433.217094 
L 319.254949 432.919782 
L 319.830746 431.036801 
L 319.891534 430.640385 
L 320.134686 430.343072 
L 320.273147 429.748447 
L 320.369958 429.153821 
L 320.468457 428.856509 
L 320.639001 428.6583 
L 321.403353 426.577112 
L 321.535623 426.378903 
L 321.701664 425.883382 
L 321.835622 425.288757 
L 321.941438 424.595027 
L 322.035997 424.297715 
L 322.201476 423.703089 
L 322.48065 422.513839 
L 322.61292 422.117422 
L 322.760387 421.423692 
L 322.864514 421.225484 
L 322.973708 420.829067 
L 323.686277 418.450566 
L 323.818547 418.252357 
L 324.187778 417.261315 
L 324.329053 416.964003 
L 324.469766 416.66669 
L 324.634682 416.270273 
L 324.852505 415.675648 
L 324.907664 415.279231 
L 325.044437 415.081023 
L 325.099034 414.684606 
L 325.232993 414.387293 
L 325.399596 413.693563 
L 325.504287 413.495355 
L 325.918545 411.711479 
L 326.01817 411.414166 
L 326.120046 411.116854 
L 326.31029 410.224916 
L 327.012728 408.341936 
L 327.315542 407.251789 
L 327.40391 406.756268 
L 327.52042 406.359851 
L 327.898656 405.567018 
L 328.029237 405.269705 
L 328.209913 404.67508 
L 328.342746 404.476871 
L 328.407474 404.179559 
L 328.532427 403.98135 
L 328.674265 403.485829 
L 328.857755 402.891204 
L 329.099218 402.692995 
L 330.025671 400.017182 
L 330.531111 398.035097 
L 330.592462 397.63868 
L 330.778766 396.845847 
L 331.035426 396.152117 
L 331.280829 395.953909 
L 332.534862 391.494219 
L 332.807282 391.196906 
L 332.994711 390.800489 
L 333.102216 390.503177 
L 333.285142 389.512135 
L 333.625105 387.629154 
L 333.91047 387.430946 
L 334.3388 385.845279 
L 334.572946 385.448862 
L 334.970319 383.565882 
L 335.265253 383.07036 
L 335.478574 382.872152 
L 335.559624 382.376631 
L 335.649118 382.079318 
L 335.770131 381.682901 
L 336.015534 380.890068 
L 336.035234 380.790964 
L 336.269943 380.592755 
L 336.370693 380.394547 
L 336.532231 379.99813 
L 336.651556 379.601713 
L 336.753432 379.3044 
L 336.873882 379.106192 
L 336.985327 378.610671 
L 337.140111 378.412462 
L 337.324163 377.817837 
L 337.450804 377.619629 
L 337.482324 377.322316 
L 337.709716 377.025003 
L 338.342361 375.042919 
L 338.474068 374.547398 
L 338.629978 374.051877 
L 338.771254 373.65546 
L 339.281197 371.970688 
L 339.381384 371.77248 
L 339.549114 371.177854 
L 339.669564 370.682333 
L 339.91553 370.087708 
L 340.229038 369.19577 
L 340.353428 368.997562 
L 340.43279 368.700249 
L 340.679319 368.303832 
L 340.885323 368.105624 
L 340.960745 367.610103 
L 341.286073 367.411894 
L 341.496016 366.619061 
L 342.0099 365.528914 
L 342.123596 365.330706 
L 342.340293 364.73608 
L 342.578942 364.240559 
L 342.748923 363.54683 
L 342.913839 363.348621 
L 343.003332 362.952205 
L 343.668622 360.771912 
L 343.956239 360.573703 
L 344.057552 360.078182 
L 344.231473 359.879974 
L 344.532599 359.186244 
L 344.677252 358.789827 
L 345.566557 356.411326 
L 346.231284 355.023867 
L 347.293947 351.357011 
L 347.453234 351.059698 
L 347.593384 350.86149 
L 347.777999 350.068656 
L 347.917023 349.771344 
L 348.182689 349.077614 
L 348.273308 348.780302 
L 348.464115 348.28478 
L 349.159236 346.203592 
L 349.301637 346.005383 
L 350.210079 344.122403 
L 350.288879 343.825091 
L 350.483625 343.626882 
L 350.637283 343.230465 
L 350.698634 343.032257 
L 350.92096 342.734944 
L 351.259797 341.743902 
L 351.573305 341.248381 
L 351.747789 340.653756 
L 351.82884 340.356443 
L 351.948164 339.960026 
L 352.213267 339.068088 
L 352.440659 338.473463 
L 352.585312 338.17615 
L 352.698445 337.977942 
L 352.900508 337.779733 
L 353.136906 336.887795 
L 353.364861 336.590483 
L 353.483622 336.392274 
L 353.792628 335.995858 
L 353.931652 335.698545 
L 354.686435 334.013773 
L 354.888499 333.320044 
L 355.083245 333.121835 
L 355.115891 333.022731 
L 355.304446 332.824523 
L 355.674802 332.031689 
L 355.699005 331.83348 
L 355.831838 331.635272 
L 356.001256 330.842438 
L 356.210074 330.64423 
L 356.356978 330.247813 
L 356.557353 329.355875 
L 356.717765 328.860354 
L 356.731274 328.76125 
L 356.918141 328.563041 
L 357.268797 328.06752 
L 357.372924 327.770208 
L 357.4748 327.472895 
L 357.714575 326.977374 
L 357.88343 326.680061 
L 357.886245 326.580957 
L 358.020766 326.382749 
L 358.137276 326.085436 
L 358.305006 325.887227 
L 358.411948 325.589915 
L 358.64328 325.094394 
L 358.741779 324.697977 
L 359.16448 323.508726 
L 359.295061 323.013205 
L 359.551159 322.517684 
L 359.911946 321.823955 
L 360.148344 321.526642 
L 360.349282 320.634704 
L 360.461289 320.436496 
L 360.702189 320.238287 
L 360.810257 319.742766 
L 360.997123 319.247245 
L 361.07142 318.949932 
L 361.558286 317.760682 
L 361.871231 316.967848 
L 361.994496 316.76964 
L 362.132957 316.373223 
L 362.315321 316.175014 
L 362.419449 315.976806 
L 362.685114 315.580389 
L 362.748717 315.183972 
L 362.881549 314.985764 
L 363.070667 314.589347 
L 363.123576 314.490243 
L 363.407253 314.292034 
L 363.556408 313.994721 
L 363.883988 313.697409 
L 364.061286 313.201888 
L 364.181736 313.003679 
L 364.51213 312.012637 
L 364.823949 311.517116 
L 365.244399 310.327865 
L 365.482485 310.030553 
L 365.709314 309.535032 
L 366.25922 307.949364 
L 366.39543 307.652052 
L 367.071414 306.264593 
L 367.339894 306.066384 
L 367.470476 305.669967 
L 367.792427 304.976238 
L 367.903871 304.579821 
L 368.024321 304.381612 
L 368.02601 304.282508 
L 368.286047 303.985196 
L 368.296178 303.886091 
L 368.495991 303.687883 
L 368.672726 302.994153 
L 368.958654 302.696841 
L 369.095427 302.498632 
L 369.291299 302.003111 
L 369.648147 301.309382 
L 370.083794 300.813861 
L 370.275726 300.219235 
L 370.507621 299.822818 
L 370.841955 298.534464 
L 371.021504 298.038943 
L 371.092423 297.74163 
L 372.335762 296.255067 
L 372.408933 295.957754 
L 372.495049 295.759546 
L 372.529383 295.561337 
L 372.65321 295.363129 
L 372.864842 294.471191 
L 373.088857 294.272982 
L 373.504804 292.588211 
L 374.162777 291.002543 
L 374.296173 290.705231 
L 374.429006 290.308814 
L 374.801613 289.912397 
L 375.031819 289.714188 
L 375.125815 289.51598 
L 376.250392 287.335687 
L 376.396171 287.137479 
L 376.403488 287.038374 
L 376.688853 286.840166 
L 376.808741 286.641958 
L 377.760522 285.05629 
L 377.902361 284.461665 
L 378.238946 283.86704 
L 378.241197 283.767935 
L 378.599733 283.371518 
L 379.087725 282.677789 
L 379.459207 282.479581 
L 379.596543 282.281372 
L 379.749076 281.884955 
L 379.885286 281.488538 
L 380.050764 281.29033 
L 380.208362 280.993017 
L 380.724497 279.605558 
L 381.231626 278.515412 
L 381.23444 278.317203 
L 381.591851 278.118995 
L 382.362957 276.434223 
L 382.523932 276.236015 
L 382.63594 275.938702 
L 383.125057 275.046764 
L 383.251699 274.749452 
L 383.380592 274.154826 
L 383.46108 273.758409 
L 383.983406 273.461097 
L 384.141004 272.965576 
L 384.545694 272.37095 
L 384.680778 272.073638 
L 384.871022 271.677221 
L 384.979652 271.379908 
L 385.164267 270.48797 
L 385.732747 269.29872 
L 386.288281 268.010365 
L 386.38678 267.514844 
L 386.486405 267.316635 
L 386.665955 267.118427 
L 386.886592 266.72201 
L 386.97102 266.226489 
L 387.052633 266.028281 
L 387.33237 265.830072 
L 387.433684 265.532759 
L 387.988655 264.83903 
L 388.007792 264.739926 
L 388.188467 264.541717 
L 388.336497 264.244405 
L 388.584152 264.046196 
L 388.715296 263.748884 
L 388.848129 263.550675 
L 388.85432 263.451571 
L 389.456571 262.856946 
L 389.672706 262.559633 
L 389.704788 262.361425 
L 389.929366 262.163216 
L 390.047002 261.667695 
L 390.231617 261.469487 
L 390.614919 261.07307 
L 390.742686 260.676653 
L 391.056194 260.082028 
L 391.888088 259.289194 
L 392.390715 258.199047 
L 392.764448 257.802631 
L 393.438181 256.415172 
L 393.733678 256.216963 
L 393.852439 255.91965 
L 394.192964 255.622338 
L 394.266135 255.424129 
L 394.35788 255.225921 
L 394.428799 255.027712 
L 394.578517 254.7304 
L 394.649999 254.532191 
L 394.781144 254.333983 
L 395.790336 251.757273 
L 396.050936 251.559065 
L 397.010035 249.676085 
L 397.124294 249.180564 
L 397.320166 248.784147 
L 397.460316 248.288626 
L 397.798589 247.991313 
L 397.805344 247.892209 
L 398.143617 247.495792 
L 398.156 247.396688 
L 398.457688 247.099375 
L 398.569696 246.802062 
L 398.831984 246.50475 
L 398.980014 246.009229 
L 399.332359 245.81102 
L 399.442115 245.513708 
L 399.451683 245.414603 
L 400.320163 244.62177 
L 400.550369 244.126249 
L 400.822789 243.432519 
L 401.158248 243.135206 
L 401.311907 242.936998 
L 401.590518 242.441477 
L 401.741925 241.846852 
L 402.037422 241.549539 
L 402.114533 241.351331 
L 402.457872 241.153122 
L 402.51078 241.054018 
L 402.764063 240.855809 
L 403.346051 239.46835 
L 403.361248 239.369246 
L 403.563875 239.171038 
L 403.818283 238.477308 
L 403.915094 238.378204 
L 404.213405 238.179996 
L 404.495956 237.387162 
L 405.264248 235.999703 
L 405.603085 235.305973 
L 405.784886 235.008661 
L 405.865373 234.810452 
L 405.999895 234.612244 
L 406.145673 234.414035 
L 406.776067 234.017619 
L 406.862183 233.522097 
L 407.091826 233.224785 
L 407.116592 233.125681 
L 407.318655 232.927472 
L 407.629349 232.134638 
L 407.777379 231.738222 
L 407.926535 231.341805 
L 408.184321 231.044492 
L 408.607022 230.548971 
L 409.017903 229.855241 
L 409.259929 229.657033 
L 409.666871 228.368678 
L 410.169497 228.071366 
L 410.295576 227.873157 
L 410.342292 227.774053 
L 410.645106 227.575844 
L 410.808333 227.278532 
L 410.84323 227.179428 
L 411.185443 226.882115 
L 411.19276 226.783011 
L 411.658801 226.485698 
L 411.889007 225.791969 
L 412.052234 225.59376 
L 412.608331 224.800926 
L 413.258987 224.206301 
L 413.303453 224.107197 
L 413.53985 223.908988 
L 413.764428 223.71078 
L 414.065553 223.314363 
L 414.541162 222.125113 
L 414.652607 221.926904 
L 414.752795 221.629591 
L 415.281875 221.332279 
L 415.339848 221.034966 
L 415.679811 220.440341 
L 415.903825 219.845716 
L 416.615269 219.647507 
L 416.758796 219.449299 
L 416.961423 218.854673 
L 417.223149 218.656465 
L 417.439846 217.962735 
L 417.675681 217.36811 
L 417.703261 217.269006 
L 417.969489 217.070797 
L 417.972304 216.971693 
L 418.330277 216.674381 
L 418.616206 215.980651 
L 419.319207 215.48513 
L 419.32371 215.386026 
L 419.620895 215.187817 
L 419.649038 215.088713 
L 420.395378 214.890505 
L 420.46292 214.494088 
L 420.729149 214.295879 
L 421.277366 213.503046 
L 421.43609 213.304837 
L 421.527272 213.007525 
L 421.96517 212.710212 
L 422.419391 211.917378 
L 422.784682 211.71917 
L 422.98956 211.322753 
L 423.087496 210.926336 
L 423.339653 210.529919 
L 423.634587 210.331711 
L 424.048283 209.83619 
L 424.429896 209.637981 
L 424.662916 209.241564 
L 424.667419 209.14246 
L 425.027644 208.845147 
L 425.604004 208.250522 
L 426.625016 207.95321 
L 426.653158 207.755001 
L 427.527829 207.358584 
L 429.089741 205.872021 
L 430.907188 204.484562 
L 431.061972 204.286354 
L 431.229702 204.088145 
L 431.431203 203.790832 
L 431.685049 203.196207 
L 432.527637 202.898894 
L 433.319569 202.304269 
L 433.320694 202.205165 
L 434.216753 201.313227 
L 434.521256 200.817706 
L 434.857841 200.520393 
L 434.98786 200.223081 
L 435.129135 199.925768 
L 435.162906 199.72756 
L 435.895176 199.232038 
L 436.02238 199.03383 
L 436.63026 198.637413 
L 436.746207 198.439205 
L 437.30737 198.240996 
L 437.603992 197.844579 
L 437.992922 197.051746 
L 439.459713 196.655329 
L 439.642639 196.159808 
L 439.975285 195.664287 
L 442.510367 194.078619 
L 443.620872 192.592056 
L 443.77453 192.294743 
L 444.052579 192.096535 
L 444.068339 191.997431 
L 444.965524 191.402805 
L 445.032503 191.204597 
L 445.50361 190.709076 
L 445.57678 190.609972 
L 446.331001 190.312659 
L 446.400232 190.114451 
L 446.756516 189.916242 
L 446.991788 189.519825 
L 447.534377 189.024304 
L 447.91993 188.726991 
L 448.369648 188.330575 
L 448.411299 188.132366 
L 448.980342 187.735949 
L 448.983719 187.636845 
L 449.208296 187.438637 
L 449.271336 187.240428 
L 449.423868 187.04222 
L 449.942817 186.844011 
L 450.045819 186.447594 
L 451.08034 186.249386 
L 451.149008 186.051178 
L 451.399476 185.654761 
L 451.471521 185.357448 
L 452.242065 185.15924 
L 452.351821 184.961031 
L 452.365892 184.762823 
L 452.815047 184.564614 
L 453.609793 183.969989 
L 454.273395 183.672676 
L 454.321237 183.573572 
L 455.126677 183.27626 
L 455.207728 182.879843 
L 455.42724 182.483426 
L 455.688966 182.384322 
L 456.689715 182.186113 
L 456.790466 181.987905 
L 457.370202 181.393279 
L 457.858194 180.69955 
L 458.104723 180.501341 
L 459.444872 179.113882 
L 459.93793 178.915674 
L 460.14731 178.717466 
L 460.452939 178.519257 
L 460.465884 178.420153 
L 460.954439 178.221945 
L 461.045621 177.924632 
L 461.690648 177.726423 
L 461.772262 177.528215 
L 462.540554 177.330007 
L 462.617664 177.230902 
L 462.855188 177.032694 
L 463.415225 176.438069 
L 463.794586 176.23986 
L 464.070384 175.942548 
L 464.937737 174.654193 
L 465.232671 174.455984 
L 465.792146 174.059567 
L 465.933984 173.960463 
L 466.370194 173.762255 
L 466.382014 173.663151 
L 466.922914 173.266734 
L 467.699086 172.969421 
L 467.872444 172.870317 
L 469.301523 172.573004 
L 469.473193 172.374796 
L 469.774318 171.978379 
L 469.97413 171.78017 
L 470.160434 171.482858 
L 470.946174 171.284649 
L 471.244486 171.086441 
L 473.56681 169.89719 
L 474.829285 169.599878 
L 475.249735 169.203461 
L 475.979753 169.005252 
L 476.364743 168.70794 
L 476.82797 168.311523 
L 477.636787 168.01421 
L 477.794385 167.816002 
L 478.43885 167.419585 
L 478.484441 167.221376 
L 478.676936 167.122272 
L 479.207142 166.924064 
L 480.755546 166.230334 
L 482.193068 165.833917 
L 483.120647 165.140188 
L 483.778057 164.941979 
L 484.308263 164.545563 
L 484.460233 164.347354 
L 484.994379 164.149146 
L 485.557793 163.55452 
L 486.145409 163.356312 
L 486.300193 163.058999 
L 486.892313 162.860791 
L 487.141656 162.662582 
L 487.947096 162.464374 
L 488.254413 162.266166 
L 488.838653 161.869749 
L 490.157413 161.473332 
L 490.357225 161.275123 
L 491.408069 160.977811 
L 491.44184 160.878707 
L 492.101501 160.581394 
L 492.767354 160.383185 
L 492.899061 160.184977 
L 492.985741 159.986769 
L 494.186865 159.590352 
L 496.223261 159.094831 
L 496.230578 158.995726 
L 496.697745 158.797518 
L 496.716881 158.698414 
L 498.830388 158.004684 
L 499.020069 157.90558 
L 499.704496 157.707372 
L 499.782732 157.608267 
L 500.103557 157.410059 
L 500.266784 157.211851 
L 500.585921 156.914538 
L 500.623069 156.815434 
L 502.040329 156.518121 
L 502.074663 156.419017 
L 502.757964 156.121704 
L 503.388357 155.824392 
L 503.414248 155.725287 
L 507.600173 155.130662 
L 507.749892 155.031558 
L 508.715744 154.833349 
L 509.310115 154.536037 
L 510.926624 154.238724 
L 510.963772 154.13962 
L 512.53469 153.941411 
L 512.64726 153.842307 
L 514.88572 153.346786 
L 515.744068 153.049473 
L 517.101102 152.851265 
L 518.82399 152.355744 
L 518.905603 152.25664 
L 519.262451 152.058431 
L 519.278211 151.959327 
L 522.188152 151.56291 
L 522.211792 151.463806 
L 523.671265 151.265598 
L 523.87558 151.166493 
L 525.787023 150.968285 
L 525.835991 150.869181 
L 526.505221 150.670972 
L 528.606345 149.779034 
L 529.048183 149.382617 
L 529.085331 149.283513 
L 529.900902 149.085305 
L 530.873509 148.887096 
L 533.844801 148.292471 
L 536.451365 147.400533 
L 538.580631 147.202325 
L 539.013464 146.706804 
L 539.262244 146.607699 
L 540.153238 146.409491 
L 540.211211 146.310387 
L 542.319652 145.91397 
L 543.846105 145.616657 
L 543.927155 145.517553 
L 544.671808 145.319345 
L 548.100697 145.022032 
L 548.415331 144.823823 
L 552.436903 144.526511 
L 553.683056 144.328302 
L 558.11551 143.634573 
L 561.150404 143.238156 
L 563.03483 143.039948 
L 563.035392 142.940843 
L 565.000306 142.742635 
L 565.21025 142.643531 
L 566.815501 142.445322 
L 570.89561 141.949801 
L 571.20349 141.850697 
L 573.964275 141.652489 
L 576.277031 141.057863 
L 580.499541 140.859655 
L 580.532749 140.760551 
L 581.818864 140.562342 
L 582.083404 140.463238 
L 586.446064 140.165925 
L 586.87552 140.066821 
L 588.539871 139.868613 
L 589.228801 139.472196 
L 591.228611 139.174883 
L 591.920355 138.976675 
L 595.382453 138.778466 
L 599.321849 138.084737 
L 599.588641 137.985633 
L 604.271 137.787424 
L 615.837031 137.391007 
L 626.907752 136.003548 
L 627.04565 135.904444 
L 627.527451 135.80534 
L 631.473601 135.607131 
L 631.663282 135.508027 
L 633.642267 135.309819 
L 634.964967 135.012506 
L 647.779964 134.715193 
L 654.425549 134.318776 
L 656.404534 134.120568 
L 680.543535 133.327734 
L 680.743348 133.22863 
L 682.655353 133.129526 
L 695.50975 132.832213 
L 696.791362 132.634005 
L 700.093048 132.237588 
L 708.315742 132.03938 
L 710.796227 131.940275 
L 719.187776 131.841171 
L 719.187776 131.841171 
" clip-path="url(#p9947bb1150)" style="fill: none; stroke: #0000ff; stroke-width: 1.5; stroke-linecap: square"/>
   </g>
   <g id="patch_3">
    <path d="M 99 576.72 
L 99 77.76 
" style="fill: none; stroke: #000000; stroke-width: 0.8; stroke-linejoin: miter; stroke-linecap: square"/>
   </g>
   <g id="patch_4">
    <path d="M 712.8 576.72 
L 712.8 77.76 
" style="fill: none; stroke: #000000; stroke-width: 0.8; stroke-linejoin: miter; stroke-linecap: square"/>
   </g>
   <g id="patch_5">
    <path d="M 99 576.72 
L 712.8 576.72 
" style="fill: none; stroke: #000000; stroke-width: 0.8; stroke-linejoin: miter; stroke-linecap: square"/>
   </g>
   <g id="patch_6">
    <path d="M 99 77.76 
L 712.8 77.76 
" style="fill: none; stroke: #000000; stroke-width: 0.8; stroke-linejoin: miter; stroke-linecap: square"/>
   </g>
   <g id="legend_1">
    <g id="patch_7">
     <path d="M 106 115.11625 
L 250.471875 115.11625 
Q 252.471875 115.11625 252.471875 113.11625 
L 252.471875 84.76 
Q 252.471875 82.76 250.471875 82.76 
L 106 82.76 
Q 104 82.76 104 84.76 
L 104 113.11625 
Q 104 115.11625 106 115.11625 
z
" style="fill: #ffffff; opacity: 0.8; stroke: #cccccc; stroke-linejoin: miter"/>
    </g>
    <g id="line2d_40">
     <path d="M 108 90.858437 
L 118 90.858437 
L 128 90.858437 
" style="fill: none; stroke: #ff0000; stroke-width: 1.5; stroke-linecap: square"/>
    </g>
    <g id="text_40">
     <!-- Victoria Starlink 1 CDF -->
     <g transform="translate(136 94.358437) scale(0.1 -0.1)">
      <defs>
       <path id="DejaVuSans-56" d="M 1831 0 
L 50 4666 
L 709 4666 
L 2188 738 
L 3669 4666 
L 4325 4666 
L 2547 0 
L 1831 0 
z
" transform="scale(0.015625)"/>
       <path id="DejaVuSans-53" d="M 3425 4513 
L 3425 3897 
Q 3066 4069 2747 4153 
Q 2428 4238 2131 4238 
Q 1616 4238 1336 4038 
Q 1056 3838 1056 3469 
Q 1056 3159 1242 3001 
Q 1428 2844 1947 2747 
L 2328 2669 
Q 3034 2534 3370 2195 
Q 3706 1856 3706 1288 
Q 3706 609 3251 259 
Q 2797 -91 1919 -91 
Q 1588 -91 1214 -16 
Q 841 59 441 206 
L 441 856 
Q 825 641 1194 531 
Q 1563 422 1919 422 
Q 2459 422 2753 634 
Q 3047 847 3047 1241 
Q 3047 1584 2836 1778 
Q 2625 1972 2144 2069 
L 1759 2144 
Q 1053 2284 737 2584 
Q 422 2884 422 3419 
Q 422 4038 858 4394 
Q 1294 4750 2059 4750 
Q 2388 4750 2728 4690 
Q 3069 4631 3425 4513 
z
" transform="scale(0.015625)"/>
       <path id="DejaVuSans-43" d="M 4122 4306 
L 4122 3641 
Q 3803 3938 3442 4084 
Q 3081 4231 2675 4231 
Q 1875 4231 1450 3742 
Q 1025 3253 1025 2328 
Q 1025 1406 1450 917 
Q 1875 428 2675 428 
Q 3081 428 3442 575 
Q 3803 722 4122 1019 
L 4122 359 
Q 3791 134 3420 21 
Q 3050 -91 2638 -91 
Q 1578 -91 968 557 
Q 359 1206 359 2328 
Q 359 3453 968 4101 
Q 1578 4750 2638 4750 
Q 3056 4750 3426 4639 
Q 3797 4528 4122 4306 
z
" transform="scale(0.015625)"/>
       <path id="DejaVuSans-44" d="M 1259 4147 
L 1259 519 
L 2022 519 
Q 2988 519 3436 956 
Q 3884 1394 3884 2338 
Q 3884 3275 3436 3711 
Q 2988 4147 2022 4147 
L 1259 4147 
z
M 628 4666 
L 1925 4666 
Q 3281 4666 3915 4102 
Q 4550 3538 4550 2338 
Q 4550 1131 3912 565 
Q 3275 0 1925 0 
L 628 0 
L 628 4666 
z
" transform="scale(0.015625)"/>
       <path id="DejaVuSans-46" d="M 628 4666 
L 3309 4666 
L 3309 4134 
L 1259 4134 
L 1259 2759 
L 3109 2759 
L 3109 2228 
L 1259 2228 
L 1259 0 
L 628 0 
L 628 4666 
z
" transform="scale(0.015625)"/>
      </defs>
      <use xlink:href="#DejaVuSans-56"/>
      <use xlink:href="#DejaVuSans-69" x="66.158203"/>
      <use xlink:href="#DejaVuSans-63" x="93.941406"/>
      <use xlink:href="#DejaVuSans-74" x="148.921875"/>
      <use xlink:href="#DejaVuSans-6f" x="188.130859"/>
      <use xlink:href="#DejaVuSans-72" x="249.3125"/>
      <use xlink:href="#DejaVuSans-69" x="290.425781"/>
      <use xlink:href="#DejaVuSans-61" x="318.208984"/>
      <use xlink:href="#DejaVuSans-20" x="379.488281"/>
      <use xlink:href="#DejaVuSans-53" x="411.275391"/>
      <use xlink:href="#DejaVuSans-74" x="474.751953"/>
      <use xlink:href="#DejaVuSans-61" x="513.960938"/>
      <use xlink:href="#DejaVuSans-72" x="575.240234"/>
      <use xlink:href="#DejaVuSans-6c" x="616.353516"/>
      <use xlink:href="#DejaVuSans-69" x="644.136719"/>
      <use xlink:href="#DejaVuSans-6e" x="671.919922"/>
      <use xlink:href="#DejaVuSans-6b" x="735.298828"/>
      <use xlink:href="#DejaVuSans-20" x="793.208984"/>
      <use xlink:href="#DejaVuSans-31" x="824.996094"/>
      <use xlink:href="#DejaVuSans-20" x="888.619141"/>
      <use xlink:href="#DejaVuSans-43" x="920.40625"/>
      <use xlink:href="#DejaVuSans-44" x="990.230469"/>
      <use xlink:href="#DejaVuSans-46" x="1067.232422"/>
     </g>
    </g>
    <g id="line2d_41">
     <path d="M 108 105.536562 
L 118 105.536562 
L 128 105.536562 
" style="fill: none; stroke: #0000ff; stroke-width: 1.5; stroke-linecap: square"/>
    </g>
    <g id="text_41">
     <!-- Victoria Starlink 2 CDF -->
     <g transform="translate(136 109.036562) scale(0.1 -0.1)">
      <use xlink:href="#DejaVuSans-56"/>
      <use xlink:href="#DejaVuSans-69" x="66.158203"/>
      <use xlink:href="#DejaVuSans-63" x="93.941406"/>
      <use xlink:href="#DejaVuSans-74" x="148.921875"/>
      <use xlink:href="#DejaVuSans-6f" x="188.130859"/>
      <use xlink:href="#DejaVuSans-72" x="249.3125"/>
      <use xlink:href="#DejaVuSans-69" x="290.425781"/>
      <use xlink:href="#DejaVuSans-61" x="318.208984"/>
      <use xlink:href="#DejaVuSans-20" x="379.488281"/>
      <use xlink:href="#DejaVuSans-53" x="411.275391"/>
      <use xlink:href="#DejaVuSans-74" x="474.751953"/>
      <use xlink:href="#DejaVuSans-61" x="513.960938"/>
      <use xlink:href="#DejaVuSans-72" x="575.240234"/>
      <use xlink:href="#DejaVuSans-6c" x="616.353516"/>
      <use xlink:href="#DejaVuSans-69" x="644.136719"/>
      <use xlink:href="#DejaVuSans-6e" x="671.919922"/>
      <use xlink:href="#DejaVuSans-6b" x="735.298828"/>
      <use xlink:href="#DejaVuSans-20" x="793.208984"/>
      <use xlink:href="#DejaVuSans-32" x="824.996094"/>
      <use xlink:href="#DejaVuSans-20" x="888.619141"/>
      <use xlink:href="#DejaVuSans-43" x="920.40625"/>
      <use xlink:href="#DejaVuSans-44" x="990.230469"/>
      <use xlink:href="#DejaVuSans-46" x="1067.232422"/>
     </g>
    </g>
   </g>
  </g>
 </g>
 <defs>
  <clipPath id="p9947bb1150">
   <rect x="99" y="77.76" width="613.8" height="498.96"/>
  </clipPath>
 </defs>
</svg>
