<?xml version="1.0" encoding="utf-8" standalone="no"?>
<!DOCTYPE svg PUBLIC "-//W3C//DTD SVG 1.1//EN"
  "http://www.w3.org/Graphics/SVG/1.1/DTD/svg11.dtd">
<svg xmlns:xlink="http://www.w3.org/1999/xlink" width="432pt" height="576pt" viewBox="0 0 432 576" xmlns="http://www.w3.org/2000/svg" version="1.1">
 <metadata>
  <rdf:RDF xmlns:dc="http://purl.org/dc/elements/1.1/" xmlns:cc="http://creativecommons.org/ns#" xmlns:rdf="http://www.w3.org/1999/02/22-rdf-syntax-ns#">
   <cc:Work>
    <dc:type rdf:resource="http://purl.org/dc/dcmitype/StillImage"/>
    <dc:date>2024-01-04T02:40:57.664522</dc:date>
    <dc:format>image/svg+xml</dc:format>
    <dc:creator>
     <cc:Agent>
      <dc:title>Matplotlib v3.8.2, https://matplotlib.org/</dc:title>
     </cc:Agent>
    </dc:creator>
   </cc:Work>
  </rdf:RDF>
 </metadata>
 <defs>
  <style type="text/css">*{stroke-linejoin: round; stroke-linecap: butt}</style>
 </defs>
 <g id="figure_1">
  <g id="patch_1">
   <path d="M 0 576 
L 432 576 
L 432 0 
L 0 0 
z
" style="fill: #ffffff"/>
  </g>
  <g id="axes_1">
   <g id="patch_2">
    <path d="M 54 512.64 
L 388.8 512.64 
L 388.8 69.12 
L 54 69.12 
z
" style="fill: #ffffff"/>
   </g>
   <g id="matplotlib.axis_1">
    <g id="xtick_1">
     <g id="line2d_1">
      <defs>
       <path id="mbab1095d31" d="M 0 0 
L 0 3.5 
" style="stroke: #000000; stroke-width: 0.8"/>
      </defs>
      <g>
       <use xlink:href="#mbab1095d31" x="137.7" y="512.64" style="stroke: #000000; stroke-width: 0.8"/>
      </g>
     </g>
     <g id="text_1">
      <!-- Victoria Telus 1 -->
      <g transform="translate(99.923437 527.238438) scale(0.1 -0.1)">
       <defs>
        <path id="DejaVuSans-56" d="M 1831 0 
L 50 4666 
L 709 4666 
L 2188 738 
L 3669 4666 
L 4325 4666 
L 2547 0 
L 1831 0 
z
" transform="scale(0.015625)"/>
        <path id="DejaVuSans-69" d="M 603 3500 
L 1178 3500 
L 1178 0 
L 603 0 
L 603 3500 
z
M 603 4863 
L 1178 4863 
L 1178 4134 
L 603 4134 
L 603 4863 
z
" transform="scale(0.015625)"/>
        <path id="DejaVuSans-63" d="M 3122 3366 
L 3122 2828 
Q 2878 2963 2633 3030 
Q 2388 3097 2138 3097 
Q 1578 3097 1268 2742 
Q 959 2388 959 1747 
Q 959 1106 1268 751 
Q 1578 397 2138 397 
Q 2388 397 2633 464 
Q 2878 531 3122 666 
L 3122 134 
Q 2881 22 2623 -34 
Q 2366 -91 2075 -91 
Q 1284 -91 818 406 
Q 353 903 353 1747 
Q 353 2603 823 3093 
Q 1294 3584 2113 3584 
Q 2378 3584 2631 3529 
Q 2884 3475 3122 3366 
z
" transform="scale(0.015625)"/>
        <path id="DejaVuSans-74" d="M 1172 4494 
L 1172 3500 
L 2356 3500 
L 2356 3053 
L 1172 3053 
L 1172 1153 
Q 1172 725 1289 603 
Q 1406 481 1766 481 
L 2356 481 
L 2356 0 
L 1766 0 
Q 1100 0 847 248 
Q 594 497 594 1153 
L 594 3053 
L 172 3053 
L 172 3500 
L 594 3500 
L 594 4494 
L 1172 4494 
z
" transform="scale(0.015625)"/>
        <path id="DejaVuSans-6f" d="M 1959 3097 
Q 1497 3097 1228 2736 
Q 959 2375 959 1747 
Q 959 1119 1226 758 
Q 1494 397 1959 397 
Q 2419 397 2687 759 
Q 2956 1122 2956 1747 
Q 2956 2369 2687 2733 
Q 2419 3097 1959 3097 
z
M 1959 3584 
Q 2709 3584 3137 3096 
Q 3566 2609 3566 1747 
Q 3566 888 3137 398 
Q 2709 -91 1959 -91 
Q 1206 -91 779 398 
Q 353 888 353 1747 
Q 353 2609 779 3096 
Q 1206 3584 1959 3584 
z
" transform="scale(0.015625)"/>
        <path id="DejaVuSans-72" d="M 2631 2963 
Q 2534 3019 2420 3045 
Q 2306 3072 2169 3072 
Q 1681 3072 1420 2755 
Q 1159 2438 1159 1844 
L 1159 0 
L 581 0 
L 581 3500 
L 1159 3500 
L 1159 2956 
Q 1341 3275 1631 3429 
Q 1922 3584 2338 3584 
Q 2397 3584 2469 3576 
Q 2541 3569 2628 3553 
L 2631 2963 
z
" transform="scale(0.015625)"/>
        <path id="DejaVuSans-61" d="M 2194 1759 
Q 1497 1759 1228 1600 
Q 959 1441 959 1056 
Q 959 750 1161 570 
Q 1363 391 1709 391 
Q 2188 391 2477 730 
Q 2766 1069 2766 1631 
L 2766 1759 
L 2194 1759 
z
M 3341 1997 
L 3341 0 
L 2766 0 
L 2766 531 
Q 2569 213 2275 61 
Q 1981 -91 1556 -91 
Q 1019 -91 701 211 
Q 384 513 384 1019 
Q 384 1609 779 1909 
Q 1175 2209 1959 2209 
L 2766 2209 
L 2766 2266 
Q 2766 2663 2505 2880 
Q 2244 3097 1772 3097 
Q 1472 3097 1187 3025 
Q 903 2953 641 2809 
L 641 3341 
Q 956 3463 1253 3523 
Q 1550 3584 1831 3584 
Q 2591 3584 2966 3190 
Q 3341 2797 3341 1997 
z
" transform="scale(0.015625)"/>
        <path id="DejaVuSans-20" transform="scale(0.015625)"/>
        <path id="DejaVuSans-54" d="M -19 4666 
L 3928 4666 
L 3928 4134 
L 2272 4134 
L 2272 0 
L 1638 0 
L 1638 4134 
L -19 4134 
L -19 4666 
z
" transform="scale(0.015625)"/>
        <path id="DejaVuSans-65" d="M 3597 1894 
L 3597 1613 
L 953 1613 
Q 991 1019 1311 708 
Q 1631 397 2203 397 
Q 2534 397 2845 478 
Q 3156 559 3463 722 
L 3463 178 
Q 3153 47 2828 -22 
Q 2503 -91 2169 -91 
Q 1331 -91 842 396 
Q 353 884 353 1716 
Q 353 2575 817 3079 
Q 1281 3584 2069 3584 
Q 2775 3584 3186 3129 
Q 3597 2675 3597 1894 
z
M 3022 2063 
Q 3016 2534 2758 2815 
Q 2500 3097 2075 3097 
Q 1594 3097 1305 2825 
Q 1016 2553 972 2059 
L 3022 2063 
z
" transform="scale(0.015625)"/>
        <path id="DejaVuSans-6c" d="M 603 4863 
L 1178 4863 
L 1178 0 
L 603 0 
L 603 4863 
z
" transform="scale(0.015625)"/>
        <path id="DejaVuSans-75" d="M 544 1381 
L 544 3500 
L 1119 3500 
L 1119 1403 
Q 1119 906 1312 657 
Q 1506 409 1894 409 
Q 2359 409 2629 706 
Q 2900 1003 2900 1516 
L 2900 3500 
L 3475 3500 
L 3475 0 
L 2900 0 
L 2900 538 
Q 2691 219 2414 64 
Q 2138 -91 1772 -91 
Q 1169 -91 856 284 
Q 544 659 544 1381 
z
M 1991 3584 
L 1991 3584 
z
" transform="scale(0.015625)"/>
        <path id="DejaVuSans-73" d="M 2834 3397 
L 2834 2853 
Q 2591 2978 2328 3040 
Q 2066 3103 1784 3103 
Q 1356 3103 1142 2972 
Q 928 2841 928 2578 
Q 928 2378 1081 2264 
Q 1234 2150 1697 2047 
L 1894 2003 
Q 2506 1872 2764 1633 
Q 3022 1394 3022 966 
Q 3022 478 2636 193 
Q 2250 -91 1575 -91 
Q 1294 -91 989 -36 
Q 684 19 347 128 
L 347 722 
Q 666 556 975 473 
Q 1284 391 1588 391 
Q 1994 391 2212 530 
Q 2431 669 2431 922 
Q 2431 1156 2273 1281 
Q 2116 1406 1581 1522 
L 1381 1569 
Q 847 1681 609 1914 
Q 372 2147 372 2553 
Q 372 3047 722 3315 
Q 1072 3584 1716 3584 
Q 2034 3584 2315 3537 
Q 2597 3491 2834 3397 
z
" transform="scale(0.015625)"/>
        <path id="DejaVuSans-31" d="M 794 531 
L 1825 531 
L 1825 4091 
L 703 3866 
L 703 4441 
L 1819 4666 
L 2450 4666 
L 2450 531 
L 3481 531 
L 3481 0 
L 794 0 
L 794 531 
z
" transform="scale(0.015625)"/>
       </defs>
       <use xlink:href="#DejaVuSans-56"/>
       <use xlink:href="#DejaVuSans-69" x="66.158203"/>
       <use xlink:href="#DejaVuSans-63" x="93.941406"/>
       <use xlink:href="#DejaVuSans-74" x="148.921875"/>
       <use xlink:href="#DejaVuSans-6f" x="188.130859"/>
       <use xlink:href="#DejaVuSans-72" x="249.3125"/>
       <use xlink:href="#DejaVuSans-69" x="290.425781"/>
       <use xlink:href="#DejaVuSans-61" x="318.208984"/>
       <use xlink:href="#DejaVuSans-20" x="379.488281"/>
       <use xlink:href="#DejaVuSans-54" x="411.275391"/>
       <use xlink:href="#DejaVuSans-65" x="455.359375"/>
       <use xlink:href="#DejaVuSans-6c" x="516.882812"/>
       <use xlink:href="#DejaVuSans-75" x="544.666016"/>
       <use xlink:href="#DejaVuSans-73" x="608.044922"/>
       <use xlink:href="#DejaVuSans-20" x="660.144531"/>
       <use xlink:href="#DejaVuSans-31" x="691.931641"/>
      </g>
     </g>
    </g>
    <g id="xtick_2">
     <g id="line2d_2">
      <g>
       <use xlink:href="#mbab1095d31" x="305.1" y="512.64" style="stroke: #000000; stroke-width: 0.8"/>
      </g>
     </g>
     <g id="text_2">
      <!-- Victoria Telus 2 -->
      <g transform="translate(267.323438 527.238438) scale(0.1 -0.1)">
       <defs>
        <path id="DejaVuSans-32" d="M 1228 531 
L 3431 531 
L 3431 0 
L 469 0 
L 469 531 
Q 828 903 1448 1529 
Q 2069 2156 2228 2338 
Q 2531 2678 2651 2914 
Q 2772 3150 2772 3378 
Q 2772 3750 2511 3984 
Q 2250 4219 1831 4219 
Q 1534 4219 1204 4116 
Q 875 4013 500 3803 
L 500 4441 
Q 881 4594 1212 4672 
Q 1544 4750 1819 4750 
Q 2544 4750 2975 4387 
Q 3406 4025 3406 3419 
Q 3406 3131 3298 2873 
Q 3191 2616 2906 2266 
Q 2828 2175 2409 1742 
Q 1991 1309 1228 531 
z
" transform="scale(0.015625)"/>
       </defs>
       <use xlink:href="#DejaVuSans-56"/>
       <use xlink:href="#DejaVuSans-69" x="66.158203"/>
       <use xlink:href="#DejaVuSans-63" x="93.941406"/>
       <use xlink:href="#DejaVuSans-74" x="148.921875"/>
       <use xlink:href="#DejaVuSans-6f" x="188.130859"/>
       <use xlink:href="#DejaVuSans-72" x="249.3125"/>
       <use xlink:href="#DejaVuSans-69" x="290.425781"/>
       <use xlink:href="#DejaVuSans-61" x="318.208984"/>
       <use xlink:href="#DejaVuSans-20" x="379.488281"/>
       <use xlink:href="#DejaVuSans-54" x="411.275391"/>
       <use xlink:href="#DejaVuSans-65" x="455.359375"/>
       <use xlink:href="#DejaVuSans-6c" x="516.882812"/>
       <use xlink:href="#DejaVuSans-75" x="544.666016"/>
       <use xlink:href="#DejaVuSans-73" x="608.044922"/>
       <use xlink:href="#DejaVuSans-20" x="660.144531"/>
       <use xlink:href="#DejaVuSans-32" x="691.931641"/>
      </g>
     </g>
    </g>
   </g>
   <g id="matplotlib.axis_2">
    <g id="ytick_1">
     <g id="line2d_3">
      <defs>
       <path id="m37115d03de" d="M 0 0 
L -3.5 0 
" style="stroke: #000000; stroke-width: 0.8"/>
      </defs>
      <g>
       <use xlink:href="#m37115d03de" x="54" y="512.64" style="stroke: #000000; stroke-width: 0.8"/>
      </g>
     </g>
     <g id="text_3">
      <!-- 0 -->
      <g transform="translate(40.6375 516.439219) scale(0.1 -0.1)">
       <defs>
        <path id="DejaVuSans-30" d="M 2034 4250 
Q 1547 4250 1301 3770 
Q 1056 3291 1056 2328 
Q 1056 1369 1301 889 
Q 1547 409 2034 409 
Q 2525 409 2770 889 
Q 3016 1369 3016 2328 
Q 3016 3291 2770 3770 
Q 2525 4250 2034 4250 
z
M 2034 4750 
Q 2819 4750 3233 4129 
Q 3647 3509 3647 2328 
Q 3647 1150 3233 529 
Q 2819 -91 2034 -91 
Q 1250 -91 836 529 
Q 422 1150 422 2328 
Q 422 3509 836 4129 
Q 1250 4750 2034 4750 
z
" transform="scale(0.015625)"/>
       </defs>
       <use xlink:href="#DejaVuSans-30"/>
      </g>
     </g>
    </g>
    <g id="ytick_2">
     <g id="line2d_4">
      <g>
       <use xlink:href="#m37115d03de" x="54" y="495.581538" style="stroke: #000000; stroke-width: 0.8"/>
      </g>
     </g>
     <g id="text_4">
      <!-- 10 -->
      <g transform="translate(34.275 499.380757) scale(0.1 -0.1)">
       <use xlink:href="#DejaVuSans-31"/>
       <use xlink:href="#DejaVuSans-30" x="63.623047"/>
      </g>
     </g>
    </g>
    <g id="ytick_3">
     <g id="line2d_5">
      <g>
       <use xlink:href="#m37115d03de" x="54" y="478.523077" style="stroke: #000000; stroke-width: 0.8"/>
      </g>
     </g>
     <g id="text_5">
      <!-- 20 -->
      <g transform="translate(34.275 482.322296) scale(0.1 -0.1)">
       <use xlink:href="#DejaVuSans-32"/>
       <use xlink:href="#DejaVuSans-30" x="63.623047"/>
      </g>
     </g>
    </g>
    <g id="ytick_4">
     <g id="line2d_6">
      <g>
       <use xlink:href="#m37115d03de" x="54" y="461.464615" style="stroke: #000000; stroke-width: 0.8"/>
      </g>
     </g>
     <g id="text_6">
      <!-- 30 -->
      <g transform="translate(34.275 465.263834) scale(0.1 -0.1)">
       <defs>
        <path id="DejaVuSans-33" d="M 2597 2516 
Q 3050 2419 3304 2112 
Q 3559 1806 3559 1356 
Q 3559 666 3084 287 
Q 2609 -91 1734 -91 
Q 1441 -91 1130 -33 
Q 819 25 488 141 
L 488 750 
Q 750 597 1062 519 
Q 1375 441 1716 441 
Q 2309 441 2620 675 
Q 2931 909 2931 1356 
Q 2931 1769 2642 2001 
Q 2353 2234 1838 2234 
L 1294 2234 
L 1294 2753 
L 1863 2753 
Q 2328 2753 2575 2939 
Q 2822 3125 2822 3475 
Q 2822 3834 2567 4026 
Q 2313 4219 1838 4219 
Q 1578 4219 1281 4162 
Q 984 4106 628 3988 
L 628 4550 
Q 988 4650 1302 4700 
Q 1616 4750 1894 4750 
Q 2613 4750 3031 4423 
Q 3450 4097 3450 3541 
Q 3450 3153 3228 2886 
Q 3006 2619 2597 2516 
z
" transform="scale(0.015625)"/>
       </defs>
       <use xlink:href="#DejaVuSans-33"/>
       <use xlink:href="#DejaVuSans-30" x="63.623047"/>
      </g>
     </g>
    </g>
    <g id="ytick_5">
     <g id="line2d_7">
      <g>
       <use xlink:href="#m37115d03de" x="54" y="444.406154" style="stroke: #000000; stroke-width: 0.8"/>
      </g>
     </g>
     <g id="text_7">
      <!-- 40 -->
      <g transform="translate(34.275 448.205373) scale(0.1 -0.1)">
       <defs>
        <path id="DejaVuSans-34" d="M 2419 4116 
L 825 1625 
L 2419 1625 
L 2419 4116 
z
M 2253 4666 
L 3047 4666 
L 3047 1625 
L 3713 1625 
L 3713 1100 
L 3047 1100 
L 3047 0 
L 2419 0 
L 2419 1100 
L 313 1100 
L 313 1709 
L 2253 4666 
z
" transform="scale(0.015625)"/>
       </defs>
       <use xlink:href="#DejaVuSans-34"/>
       <use xlink:href="#DejaVuSans-30" x="63.623047"/>
      </g>
     </g>
    </g>
    <g id="ytick_6">
     <g id="line2d_8">
      <g>
       <use xlink:href="#m37115d03de" x="54" y="427.347692" style="stroke: #000000; stroke-width: 0.8"/>
      </g>
     </g>
     <g id="text_8">
      <!-- 50 -->
      <g transform="translate(34.275 431.146911) scale(0.1 -0.1)">
       <defs>
        <path id="DejaVuSans-35" d="M 691 4666 
L 3169 4666 
L 3169 4134 
L 1269 4134 
L 1269 2991 
Q 1406 3038 1543 3061 
Q 1681 3084 1819 3084 
Q 2600 3084 3056 2656 
Q 3513 2228 3513 1497 
Q 3513 744 3044 326 
Q 2575 -91 1722 -91 
Q 1428 -91 1123 -41 
Q 819 9 494 109 
L 494 744 
Q 775 591 1075 516 
Q 1375 441 1709 441 
Q 2250 441 2565 725 
Q 2881 1009 2881 1497 
Q 2881 1984 2565 2268 
Q 2250 2553 1709 2553 
Q 1456 2553 1204 2497 
Q 953 2441 691 2322 
L 691 4666 
z
" transform="scale(0.015625)"/>
       </defs>
       <use xlink:href="#DejaVuSans-35"/>
       <use xlink:href="#DejaVuSans-30" x="63.623047"/>
      </g>
     </g>
    </g>
    <g id="ytick_7">
     <g id="line2d_9">
      <g>
       <use xlink:href="#m37115d03de" x="54" y="410.289231" style="stroke: #000000; stroke-width: 0.8"/>
      </g>
     </g>
     <g id="text_9">
      <!-- 60 -->
      <g transform="translate(34.275 414.08845) scale(0.1 -0.1)">
       <defs>
        <path id="DejaVuSans-36" d="M 2113 2584 
Q 1688 2584 1439 2293 
Q 1191 2003 1191 1497 
Q 1191 994 1439 701 
Q 1688 409 2113 409 
Q 2538 409 2786 701 
Q 3034 994 3034 1497 
Q 3034 2003 2786 2293 
Q 2538 2584 2113 2584 
z
M 3366 4563 
L 3366 3988 
Q 3128 4100 2886 4159 
Q 2644 4219 2406 4219 
Q 1781 4219 1451 3797 
Q 1122 3375 1075 2522 
Q 1259 2794 1537 2939 
Q 1816 3084 2150 3084 
Q 2853 3084 3261 2657 
Q 3669 2231 3669 1497 
Q 3669 778 3244 343 
Q 2819 -91 2113 -91 
Q 1303 -91 875 529 
Q 447 1150 447 2328 
Q 447 3434 972 4092 
Q 1497 4750 2381 4750 
Q 2619 4750 2861 4703 
Q 3103 4656 3366 4563 
z
" transform="scale(0.015625)"/>
       </defs>
       <use xlink:href="#DejaVuSans-36"/>
       <use xlink:href="#DejaVuSans-30" x="63.623047"/>
      </g>
     </g>
    </g>
    <g id="ytick_8">
     <g id="line2d_10">
      <g>
       <use xlink:href="#m37115d03de" x="54" y="393.230769" style="stroke: #000000; stroke-width: 0.8"/>
      </g>
     </g>
     <g id="text_10">
      <!-- 70 -->
      <g transform="translate(34.275 397.029988) scale(0.1 -0.1)">
       <defs>
        <path id="DejaVuSans-37" d="M 525 4666 
L 3525 4666 
L 3525 4397 
L 1831 0 
L 1172 0 
L 2766 4134 
L 525 4134 
L 525 4666 
z
" transform="scale(0.015625)"/>
       </defs>
       <use xlink:href="#DejaVuSans-37"/>
       <use xlink:href="#DejaVuSans-30" x="63.623047"/>
      </g>
     </g>
    </g>
    <g id="ytick_9">
     <g id="line2d_11">
      <g>
       <use xlink:href="#m37115d03de" x="54" y="376.172308" style="stroke: #000000; stroke-width: 0.8"/>
      </g>
     </g>
     <g id="text_11">
      <!-- 80 -->
      <g transform="translate(34.275 379.971526) scale(0.1 -0.1)">
       <defs>
        <path id="DejaVuSans-38" d="M 2034 2216 
Q 1584 2216 1326 1975 
Q 1069 1734 1069 1313 
Q 1069 891 1326 650 
Q 1584 409 2034 409 
Q 2484 409 2743 651 
Q 3003 894 3003 1313 
Q 3003 1734 2745 1975 
Q 2488 2216 2034 2216 
z
M 1403 2484 
Q 997 2584 770 2862 
Q 544 3141 544 3541 
Q 544 4100 942 4425 
Q 1341 4750 2034 4750 
Q 2731 4750 3128 4425 
Q 3525 4100 3525 3541 
Q 3525 3141 3298 2862 
Q 3072 2584 2669 2484 
Q 3125 2378 3379 2068 
Q 3634 1759 3634 1313 
Q 3634 634 3220 271 
Q 2806 -91 2034 -91 
Q 1263 -91 848 271 
Q 434 634 434 1313 
Q 434 1759 690 2068 
Q 947 2378 1403 2484 
z
M 1172 3481 
Q 1172 3119 1398 2916 
Q 1625 2713 2034 2713 
Q 2441 2713 2670 2916 
Q 2900 3119 2900 3481 
Q 2900 3844 2670 4047 
Q 2441 4250 2034 4250 
Q 1625 4250 1398 4047 
Q 1172 3844 1172 3481 
z
" transform="scale(0.015625)"/>
       </defs>
       <use xlink:href="#DejaVuSans-38"/>
       <use xlink:href="#DejaVuSans-30" x="63.623047"/>
      </g>
     </g>
    </g>
    <g id="ytick_10">
     <g id="line2d_12">
      <g>
       <use xlink:href="#m37115d03de" x="54" y="359.113846" style="stroke: #000000; stroke-width: 0.8"/>
      </g>
     </g>
     <g id="text_12">
      <!-- 90 -->
      <g transform="translate(34.275 362.913065) scale(0.1 -0.1)">
       <defs>
        <path id="DejaVuSans-39" d="M 703 97 
L 703 672 
Q 941 559 1184 500 
Q 1428 441 1663 441 
Q 2288 441 2617 861 
Q 2947 1281 2994 2138 
Q 2813 1869 2534 1725 
Q 2256 1581 1919 1581 
Q 1219 1581 811 2004 
Q 403 2428 403 3163 
Q 403 3881 828 4315 
Q 1253 4750 1959 4750 
Q 2769 4750 3195 4129 
Q 3622 3509 3622 2328 
Q 3622 1225 3098 567 
Q 2575 -91 1691 -91 
Q 1453 -91 1209 -44 
Q 966 3 703 97 
z
M 1959 2075 
Q 2384 2075 2632 2365 
Q 2881 2656 2881 3163 
Q 2881 3666 2632 3958 
Q 2384 4250 1959 4250 
Q 1534 4250 1286 3958 
Q 1038 3666 1038 3163 
Q 1038 2656 1286 2365 
Q 1534 2075 1959 2075 
z
" transform="scale(0.015625)"/>
       </defs>
       <use xlink:href="#DejaVuSans-39"/>
       <use xlink:href="#DejaVuSans-30" x="63.623047"/>
      </g>
     </g>
    </g>
    <g id="ytick_11">
     <g id="line2d_13">
      <g>
       <use xlink:href="#m37115d03de" x="54" y="342.055385" style="stroke: #000000; stroke-width: 0.8"/>
      </g>
     </g>
     <g id="text_13">
      <!-- 100 -->
      <g transform="translate(27.9125 345.854603) scale(0.1 -0.1)">
       <use xlink:href="#DejaVuSans-31"/>
       <use xlink:href="#DejaVuSans-30" x="63.623047"/>
       <use xlink:href="#DejaVuSans-30" x="127.246094"/>
      </g>
     </g>
    </g>
    <g id="ytick_12">
     <g id="line2d_14">
      <g>
       <use xlink:href="#m37115d03de" x="54" y="324.996923" style="stroke: #000000; stroke-width: 0.8"/>
      </g>
     </g>
     <g id="text_14">
      <!-- 110 -->
      <g transform="translate(27.9125 328.796142) scale(0.1 -0.1)">
       <use xlink:href="#DejaVuSans-31"/>
       <use xlink:href="#DejaVuSans-31" x="63.623047"/>
       <use xlink:href="#DejaVuSans-30" x="127.246094"/>
      </g>
     </g>
    </g>
    <g id="ytick_13">
     <g id="line2d_15">
      <g>
       <use xlink:href="#m37115d03de" x="54" y="307.938462" style="stroke: #000000; stroke-width: 0.8"/>
      </g>
     </g>
     <g id="text_15">
      <!-- 120 -->
      <g transform="translate(27.9125 311.73768) scale(0.1 -0.1)">
       <use xlink:href="#DejaVuSans-31"/>
       <use xlink:href="#DejaVuSans-32" x="63.623047"/>
       <use xlink:href="#DejaVuSans-30" x="127.246094"/>
      </g>
     </g>
    </g>
    <g id="ytick_14">
     <g id="line2d_16">
      <g>
       <use xlink:href="#m37115d03de" x="54" y="290.88" style="stroke: #000000; stroke-width: 0.8"/>
      </g>
     </g>
     <g id="text_16">
      <!-- 130 -->
      <g transform="translate(27.9125 294.679219) scale(0.1 -0.1)">
       <use xlink:href="#DejaVuSans-31"/>
       <use xlink:href="#DejaVuSans-33" x="63.623047"/>
       <use xlink:href="#DejaVuSans-30" x="127.246094"/>
      </g>
     </g>
    </g>
    <g id="ytick_15">
     <g id="line2d_17">
      <g>
       <use xlink:href="#m37115d03de" x="54" y="273.821538" style="stroke: #000000; stroke-width: 0.8"/>
      </g>
     </g>
     <g id="text_17">
      <!-- 140 -->
      <g transform="translate(27.9125 277.620757) scale(0.1 -0.1)">
       <use xlink:href="#DejaVuSans-31"/>
       <use xlink:href="#DejaVuSans-34" x="63.623047"/>
       <use xlink:href="#DejaVuSans-30" x="127.246094"/>
      </g>
     </g>
    </g>
    <g id="ytick_16">
     <g id="line2d_18">
      <g>
       <use xlink:href="#m37115d03de" x="54" y="256.763077" style="stroke: #000000; stroke-width: 0.8"/>
      </g>
     </g>
     <g id="text_18">
      <!-- 150 -->
      <g transform="translate(27.9125 260.562296) scale(0.1 -0.1)">
       <use xlink:href="#DejaVuSans-31"/>
       <use xlink:href="#DejaVuSans-35" x="63.623047"/>
       <use xlink:href="#DejaVuSans-30" x="127.246094"/>
      </g>
     </g>
    </g>
    <g id="ytick_17">
     <g id="line2d_19">
      <g>
       <use xlink:href="#m37115d03de" x="54" y="239.704615" style="stroke: #000000; stroke-width: 0.8"/>
      </g>
     </g>
     <g id="text_19">
      <!-- 160 -->
      <g transform="translate(27.9125 243.503834) scale(0.1 -0.1)">
       <use xlink:href="#DejaVuSans-31"/>
       <use xlink:href="#DejaVuSans-36" x="63.623047"/>
       <use xlink:href="#DejaVuSans-30" x="127.246094"/>
      </g>
     </g>
    </g>
    <g id="ytick_18">
     <g id="line2d_20">
      <g>
       <use xlink:href="#m37115d03de" x="54" y="222.646154" style="stroke: #000000; stroke-width: 0.8"/>
      </g>
     </g>
     <g id="text_20">
      <!-- 170 -->
      <g transform="translate(27.9125 226.445373) scale(0.1 -0.1)">
       <use xlink:href="#DejaVuSans-31"/>
       <use xlink:href="#DejaVuSans-37" x="63.623047"/>
       <use xlink:href="#DejaVuSans-30" x="127.246094"/>
      </g>
     </g>
    </g>
    <g id="ytick_19">
     <g id="line2d_21">
      <g>
       <use xlink:href="#m37115d03de" x="54" y="205.587692" style="stroke: #000000; stroke-width: 0.8"/>
      </g>
     </g>
     <g id="text_21">
      <!-- 180 -->
      <g transform="translate(27.9125 209.386911) scale(0.1 -0.1)">
       <use xlink:href="#DejaVuSans-31"/>
       <use xlink:href="#DejaVuSans-38" x="63.623047"/>
       <use xlink:href="#DejaVuSans-30" x="127.246094"/>
      </g>
     </g>
    </g>
    <g id="ytick_20">
     <g id="line2d_22">
      <g>
       <use xlink:href="#m37115d03de" x="54" y="188.529231" style="stroke: #000000; stroke-width: 0.8"/>
      </g>
     </g>
     <g id="text_22">
      <!-- 190 -->
      <g transform="translate(27.9125 192.32845) scale(0.1 -0.1)">
       <use xlink:href="#DejaVuSans-31"/>
       <use xlink:href="#DejaVuSans-39" x="63.623047"/>
       <use xlink:href="#DejaVuSans-30" x="127.246094"/>
      </g>
     </g>
    </g>
    <g id="ytick_21">
     <g id="line2d_23">
      <g>
       <use xlink:href="#m37115d03de" x="54" y="171.470769" style="stroke: #000000; stroke-width: 0.8"/>
      </g>
     </g>
     <g id="text_23">
      <!-- 200 -->
      <g transform="translate(27.9125 175.269988) scale(0.1 -0.1)">
       <use xlink:href="#DejaVuSans-32"/>
       <use xlink:href="#DejaVuSans-30" x="63.623047"/>
       <use xlink:href="#DejaVuSans-30" x="127.246094"/>
      </g>
     </g>
    </g>
    <g id="ytick_22">
     <g id="line2d_24">
      <g>
       <use xlink:href="#m37115d03de" x="54" y="154.412308" style="stroke: #000000; stroke-width: 0.8"/>
      </g>
     </g>
     <g id="text_24">
      <!-- 210 -->
      <g transform="translate(27.9125 158.211526) scale(0.1 -0.1)">
       <use xlink:href="#DejaVuSans-32"/>
       <use xlink:href="#DejaVuSans-31" x="63.623047"/>
       <use xlink:href="#DejaVuSans-30" x="127.246094"/>
      </g>
     </g>
    </g>
    <g id="ytick_23">
     <g id="line2d_25">
      <g>
       <use xlink:href="#m37115d03de" x="54" y="137.353846" style="stroke: #000000; stroke-width: 0.8"/>
      </g>
     </g>
     <g id="text_25">
      <!-- 220 -->
      <g transform="translate(27.9125 141.153065) scale(0.1 -0.1)">
       <use xlink:href="#DejaVuSans-32"/>
       <use xlink:href="#DejaVuSans-32" x="63.623047"/>
       <use xlink:href="#DejaVuSans-30" x="127.246094"/>
      </g>
     </g>
    </g>
    <g id="ytick_24">
     <g id="line2d_26">
      <g>
       <use xlink:href="#m37115d03de" x="54" y="120.295385" style="stroke: #000000; stroke-width: 0.8"/>
      </g>
     </g>
     <g id="text_26">
      <!-- 230 -->
      <g transform="translate(27.9125 124.094603) scale(0.1 -0.1)">
       <use xlink:href="#DejaVuSans-32"/>
       <use xlink:href="#DejaVuSans-33" x="63.623047"/>
       <use xlink:href="#DejaVuSans-30" x="127.246094"/>
      </g>
     </g>
    </g>
    <g id="ytick_25">
     <g id="line2d_27">
      <g>
       <use xlink:href="#m37115d03de" x="54" y="103.236923" style="stroke: #000000; stroke-width: 0.8"/>
      </g>
     </g>
     <g id="text_27">
      <!-- 240 -->
      <g transform="translate(27.9125 107.036142) scale(0.1 -0.1)">
       <use xlink:href="#DejaVuSans-32"/>
       <use xlink:href="#DejaVuSans-34" x="63.623047"/>
       <use xlink:href="#DejaVuSans-30" x="127.246094"/>
      </g>
     </g>
    </g>
    <g id="ytick_26">
     <g id="line2d_28">
      <g>
       <use xlink:href="#m37115d03de" x="54" y="86.178462" style="stroke: #000000; stroke-width: 0.8"/>
      </g>
     </g>
     <g id="text_28">
      <!-- 250 -->
      <g transform="translate(27.9125 89.97768) scale(0.1 -0.1)">
       <use xlink:href="#DejaVuSans-32"/>
       <use xlink:href="#DejaVuSans-35" x="63.623047"/>
       <use xlink:href="#DejaVuSans-30" x="127.246094"/>
      </g>
     </g>
    </g>
    <g id="text_29">
     <!-- Input Latency (ms) -->
     <g transform="translate(21.832812 338.145625) rotate(-90) scale(0.1 -0.1)">
      <defs>
       <path id="DejaVuSans-49" d="M 628 4666 
L 1259 4666 
L 1259 0 
L 628 0 
L 628 4666 
z
" transform="scale(0.015625)"/>
       <path id="DejaVuSans-6e" d="M 3513 2113 
L 3513 0 
L 2938 0 
L 2938 2094 
Q 2938 2591 2744 2837 
Q 2550 3084 2163 3084 
Q 1697 3084 1428 2787 
Q 1159 2491 1159 1978 
L 1159 0 
L 581 0 
L 581 3500 
L 1159 3500 
L 1159 2956 
Q 1366 3272 1645 3428 
Q 1925 3584 2291 3584 
Q 2894 3584 3203 3211 
Q 3513 2838 3513 2113 
z
" transform="scale(0.015625)"/>
       <path id="DejaVuSans-70" d="M 1159 525 
L 1159 -1331 
L 581 -1331 
L 581 3500 
L 1159 3500 
L 1159 2969 
Q 1341 3281 1617 3432 
Q 1894 3584 2278 3584 
Q 2916 3584 3314 3078 
Q 3713 2572 3713 1747 
Q 3713 922 3314 415 
Q 2916 -91 2278 -91 
Q 1894 -91 1617 61 
Q 1341 213 1159 525 
z
M 3116 1747 
Q 3116 2381 2855 2742 
Q 2594 3103 2138 3103 
Q 1681 3103 1420 2742 
Q 1159 2381 1159 1747 
Q 1159 1113 1420 752 
Q 1681 391 2138 391 
Q 2594 391 2855 752 
Q 3116 1113 3116 1747 
z
" transform="scale(0.015625)"/>
       <path id="DejaVuSans-4c" d="M 628 4666 
L 1259 4666 
L 1259 531 
L 3531 531 
L 3531 0 
L 628 0 
L 628 4666 
z
" transform="scale(0.015625)"/>
       <path id="DejaVuSans-79" d="M 2059 -325 
Q 1816 -950 1584 -1140 
Q 1353 -1331 966 -1331 
L 506 -1331 
L 506 -850 
L 844 -850 
Q 1081 -850 1212 -737 
Q 1344 -625 1503 -206 
L 1606 56 
L 191 3500 
L 800 3500 
L 1894 763 
L 2988 3500 
L 3597 3500 
L 2059 -325 
z
" transform="scale(0.015625)"/>
       <path id="DejaVuSans-28" d="M 1984 4856 
Q 1566 4138 1362 3434 
Q 1159 2731 1159 2009 
Q 1159 1288 1364 580 
Q 1569 -128 1984 -844 
L 1484 -844 
Q 1016 -109 783 600 
Q 550 1309 550 2009 
Q 550 2706 781 3412 
Q 1013 4119 1484 4856 
L 1984 4856 
z
" transform="scale(0.015625)"/>
       <path id="DejaVuSans-6d" d="M 3328 2828 
Q 3544 3216 3844 3400 
Q 4144 3584 4550 3584 
Q 5097 3584 5394 3201 
Q 5691 2819 5691 2113 
L 5691 0 
L 5113 0 
L 5113 2094 
Q 5113 2597 4934 2840 
Q 4756 3084 4391 3084 
Q 3944 3084 3684 2787 
Q 3425 2491 3425 1978 
L 3425 0 
L 2847 0 
L 2847 2094 
Q 2847 2600 2669 2842 
Q 2491 3084 2119 3084 
Q 1678 3084 1418 2786 
Q 1159 2488 1159 1978 
L 1159 0 
L 581 0 
L 581 3500 
L 1159 3500 
L 1159 2956 
Q 1356 3278 1631 3431 
Q 1906 3584 2284 3584 
Q 2666 3584 2933 3390 
Q 3200 3197 3328 2828 
z
" transform="scale(0.015625)"/>
       <path id="DejaVuSans-29" d="M 513 4856 
L 1013 4856 
Q 1481 4119 1714 3412 
Q 1947 2706 1947 2009 
Q 1947 1309 1714 600 
Q 1481 -109 1013 -844 
L 513 -844 
Q 928 -128 1133 580 
Q 1338 1288 1338 2009 
Q 1338 2731 1133 3434 
Q 928 4138 513 4856 
z
" transform="scale(0.015625)"/>
      </defs>
      <use xlink:href="#DejaVuSans-49"/>
      <use xlink:href="#DejaVuSans-6e" x="29.492188"/>
      <use xlink:href="#DejaVuSans-70" x="92.871094"/>
      <use xlink:href="#DejaVuSans-75" x="156.347656"/>
      <use xlink:href="#DejaVuSans-74" x="219.726562"/>
      <use xlink:href="#DejaVuSans-20" x="258.935547"/>
      <use xlink:href="#DejaVuSans-4c" x="290.722656"/>
      <use xlink:href="#DejaVuSans-61" x="346.435547"/>
      <use xlink:href="#DejaVuSans-74" x="407.714844"/>
      <use xlink:href="#DejaVuSans-65" x="446.923828"/>
      <use xlink:href="#DejaVuSans-6e" x="508.447266"/>
      <use xlink:href="#DejaVuSans-63" x="571.826172"/>
      <use xlink:href="#DejaVuSans-79" x="626.806641"/>
      <use xlink:href="#DejaVuSans-20" x="685.986328"/>
      <use xlink:href="#DejaVuSans-28" x="717.773438"/>
      <use xlink:href="#DejaVuSans-6d" x="756.787109"/>
      <use xlink:href="#DejaVuSans-73" x="854.199219"/>
      <use xlink:href="#DejaVuSans-29" x="906.298828"/>
     </g>
    </g>
   </g>
   <g id="line2d_29">
    <path d="M 125.145 412.991276 
L 150.255 412.991276 
L 150.255 366.939818 
L 125.145 366.939818 
L 125.145 412.991276 
" clip-path="url(#pefd5396233)" style="fill: none; stroke: #000000; stroke-linecap: square"/>
   </g>
   <g id="line2d_30">
    <path d="M 137.7 412.991276 
L 137.7 471.462297 
" clip-path="url(#pefd5396233)" style="fill: none; stroke: #000000; stroke-linecap: square"/>
   </g>
   <g id="line2d_31">
    <path d="M 137.7 366.939818 
L 137.7 298.519766 
" clip-path="url(#pefd5396233)" style="fill: none; stroke: #000000; stroke-linecap: square"/>
   </g>
   <g id="line2d_32">
    <path d="M 131.4225 471.462297 
L 143.9775 471.462297 
" clip-path="url(#pefd5396233)" style="fill: none; stroke: #000000; stroke-linecap: square"/>
   </g>
   <g id="line2d_33">
    <path d="M 131.4225 298.519766 
L 143.9775 298.519766 
" clip-path="url(#pefd5396233)" style="fill: none; stroke: #000000; stroke-linecap: square"/>
   </g>
   <g id="line2d_34">
    <defs>
     <path id="m258474586f" d="M 0 3 
C 0.795609 3 1.55874 2.683901 2.12132 2.12132 
C 2.683901 1.55874 3 0.795609 3 0 
C 3 -0.795609 2.683901 -1.55874 2.12132 -2.12132 
C 1.55874 -2.683901 0.795609 -3 0 -3 
C -0.795609 -3 -1.55874 -2.683901 -2.12132 -2.12132 
C -2.683901 -1.55874 -3 -0.795609 -3 0 
C -3 0.795609 -2.683901 1.55874 -2.12132 2.12132 
C -1.55874 2.683901 -0.795609 3 0 3 
z
" style="stroke: #000000"/>
    </defs>
    <g clip-path="url(#pefd5396233)">
     <use xlink:href="#m258474586f" x="137.7" y="147.076904" style="fill-opacity: 0; stroke: #000000"/>
     <use xlink:href="#m258474586f" x="137.7" y="267.657332" style="fill-opacity: 0; stroke: #000000"/>
     <use xlink:href="#m258474586f" x="137.7" y="291.952287" style="fill-opacity: 0; stroke: #000000"/>
     <use xlink:href="#m258474586f" x="137.7" y="295.460121" style="fill-opacity: 0; stroke: #000000"/>
     <use xlink:href="#m258474586f" x="137.7" y="197.725556" style="fill-opacity: 0; stroke: #000000"/>
     <use xlink:href="#m258474586f" x="137.7" y="290.352308" style="fill-opacity: 0; stroke: #000000"/>
     <use xlink:href="#m258474586f" x="137.7" y="296.7022" style="fill-opacity: 0; stroke: #000000"/>
     <use xlink:href="#m258474586f" x="137.7" y="282.515908" style="fill-opacity: 0; stroke: #000000"/>
     <use xlink:href="#m258474586f" x="137.7" y="295.146958" style="fill-opacity: 0; stroke: #000000"/>
     <use xlink:href="#m258474586f" x="137.7" y="228.922302" style="fill-opacity: 0; stroke: #000000"/>
     <use xlink:href="#m258474586f" x="137.7" y="270.33142" style="fill-opacity: 0; stroke: #000000"/>
     <use xlink:href="#m258474586f" x="137.7" y="286.540258" style="fill-opacity: 0; stroke: #000000"/>
     <use xlink:href="#m258474586f" x="137.7" y="292.936921" style="fill-opacity: 0; stroke: #000000"/>
     <use xlink:href="#m258474586f" x="137.7" y="285.885462" style="fill-opacity: 0; stroke: #000000"/>
     <use xlink:href="#m258474586f" x="137.7" y="282.692825" style="fill-opacity: 0; stroke: #000000"/>
     <use xlink:href="#m258474586f" x="137.7" y="296.332504" style="fill-opacity: 0; stroke: #000000"/>
     <use xlink:href="#m258474586f" x="137.7" y="290.374677" style="fill-opacity: 0; stroke: #000000"/>
     <use xlink:href="#m258474586f" x="137.7" y="291.764796" style="fill-opacity: 0; stroke: #000000"/>
     <use xlink:href="#m258474586f" x="137.7" y="209.465108" style="fill-opacity: 0; stroke: #000000"/>
     <use xlink:href="#m258474586f" x="137.7" y="274.779151" style="fill-opacity: 0; stroke: #000000"/>
     <use xlink:href="#m258474586f" x="137.7" y="287.860017" style="fill-opacity: 0; stroke: #000000"/>
     <use xlink:href="#m258474586f" x="137.7" y="271.361198" style="fill-opacity: 0; stroke: #000000"/>
     <use xlink:href="#m258474586f" x="137.7" y="276.599564" style="fill-opacity: 0; stroke: #000000"/>
     <use xlink:href="#m258474586f" x="137.7" y="248.690625" style="fill-opacity: 0; stroke: #000000"/>
     <use xlink:href="#m258474586f" x="137.7" y="266.050439" style="fill-opacity: 0; stroke: #000000"/>
     <use xlink:href="#m258474586f" x="137.7" y="293.191112" style="fill-opacity: 0; stroke: #000000"/>
     <use xlink:href="#m258474586f" x="137.7" y="260.665659" style="fill-opacity: 0; stroke: #000000"/>
     <use xlink:href="#m258474586f" x="137.7" y="286.088815" style="fill-opacity: 0; stroke: #000000"/>
     <use xlink:href="#m258474586f" x="137.7" y="261.399763" style="fill-opacity: 0; stroke: #000000"/>
     <use xlink:href="#m258474586f" x="137.7" y="293.530304" style="fill-opacity: 0; stroke: #000000"/>
     <use xlink:href="#m258474586f" x="137.7" y="274.796639" style="fill-opacity: 0; stroke: #000000"/>
     <use xlink:href="#m258474586f" x="137.7" y="292.215832" style="fill-opacity: 0; stroke: #000000"/>
     <use xlink:href="#m258474586f" x="137.7" y="274.84585" style="fill-opacity: 0; stroke: #000000"/>
     <use xlink:href="#m258474586f" x="137.7" y="295.473542" style="fill-opacity: 0; stroke: #000000"/>
     <use xlink:href="#m258474586f" x="137.7" y="244.270144" style="fill-opacity: 0; stroke: #000000"/>
     <use xlink:href="#m258474586f" x="137.7" y="272.693565" style="fill-opacity: 0; stroke: #000000"/>
     <use xlink:href="#m258474586f" x="137.7" y="293.230562" style="fill-opacity: 0; stroke: #000000"/>
     <use xlink:href="#m258474586f" x="137.7" y="250.048615" style="fill-opacity: 0; stroke: #000000"/>
     <use xlink:href="#m258474586f" x="137.7" y="278.697351" style="fill-opacity: 0; stroke: #000000"/>
     <use xlink:href="#m258474586f" x="137.7" y="293.923588" style="fill-opacity: 0; stroke: #000000"/>
     <use xlink:href="#m258474586f" x="137.7" y="290.168477" style="fill-opacity: 0; stroke: #000000"/>
     <use xlink:href="#m258474586f" x="137.7" y="287.222303" style="fill-opacity: 0; stroke: #000000"/>
     <use xlink:href="#m258474586f" x="137.7" y="268.937234" style="fill-opacity: 0; stroke: #000000"/>
     <use xlink:href="#m258474586f" x="137.7" y="276.205873" style="fill-opacity: 0; stroke: #000000"/>
     <use xlink:href="#m258474586f" x="137.7" y="239.4031" style="fill-opacity: 0; stroke: #000000"/>
     <use xlink:href="#m258474586f" x="137.7" y="278.951135" style="fill-opacity: 0; stroke: #000000"/>
     <use xlink:href="#m258474586f" x="137.7" y="283.779948" style="fill-opacity: 0; stroke: #000000"/>
     <use xlink:href="#m258474586f" x="137.7" y="284.630776" style="fill-opacity: 0; stroke: #000000"/>
     <use xlink:href="#m258474586f" x="137.7" y="268.733475" style="fill-opacity: 0; stroke: #000000"/>
     <use xlink:href="#m258474586f" x="137.7" y="284.518119" style="fill-opacity: 0; stroke: #000000"/>
     <use xlink:href="#m258474586f" x="137.7" y="290.51011" style="fill-opacity: 0; stroke: #000000"/>
     <use xlink:href="#m258474586f" x="137.7" y="278.186935" style="fill-opacity: 0; stroke: #000000"/>
     <use xlink:href="#m258474586f" x="137.7" y="263.621594" style="fill-opacity: 0; stroke: #000000"/>
     <use xlink:href="#m258474586f" x="137.7" y="220.180169" style="fill-opacity: 0; stroke: #000000"/>
    </g>
   </g>
   <g id="line2d_35">
    <path d="M 292.545 393.505308 
L 317.655 393.505308 
L 317.655 332.732842 
L 292.545 332.732842 
L 292.545 393.505308 
" clip-path="url(#pefd5396233)" style="fill: none; stroke: #000000; stroke-linecap: square"/>
   </g>
   <g id="line2d_36">
    <path d="M 305.1 393.505308 
L 305.1 468.528324 
" clip-path="url(#pefd5396233)" style="fill: none; stroke: #000000; stroke-linecap: square"/>
   </g>
   <g id="line2d_37">
    <path d="M 305.1 332.732842 
L 305.1 241.760772 
" clip-path="url(#pefd5396233)" style="fill: none; stroke: #000000; stroke-linecap: square"/>
   </g>
   <g id="line2d_38">
    <path d="M 298.8225 468.528324 
L 311.3775 468.528324 
" clip-path="url(#pefd5396233)" style="fill: none; stroke: #000000; stroke-linecap: square"/>
   </g>
   <g id="line2d_39">
    <path d="M 298.8225 241.760772 
L 311.3775 241.760772 
" clip-path="url(#pefd5396233)" style="fill: none; stroke: #000000; stroke-linecap: square"/>
   </g>
   <g id="line2d_40">
    <g clip-path="url(#pefd5396233)">
     <use xlink:href="#m258474586f" x="305.1" y="166.053778" style="fill-opacity: 0; stroke: #000000"/>
     <use xlink:href="#m258474586f" x="305.1" y="141.854399" style="fill-opacity: 0; stroke: #000000"/>
     <use xlink:href="#m258474586f" x="305.1" y="226.229098" style="fill-opacity: 0; stroke: #000000"/>
     <use xlink:href="#m258474586f" x="305.1" y="155.008066" style="fill-opacity: 0; stroke: #000000"/>
     <use xlink:href="#m258474586f" x="305.1" y="94.036417" style="fill-opacity: 0; stroke: #000000"/>
     <use xlink:href="#m258474586f" x="305.1" y="190.465864" style="fill-opacity: 0; stroke: #000000"/>
     <use xlink:href="#m258474586f" x="305.1" y="233.483503" style="fill-opacity: 0; stroke: #000000"/>
     <use xlink:href="#m258474586f" x="305.1" y="237.215025" style="fill-opacity: 0; stroke: #000000"/>
     <use xlink:href="#m258474586f" x="305.1" y="239.280275" style="fill-opacity: 0; stroke: #000000"/>
     <use xlink:href="#m258474586f" x="305.1" y="199.647646" style="fill-opacity: 0; stroke: #000000"/>
     <use xlink:href="#m258474586f" x="305.1" y="200.514335" style="fill-opacity: 0; stroke: #000000"/>
     <use xlink:href="#m258474586f" x="305.1" y="225.739018" style="fill-opacity: 0; stroke: #000000"/>
     <use xlink:href="#m258474586f" x="305.1" y="58.340289" style="fill-opacity: 0; stroke: #000000"/>
     <use xlink:href="#m258474586f" x="305.1" y="234.699959" style="fill-opacity: 0; stroke: #000000"/>
     <use xlink:href="#m258474586f" x="305.1" y="61.831855" style="fill-opacity: 0; stroke: #000000"/>
     <use xlink:href="#m258474586f" x="305.1" y="119.096385" style="fill-opacity: 0; stroke: #000000"/>
     <use xlink:href="#m258474586f" x="305.1" y="119.286723" style="fill-opacity: 0; stroke: #000000"/>
     <use xlink:href="#m258474586f" x="305.1" y="206.501852" style="fill-opacity: 0; stroke: #000000"/>
     <use xlink:href="#m258474586f" x="305.1" y="237.722187" style="fill-opacity: 0; stroke: #000000"/>
     <use xlink:href="#m258474586f" x="305.1" y="126.717637" style="fill-opacity: 0; stroke: #000000"/>
     <use xlink:href="#m258474586f" x="305.1" y="114.227714" style="fill-opacity: 0; stroke: #000000"/>
     <use xlink:href="#m258474586f" x="305.1" y="176.006267" style="fill-opacity: 0; stroke: #000000"/>
     <use xlink:href="#m258474586f" x="305.1" y="-1" style="fill-opacity: 0; stroke: #000000"/>
     <use xlink:href="#m258474586f" x="305.1" y="-1" style="fill-opacity: 0; stroke: #000000"/>
     <use xlink:href="#m258474586f" x="305.1" y="193.923674" style="fill-opacity: 0; stroke: #000000"/>
     <use xlink:href="#m258474586f" x="305.1" y="152.909873" style="fill-opacity: 0; stroke: #000000"/>
     <use xlink:href="#m258474586f" x="305.1" y="176.764366" style="fill-opacity: 0; stroke: #000000"/>
     <use xlink:href="#m258474586f" x="305.1" y="135.199072" style="fill-opacity: 0; stroke: #000000"/>
     <use xlink:href="#m258474586f" x="305.1" y="231.256384" style="fill-opacity: 0; stroke: #000000"/>
     <use xlink:href="#m258474586f" x="305.1" y="-1" style="fill-opacity: 0; stroke: #000000"/>
     <use xlink:href="#m258474586f" x="305.1" y="-1" style="fill-opacity: 0; stroke: #000000"/>
     <use xlink:href="#m258474586f" x="305.1" y="86.823496" style="fill-opacity: 0; stroke: #000000"/>
     <use xlink:href="#m258474586f" x="305.1" y="147.629616" style="fill-opacity: 0; stroke: #000000"/>
     <use xlink:href="#m258474586f" x="305.1" y="234.934221" style="fill-opacity: 0; stroke: #000000"/>
     <use xlink:href="#m258474586f" x="305.1" y="112.309285" style="fill-opacity: 0; stroke: #000000"/>
     <use xlink:href="#m258474586f" x="305.1" y="229.257427" style="fill-opacity: 0; stroke: #000000"/>
     <use xlink:href="#m258474586f" x="305.1" y="159.025909" style="fill-opacity: 0; stroke: #000000"/>
     <use xlink:href="#m258474586f" x="305.1" y="198.208315" style="fill-opacity: 0; stroke: #000000"/>
     <use xlink:href="#m258474586f" x="305.1" y="235.696794" style="fill-opacity: 0; stroke: #000000"/>
     <use xlink:href="#m258474586f" x="305.1" y="240.817215" style="fill-opacity: 0; stroke: #000000"/>
     <use xlink:href="#m258474586f" x="305.1" y="164.478202" style="fill-opacity: 0; stroke: #000000"/>
     <use xlink:href="#m258474586f" x="305.1" y="241.071406" style="fill-opacity: 0; stroke: #000000"/>
     <use xlink:href="#m258474586f" x="305.1" y="222.491069" style="fill-opacity: 0; stroke: #000000"/>
     <use xlink:href="#m258474586f" x="305.1" y="220.003659" style="fill-opacity: 0; stroke: #000000"/>
     <use xlink:href="#m258474586f" x="305.1" y="203.99248" style="fill-opacity: 0; stroke: #000000"/>
     <use xlink:href="#m258474586f" x="305.1" y="196.019427" style="fill-opacity: 0; stroke: #000000"/>
     <use xlink:href="#m258474586f" x="305.1" y="237.43912" style="fill-opacity: 0; stroke: #000000"/>
     <use xlink:href="#m258474586f" x="305.1" y="169.709247" style="fill-opacity: 0; stroke: #000000"/>
     <use xlink:href="#m258474586f" x="305.1" y="177.667252" style="fill-opacity: 0; stroke: #000000"/>
     <use xlink:href="#m258474586f" x="305.1" y="142.648288" style="fill-opacity: 0; stroke: #000000"/>
     <use xlink:href="#m258474586f" x="305.1" y="164.969909" style="fill-opacity: 0; stroke: #000000"/>
     <use xlink:href="#m258474586f" x="305.1" y="149.798983" style="fill-opacity: 0; stroke: #000000"/>
     <use xlink:href="#m258474586f" x="305.1" y="130.327148" style="fill-opacity: 0; stroke: #000000"/>
     <use xlink:href="#m258474586f" x="305.1" y="231.103056" style="fill-opacity: 0; stroke: #000000"/>
     <use xlink:href="#m258474586f" x="305.1" y="220.530749" style="fill-opacity: 0; stroke: #000000"/>
     <use xlink:href="#m258474586f" x="305.1" y="193.621898" style="fill-opacity: 0; stroke: #000000"/>
     <use xlink:href="#m258474586f" x="305.1" y="224.132532" style="fill-opacity: 0; stroke: #000000"/>
     <use xlink:href="#m258474586f" x="305.1" y="238.550646" style="fill-opacity: 0; stroke: #000000"/>
     <use xlink:href="#m258474586f" x="305.1" y="96.37782" style="fill-opacity: 0; stroke: #000000"/>
     <use xlink:href="#m258474586f" x="305.1" y="240.434098" style="fill-opacity: 0; stroke: #000000"/>
     <use xlink:href="#m258474586f" x="305.1" y="197.662517" style="fill-opacity: 0; stroke: #000000"/>
     <use xlink:href="#m258474586f" x="305.1" y="232.223936" style="fill-opacity: 0; stroke: #000000"/>
     <use xlink:href="#m258474586f" x="305.1" y="240.295412" style="fill-opacity: 0; stroke: #000000"/>
     <use xlink:href="#m258474586f" x="305.1" y="195.157618" style="fill-opacity: 0; stroke: #000000"/>
     <use xlink:href="#m258474586f" x="305.1" y="236.316206" style="fill-opacity: 0; stroke: #000000"/>
     <use xlink:href="#m258474586f" x="305.1" y="194.838761" style="fill-opacity: 0; stroke: #000000"/>
     <use xlink:href="#m258474586f" x="305.1" y="223.725827" style="fill-opacity: 0; stroke: #000000"/>
     <use xlink:href="#m258474586f" x="305.1" y="173.676658" style="fill-opacity: 0; stroke: #000000"/>
     <use xlink:href="#m258474586f" x="305.1" y="149.661923" style="fill-opacity: 0; stroke: #000000"/>
     <use xlink:href="#m258474586f" x="305.1" y="203.225027" style="fill-opacity: 0; stroke: #000000"/>
     <use xlink:href="#m258474586f" x="305.1" y="205.768156" style="fill-opacity: 0; stroke: #000000"/>
     <use xlink:href="#m258474586f" x="305.1" y="166.812284" style="fill-opacity: 0; stroke: #000000"/>
     <use xlink:href="#m258474586f" x="305.1" y="189.769991" style="fill-opacity: 0; stroke: #000000"/>
     <use xlink:href="#m258474586f" x="305.1" y="185.044481" style="fill-opacity: 0; stroke: #000000"/>
     <use xlink:href="#m258474586f" x="305.1" y="88.15749" style="fill-opacity: 0; stroke: #000000"/>
     <use xlink:href="#m258474586f" x="305.1" y="225.545833" style="fill-opacity: 0; stroke: #000000"/>
     <use xlink:href="#m258474586f" x="305.1" y="212.185154" style="fill-opacity: 0; stroke: #000000"/>
     <use xlink:href="#m258474586f" x="305.1" y="52.690744" style="fill-opacity: 0; stroke: #000000"/>
     <use xlink:href="#m258474586f" x="305.1" y="115.314838" style="fill-opacity: 0; stroke: #000000"/>
     <use xlink:href="#m258474586f" x="305.1" y="238.981347" style="fill-opacity: 0; stroke: #000000"/>
     <use xlink:href="#m258474586f" x="305.1" y="136.302871" style="fill-opacity: 0; stroke: #000000"/>
     <use xlink:href="#m258474586f" x="305.1" y="112.253973" style="fill-opacity: 0; stroke: #000000"/>
     <use xlink:href="#m258474586f" x="305.1" y="89.387774" style="fill-opacity: 0; stroke: #000000"/>
     <use xlink:href="#m258474586f" x="305.1" y="-1" style="fill-opacity: 0; stroke: #000000"/>
     <use xlink:href="#m258474586f" x="305.1" y="-1" style="fill-opacity: 0; stroke: #000000"/>
     <use xlink:href="#m258474586f" x="305.1" y="143.257533" style="fill-opacity: 0; stroke: #000000"/>
     <use xlink:href="#m258474586f" x="305.1" y="99.98001" style="fill-opacity: 0; stroke: #000000"/>
     <use xlink:href="#m258474586f" x="305.1" y="238.725122" style="fill-opacity: 0; stroke: #000000"/>
     <use xlink:href="#m258474586f" x="305.1" y="218.112072" style="fill-opacity: 0; stroke: #000000"/>
     <use xlink:href="#m258474586f" x="305.1" y="140.550909" style="fill-opacity: 0; stroke: #000000"/>
     <use xlink:href="#m258474586f" x="305.1" y="193.222107" style="fill-opacity: 0; stroke: #000000"/>
     <use xlink:href="#m258474586f" x="305.1" y="151.430279" style="fill-opacity: 0; stroke: #000000"/>
     <use xlink:href="#m258474586f" x="305.1" y="239.819567" style="fill-opacity: 0; stroke: #000000"/>
     <use xlink:href="#m258474586f" x="305.1" y="157.007023" style="fill-opacity: 0; stroke: #000000"/>
     <use xlink:href="#m258474586f" x="305.1" y="141.185369" style="fill-opacity: 0; stroke: #000000"/>
     <use xlink:href="#m258474586f" x="305.1" y="101.0712" style="fill-opacity: 0; stroke: #000000"/>
     <use xlink:href="#m258474586f" x="305.1" y="225.510857" style="fill-opacity: 0; stroke: #000000"/>
     <use xlink:href="#m258474586f" x="305.1" y="210.313902" style="fill-opacity: 0; stroke: #000000"/>
     <use xlink:href="#m258474586f" x="305.1" y="190.329618" style="fill-opacity: 0; stroke: #000000"/>
     <use xlink:href="#m258474586f" x="305.1" y="113.122289" style="fill-opacity: 0; stroke: #000000"/>
     <use xlink:href="#m258474586f" x="305.1" y="199.130723" style="fill-opacity: 0; stroke: #000000"/>
     <use xlink:href="#m258474586f" x="305.1" y="215.205755" style="fill-opacity: 0; stroke: #000000"/>
     <use xlink:href="#m258474586f" x="305.1" y="198.300231" style="fill-opacity: 0; stroke: #000000"/>
     <use xlink:href="#m258474586f" x="305.1" y="226.654919" style="fill-opacity: 0; stroke: #000000"/>
     <use xlink:href="#m258474586f" x="305.1" y="50.37293" style="fill-opacity: 0; stroke: #000000"/>
     <use xlink:href="#m258474586f" x="305.1" y="217.67527" style="fill-opacity: 0; stroke: #000000"/>
    </g>
   </g>
   <g id="line2d_41">
    <path d="M 125.145 397.553348 
L 150.255 397.553348 
" clip-path="url(#pefd5396233)" style="fill: none; stroke: #ff7f0e"/>
   </g>
   <g id="line2d_42">
    <path d="M 292.545 359.029398 
L 317.655 359.029398 
" clip-path="url(#pefd5396233)" style="fill: none; stroke: #ff7f0e"/>
   </g>
   <g id="patch_3">
    <path d="M 54 512.64 
L 54 69.12 
" style="fill: none; stroke: #000000; stroke-width: 0.8; stroke-linejoin: miter; stroke-linecap: square"/>
   </g>
   <g id="patch_4">
    <path d="M 388.8 512.64 
L 388.8 69.12 
" style="fill: none; stroke: #000000; stroke-width: 0.8; stroke-linejoin: miter; stroke-linecap: square"/>
   </g>
   <g id="patch_5">
    <path d="M 54 512.64 
L 388.8 512.64 
" style="fill: none; stroke: #000000; stroke-width: 0.8; stroke-linejoin: miter; stroke-linecap: square"/>
   </g>
   <g id="patch_6">
    <path d="M 54 69.12 
L 388.8 69.12 
" style="fill: none; stroke: #000000; stroke-width: 0.8; stroke-linejoin: miter; stroke-linecap: square"/>
   </g>
  </g>
 </g>
 <defs>
  <clipPath id="pefd5396233">
   <rect x="54" y="69.12" width="334.8" height="443.52"/>
  </clipPath>
 </defs>
</svg>
