<?xml version="1.0" encoding="utf-8" standalone="no"?>
<!DOCTYPE svg PUBLIC "-//W3C//DTD SVG 1.1//EN"
  "http://www.w3.org/Graphics/SVG/1.1/DTD/svg11.dtd">
<svg xmlns:xlink="http://www.w3.org/1999/xlink" width="792pt" height="648pt" viewBox="0 0 792 648" xmlns="http://www.w3.org/2000/svg" version="1.1">
 <metadata>
  <rdf:RDF xmlns:dc="http://purl.org/dc/elements/1.1/" xmlns:cc="http://creativecommons.org/ns#" xmlns:rdf="http://www.w3.org/1999/02/22-rdf-syntax-ns#">
   <cc:Work>
    <dc:type rdf:resource="http://purl.org/dc/dcmitype/StillImage"/>
    <dc:date>2024-01-04T02:40:57.831982</dc:date>
    <dc:format>image/svg+xml</dc:format>
    <dc:creator>
     <cc:Agent>
      <dc:title>Matplotlib v3.8.2, https://matplotlib.org/</dc:title>
     </cc:Agent>
    </dc:creator>
   </cc:Work>
  </rdf:RDF>
 </metadata>
 <defs>
  <style type="text/css">*{stroke-linejoin: round; stroke-linecap: butt}</style>
 </defs>
 <g id="figure_1">
  <g id="patch_1">
   <path d="M 0 648 
L 792 648 
L 792 0 
L 0 0 
z
" style="fill: #ffffff"/>
  </g>
  <g id="axes_1">
   <g id="patch_2">
    <path d="M 99 576.72 
L 712.8 576.72 
L 712.8 77.76 
L 99 77.76 
z
" style="fill: #ffffff"/>
   </g>
   <g id="matplotlib.axis_1">
    <g id="xtick_1">
     <g id="line2d_1">
      <defs>
       <path id="m9f3d5be7e1" d="M 0 0 
L 0 3.5 
" style="stroke: #000000; stroke-width: 0.8"/>
      </defs>
      <g>
       <use xlink:href="#m9f3d5be7e1" x="99" y="576.72" style="stroke: #000000; stroke-width: 0.8"/>
      </g>
     </g>
     <g id="text_1">
      <!-- 0 -->
      <g transform="translate(95.81875 591.318438) scale(0.1 -0.1)">
       <defs>
        <path id="DejaVuSans-30" d="M 2034 4250 
Q 1547 4250 1301 3770 
Q 1056 3291 1056 2328 
Q 1056 1369 1301 889 
Q 1547 409 2034 409 
Q 2525 409 2770 889 
Q 3016 1369 3016 2328 
Q 3016 3291 2770 3770 
Q 2525 4250 2034 4250 
z
M 2034 4750 
Q 2819 4750 3233 4129 
Q 3647 3509 3647 2328 
Q 3647 1150 3233 529 
Q 2819 -91 2034 -91 
Q 1250 -91 836 529 
Q 422 1150 422 2328 
Q 422 3509 836 4129 
Q 1250 4750 2034 4750 
z
" transform="scale(0.015625)"/>
       </defs>
       <use xlink:href="#DejaVuSans-30"/>
      </g>
     </g>
    </g>
    <g id="xtick_2">
     <g id="line2d_2">
      <g>
       <use xlink:href="#m9f3d5be7e1" x="122.607692" y="576.72" style="stroke: #000000; stroke-width: 0.8"/>
      </g>
     </g>
     <g id="text_2">
      <!-- 10 -->
      <g transform="translate(116.245192 591.318438) scale(0.1 -0.1)">
       <defs>
        <path id="DejaVuSans-31" d="M 794 531 
L 1825 531 
L 1825 4091 
L 703 3866 
L 703 4441 
L 1819 4666 
L 2450 4666 
L 2450 531 
L 3481 531 
L 3481 0 
L 794 0 
L 794 531 
z
" transform="scale(0.015625)"/>
       </defs>
       <use xlink:href="#DejaVuSans-31"/>
       <use xlink:href="#DejaVuSans-30" x="63.623047"/>
      </g>
     </g>
    </g>
    <g id="xtick_3">
     <g id="line2d_3">
      <g>
       <use xlink:href="#m9f3d5be7e1" x="146.215385" y="576.72" style="stroke: #000000; stroke-width: 0.8"/>
      </g>
     </g>
     <g id="text_3">
      <!-- 20 -->
      <g transform="translate(139.852885 591.318438) scale(0.1 -0.1)">
       <defs>
        <path id="DejaVuSans-32" d="M 1228 531 
L 3431 531 
L 3431 0 
L 469 0 
L 469 531 
Q 828 903 1448 1529 
Q 2069 2156 2228 2338 
Q 2531 2678 2651 2914 
Q 2772 3150 2772 3378 
Q 2772 3750 2511 3984 
Q 2250 4219 1831 4219 
Q 1534 4219 1204 4116 
Q 875 4013 500 3803 
L 500 4441 
Q 881 4594 1212 4672 
Q 1544 4750 1819 4750 
Q 2544 4750 2975 4387 
Q 3406 4025 3406 3419 
Q 3406 3131 3298 2873 
Q 3191 2616 2906 2266 
Q 2828 2175 2409 1742 
Q 1991 1309 1228 531 
z
" transform="scale(0.015625)"/>
       </defs>
       <use xlink:href="#DejaVuSans-32"/>
       <use xlink:href="#DejaVuSans-30" x="63.623047"/>
      </g>
     </g>
    </g>
    <g id="xtick_4">
     <g id="line2d_4">
      <g>
       <use xlink:href="#m9f3d5be7e1" x="169.823077" y="576.72" style="stroke: #000000; stroke-width: 0.8"/>
      </g>
     </g>
     <g id="text_4">
      <!-- 30 -->
      <g transform="translate(163.460577 591.318438) scale(0.1 -0.1)">
       <defs>
        <path id="DejaVuSans-33" d="M 2597 2516 
Q 3050 2419 3304 2112 
Q 3559 1806 3559 1356 
Q 3559 666 3084 287 
Q 2609 -91 1734 -91 
Q 1441 -91 1130 -33 
Q 819 25 488 141 
L 488 750 
Q 750 597 1062 519 
Q 1375 441 1716 441 
Q 2309 441 2620 675 
Q 2931 909 2931 1356 
Q 2931 1769 2642 2001 
Q 2353 2234 1838 2234 
L 1294 2234 
L 1294 2753 
L 1863 2753 
Q 2328 2753 2575 2939 
Q 2822 3125 2822 3475 
Q 2822 3834 2567 4026 
Q 2313 4219 1838 4219 
Q 1578 4219 1281 4162 
Q 984 4106 628 3988 
L 628 4550 
Q 988 4650 1302 4700 
Q 1616 4750 1894 4750 
Q 2613 4750 3031 4423 
Q 3450 4097 3450 3541 
Q 3450 3153 3228 2886 
Q 3006 2619 2597 2516 
z
" transform="scale(0.015625)"/>
       </defs>
       <use xlink:href="#DejaVuSans-33"/>
       <use xlink:href="#DejaVuSans-30" x="63.623047"/>
      </g>
     </g>
    </g>
    <g id="xtick_5">
     <g id="line2d_5">
      <g>
       <use xlink:href="#m9f3d5be7e1" x="193.430769" y="576.72" style="stroke: #000000; stroke-width: 0.8"/>
      </g>
     </g>
     <g id="text_5">
      <!-- 40 -->
      <g transform="translate(187.068269 591.318438) scale(0.1 -0.1)">
       <defs>
        <path id="DejaVuSans-34" d="M 2419 4116 
L 825 1625 
L 2419 1625 
L 2419 4116 
z
M 2253 4666 
L 3047 4666 
L 3047 1625 
L 3713 1625 
L 3713 1100 
L 3047 1100 
L 3047 0 
L 2419 0 
L 2419 1100 
L 313 1100 
L 313 1709 
L 2253 4666 
z
" transform="scale(0.015625)"/>
       </defs>
       <use xlink:href="#DejaVuSans-34"/>
       <use xlink:href="#DejaVuSans-30" x="63.623047"/>
      </g>
     </g>
    </g>
    <g id="xtick_6">
     <g id="line2d_6">
      <g>
       <use xlink:href="#m9f3d5be7e1" x="217.038462" y="576.72" style="stroke: #000000; stroke-width: 0.8"/>
      </g>
     </g>
     <g id="text_6">
      <!-- 50 -->
      <g transform="translate(210.675962 591.318438) scale(0.1 -0.1)">
       <defs>
        <path id="DejaVuSans-35" d="M 691 4666 
L 3169 4666 
L 3169 4134 
L 1269 4134 
L 1269 2991 
Q 1406 3038 1543 3061 
Q 1681 3084 1819 3084 
Q 2600 3084 3056 2656 
Q 3513 2228 3513 1497 
Q 3513 744 3044 326 
Q 2575 -91 1722 -91 
Q 1428 -91 1123 -41 
Q 819 9 494 109 
L 494 744 
Q 775 591 1075 516 
Q 1375 441 1709 441 
Q 2250 441 2565 725 
Q 2881 1009 2881 1497 
Q 2881 1984 2565 2268 
Q 2250 2553 1709 2553 
Q 1456 2553 1204 2497 
Q 953 2441 691 2322 
L 691 4666 
z
" transform="scale(0.015625)"/>
       </defs>
       <use xlink:href="#DejaVuSans-35"/>
       <use xlink:href="#DejaVuSans-30" x="63.623047"/>
      </g>
     </g>
    </g>
    <g id="xtick_7">
     <g id="line2d_7">
      <g>
       <use xlink:href="#m9f3d5be7e1" x="240.646154" y="576.72" style="stroke: #000000; stroke-width: 0.8"/>
      </g>
     </g>
     <g id="text_7">
      <!-- 60 -->
      <g transform="translate(234.283654 591.318438) scale(0.1 -0.1)">
       <defs>
        <path id="DejaVuSans-36" d="M 2113 2584 
Q 1688 2584 1439 2293 
Q 1191 2003 1191 1497 
Q 1191 994 1439 701 
Q 1688 409 2113 409 
Q 2538 409 2786 701 
Q 3034 994 3034 1497 
Q 3034 2003 2786 2293 
Q 2538 2584 2113 2584 
z
M 3366 4563 
L 3366 3988 
Q 3128 4100 2886 4159 
Q 2644 4219 2406 4219 
Q 1781 4219 1451 3797 
Q 1122 3375 1075 2522 
Q 1259 2794 1537 2939 
Q 1816 3084 2150 3084 
Q 2853 3084 3261 2657 
Q 3669 2231 3669 1497 
Q 3669 778 3244 343 
Q 2819 -91 2113 -91 
Q 1303 -91 875 529 
Q 447 1150 447 2328 
Q 447 3434 972 4092 
Q 1497 4750 2381 4750 
Q 2619 4750 2861 4703 
Q 3103 4656 3366 4563 
z
" transform="scale(0.015625)"/>
       </defs>
       <use xlink:href="#DejaVuSans-36"/>
       <use xlink:href="#DejaVuSans-30" x="63.623047"/>
      </g>
     </g>
    </g>
    <g id="xtick_8">
     <g id="line2d_8">
      <g>
       <use xlink:href="#m9f3d5be7e1" x="264.253846" y="576.72" style="stroke: #000000; stroke-width: 0.8"/>
      </g>
     </g>
     <g id="text_8">
      <!-- 70 -->
      <g transform="translate(257.891346 591.318438) scale(0.1 -0.1)">
       <defs>
        <path id="DejaVuSans-37" d="M 525 4666 
L 3525 4666 
L 3525 4397 
L 1831 0 
L 1172 0 
L 2766 4134 
L 525 4134 
L 525 4666 
z
" transform="scale(0.015625)"/>
       </defs>
       <use xlink:href="#DejaVuSans-37"/>
       <use xlink:href="#DejaVuSans-30" x="63.623047"/>
      </g>
     </g>
    </g>
    <g id="xtick_9">
     <g id="line2d_9">
      <g>
       <use xlink:href="#m9f3d5be7e1" x="287.861538" y="576.72" style="stroke: #000000; stroke-width: 0.8"/>
      </g>
     </g>
     <g id="text_9">
      <!-- 80 -->
      <g transform="translate(281.499038 591.318438) scale(0.1 -0.1)">
       <defs>
        <path id="DejaVuSans-38" d="M 2034 2216 
Q 1584 2216 1326 1975 
Q 1069 1734 1069 1313 
Q 1069 891 1326 650 
Q 1584 409 2034 409 
Q 2484 409 2743 651 
Q 3003 894 3003 1313 
Q 3003 1734 2745 1975 
Q 2488 2216 2034 2216 
z
M 1403 2484 
Q 997 2584 770 2862 
Q 544 3141 544 3541 
Q 544 4100 942 4425 
Q 1341 4750 2034 4750 
Q 2731 4750 3128 4425 
Q 3525 4100 3525 3541 
Q 3525 3141 3298 2862 
Q 3072 2584 2669 2484 
Q 3125 2378 3379 2068 
Q 3634 1759 3634 1313 
Q 3634 634 3220 271 
Q 2806 -91 2034 -91 
Q 1263 -91 848 271 
Q 434 634 434 1313 
Q 434 1759 690 2068 
Q 947 2378 1403 2484 
z
M 1172 3481 
Q 1172 3119 1398 2916 
Q 1625 2713 2034 2713 
Q 2441 2713 2670 2916 
Q 2900 3119 2900 3481 
Q 2900 3844 2670 4047 
Q 2441 4250 2034 4250 
Q 1625 4250 1398 4047 
Q 1172 3844 1172 3481 
z
" transform="scale(0.015625)"/>
       </defs>
       <use xlink:href="#DejaVuSans-38"/>
       <use xlink:href="#DejaVuSans-30" x="63.623047"/>
      </g>
     </g>
    </g>
    <g id="xtick_10">
     <g id="line2d_10">
      <g>
       <use xlink:href="#m9f3d5be7e1" x="311.469231" y="576.72" style="stroke: #000000; stroke-width: 0.8"/>
      </g>
     </g>
     <g id="text_10">
      <!-- 90 -->
      <g transform="translate(305.106731 591.318438) scale(0.1 -0.1)">
       <defs>
        <path id="DejaVuSans-39" d="M 703 97 
L 703 672 
Q 941 559 1184 500 
Q 1428 441 1663 441 
Q 2288 441 2617 861 
Q 2947 1281 2994 2138 
Q 2813 1869 2534 1725 
Q 2256 1581 1919 1581 
Q 1219 1581 811 2004 
Q 403 2428 403 3163 
Q 403 3881 828 4315 
Q 1253 4750 1959 4750 
Q 2769 4750 3195 4129 
Q 3622 3509 3622 2328 
Q 3622 1225 3098 567 
Q 2575 -91 1691 -91 
Q 1453 -91 1209 -44 
Q 966 3 703 97 
z
M 1959 2075 
Q 2384 2075 2632 2365 
Q 2881 2656 2881 3163 
Q 2881 3666 2632 3958 
Q 2384 4250 1959 4250 
Q 1534 4250 1286 3958 
Q 1038 3666 1038 3163 
Q 1038 2656 1286 2365 
Q 1534 2075 1959 2075 
z
" transform="scale(0.015625)"/>
       </defs>
       <use xlink:href="#DejaVuSans-39"/>
       <use xlink:href="#DejaVuSans-30" x="63.623047"/>
      </g>
     </g>
    </g>
    <g id="xtick_11">
     <g id="line2d_11">
      <g>
       <use xlink:href="#m9f3d5be7e1" x="335.076923" y="576.72" style="stroke: #000000; stroke-width: 0.8"/>
      </g>
     </g>
     <g id="text_11">
      <!-- 100 -->
      <g transform="translate(325.533173 591.318438) scale(0.1 -0.1)">
       <use xlink:href="#DejaVuSans-31"/>
       <use xlink:href="#DejaVuSans-30" x="63.623047"/>
       <use xlink:href="#DejaVuSans-30" x="127.246094"/>
      </g>
     </g>
    </g>
    <g id="xtick_12">
     <g id="line2d_12">
      <g>
       <use xlink:href="#m9f3d5be7e1" x="358.684615" y="576.72" style="stroke: #000000; stroke-width: 0.8"/>
      </g>
     </g>
     <g id="text_12">
      <!-- 110 -->
      <g transform="translate(349.140865 591.318438) scale(0.1 -0.1)">
       <use xlink:href="#DejaVuSans-31"/>
       <use xlink:href="#DejaVuSans-31" x="63.623047"/>
       <use xlink:href="#DejaVuSans-30" x="127.246094"/>
      </g>
     </g>
    </g>
    <g id="xtick_13">
     <g id="line2d_13">
      <g>
       <use xlink:href="#m9f3d5be7e1" x="382.292308" y="576.72" style="stroke: #000000; stroke-width: 0.8"/>
      </g>
     </g>
     <g id="text_13">
      <!-- 120 -->
      <g transform="translate(372.748558 591.318438) scale(0.1 -0.1)">
       <use xlink:href="#DejaVuSans-31"/>
       <use xlink:href="#DejaVuSans-32" x="63.623047"/>
       <use xlink:href="#DejaVuSans-30" x="127.246094"/>
      </g>
     </g>
    </g>
    <g id="xtick_14">
     <g id="line2d_14">
      <g>
       <use xlink:href="#m9f3d5be7e1" x="405.9" y="576.72" style="stroke: #000000; stroke-width: 0.8"/>
      </g>
     </g>
     <g id="text_14">
      <!-- 130 -->
      <g transform="translate(396.35625 591.318438) scale(0.1 -0.1)">
       <use xlink:href="#DejaVuSans-31"/>
       <use xlink:href="#DejaVuSans-33" x="63.623047"/>
       <use xlink:href="#DejaVuSans-30" x="127.246094"/>
      </g>
     </g>
    </g>
    <g id="xtick_15">
     <g id="line2d_15">
      <g>
       <use xlink:href="#m9f3d5be7e1" x="429.507692" y="576.72" style="stroke: #000000; stroke-width: 0.8"/>
      </g>
     </g>
     <g id="text_15">
      <!-- 140 -->
      <g transform="translate(419.963942 591.318438) scale(0.1 -0.1)">
       <use xlink:href="#DejaVuSans-31"/>
       <use xlink:href="#DejaVuSans-34" x="63.623047"/>
       <use xlink:href="#DejaVuSans-30" x="127.246094"/>
      </g>
     </g>
    </g>
    <g id="xtick_16">
     <g id="line2d_16">
      <g>
       <use xlink:href="#m9f3d5be7e1" x="453.115385" y="576.72" style="stroke: #000000; stroke-width: 0.8"/>
      </g>
     </g>
     <g id="text_16">
      <!-- 150 -->
      <g transform="translate(443.571635 591.318438) scale(0.1 -0.1)">
       <use xlink:href="#DejaVuSans-31"/>
       <use xlink:href="#DejaVuSans-35" x="63.623047"/>
       <use xlink:href="#DejaVuSans-30" x="127.246094"/>
      </g>
     </g>
    </g>
    <g id="xtick_17">
     <g id="line2d_17">
      <g>
       <use xlink:href="#m9f3d5be7e1" x="476.723077" y="576.72" style="stroke: #000000; stroke-width: 0.8"/>
      </g>
     </g>
     <g id="text_17">
      <!-- 160 -->
      <g transform="translate(467.179327 591.318438) scale(0.1 -0.1)">
       <use xlink:href="#DejaVuSans-31"/>
       <use xlink:href="#DejaVuSans-36" x="63.623047"/>
       <use xlink:href="#DejaVuSans-30" x="127.246094"/>
      </g>
     </g>
    </g>
    <g id="xtick_18">
     <g id="line2d_18">
      <g>
       <use xlink:href="#m9f3d5be7e1" x="500.330769" y="576.72" style="stroke: #000000; stroke-width: 0.8"/>
      </g>
     </g>
     <g id="text_18">
      <!-- 170 -->
      <g transform="translate(490.787019 591.318438) scale(0.1 -0.1)">
       <use xlink:href="#DejaVuSans-31"/>
       <use xlink:href="#DejaVuSans-37" x="63.623047"/>
       <use xlink:href="#DejaVuSans-30" x="127.246094"/>
      </g>
     </g>
    </g>
    <g id="xtick_19">
     <g id="line2d_19">
      <g>
       <use xlink:href="#m9f3d5be7e1" x="523.938462" y="576.72" style="stroke: #000000; stroke-width: 0.8"/>
      </g>
     </g>
     <g id="text_19">
      <!-- 180 -->
      <g transform="translate(514.394712 591.318438) scale(0.1 -0.1)">
       <use xlink:href="#DejaVuSans-31"/>
       <use xlink:href="#DejaVuSans-38" x="63.623047"/>
       <use xlink:href="#DejaVuSans-30" x="127.246094"/>
      </g>
     </g>
    </g>
    <g id="xtick_20">
     <g id="line2d_20">
      <g>
       <use xlink:href="#m9f3d5be7e1" x="547.546154" y="576.72" style="stroke: #000000; stroke-width: 0.8"/>
      </g>
     </g>
     <g id="text_20">
      <!-- 190 -->
      <g transform="translate(538.002404 591.318438) scale(0.1 -0.1)">
       <use xlink:href="#DejaVuSans-31"/>
       <use xlink:href="#DejaVuSans-39" x="63.623047"/>
       <use xlink:href="#DejaVuSans-30" x="127.246094"/>
      </g>
     </g>
    </g>
    <g id="xtick_21">
     <g id="line2d_21">
      <g>
       <use xlink:href="#m9f3d5be7e1" x="571.153846" y="576.72" style="stroke: #000000; stroke-width: 0.8"/>
      </g>
     </g>
     <g id="text_21">
      <!-- 200 -->
      <g transform="translate(561.610096 591.318438) scale(0.1 -0.1)">
       <use xlink:href="#DejaVuSans-32"/>
       <use xlink:href="#DejaVuSans-30" x="63.623047"/>
       <use xlink:href="#DejaVuSans-30" x="127.246094"/>
      </g>
     </g>
    </g>
    <g id="xtick_22">
     <g id="line2d_22">
      <g>
       <use xlink:href="#m9f3d5be7e1" x="594.761538" y="576.72" style="stroke: #000000; stroke-width: 0.8"/>
      </g>
     </g>
     <g id="text_22">
      <!-- 210 -->
      <g transform="translate(585.217788 591.318438) scale(0.1 -0.1)">
       <use xlink:href="#DejaVuSans-32"/>
       <use xlink:href="#DejaVuSans-31" x="63.623047"/>
       <use xlink:href="#DejaVuSans-30" x="127.246094"/>
      </g>
     </g>
    </g>
    <g id="xtick_23">
     <g id="line2d_23">
      <g>
       <use xlink:href="#m9f3d5be7e1" x="618.369231" y="576.72" style="stroke: #000000; stroke-width: 0.8"/>
      </g>
     </g>
     <g id="text_23">
      <!-- 220 -->
      <g transform="translate(608.825481 591.318438) scale(0.1 -0.1)">
       <use xlink:href="#DejaVuSans-32"/>
       <use xlink:href="#DejaVuSans-32" x="63.623047"/>
       <use xlink:href="#DejaVuSans-30" x="127.246094"/>
      </g>
     </g>
    </g>
    <g id="xtick_24">
     <g id="line2d_24">
      <g>
       <use xlink:href="#m9f3d5be7e1" x="641.976923" y="576.72" style="stroke: #000000; stroke-width: 0.8"/>
      </g>
     </g>
     <g id="text_24">
      <!-- 230 -->
      <g transform="translate(632.433173 591.318438) scale(0.1 -0.1)">
       <use xlink:href="#DejaVuSans-32"/>
       <use xlink:href="#DejaVuSans-33" x="63.623047"/>
       <use xlink:href="#DejaVuSans-30" x="127.246094"/>
      </g>
     </g>
    </g>
    <g id="xtick_25">
     <g id="line2d_25">
      <g>
       <use xlink:href="#m9f3d5be7e1" x="665.584615" y="576.72" style="stroke: #000000; stroke-width: 0.8"/>
      </g>
     </g>
     <g id="text_25">
      <!-- 240 -->
      <g transform="translate(656.040865 591.318438) scale(0.1 -0.1)">
       <use xlink:href="#DejaVuSans-32"/>
       <use xlink:href="#DejaVuSans-34" x="63.623047"/>
       <use xlink:href="#DejaVuSans-30" x="127.246094"/>
      </g>
     </g>
    </g>
    <g id="xtick_26">
     <g id="line2d_26">
      <g>
       <use xlink:href="#m9f3d5be7e1" x="689.192308" y="576.72" style="stroke: #000000; stroke-width: 0.8"/>
      </g>
     </g>
     <g id="text_26">
      <!-- 250 -->
      <g transform="translate(679.648558 591.318438) scale(0.1 -0.1)">
       <use xlink:href="#DejaVuSans-32"/>
       <use xlink:href="#DejaVuSans-35" x="63.623047"/>
       <use xlink:href="#DejaVuSans-30" x="127.246094"/>
      </g>
     </g>
    </g>
    <g id="text_27">
     <!-- Input Latency (ms) -->
     <g transform="translate(358.634375 604.996562) scale(0.1 -0.1)">
      <defs>
       <path id="DejaVuSans-49" d="M 628 4666 
L 1259 4666 
L 1259 0 
L 628 0 
L 628 4666 
z
" transform="scale(0.015625)"/>
       <path id="DejaVuSans-6e" d="M 3513 2113 
L 3513 0 
L 2938 0 
L 2938 2094 
Q 2938 2591 2744 2837 
Q 2550 3084 2163 3084 
Q 1697 3084 1428 2787 
Q 1159 2491 1159 1978 
L 1159 0 
L 581 0 
L 581 3500 
L 1159 3500 
L 1159 2956 
Q 1366 3272 1645 3428 
Q 1925 3584 2291 3584 
Q 2894 3584 3203 3211 
Q 3513 2838 3513 2113 
z
" transform="scale(0.015625)"/>
       <path id="DejaVuSans-70" d="M 1159 525 
L 1159 -1331 
L 581 -1331 
L 581 3500 
L 1159 3500 
L 1159 2969 
Q 1341 3281 1617 3432 
Q 1894 3584 2278 3584 
Q 2916 3584 3314 3078 
Q 3713 2572 3713 1747 
Q 3713 922 3314 415 
Q 2916 -91 2278 -91 
Q 1894 -91 1617 61 
Q 1341 213 1159 525 
z
M 3116 1747 
Q 3116 2381 2855 2742 
Q 2594 3103 2138 3103 
Q 1681 3103 1420 2742 
Q 1159 2381 1159 1747 
Q 1159 1113 1420 752 
Q 1681 391 2138 391 
Q 2594 391 2855 752 
Q 3116 1113 3116 1747 
z
" transform="scale(0.015625)"/>
       <path id="DejaVuSans-75" d="M 544 1381 
L 544 3500 
L 1119 3500 
L 1119 1403 
Q 1119 906 1312 657 
Q 1506 409 1894 409 
Q 2359 409 2629 706 
Q 2900 1003 2900 1516 
L 2900 3500 
L 3475 3500 
L 3475 0 
L 2900 0 
L 2900 538 
Q 2691 219 2414 64 
Q 2138 -91 1772 -91 
Q 1169 -91 856 284 
Q 544 659 544 1381 
z
M 1991 3584 
L 1991 3584 
z
" transform="scale(0.015625)"/>
       <path id="DejaVuSans-74" d="M 1172 4494 
L 1172 3500 
L 2356 3500 
L 2356 3053 
L 1172 3053 
L 1172 1153 
Q 1172 725 1289 603 
Q 1406 481 1766 481 
L 2356 481 
L 2356 0 
L 1766 0 
Q 1100 0 847 248 
Q 594 497 594 1153 
L 594 3053 
L 172 3053 
L 172 3500 
L 594 3500 
L 594 4494 
L 1172 4494 
z
" transform="scale(0.015625)"/>
       <path id="DejaVuSans-20" transform="scale(0.015625)"/>
       <path id="DejaVuSans-4c" d="M 628 4666 
L 1259 4666 
L 1259 531 
L 3531 531 
L 3531 0 
L 628 0 
L 628 4666 
z
" transform="scale(0.015625)"/>
       <path id="DejaVuSans-61" d="M 2194 1759 
Q 1497 1759 1228 1600 
Q 959 1441 959 1056 
Q 959 750 1161 570 
Q 1363 391 1709 391 
Q 2188 391 2477 730 
Q 2766 1069 2766 1631 
L 2766 1759 
L 2194 1759 
z
M 3341 1997 
L 3341 0 
L 2766 0 
L 2766 531 
Q 2569 213 2275 61 
Q 1981 -91 1556 -91 
Q 1019 -91 701 211 
Q 384 513 384 1019 
Q 384 1609 779 1909 
Q 1175 2209 1959 2209 
L 2766 2209 
L 2766 2266 
Q 2766 2663 2505 2880 
Q 2244 3097 1772 3097 
Q 1472 3097 1187 3025 
Q 903 2953 641 2809 
L 641 3341 
Q 956 3463 1253 3523 
Q 1550 3584 1831 3584 
Q 2591 3584 2966 3190 
Q 3341 2797 3341 1997 
z
" transform="scale(0.015625)"/>
       <path id="DejaVuSans-65" d="M 3597 1894 
L 3597 1613 
L 953 1613 
Q 991 1019 1311 708 
Q 1631 397 2203 397 
Q 2534 397 2845 478 
Q 3156 559 3463 722 
L 3463 178 
Q 3153 47 2828 -22 
Q 2503 -91 2169 -91 
Q 1331 -91 842 396 
Q 353 884 353 1716 
Q 353 2575 817 3079 
Q 1281 3584 2069 3584 
Q 2775 3584 3186 3129 
Q 3597 2675 3597 1894 
z
M 3022 2063 
Q 3016 2534 2758 2815 
Q 2500 3097 2075 3097 
Q 1594 3097 1305 2825 
Q 1016 2553 972 2059 
L 3022 2063 
z
" transform="scale(0.015625)"/>
       <path id="DejaVuSans-63" d="M 3122 3366 
L 3122 2828 
Q 2878 2963 2633 3030 
Q 2388 3097 2138 3097 
Q 1578 3097 1268 2742 
Q 959 2388 959 1747 
Q 959 1106 1268 751 
Q 1578 397 2138 397 
Q 2388 397 2633 464 
Q 2878 531 3122 666 
L 3122 134 
Q 2881 22 2623 -34 
Q 2366 -91 2075 -91 
Q 1284 -91 818 406 
Q 353 903 353 1747 
Q 353 2603 823 3093 
Q 1294 3584 2113 3584 
Q 2378 3584 2631 3529 
Q 2884 3475 3122 3366 
z
" transform="scale(0.015625)"/>
       <path id="DejaVuSans-79" d="M 2059 -325 
Q 1816 -950 1584 -1140 
Q 1353 -1331 966 -1331 
L 506 -1331 
L 506 -850 
L 844 -850 
Q 1081 -850 1212 -737 
Q 1344 -625 1503 -206 
L 1606 56 
L 191 3500 
L 800 3500 
L 1894 763 
L 2988 3500 
L 3597 3500 
L 2059 -325 
z
" transform="scale(0.015625)"/>
       <path id="DejaVuSans-28" d="M 1984 4856 
Q 1566 4138 1362 3434 
Q 1159 2731 1159 2009 
Q 1159 1288 1364 580 
Q 1569 -128 1984 -844 
L 1484 -844 
Q 1016 -109 783 600 
Q 550 1309 550 2009 
Q 550 2706 781 3412 
Q 1013 4119 1484 4856 
L 1984 4856 
z
" transform="scale(0.015625)"/>
       <path id="DejaVuSans-6d" d="M 3328 2828 
Q 3544 3216 3844 3400 
Q 4144 3584 4550 3584 
Q 5097 3584 5394 3201 
Q 5691 2819 5691 2113 
L 5691 0 
L 5113 0 
L 5113 2094 
Q 5113 2597 4934 2840 
Q 4756 3084 4391 3084 
Q 3944 3084 3684 2787 
Q 3425 2491 3425 1978 
L 3425 0 
L 2847 0 
L 2847 2094 
Q 2847 2600 2669 2842 
Q 2491 3084 2119 3084 
Q 1678 3084 1418 2786 
Q 1159 2488 1159 1978 
L 1159 0 
L 581 0 
L 581 3500 
L 1159 3500 
L 1159 2956 
Q 1356 3278 1631 3431 
Q 1906 3584 2284 3584 
Q 2666 3584 2933 3390 
Q 3200 3197 3328 2828 
z
" transform="scale(0.015625)"/>
       <path id="DejaVuSans-73" d="M 2834 3397 
L 2834 2853 
Q 2591 2978 2328 3040 
Q 2066 3103 1784 3103 
Q 1356 3103 1142 2972 
Q 928 2841 928 2578 
Q 928 2378 1081 2264 
Q 1234 2150 1697 2047 
L 1894 2003 
Q 2506 1872 2764 1633 
Q 3022 1394 3022 966 
Q 3022 478 2636 193 
Q 2250 -91 1575 -91 
Q 1294 -91 989 -36 
Q 684 19 347 128 
L 347 722 
Q 666 556 975 473 
Q 1284 391 1588 391 
Q 1994 391 2212 530 
Q 2431 669 2431 922 
Q 2431 1156 2273 1281 
Q 2116 1406 1581 1522 
L 1381 1569 
Q 847 1681 609 1914 
Q 372 2147 372 2553 
Q 372 3047 722 3315 
Q 1072 3584 1716 3584 
Q 2034 3584 2315 3537 
Q 2597 3491 2834 3397 
z
" transform="scale(0.015625)"/>
       <path id="DejaVuSans-29" d="M 513 4856 
L 1013 4856 
Q 1481 4119 1714 3412 
Q 1947 2706 1947 2009 
Q 1947 1309 1714 600 
Q 1481 -109 1013 -844 
L 513 -844 
Q 928 -128 1133 580 
Q 1338 1288 1338 2009 
Q 1338 2731 1133 3434 
Q 928 4138 513 4856 
z
" transform="scale(0.015625)"/>
      </defs>
      <use xlink:href="#DejaVuSans-49"/>
      <use xlink:href="#DejaVuSans-6e" x="29.492188"/>
      <use xlink:href="#DejaVuSans-70" x="92.871094"/>
      <use xlink:href="#DejaVuSans-75" x="156.347656"/>
      <use xlink:href="#DejaVuSans-74" x="219.726562"/>
      <use xlink:href="#DejaVuSans-20" x="258.935547"/>
      <use xlink:href="#DejaVuSans-4c" x="290.722656"/>
      <use xlink:href="#DejaVuSans-61" x="346.435547"/>
      <use xlink:href="#DejaVuSans-74" x="407.714844"/>
      <use xlink:href="#DejaVuSans-65" x="446.923828"/>
      <use xlink:href="#DejaVuSans-6e" x="508.447266"/>
      <use xlink:href="#DejaVuSans-63" x="571.826172"/>
      <use xlink:href="#DejaVuSans-79" x="626.806641"/>
      <use xlink:href="#DejaVuSans-20" x="685.986328"/>
      <use xlink:href="#DejaVuSans-28" x="717.773438"/>
      <use xlink:href="#DejaVuSans-6d" x="756.787109"/>
      <use xlink:href="#DejaVuSans-73" x="854.199219"/>
      <use xlink:href="#DejaVuSans-29" x="906.298828"/>
     </g>
    </g>
   </g>
   <g id="matplotlib.axis_2">
    <g id="ytick_1">
     <g id="line2d_27">
      <defs>
       <path id="m7f50ce4d73" d="M 0 0 
L -3.5 0 
" style="stroke: #000000; stroke-width: 0.8"/>
      </defs>
      <g>
       <use xlink:href="#m7f50ce4d73" x="99" y="576.72" style="stroke: #000000; stroke-width: 0.8"/>
      </g>
     </g>
     <g id="text_28">
      <!-- 0.0 -->
      <g transform="translate(76.096875 580.519219) scale(0.1 -0.1)">
       <defs>
        <path id="DejaVuSans-2e" d="M 684 794 
L 1344 794 
L 1344 0 
L 684 0 
L 684 794 
z
" transform="scale(0.015625)"/>
       </defs>
       <use xlink:href="#DejaVuSans-30"/>
       <use xlink:href="#DejaVuSans-2e" x="63.623047"/>
       <use xlink:href="#DejaVuSans-30" x="95.410156"/>
      </g>
     </g>
    </g>
    <g id="ytick_2">
     <g id="line2d_28">
      <g>
       <use xlink:href="#m7f50ce4d73" x="99" y="531.36" style="stroke: #000000; stroke-width: 0.8"/>
      </g>
     </g>
     <g id="text_29">
      <!-- 0.1 -->
      <g transform="translate(76.096875 535.159219) scale(0.1 -0.1)">
       <use xlink:href="#DejaVuSans-30"/>
       <use xlink:href="#DejaVuSans-2e" x="63.623047"/>
       <use xlink:href="#DejaVuSans-31" x="95.410156"/>
      </g>
     </g>
    </g>
    <g id="ytick_3">
     <g id="line2d_29">
      <g>
       <use xlink:href="#m7f50ce4d73" x="99" y="486" style="stroke: #000000; stroke-width: 0.8"/>
      </g>
     </g>
     <g id="text_30">
      <!-- 0.2 -->
      <g transform="translate(76.096875 489.799219) scale(0.1 -0.1)">
       <use xlink:href="#DejaVuSans-30"/>
       <use xlink:href="#DejaVuSans-2e" x="63.623047"/>
       <use xlink:href="#DejaVuSans-32" x="95.410156"/>
      </g>
     </g>
    </g>
    <g id="ytick_4">
     <g id="line2d_30">
      <g>
       <use xlink:href="#m7f50ce4d73" x="99" y="440.64" style="stroke: #000000; stroke-width: 0.8"/>
      </g>
     </g>
     <g id="text_31">
      <!-- 0.3 -->
      <g transform="translate(76.096875 444.439219) scale(0.1 -0.1)">
       <use xlink:href="#DejaVuSans-30"/>
       <use xlink:href="#DejaVuSans-2e" x="63.623047"/>
       <use xlink:href="#DejaVuSans-33" x="95.410156"/>
      </g>
     </g>
    </g>
    <g id="ytick_5">
     <g id="line2d_31">
      <g>
       <use xlink:href="#m7f50ce4d73" x="99" y="395.28" style="stroke: #000000; stroke-width: 0.8"/>
      </g>
     </g>
     <g id="text_32">
      <!-- 0.4 -->
      <g transform="translate(76.096875 399.079219) scale(0.1 -0.1)">
       <use xlink:href="#DejaVuSans-30"/>
       <use xlink:href="#DejaVuSans-2e" x="63.623047"/>
       <use xlink:href="#DejaVuSans-34" x="95.410156"/>
      </g>
     </g>
    </g>
    <g id="ytick_6">
     <g id="line2d_32">
      <g>
       <use xlink:href="#m7f50ce4d73" x="99" y="349.92" style="stroke: #000000; stroke-width: 0.8"/>
      </g>
     </g>
     <g id="text_33">
      <!-- 0.5 -->
      <g transform="translate(76.096875 353.719219) scale(0.1 -0.1)">
       <use xlink:href="#DejaVuSans-30"/>
       <use xlink:href="#DejaVuSans-2e" x="63.623047"/>
       <use xlink:href="#DejaVuSans-35" x="95.410156"/>
      </g>
     </g>
    </g>
    <g id="ytick_7">
     <g id="line2d_33">
      <g>
       <use xlink:href="#m7f50ce4d73" x="99" y="304.56" style="stroke: #000000; stroke-width: 0.8"/>
      </g>
     </g>
     <g id="text_34">
      <!-- 0.6 -->
      <g transform="translate(76.096875 308.359219) scale(0.1 -0.1)">
       <use xlink:href="#DejaVuSans-30"/>
       <use xlink:href="#DejaVuSans-2e" x="63.623047"/>
       <use xlink:href="#DejaVuSans-36" x="95.410156"/>
      </g>
     </g>
    </g>
    <g id="ytick_8">
     <g id="line2d_34">
      <g>
       <use xlink:href="#m7f50ce4d73" x="99" y="259.2" style="stroke: #000000; stroke-width: 0.8"/>
      </g>
     </g>
     <g id="text_35">
      <!-- 0.7 -->
      <g transform="translate(76.096875 262.999219) scale(0.1 -0.1)">
       <use xlink:href="#DejaVuSans-30"/>
       <use xlink:href="#DejaVuSans-2e" x="63.623047"/>
       <use xlink:href="#DejaVuSans-37" x="95.410156"/>
      </g>
     </g>
    </g>
    <g id="ytick_9">
     <g id="line2d_35">
      <g>
       <use xlink:href="#m7f50ce4d73" x="99" y="213.84" style="stroke: #000000; stroke-width: 0.8"/>
      </g>
     </g>
     <g id="text_36">
      <!-- 0.8 -->
      <g transform="translate(76.096875 217.639219) scale(0.1 -0.1)">
       <use xlink:href="#DejaVuSans-30"/>
       <use xlink:href="#DejaVuSans-2e" x="63.623047"/>
       <use xlink:href="#DejaVuSans-38" x="95.410156"/>
      </g>
     </g>
    </g>
    <g id="ytick_10">
     <g id="line2d_36">
      <g>
       <use xlink:href="#m7f50ce4d73" x="99" y="168.48" style="stroke: #000000; stroke-width: 0.8"/>
      </g>
     </g>
     <g id="text_37">
      <!-- 0.9 -->
      <g transform="translate(76.096875 172.279219) scale(0.1 -0.1)">
       <use xlink:href="#DejaVuSans-30"/>
       <use xlink:href="#DejaVuSans-2e" x="63.623047"/>
       <use xlink:href="#DejaVuSans-39" x="95.410156"/>
      </g>
     </g>
    </g>
    <g id="ytick_11">
     <g id="line2d_37">
      <g>
       <use xlink:href="#m7f50ce4d73" x="99" y="123.12" style="stroke: #000000; stroke-width: 0.8"/>
      </g>
     </g>
     <g id="text_38">
      <!-- 1.0 -->
      <g transform="translate(76.096875 126.919219) scale(0.1 -0.1)">
       <use xlink:href="#DejaVuSans-31"/>
       <use xlink:href="#DejaVuSans-2e" x="63.623047"/>
       <use xlink:href="#DejaVuSans-30" x="95.410156"/>
      </g>
     </g>
    </g>
    <g id="text_39">
     <!-- Likelihood of occurrence -->
     <g transform="translate(70.017187 388.151719) rotate(-90) scale(0.1 -0.1)">
      <defs>
       <path id="DejaVuSans-69" d="M 603 3500 
L 1178 3500 
L 1178 0 
L 603 0 
L 603 3500 
z
M 603 4863 
L 1178 4863 
L 1178 4134 
L 603 4134 
L 603 4863 
z
" transform="scale(0.015625)"/>
       <path id="DejaVuSans-6b" d="M 581 4863 
L 1159 4863 
L 1159 1991 
L 2875 3500 
L 3609 3500 
L 1753 1863 
L 3688 0 
L 2938 0 
L 1159 1709 
L 1159 0 
L 581 0 
L 581 4863 
z
" transform="scale(0.015625)"/>
       <path id="DejaVuSans-6c" d="M 603 4863 
L 1178 4863 
L 1178 0 
L 603 0 
L 603 4863 
z
" transform="scale(0.015625)"/>
       <path id="DejaVuSans-68" d="M 3513 2113 
L 3513 0 
L 2938 0 
L 2938 2094 
Q 2938 2591 2744 2837 
Q 2550 3084 2163 3084 
Q 1697 3084 1428 2787 
Q 1159 2491 1159 1978 
L 1159 0 
L 581 0 
L 581 4863 
L 1159 4863 
L 1159 2956 
Q 1366 3272 1645 3428 
Q 1925 3584 2291 3584 
Q 2894 3584 3203 3211 
Q 3513 2838 3513 2113 
z
" transform="scale(0.015625)"/>
       <path id="DejaVuSans-6f" d="M 1959 3097 
Q 1497 3097 1228 2736 
Q 959 2375 959 1747 
Q 959 1119 1226 758 
Q 1494 397 1959 397 
Q 2419 397 2687 759 
Q 2956 1122 2956 1747 
Q 2956 2369 2687 2733 
Q 2419 3097 1959 3097 
z
M 1959 3584 
Q 2709 3584 3137 3096 
Q 3566 2609 3566 1747 
Q 3566 888 3137 398 
Q 2709 -91 1959 -91 
Q 1206 -91 779 398 
Q 353 888 353 1747 
Q 353 2609 779 3096 
Q 1206 3584 1959 3584 
z
" transform="scale(0.015625)"/>
       <path id="DejaVuSans-64" d="M 2906 2969 
L 2906 4863 
L 3481 4863 
L 3481 0 
L 2906 0 
L 2906 525 
Q 2725 213 2448 61 
Q 2172 -91 1784 -91 
Q 1150 -91 751 415 
Q 353 922 353 1747 
Q 353 2572 751 3078 
Q 1150 3584 1784 3584 
Q 2172 3584 2448 3432 
Q 2725 3281 2906 2969 
z
M 947 1747 
Q 947 1113 1208 752 
Q 1469 391 1925 391 
Q 2381 391 2643 752 
Q 2906 1113 2906 1747 
Q 2906 2381 2643 2742 
Q 2381 3103 1925 3103 
Q 1469 3103 1208 2742 
Q 947 2381 947 1747 
z
" transform="scale(0.015625)"/>
       <path id="DejaVuSans-66" d="M 2375 4863 
L 2375 4384 
L 1825 4384 
Q 1516 4384 1395 4259 
Q 1275 4134 1275 3809 
L 1275 3500 
L 2222 3500 
L 2222 3053 
L 1275 3053 
L 1275 0 
L 697 0 
L 697 3053 
L 147 3053 
L 147 3500 
L 697 3500 
L 697 3744 
Q 697 4328 969 4595 
Q 1241 4863 1831 4863 
L 2375 4863 
z
" transform="scale(0.015625)"/>
       <path id="DejaVuSans-72" d="M 2631 2963 
Q 2534 3019 2420 3045 
Q 2306 3072 2169 3072 
Q 1681 3072 1420 2755 
Q 1159 2438 1159 1844 
L 1159 0 
L 581 0 
L 581 3500 
L 1159 3500 
L 1159 2956 
Q 1341 3275 1631 3429 
Q 1922 3584 2338 3584 
Q 2397 3584 2469 3576 
Q 2541 3569 2628 3553 
L 2631 2963 
z
" transform="scale(0.015625)"/>
      </defs>
      <use xlink:href="#DejaVuSans-4c"/>
      <use xlink:href="#DejaVuSans-69" x="55.712891"/>
      <use xlink:href="#DejaVuSans-6b" x="83.496094"/>
      <use xlink:href="#DejaVuSans-65" x="137.78125"/>
      <use xlink:href="#DejaVuSans-6c" x="199.304688"/>
      <use xlink:href="#DejaVuSans-69" x="227.087891"/>
      <use xlink:href="#DejaVuSans-68" x="254.871094"/>
      <use xlink:href="#DejaVuSans-6f" x="318.25"/>
      <use xlink:href="#DejaVuSans-6f" x="379.431641"/>
      <use xlink:href="#DejaVuSans-64" x="440.613281"/>
      <use xlink:href="#DejaVuSans-20" x="504.089844"/>
      <use xlink:href="#DejaVuSans-6f" x="535.876953"/>
      <use xlink:href="#DejaVuSans-66" x="597.058594"/>
      <use xlink:href="#DejaVuSans-20" x="632.263672"/>
      <use xlink:href="#DejaVuSans-6f" x="664.050781"/>
      <use xlink:href="#DejaVuSans-63" x="725.232422"/>
      <use xlink:href="#DejaVuSans-63" x="780.212891"/>
      <use xlink:href="#DejaVuSans-75" x="835.193359"/>
      <use xlink:href="#DejaVuSans-72" x="898.572266"/>
      <use xlink:href="#DejaVuSans-72" x="937.935547"/>
      <use xlink:href="#DejaVuSans-65" x="976.798828"/>
      <use xlink:href="#DejaVuSans-6e" x="1038.322266"/>
      <use xlink:href="#DejaVuSans-63" x="1101.701172"/>
      <use xlink:href="#DejaVuSans-65" x="1156.681641"/>
     </g>
    </g>
   </g>
   <g id="line2d_38">
    <path d="M 153.626231 576.72 
L 173.839516 575.865047 
L 174.365782 575.675058 
L 178.801612 575.295079 
L 178.866903 575.200084 
L 179.697672 574.820105 
L 180.016245 574.440126 
L 181.063149 574.155141 
L 181.798795 573.490178 
L 182.39992 573.300188 
L 183.310614 573.015204 
L 184.015866 572.825215 
L 184.30686 572.635225 
L 184.629937 572.350241 
L 185.582844 572.065257 
L 185.677403 571.875267 
L 186.532374 571.685277 
L 187.04682 571.115309 
L 187.568583 570.925319 
L 188.449446 570.165361 
L 188.454511 570.070366 
L 189.512109 569.500398 
L 190.038938 569.310408 
L 191.050944 568.74044 
L 191.85751 568.360461 
L 191.86145 568.265466 
L 192.022425 568.075476 
L 192.056196 567.885487 
L 192.679836 567.410513 
L 193.085089 566.840545 
L 193.340623 566.650555 
L 193.48415 566.460565 
L 193.821298 565.985592 
L 194.344187 565.700607 
L 194.601973 565.415623 
L 194.849627 565.035644 
L 195.253192 564.75066 
L 195.29428 564.56067 
L 195.691653 564.275686 
L 195.692215 564.180691 
L 196.105348 563.895707 
L 196.44137 563.230743 
L 196.699719 563.040754 
L 196.929363 562.660775 
L 198.139493 561.805822 
L 198.210975 561.520838 
L 198.482269 561.330848 
L 198.97589 561.045864 
L 199.638928 560.285906 
L 200.004782 560.095916 
L 200.101592 559.620942 
L 200.32223 559.430953 
L 200.648121 558.955979 
L 201.143993 558.196021 
L 201.146244 558.101026 
L 201.324105 557.911037 
L 201.509846 557.436063 
L 202.140239 557.056084 
L 202.923165 555.916147 
L 203.07007 555.346178 
L 203.312096 554.871204 
L 203.517536 554.681215 
L 203.670632 554.39623 
L 203.907029 554.016251 
L 204.266691 553.826262 
L 204.447367 553.541277 
L 204.612845 553.351288 
L 204.686578 553.161298 
L 205.6226 551.926366 
L 205.901211 551.546387 
L 206.436483 550.881424 
L 207.090516 550.311455 
L 207.23742 549.836482 
L 207.429353 549.456503 
L 207.615656 548.696545 
L 207.80984 548.506555 
L 208.100271 547.651602 
L 208.244924 547.461613 
L 208.627663 546.701654 
L 208.910777 546.41667 
L 209.172503 545.846702 
L 209.365561 545.466723 
L 209.962746 544.136796 
L 210.22616 543.851812 
L 210.676441 543.186848 
L 210.866122 542.901864 
L 210.987135 542.61688 
L 211.193702 542.141906 
L 211.510024 541.571937 
L 211.859555 541.191958 
L 212.85749 539.292063 
L 213.140041 538.43711 
L 213.248672 538.057131 
L 213.357302 537.772147 
L 213.447358 537.487162 
L 213.586945 537.297173 
L 213.63141 537.012188 
L 213.752423 536.822199 
L 214.022029 536.25223 
L 214.293886 535.872251 
L 214.334412 535.587267 
L 214.446419 535.397277 
L 214.530847 535.112293 
L 214.883192 534.637319 
L 215.113961 534.25734 
L 215.4376 533.117403 
L 215.610395 532.927414 
L 215.754485 532.547435 
L 215.876061 532.357445 
L 215.934598 531.882471 
L 216.209832 531.597487 
L 216.237412 531.407497 
L 216.353922 531.217508 
L 216.569494 530.45755 
L 217.316397 528.652649 
L 217.565741 528.46266 
L 217.838723 527.892691 
L 217.987879 527.417717 
L 218.454483 526.562764 
L 219.127653 524.567874 
L 219.405701 524.28289 
L 219.407953 524.187895 
L 219.644913 523.902911 
L 219.720898 523.522932 
L 219.843037 523.332942 
L 219.959547 522.952963 
L 220.271367 522.47799 
L 220.335532 522.003016 
L 220.48919 521.718031 
L 221.015456 519.818136 
L 221.241159 519.533152 
L 221.455606 518.678199 
L 221.654855 518.203225 
L 221.721271 518.013236 
L 221.922209 517.728251 
L 222.021271 517.348272 
L 222.426524 516.778304 
L 222.593691 516.398325 
L 223.201007 514.688419 
L 223.533089 513.643476 
L 223.923708 513.453487 
L 224.089187 512.693529 
L 224.089749 512.598534 
L 224.243408 512.408545 
L 224.509636 511.268607 
L 224.720143 510.508649 
L 224.986934 508.988733 
L 225.08881 508.608754 
L 225.180555 508.038785 
L 225.366296 507.848796 
L 225.463669 507.373822 
L 225.571737 506.993843 
L 225.674176 506.518869 
L 225.940967 505.758911 
L 226.034963 505.473927 
L 226.155413 505.093948 
L 226.264044 504.808963 
L 226.367046 504.238995 
L 226.491998 503.95401 
L 226.57924 503.384042 
L 226.722205 502.719079 
L 227.40832 500.724188 
L 227.638526 500.15422 
L 227.769108 499.679246 
L 227.912635 499.299267 
L 228.0162 499.014283 
L 228.11301 498.729298 
L 228.210946 498.349319 
L 228.488995 497.494366 
L 228.658413 496.544419 
L 229.20663 494.739518 
L 229.279238 494.359539 
L 229.405317 494.074555 
L 230.138712 491.699686 
L 230.270419 491.509696 
L 231.128767 488.564859 
L 231.28524 488.279874 
L 231.477172 487.424921 
L 231.582425 486.949948 
L 231.733832 486 
L 231.807566 485.715016 
L 232.063663 484.385089 
L 232.276421 483.340147 
L 232.46779 482.675183 
L 232.58824 482.390199 
L 232.661411 482.01022 
L 232.946214 480.775288 
L 233.009816 480.490304 
L 233.121823 479.920335 
L 233.197245 479.540356 
L 233.404937 478.685403 
L 233.502874 478.305424 
L 233.757282 477.355476 
L 233.874918 477.070492 
L 234.183361 475.930555 
L 234.365725 474.885613 
L 234.485049 474.220649 
L 234.577919 474.03066 
L 234.749026 472.510743 
L 235.011315 471.84578 
L 235.217881 469.85089 
L 235.301183 469.565906 
L 235.392365 468.900942 
L 235.670977 468.330974 
L 235.795367 467.571016 
L 235.976042 467.001047 
L 236.099306 466.811058 
L 236.213565 466.526073 
L 236.420132 465.006157 
L 236.525948 464.626178 
L 236.673978 464.341194 
L 236.770225 464.056209 
L 236.914878 463.201257 
L 237.135516 461.87133 
L 237.259906 461.301361 
L 237.469286 460.446408 
L 237.588611 460.066429 
L 237.832888 459.211476 
L 238.623131 454.366743 
L 238.771161 453.036817 
L 238.887109 452.371853 
L 238.987859 452.086869 
L 239.46966 448.667058 
L 239.559716 448.192084 
L 239.724631 447.242136 
L 239.833824 446.957152 
L 239.972286 446.292188 
L 240.20812 445.627225 
L 240.339828 444.962262 
L 240.947144 441.922429 
L 241.078851 440.687497 
L 241.356337 439.357571 
L 242.059901 434.797822 
L 242.354272 432.707937 
L 242.467405 432.327958 
L 242.654272 431.093026 
L 243.02688 429.478115 
L 243.161401 428.338178 
L 243.52444 426.153298 
L 243.64095 424.823372 
L 243.743952 424.538387 
L 243.875659 423.968419 
L 244.019749 423.493445 
L 244.217873 422.163518 
L 244.50549 419.788649 
L 244.669842 419.313675 
L 244.787478 418.838702 
L 245.111118 416.938806 
L 245.192168 416.463832 
L 245.402675 414.943916 
L 245.492731 414.088963 
L 245.61487 413.424 
L 245.740948 412.474052 
L 246.831754 406.679372 
L 246.934756 406.204398 
L 247.049015 405.44444 
L 247.219558 404.589487 
L 247.453705 403.44955 
L 247.515055 403.069571 
L 248.993666 395.374995 
L 249.125936 394.900021 
L 249.27678 393.855079 
L 249.340382 393.475099 
L 249.470401 392.715141 
L 249.625748 392.050178 
L 249.732126 391.385215 
L 250.21843 388.060398 
L 250.377717 387.30044 
L 250.569086 385.590534 
L 250.79479 383.975623 
L 250.857266 383.690639 
L 251.186534 382.170723 
L 251.265896 381.790743 
L 251.502294 380.840796 
L 251.60417 380.650806 
L 251.697603 380.270827 
L 251.841693 379.890848 
L 251.909798 379.605864 
L 252.046571 378.655916 
L 252.738315 375.806073 
L 253.096288 373.716188 
L 253.227996 373.241215 
L 253.833061 369.251435 
L 253.93156 369.061445 
L 254.023867 368.016503 
L 254.18428 367.16155 
L 254.507356 365.831623 
L 254.944129 363.931728 
L 255.040377 363.646743 
L 255.253697 362.696796 
L 255.37865 362.411812 
L 255.464204 361.651853 
L 255.768143 360.701906 
L 255.935873 360.036942 
L 256.254447 358.612021 
L 256.461013 357.567079 
L 257.810167 351.867393 
L 257.896847 351.392419 
L 257.962137 351.107435 
L 258.136058 350.347476 
L 258.272831 349.777508 
L 258.93587 346.167707 
L 259.045063 345.692733 
L 259.199284 344.552796 
L 259.346189 344.267812 
L 259.487464 343.507853 
L 259.690654 342.84289 
L 259.801535 342.652901 
L 260.128552 341.322974 
L 260.395343 339.993047 
L 260.572079 339.328084 
L 260.896281 337.808168 
L 261.040371 337.523183 
L 261.482209 336.003267 
L 261.894779 333.723393 
L 262.161008 333.248419 
L 262.400219 332.013487 
L 262.463259 331.728503 
L 262.838681 330.113592 
L 262.975453 329.733613 
L 263.072264 328.973654 
L 263.19384 328.498681 
L 263.731925 325.363853 
L 264.604908 321.754052 
L 264.766446 321.279079 
L 264.840742 320.804105 
L 265.018603 319.854157 
L 265.175076 319.189194 
L 265.329297 318.904209 
L 266.143743 316.339351 
L 266.410535 316.054366 
L 266.542805 315.294408 
L 266.705469 314.439455 
L 266.865881 314.059476 
L 267.794023 310.829654 
L 268.040552 310.54467 
L 268.130608 310.069696 
L 268.224604 309.879707 
L 268.381077 309.404733 
L 268.534172 309.024754 
L 268.674885 308.54978 
L 268.804341 308.359791 
L 268.841489 308.074806 
L 268.948431 307.884817 
L 269.045241 307.409843 
L 269.257436 307.219853 
L 269.39646 306.74488 
L 269.487642 306.459895 
L 269.636798 305.889927 
L 269.787079 305.509948 
L 269.865878 305.129969 
L 270.155184 304.74999 
L 270.273383 304.275016 
L 272.021599 298.290346 
L 272.154994 298.005361 
L 272.245613 297.435393 
L 272.44824 297.055414 
L 272.787639 295.535497 
L 273.212592 294.870534 
L 273.388201 294.205571 
L 273.594205 293.920586 
L 274.77957 291.545717 
L 274.877506 291.165738 
L 275.556867 289.360838 
L 275.622721 289.170848 
L 275.903021 288.790869 
L 276.000957 288.505885 
L 276.204709 287.840921 
L 276.36681 287.555937 
L 276.530037 287.365948 
L 277.481819 284.991079 
L 277.852738 284.706094 
L 278.44148 283.186178 
L 278.586133 282.901194 
L 278.653112 282.616209 
L 278.846733 282.42622 
L 278.858553 282.23623 
L 279.045419 281.951246 
L 279.380316 281.001298 
L 279.95949 279.956356 
L 280.137914 279.006408 
L 280.740727 277.391497 
L 280.883691 277.201508 
L 281.008644 276.916524 
L 282.36793 273.401717 
L 282.532846 272.831749 
L 282.674684 272.641759 
L 284.18988 270.076901 
L 284.323275 269.696921 
L 284.435846 269.506932 
L 284.739222 268.651979 
L 284.897947 268.366995 
L 285.125901 268.08201 
L 285.381999 267.702031 
L 285.681998 267.132063 
L 285.878996 266.847079 
L 285.912204 266.752084 
L 286.08106 266.562094 
L 286.102448 266.372105 
L 286.316332 266.08712 
L 286.417082 265.802136 
L 286.656857 265.612147 
L 286.845975 264.852188 
L 287.359858 263.807246 
L 287.644661 263.047288 
L 288.036405 262.762304 
L 288.136593 262.572314 
L 288.297568 262.382325 
L 288.506386 261.622366 
L 288.925147 261.432377 
L 289.039969 260.957403 
L 289.263421 260.482429 
L 289.352351 260.10245 
L 289.428899 259.817466 
L 289.570738 259.437487 
L 289.694565 259.152503 
L 289.925897 258.867518 
L 290.097566 258.487539 
L 290.276553 258.10756 
L 290.462857 257.917571 
L 290.770174 257.157613 
L 291.107321 255.922681 
L 291.248034 255.352712 
L 292.851597 252.12289 
L 293.243342 251.267937 
L 293.382929 251.077948 
L 293.471297 250.602974 
L 293.713886 250.222995 
L 293.999251 249.558031 
L 294.252534 249.178052 
L 294.394936 248.513089 
L 296.224202 243.763351 
L 296.539399 243.478366 
L 296.751031 243.003393 
L 297.225515 242.623414 
L 297.564351 241.673466 
L 297.685364 241.293487 
L 297.872793 240.818513 
L 297.976358 240.628524 
L 297.995495 240.438534 
L 298.449716 240.15355 
L 298.553281 239.868565 
L 298.732267 239.583581 
L 299.027201 238.728628 
L 299.404312 238.443644 
L 299.467351 238.15866 
L 299.647463 237.873675 
L 299.700371 237.683686 
L 300.202435 237.398702 
L 300.517631 236.828733 
L 300.617256 236.543749 
L 300.727575 236.258764 
L 301.029263 236.068775 
L 301.158719 235.498806 
L 301.261158 235.213822 
L 301.3484 234.643853 
L 301.834703 233.313927 
L 301.963033 233.123937 
L 302.085735 232.838953 
L 302.17354 232.553969 
L 302.180294 232.458974 
L 302.463971 232.17399 
L 302.53489 231.699016 
L 302.731888 231.129047 
L 302.846147 230.939058 
L 303.270537 229.98911 
L 303.369036 229.79912 
L 303.397741 229.609131 
L 303.501306 229.419141 
L 303.512 229.229152 
L 303.667347 229.039162 
L 304.239204 227.614241 
L 304.422131 227.329257 
L 304.530761 226.949277 
L 304.741267 226.759288 
L 305.197177 225.144377 
L 305.380666 224.954387 
L 305.407683 224.764398 
L 305.788733 224.574408 
L 306.172035 223.81445 
L 306.394924 223.149487 
L 306.578977 222.579518 
L 306.95665 222.294534 
L 307.265092 221.344586 
L 307.357963 221.154597 
L 307.877474 219.729675 
L 308.063215 219.349696 
L 308.301301 218.874723 
L 308.816873 217.924775 
L 308.908055 217.544796 
L 308.946892 217.354806 
L 309.215935 217.164817 
L 309.340325 216.784838 
L 309.555897 216.119874 
L 309.793983 215.929885 
L 309.935821 215.549906 
L 310.039386 215.359916 
L 310.789104 213.365026 
L 310.870154 212.795058 
L 310.962462 212.510073 
L 311.055332 212.320084 
L 311.224751 212.035099 
L 311.44764 210.895162 
L 311.630004 210.610178 
L 311.763399 210.135204 
L 311.894544 209.945215 
L 312.282911 208.900272 
L 312.370153 208.710283 
L 312.456832 208.330304 
L 312.627376 208.140314 
L 312.800171 207.570346 
L 312.980284 207.380356 
L 313.099045 207.095372 
L 313.330377 206.905382 
L 313.473341 206.620398 
L 314.199982 204.815497 
L 314.328875 204.625508 
L 314.597918 203.86555 
L 314.734128 203.67556 
L 314.815742 203.390576 
L 314.939006 203.105592 
L 315.206923 202.535623 
L 315.460769 202.155644 
L 315.707861 201.965654 
L 315.844634 201.585675 
L 316.198104 200.635728 
L 316.320806 200.065759 
L 316.408048 199.87577 
L 316.730562 199.590785 
L 317.157766 198.735832 
L 317.391349 198.450848 
L 318.329059 196.170974 
L 318.431498 195.696 
L 318.591348 195.50601 
L 318.772023 195.126031 
L 319.289283 194.176084 
L 319.323617 193.891099 
L 319.462642 193.70111 
L 319.478964 193.51112 
L 319.932059 193.131141 
L 320.049133 192.656168 
L 320.367706 192.276188 
L 320.4375 191.991204 
L 320.854573 191.611225 
L 321.208043 190.566283 
L 321.257574 190.281298 
L 321.533371 189.901319 
L 321.668456 189.616335 
L 321.948193 189.331351 
L 322.17671 188.761382 
L 322.480087 188.381403 
L 322.803164 187.906429 
L 322.920237 187.71644 
L 323.242188 187.241466 
L 323.430743 186.956482 
L 323.615358 186.766492 
L 323.918172 185.816545 
L 324.035245 185.341571 
L 324.401098 185.056586 
L 324.55138 184.391623 
L 324.704475 184.011644 
L 325.226801 183.631665 
L 325.247064 183.53667 
L 325.471079 183.346681 
L 325.972579 182.396733 
L 326.081772 182.206743 
L 326.188714 181.826764 
L 326.794342 180.401843 
L 327.195655 180.116859 
L 327.362259 179.451895 
L 327.619482 179.261906 
L 327.939744 178.596942 
L 328.066386 178.216963 
L 328.141808 177.836984 
L 328.287023 177.646995 
L 328.412539 177.077026 
L 328.535241 176.792042 
L 328.821732 176.222073 
L 329.02267 175.937089 
L 329.19828 175.36712 
L 329.4707 174.987141 
L 330.012162 174.037194 
L 330.22886 173.752209 
L 330.2722 173.467225 
L 330.712349 173.277236 
L 330.719104 173.182241 
L 331.048372 172.897257 
L 331.29096 172.517277 
L 331.31066 172.327288 
L 331.434488 172.137298 
L 331.469947 171.852314 
L 331.885894 171.37734 
L 331.889834 171.282346 
L 332.991897 170.332398 
L 333.151184 169.857424 
L 333.439364 169.477445 
L 333.747806 169.287455 
L 333.855874 169.097466 
L 334.091708 168.907476 
L 334.355685 168.337508 
L 334.683265 167.957529 
L 334.788518 167.672545 
L 335.508405 166.912586 
L 335.758311 166.152628 
L 335.908592 165.772649 
L 335.999211 165.297675 
L 336.176509 165.107686 
L 336.258686 164.727707 
L 336.632419 164.252733 
L 336.680261 164.157738 
L 336.932981 163.967749 
L 337.284763 163.112796 
L 337.522849 162.922806 
L 337.536358 162.827812 
L 338.017596 162.352838 
L 338.333918 161.877864 
L 339.283448 161.022911 
L 339.370127 160.832921 
L 339.545174 160.452942 
L 339.900333 160.167958 
L 340.049489 159.787979 
L 340.171065 159.59799 
L 340.241421 159.313005 
L 340.57688 159.123016 
L 340.758681 158.933026 
L 341.232602 158.553047 
L 341.272002 158.363058 
L 341.808962 157.983079 
L 341.906898 157.793089 
L 343.311212 156.558157 
L 343.525095 156.178178 
L 344.163368 155.513215 
L 344.617027 155.22823 
L 344.803893 154.848251 
L 344.900704 154.658262 
L 346.009521 153.42333 
L 346.590383 153.23334 
L 346.702953 152.948356 
L 347.015336 152.663372 
L 347.265242 152.378387 
L 347.378375 151.903414 
L 347.739162 151.713424 
L 349.956796 149.718534 
L 350.309704 149.43355 
L 350.742537 148.958576 
L 350.862424 148.578597 
L 351.811954 148.103623 
L 351.891316 147.913634 
L 352.47837 147.723644 
L 352.663548 147.533654 
L 353.088501 147.343665 
L 353.163923 147.24867 
L 353.920395 147.058681 
L 354.717392 146.298723 
L 354.979118 146.013738 
L 355.403508 145.823749 
L 355.507072 145.728754 
L 356.121706 145.538764 
L 356.386809 145.348775 
L 358.604443 144.303832 
L 358.633148 144.208838 
L 359.044593 144.018848 
L 359.574236 143.543874 
L 359.625455 143.44888 
L 360.138775 143.25889 
L 360.14553 143.163895 
L 360.7793 142.973906 
L 361.396185 142.403937 
L 361.722639 142.213948 
L 361.836898 141.928963 
L 361.875171 141.833969 
L 362.144777 141.643979 
L 362.448154 141.07401 
L 362.617009 140.884021 
L 362.879861 140.504042 
L 363.07123 140.314052 
L 363.962787 140.029068 
L 364.285863 139.839079 
L 364.510441 139.649089 
L 364.903874 139.459099 
L 364.961285 139.364105 
L 365.804999 139.07912 
L 367.355654 138.129173 
L 367.393928 137.939183 
L 368.884921 137.27422 
L 370.080417 137.08423 
L 370.081543 136.989236 
L 370.439516 136.799246 
L 370.498615 136.609257 
L 371.136326 136.324272 
L 371.264656 136.134283 
L 372.010434 135.944293 
L 372.932384 135.184335 
L 372.985292 134.994346 
L 373.492421 134.804356 
L 373.61456 134.709361 
L 374.171783 134.519372 
L 374.208931 134.424377 
L 376.259961 133.569424 
L 376.300486 133.474429 
L 376.749078 133.28444 
L 376.902737 133.09445 
L 377.439697 132.904461 
L 377.631066 132.619476 
L 378.2063 132.334492 
L 378.721872 132.144503 
L 378.995418 131.859518 
L 380.370463 131.479539 
L 381.866522 131.194555 
L 382.126559 131.09956 
L 382.889786 130.909571 
L 384.901416 130.529592 
L 386.274773 130.339602 
L 386.417174 130.054618 
L 387.114547 129.864628 
L 387.836685 129.674639 
L 387.849068 129.579644 
L 390.728615 129.009675 
L 391.334243 128.724691 
L 392.756005 128.534702 
L 395.32711 128.249717 
L 398.354124 128.059728 
L 399.561439 127.869738 
L 399.994835 127.774743 
L 402.232169 127.584754 
L 404.675506 127.014785 
L 406.599331 126.824796 
L 406.630288 126.729801 
L 406.884697 126.634806 
L 410.961991 126.444817 
L 417.475306 125.684859 
L 422.759916 125.494869 
L 423.466295 125.399874 
L 428.090118 125.11489 
L 428.182425 124.924901 
L 434.337767 124.639916 
L 447.714489 123.974953 
L 464.287081 123.784963 
L 477.140352 123.594974 
L 534.819097 123.214995 
L 604.913214 123.12 
L 604.913214 123.12 
" clip-path="url(#p50b322fc18)" style="fill: none; stroke: #ff0000; stroke-width: 1.5; stroke-linecap: square"/>
   </g>
   <g id="line2d_39">
    <path d="M 157.68664 576.72 
L 160.047409 576.62316 
L 167.663912 576.429479 
L 175.007432 575.751597 
L 178.793733 575.557916 
L 179.900298 575.267395 
L 181.171779 575.073715 
L 181.382848 574.880034 
L 182.757894 574.589513 
L 182.780971 574.492673 
L 182.961083 574.395833 
L 183.755829 574.202152 
L 183.903859 574.105312 
L 185.986409 573.814791 
L 186.001606 573.71795 
L 186.271774 573.52427 
L 187.688471 573.330589 
L 192.364076 572.265346 
L 192.96689 571.974825 
L 194.666138 571.587464 
L 194.911541 571.393783 
L 195.701784 571.103262 
L 195.857694 570.909582 
L 196.098031 570.619061 
L 196.128425 570.52222 
L 197.58227 570.134859 
L 197.609287 570.038019 
L 198.535177 569.650658 
L 198.53574 569.553817 
L 198.961256 569.263296 
L 199.677765 569.069616 
L 201.335362 568.488574 
L 201.63705 568.198053 
L 201.641553 568.101213 
L 202.297838 567.713851 
L 202.871946 567.520171 
L 203.028981 567.42333 
L 204.034234 567.13281 
L 204.068568 566.939129 
L 204.604402 566.648608 
L 205.211719 566.454927 
L 205.262938 566.358087 
L 206.630104 565.970726 
L 206.802336 565.680205 
L 206.831604 565.583365 
L 207.129353 565.389684 
L 207.132167 565.292844 
L 207.642673 565.099163 
L 207.91847 564.808642 
L 207.922973 564.711802 
L 208.154305 564.518121 
L 208.166688 564.421281 
L 209.563122 563.549718 
L 209.719594 563.356038 
L 210.295391 563.065517 
L 211.660868 562.387635 
L 211.741356 562.290794 
L 212.229348 562.097114 
L 212.734225 561.419231 
L 213.687696 561.225551 
L 214.159928 560.644509 
L 214.443605 560.450828 
L 214.779627 560.257148 
L 214.978876 559.966627 
L 215.569307 559.676106 
L 215.603641 559.579266 
L 216.060114 559.288745 
L 216.334785 558.707703 
L 216.926342 558.417182 
L 216.95167 558.223501 
L 217.726716 557.83614 
L 219.939284 556.189855 
L 219.953918 556.093015 
L 220.403074 555.705653 
L 220.415456 555.608813 
L 220.683374 555.318292 
L 220.864612 554.930931 
L 221.173054 554.64041 
L 221.681309 554.349889 
L 222.166487 553.962528 
L 222.286374 553.672007 
L 222.527274 553.381486 
L 222.814891 552.994125 
L 222.999507 552.800444 
L 223.18187 552.413083 
L 223.691251 551.928881 
L 223.915265 551.54152 
L 224.072864 551.154159 
L 224.453351 550.960478 
L 224.4708 550.863638 
L 224.903632 550.573117 
L 224.916578 550.476277 
L 225.375864 549.992075 
L 225.62577 549.604714 
L 225.714138 549.411033 
L 226.008509 549.120512 
L 226.23365 548.733151 
L 226.373237 548.44263 
L 226.412636 548.34579 
L 226.721079 548.152109 
L 226.752599 548.055269 
L 226.90288 547.861588 
L 226.92258 547.764748 
L 227.135337 547.571067 
L 227.252411 547.280547 
L 227.514136 546.699505 
L 228.127644 546.312143 
L 228.765355 546.021623 
L 228.894248 545.537421 
L 229.177362 545.34374 
L 229.305692 545.15006 
L 229.556724 544.472178 
L 229.628768 544.278497 
L 229.86798 543.987976 
L 229.887117 543.891136 
L 230.106066 543.697455 
L 230.396498 542.632212 
L 230.574921 542.14801 
L 230.855784 541.566968 
L 231.408504 540.501725 
L 231.640962 540.308044 
L 231.657847 540.211204 
L 231.880173 540.017523 
L 232.169479 539.339641 
L 232.368728 539.145961 
L 232.466664 538.661759 
L 232.562912 538.371238 
L 232.674357 538.080717 
L 232.84884 537.693356 
L 233.104375 537.499675 
L 233.310378 537.209155 
L 233.597995 536.918634 
L 234.53852 535.272348 
L 234.653904 535.078668 
L 234.760283 534.594466 
L 234.933079 534.400786 
L 235.156531 533.626063 
L 235.486924 533.045021 
L 235.619194 532.7545 
L 235.755967 532.46398 
L 235.958594 532.270299 
L 236.086924 531.979778 
L 236.597993 530.914535 
L 236.814127 530.527173 
L 237.376979 529.849291 
L 237.481106 529.655611 
L 237.808686 529.36509 
L 238.10756 528.396687 
L 238.342269 528.106166 
L 238.495364 527.331443 
L 238.558966 526.944082 
L 238.63664 526.653561 
L 238.847146 526.36304 
L 238.977728 526.16936 
L 239.088047 525.588318 
L 239.783168 524.426234 
L 240.437764 522.973629 
L 240.536826 522.586268 
L 240.777163 522.295747 
L 241.131759 521.327344 
L 241.315812 521.133664 
L 241.450896 520.552622 
L 241.85446 519.584219 
L 241.90962 519.293698 
L 242.037387 519.100017 
L 242.131383 518.615816 
L 242.317687 518.131614 
L 242.433071 517.937933 
L 242.885041 516.77585 
L 243.017311 516.582169 
L 243.340388 515.613766 
L 243.569468 514.839044 
L 243.750706 514.645363 
L 243.861588 514.258002 
L 244.052395 513.967481 
L 244.445265 512.708557 
L 244.562338 512.514876 
L 244.655771 512.030675 
L 244.911306 511.255952 
L 245.044701 510.67491 
L 245.231005 510.093868 
L 245.462337 509.706507 
L 245.568153 509.512827 
L 245.937946 508.834944 
L 246.137758 508.641264 
L 246.591979 507.963382 
L 246.659521 507.769701 
L 246.848077 507.47918 
L 246.961773 507.091819 
L 247.197044 505.929735 
L 247.321435 505.542374 
L 247.728376 504.670811 
L 247.974905 503.702408 
L 248.121246 503.315047 
L 248.200608 503.024526 
L 248.373404 502.637165 
L 248.829313 501.475081 
L 248.993103 501.08772 
L 249.163647 500.700359 
L 249.181095 500.506678 
L 249.340945 500.216157 
L 249.443384 499.828796 
L 249.595916 499.538275 
L 249.692727 499.247754 
L 250.0901 498.279351 
L 250.168899 497.89199 
L 250.266835 497.214108 
L 250.430062 496.923587 
L 250.651263 496.729906 
L 250.905108 495.955184 
L 250.978279 495.761503 
L 251.057641 495.664663 
L 251.125746 495.277301 
L 251.20342 494.986781 
L 252.085407 492.953134 
L 252.169272 492.662613 
L 252.338691 492.372092 
L 252.428184 492.081571 
L 252.635876 491.79105 
L 252.866082 491.403689 
L 253.044506 491.016328 
L 253.139065 490.822647 
L 253.264581 490.338446 
L 253.77171 488.207959 
L 253.961391 487.917438 
L 254.227056 486.949035 
L 254.43306 486.561674 
L 254.680715 486.271153 
L 254.903604 485.786951 
L 255.292534 485.30275 
L 255.389344 484.818548 
L 255.544691 484.528027 
L 255.776023 484.140666 
L 256.475084 482.20386 
L 256.542626 481.719658 
L 256.74075 481.429137 
L 257.031181 480.460734 
L 257.148817 479.879693 
L 257.341875 479.589172 
L 257.539436 479.00813 
L 257.666078 478.620769 
L 257.735871 478.233407 
L 258.502475 475.425038 
L 258.801911 475.037677 
L 258.857634 474.747156 
L 258.977521 474.456635 
L 259.082774 473.778753 
L 259.274144 473.391392 
L 259.358571 473.100871 
L 259.482961 472.326149 
L 259.845438 472.035628 
L 259.970953 471.745107 
L 260.140372 471.454586 
L 260.348064 471.067225 
L 261.392716 468.839898 
L 261.572828 468.452536 
L 261.63249 468.162015 
L 261.938119 467.871494 
L 262.16551 467.387293 
L 262.201533 467.290453 
L 262.587086 467.096772 
L 262.985022 466.51573 
L 263.074515 465.837848 
L 263.406597 465.256806 
L 263.518042 464.772605 
L 263.599655 463.997882 
L 263.872638 463.32 
L 263.961569 462.738958 
L 264.190086 462.254757 
L 264.414101 461.673715 
L 265.051812 460.802152 
L 265.538678 458.768506 
L 265.652937 458.381144 
L 265.860629 457.509582 
L 266.03849 457.315901 
L 266.183143 457.02538 
L 266.535488 456.444338 
L 266.752748 455.960137 
L 266.81635 455.475935 
L 267.006031 455.282254 
L 267.121979 455.088574 
L 267.502466 454.02333 
L 267.775449 453.442289 
L 269.296836 449.181315 
L 269.409406 448.987635 
L 269.487079 448.697114 
L 269.567004 448.406593 
L 269.800025 448.116072 
L 269.93736 447.728711 
L 270.318974 446.372946 
L 270.631919 446.082425 
L 270.740549 445.404543 
L 271.012406 445.210863 
L 271.055746 444.726661 
L 271.33886 444.43614 
L 271.468316 443.758258 
L 271.821224 443.080376 
L 272.072818 442.886695 
L 272.399835 442.015132 
L 272.899084 441.24041 
L 273.045425 440.853049 
L 273.347113 439.884646 
L 273.529477 439.690965 
L 273.68595 439.303604 
L 273.703398 439.206763 
L 273.944861 438.916243 
L 274.163248 438.335201 
L 274.400208 438.14152 
L 274.72441 437.366798 
L 274.948425 437.173117 
L 275.048613 436.688915 
L 275.170751 436.398395 
L 275.526473 435.817353 
L 275.997017 434.461588 
L 276.006023 434.364748 
L 276.241294 434.074227 
L 276.478818 433.686866 
L 277.206584 433.008984 
L 277.314652 432.427942 
L 277.543732 432.040581 
L 277.706959 431.459539 
L 277.994013 431.072178 
L 277.999642 430.975337 
L 278.38632 430.781657 
L 278.81859 430.297455 
L 278.875438 430.103775 
L 279.130973 429.910094 
L 279.200203 429.619573 
L 279.435475 429.329052 
L 279.566057 429.038531 
L 279.576751 428.74801 
L 279.764743 428.457489 
L 280.569058 427.489086 
L 280.684442 427.198565 
L 280.966431 427.004885 
L 281.300201 426.617523 
L 282.10339 424.002835 
L 282.322902 423.809155 
L 282.417461 423.518634 
L 282.772057 422.840751 
L 282.799637 422.647071 
L 282.971307 422.45339 
L 283.049543 422.25971 
L 283.16155 421.969189 
L 283.333783 421.484987 
L 283.621963 420.807105 
L 283.724402 420.613424 
L 284.410517 419.451341 
L 284.548416 418.773459 
L 284.930592 418.095576 
L 285.112393 417.901896 
L 285.755732 416.642972 
L 285.863236 416.352451 
L 286.029278 416.15877 
L 286.207701 415.674569 
L 286.915768 414.706166 
L 287.116143 414.512485 
L 287.129089 414.415645 
L 287.411077 414.125124 
L 287.644098 413.834603 
L 287.85179 413.156721 
L 288.121396 412.96304 
L 288.163047 412.8662 
L 288.558168 412.575679 
L 288.686498 412.381998 
L 288.791189 412.188318 
L 288.804134 412.091477 
L 288.954978 411.897797 
L 289.893251 409.089428 
L 290.015953 408.992588 
L 290.097566 408.411546 
L 290.308636 408.024184 
L 290.647472 406.76526 
L 290.872613 406.47474 
L 290.9925 406.087378 
L 291.121393 405.893698 
L 291.131524 405.796857 
L 291.363419 405.506336 
L 291.449535 405.215816 
L 291.631336 404.537933 
L 291.91445 404.247412 
L 292.076551 403.860051 
L 293.623267 399.114876 
L 293.803942 398.921196 
L 293.841653 398.533834 
L 294.193435 398.146473 
L 294.448969 397.27491 
L 294.576174 397.08123 
L 294.685367 396.693868 
L 294.848031 396.403348 
L 294.960038 396.015986 
L 295.106942 395.822306 
L 295.17561 395.338104 
L 295.440713 395.047583 
L 295.460976 394.950743 
L 295.669794 394.757062 
L 295.754221 394.272861 
L 295.91182 393.98234 
L 296.481425 392.432895 
L 296.83377 391.464492 
L 297.068479 390.78661 
L 297.191181 390.592929 
L 297.571668 389.334005 
L 297.705627 389.140325 
L 297.833394 388.559283 
L 298.141273 387.78456 
L 298.252155 387.494039 
L 298.338834 387.203518 
L 298.473356 387.009838 
L 299.307501 384.68567 
L 299.489865 384.395149 
L 300.199058 382.361503 
L 300.34371 382.070982 
L 302.206185 377.132126 
L 302.39868 376.938446 
L 302.555153 376.454244 
L 302.790425 375.873202 
L 302.976166 375.09848 
L 303.146147 374.517438 
L 303.316128 373.839556 
L 303.412375 373.645875 
L 303.541268 372.967993 
L 303.718004 372.483792 
L 303.863219 371.709069 
L 303.990986 371.128027 
L 304.166596 370.062784 
L 304.444645 369.578582 
L 304.760967 368.9007 
L 304.886483 368.610179 
L 305.019879 368.125978 
L 305.220254 367.932297 
L 306.177101 364.736567 
L 306.359465 364.542886 
L 307.300552 361.637677 
L 307.721565 360.669274 
L 307.740139 360.475594 
L 307.990045 360.281913 
L 308.254022 359.41035 
L 308.326067 359.022989 
L 308.681789 358.248266 
L 308.869218 357.667225 
L 309.401676 356.698822 
L 309.493983 356.31146 
L 310.201487 354.180974 
L 310.302238 353.987293 
L 310.434508 353.503091 
L 311.41218 350.597882 
L 311.497734 350.307361 
L 311.798859 349.145278 
L 312.050453 348.176874 
L 312.89867 345.465346 
L 313.045574 344.690623 
L 313.122122 344.593783 
L 313.236381 344.012741 
L 313.419871 343.334859 
L 313.431128 343.238019 
L 313.639383 343.044338 
L 313.859457 342.075935 
L 314.109926 341.785414 
L 314.324373 341.398053 
L 314.546699 341.107532 
L 314.738631 340.720171 
L 314.847824 340.42965 
L 315.155704 340.042289 
L 315.294165 339.461247 
L 315.531126 337.524441 
L 315.722495 336.556038 
L 315.830562 336.362357 
L 315.996041 335.781315 
L 316.101857 335.393954 
L 316.195853 334.909752 
L 316.29998 334.522391 
L 316.42831 334.13503 
L 316.607297 333.457148 
L 316.727747 333.166627 
L 316.861143 332.876106 
L 317.142006 332.198224 
L 317.327184 332.004543 
L 317.543882 331.13298 
L 317.627184 330.745619 
L 317.734125 330.358258 
L 317.864144 330.164577 
L 317.973337 329.389855 
L 318.209735 328.324611 
L 318.331873 328.034091 
L 318.489472 327.74357 
L 318.750072 326.775167 
L 318.934124 326.484646 
L 319.048946 326.097284 
L 319.202041 325.419402 
L 319.422116 324.547839 
L 319.520615 324.257319 
L 319.760953 323.773117 
L 319.882529 323.385756 
L 320.193785 322.514193 
L 320.471271 321.64263 
L 320.612547 321.158429 
L 320.810107 320.867908 
L 320.959826 320.577387 
L 321.299788 320.093185 
L 321.519863 318.737421 
L 321.676898 318.35006 
L 321.778212 317.865858 
L 323.103163 312.636482 
L 323.167891 312.24912 
L 323.355321 311.377558 
L 323.619861 310.699675 
L 324.225489 308.084987 
L 324.354382 307.697626 
L 324.804663 306.632383 
L 324.922299 306.245021 
L 325.063011 305.9545 
L 325.588714 304.501896 
L 325.70241 304.211375 
L 326.04575 302.56509 
L 326.291716 302.177728 
L 327.050439 298.981998 
L 327.152315 298.497797 
L 327.245186 298.304116 
L 327.317231 297.626234 
L 327.489463 297.238873 
L 327.651564 296.36731 
L 327.890776 295.786268 
L 328.002221 295.011546 
L 328.223421 294.043143 
L 328.383834 293.558941 
L 328.46207 293.36526 
L 328.64162 293.17158 
L 328.776141 292.784219 
L 328.981582 292.396857 
L 329.100343 292.009496 
L 329.231488 291.622135 
L 329.356441 291.137933 
L 329.464508 290.944253 
L 329.585521 290.460051 
L 329.753251 289.782169 
L 329.843307 289.588488 
L 329.849498 289.491648 
L 330.041431 289.297968 
L 330.368447 287.845363 
L 330.634676 287.361161 
L 330.912162 286.87696 
L 331.158128 286.295918 
L 331.332611 286.102237 
L 331.753061 285.327515 
L 331.869009 284.940154 
L 332.03899 284.746473 
L 332.615349 283.584389 
L 332.765631 283.390709 
L 332.915912 282.422306 
L 333.214223 281.163382 
L 333.352122 280.77602 
L 333.48214 280.388659 
L 334.49471 276.805568 
L 334.5994 276.515047 
L 335.30015 274.771921 
L 335.480262 273.997199 
L 335.769005 273.125636 
L 335.883827 272.544594 
L 336.015534 272.254073 
L 336.217035 271.963553 
L 336.68589 270.414108 
L 337.200899 269.639385 
L 337.287578 269.155184 
L 337.458684 268.380461 
L 337.817784 267.605739 
L 338.331104 265.378412 
L 338.437483 265.087891 
L 339.318908 262.666883 
L 339.846862 261.020598 
L 340.178382 260.439556 
L 340.3478 259.955354 
L 340.655679 259.180632 
L 340.854929 258.212229 
L 340.946674 257.437506 
L 341.377255 256.178582 
L 341.866935 254.048096 
L 342.043108 253.854415 
L 342.523783 252.789172 
L 342.666184 252.40181 
L 343.145733 250.561845 
L 343.333726 250.368164 
L 343.442919 249.980803 
L 344.261867 247.269274 
L 344.347421 246.978753 
L 344.6553 246.397711 
L 345.187195 245.235628 
L 346.006143 242.524099 
L 346.288695 242.039898 
L 346.567306 240.877814 
L 346.670308 240.296772 
L 346.883629 239.71573 
L 346.99451 239.037848 
L 347.14254 238.747327 
L 347.590007 237.488403 
L 347.802765 237.101042 
L 347.923215 236.61684 
L 348.278937 235.938958 
L 348.402201 235.745278 
L 348.474246 235.454757 
L 348.564302 235.164236 
L 348.642539 234.873715 
L 349.002763 234.292673 
L 349.041037 234.098992 
L 349.325277 233.808471 
L 349.478373 233.22743 
L 350.00295 232.549547 
L 350.15886 232.259026 
L 350.337847 232.065346 
L 350.41552 231.871665 
L 350.628278 231.581144 
L 350.899009 231.193783 
L 351.611579 229.353817 
L 351.766363 228.966456 
L 352.459233 227.02965 
L 352.613454 226.351768 
L 352.705199 226.061247 
L 352.802009 225.577045 
L 352.985499 225.286524 
L 353.205011 224.705482 
L 353.382872 224.124441 
L 353.750977 223.93076 
L 354.404447 222.962357 
L 354.581182 222.090794 
L 354.727523 221.606593 
L 354.904259 221.316072 
L 355.490187 220.153988 
L 355.728836 219.863467 
L 355.843095 219.572946 
L 356.131274 218.991904 
L 356.257916 218.217182 
L 356.765608 217.73298 
L 356.882118 217.151939 
L 357.073487 216.474056 
L 357.452286 215.311973 
L 357.707821 215.021452 
L 357.797877 214.730931 
L 358.006695 214.44041 
L 358.239152 213.956208 
L 358.290935 213.665687 
L 358.643842 213.375167 
L 358.986619 212.794125 
L 359.133523 212.213083 
L 359.472922 211.43836 
L 359.820764 211.147839 
L 360.165229 210.566798 
L 360.395998 209.792075 
L 361.661288 207.952109 
L 361.711945 207.758429 
L 361.977048 207.467908 
L 362.868041 206.112143 
L 362.933332 205.918463 
L 363.327328 205.240581 
L 363.442149 205.0469 
L 363.738209 204.853219 
L 363.809128 204.465858 
L 364.144588 203.497455 
L 364.257721 203.110094 
L 364.659597 202.529052 
L 365.364286 201.657489 
L 365.812316 201.463809 
L 366.084736 200.979607 
L 366.231077 200.592246 
L 366.604248 200.204885 
L 366.904247 199.817523 
L 367.352277 199.236482 
L 367.50875 199.042801 
L 367.646085 198.84912 
L 367.791864 198.461759 
L 368.00631 198.268079 
L 368.29843 197.880717 
L 368.475165 197.687037 
L 368.645146 197.396516 
L 368.748148 197.105995 
L 369.394864 196.718634 
L 369.50856 196.331272 
L 369.863156 196.040751 
L 370.052837 195.55655 
L 370.17779 195.362869 
L 370.310623 194.588147 
L 370.632574 194.394466 
L 371.349084 193.329223 
L 371.550022 192.845021 
L 371.749271 192.651341 
L 371.868595 192.36082 
L 372.247394 191.876618 
L 372.428632 191.295576 
L 372.808557 190.908215 
L 372.920001 190.617694 
L 373.258838 190.327173 
L 373.503115 190.036652 
L 373.905554 189.35877 
L 374.031633 189.068249 
L 374.519625 188.777728 
L 374.947392 187.906166 
L 375.462963 187.712485 
L 375.463526 187.615645 
L 375.613807 187.421964 
L 375.75846 187.034603 
L 376.006115 186.744082 
L 376.333131 185.96936 
L 376.572343 185.775679 
L 376.866152 185.291477 
L 377.122249 185.097797 
L 377.271967 184.807276 
L 377.565776 184.613595 
L 377.68904 184.419915 
L 378.153955 183.935713 
L 378.157332 183.838873 
L 378.565399 183.548352 
L 378.653204 183.257831 
L 379.145136 182.96731 
L 379.630877 181.902067 
L 380.021496 181.611546 
L 380.195417 181.321025 
L 381.155078 180.255781 
L 381.232751 179.86842 
L 381.60367 179.577899 
L 381.853576 179.190538 
L 381.975715 178.803177 
L 382.263332 178.609496 
L 383.245508 177.350572 
L 383.53425 177.060051 
L 383.591661 176.76953 
L 384.60817 175.897968 
L 384.766332 175.510606 
L 385.274586 174.929564 
L 385.667456 174.735884 
L 385.74907 174.445363 
L 385.999539 174.251682 
L 386.231433 173.767481 
L 386.446443 173.5738 
L 386.579275 173.283279 
L 386.989031 172.605397 
L 387.218674 172.411716 
L 387.311545 172.024355 
L 387.77646 171.733834 
L 387.994283 171.443313 
L 388.105728 171.152792 
L 388.239687 170.959112 
L 388.488467 170.765431 
L 388.499724 170.668591 
L 388.816609 170.47491 
L 388.971956 170.184389 
L 389.382838 169.700188 
L 389.437434 169.603348 
L 389.797096 169.409667 
L 389.923738 169.022306 
L 390.074019 168.828625 
L 390.829928 168.441264 
L 391.227864 167.860222 
L 391.505912 167.569701 
L 391.650002 167.27918 
L 391.857694 167.0855 
L 392.256193 166.891819 
L 392.409852 166.601298 
L 392.613041 166.213937 
L 392.897844 166.020256 
L 392.942309 165.923416 
L 393.281145 165.729735 
L 393.307036 165.632895 
L 393.555817 165.439214 
L 393.637993 165.148693 
L 393.737055 165.051853 
L 394.297655 164.858173 
L 394.899905 164.373971 
L 394.959005 164.277131 
L 395.430674 164.08345 
L 395.571387 163.792929 
L 396.712849 162.630845 
L 396.724669 162.437165 
L 397.19859 162.243484 
L 397.216038 162.146644 
L 398.036675 161.468762 
L 398.049621 161.275081 
L 398.68902 160.79088 
L 398.847181 160.500359 
L 398.913598 160.403518 
L 399.343616 160.112997 
L 399.54174 159.725636 
L 400.304403 159.241435 
L 400.414159 159.047754 
L 401.009656 158.757233 
L 401.219599 158.466712 
L 401.356372 158.273032 
L 401.758811 158.079351 
L 403.644362 157.014108 
L 403.691642 156.723587 
L 404.28939 156.529906 
L 404.424474 156.336225 
L 404.955806 155.948864 
L 404.978883 155.852024 
L 405.550177 155.561503 
L 405.579445 155.367822 
L 406.610026 154.786781 
L 406.645485 154.68994 
L 408.545671 153.818377 
L 409.113588 153.624697 
L 409.44567 153.431016 
L 409.462556 153.334176 
L 409.988822 152.946815 
L 410.726157 152.753134 
L 411.190509 152.365773 
L 412.592571 151.978412 
L 412.792384 151.881571 
L 413.354109 151.687891 
L 413.365929 151.59105 
L 413.686754 151.39737 
L 413.911895 151.203689 
L 414.160675 151.010009 
L 414.545665 150.622647 
L 415.554858 149.654244 
L 416.18694 149.460564 
L 416.992943 149.170043 
L 417.07737 149.073202 
L 418.252604 148.782681 
L 418.560483 148.29848 
L 419.323147 148.104799 
L 419.893878 147.717438 
L 420.281682 147.523757 
L 420.298005 147.426917 
L 420.780931 147.233237 
L 421.601006 146.749035 
L 421.673051 146.652195 
L 422.345095 146.458514 
L 422.358603 146.264833 
L 423.249034 145.974313 
L 423.371173 145.877472 
L 423.812448 145.683792 
L 423.959915 145.490111 
L 424.590309 145.19959 
L 425.134023 144.909069 
L 425.180177 144.812229 
L 425.421077 144.618548 
L 425.442465 144.521708 
L 425.84997 144.328027 
L 426.063853 143.940666 
L 426.10663 143.843826 
L 426.921638 143.456465 
L 426.968918 143.359624 
L 428.063101 143.165944 
L 428.1025 143.069103 
L 428.9828 142.778582 
L 430.637582 142.391221 
L 433.110751 142.197541 
L 433.450713 142.00386 
L 434.391237 141.810179 
L 434.729511 141.616499 
L 436.356714 141.035457 
L 436.36178 140.938617 
L 437.443017 140.551255 
L 437.522942 140.357575 
L 438.176975 140.163894 
L 438.227631 139.970213 
L 438.708869 139.582852 
L 439.826129 139.389172 
L 439.84808 139.292331 
L 440.493108 139.098651 
L 441.872093 138.90497 
L 441.925001 138.80813 
L 442.207553 138.711289 
L 442.979785 138.517609 
L 444.752766 137.936567 
L 445.379782 137.742886 
L 445.661771 137.549206 
L 447.785408 137.065004 
L 450.191035 136.774483 
L 451.530058 136.483962 
L 451.622365 136.387122 
L 454.408479 136.096601 
L 455.165514 135.902921 
L 455.582587 135.70924 
L 459.218606 135.321879 
L 459.713915 135.128198 
L 459.880519 134.934518 
L 461.336615 134.643997 
L 461.42442 134.547156 
L 463.834549 134.159795 
L 464.659126 133.869274 
L 469.689328 133.675594 
L 469.795144 133.578753 
L 475.183319 132.997711 
L 481.412393 131.932468 
L 485.332652 131.545107 
L 496.050466 130.867225 
L 496.366225 130.673544 
L 506.605615 130.092502 
L 507.210117 129.995662 
L 526.146122 129.41462 
L 527.208222 129.31778 
L 532.159062 129.124099 
L 534.906339 128.736738 
L 538.372939 128.543057 
L 538.814215 128.446217 
L 540.498266 128.252536 
L 541.051548 128.155696 
L 545.054546 127.962015 
L 545.82903 127.865175 
L 564.877042 127.477814 
L 601.14605 126.31573 
L 601.335731 126.21889 
L 604.148299 126.12205 
L 611.042101 125.928369 
L 613.944725 125.637848 
L 648.869644 124.959966 
L 653.029115 124.669445 
L 653.105663 124.572605 
L 670.091951 124.378924 
L 686.453474 123.991563 
L 688.299626 123.894722 
L 722.886272 123.797882 
L 722.886272 123.797882 
" clip-path="url(#p50b322fc18)" style="fill: none; stroke: #0000ff; stroke-width: 1.5; stroke-linecap: square"/>
   </g>
   <g id="patch_3">
    <path d="M 99 576.72 
L 99 77.76 
" style="fill: none; stroke: #000000; stroke-width: 0.8; stroke-linejoin: miter; stroke-linecap: square"/>
   </g>
   <g id="patch_4">
    <path d="M 712.8 576.72 
L 712.8 77.76 
" style="fill: none; stroke: #000000; stroke-width: 0.8; stroke-linejoin: miter; stroke-linecap: square"/>
   </g>
   <g id="patch_5">
    <path d="M 99 576.72 
L 712.8 576.72 
" style="fill: none; stroke: #000000; stroke-width: 0.8; stroke-linejoin: miter; stroke-linecap: square"/>
   </g>
   <g id="patch_6">
    <path d="M 99 77.76 
L 712.8 77.76 
" style="fill: none; stroke: #000000; stroke-width: 0.8; stroke-linejoin: miter; stroke-linecap: square"/>
   </g>
   <g id="legend_1">
    <g id="patch_7">
     <path d="M 106 115.11625 
L 237.165625 115.11625 
Q 239.165625 115.11625 239.165625 113.11625 
L 239.165625 84.76 
Q 239.165625 82.76 237.165625 82.76 
L 106 82.76 
Q 104 82.76 104 84.76 
L 104 113.11625 
Q 104 115.11625 106 115.11625 
z
" style="fill: #ffffff; opacity: 0.8; stroke: #cccccc; stroke-linejoin: miter"/>
    </g>
    <g id="line2d_40">
     <path d="M 108 90.858437 
L 118 90.858437 
L 128 90.858437 
" style="fill: none; stroke: #ff0000; stroke-width: 1.5; stroke-linecap: square"/>
    </g>
    <g id="text_40">
     <!-- Victoria Telus 1 CDF -->
     <g transform="translate(136 94.358437) scale(0.1 -0.1)">
      <defs>
       <path id="DejaVuSans-56" d="M 1831 0 
L 50 4666 
L 709 4666 
L 2188 738 
L 3669 4666 
L 4325 4666 
L 2547 0 
L 1831 0 
z
" transform="scale(0.015625)"/>
       <path id="DejaVuSans-54" d="M -19 4666 
L 3928 4666 
L 3928 4134 
L 2272 4134 
L 2272 0 
L 1638 0 
L 1638 4134 
L -19 4134 
L -19 4666 
z
" transform="scale(0.015625)"/>
       <path id="DejaVuSans-43" d="M 4122 4306 
L 4122 3641 
Q 3803 3938 3442 4084 
Q 3081 4231 2675 4231 
Q 1875 4231 1450 3742 
Q 1025 3253 1025 2328 
Q 1025 1406 1450 917 
Q 1875 428 2675 428 
Q 3081 428 3442 575 
Q 3803 722 4122 1019 
L 4122 359 
Q 3791 134 3420 21 
Q 3050 -91 2638 -91 
Q 1578 -91 968 557 
Q 359 1206 359 2328 
Q 359 3453 968 4101 
Q 1578 4750 2638 4750 
Q 3056 4750 3426 4639 
Q 3797 4528 4122 4306 
z
" transform="scale(0.015625)"/>
       <path id="DejaVuSans-44" d="M 1259 4147 
L 1259 519 
L 2022 519 
Q 2988 519 3436 956 
Q 3884 1394 3884 2338 
Q 3884 3275 3436 3711 
Q 2988 4147 2022 4147 
L 1259 4147 
z
M 628 4666 
L 1925 4666 
Q 3281 4666 3915 4102 
Q 4550 3538 4550 2338 
Q 4550 1131 3912 565 
Q 3275 0 1925 0 
L 628 0 
L 628 4666 
z
" transform="scale(0.015625)"/>
       <path id="DejaVuSans-46" d="M 628 4666 
L 3309 4666 
L 3309 4134 
L 1259 4134 
L 1259 2759 
L 3109 2759 
L 3109 2228 
L 1259 2228 
L 1259 0 
L 628 0 
L 628 4666 
z
" transform="scale(0.015625)"/>
      </defs>
      <use xlink:href="#DejaVuSans-56"/>
      <use xlink:href="#DejaVuSans-69" x="66.158203"/>
      <use xlink:href="#DejaVuSans-63" x="93.941406"/>
      <use xlink:href="#DejaVuSans-74" x="148.921875"/>
      <use xlink:href="#DejaVuSans-6f" x="188.130859"/>
      <use xlink:href="#DejaVuSans-72" x="249.3125"/>
      <use xlink:href="#DejaVuSans-69" x="290.425781"/>
      <use xlink:href="#DejaVuSans-61" x="318.208984"/>
      <use xlink:href="#DejaVuSans-20" x="379.488281"/>
      <use xlink:href="#DejaVuSans-54" x="411.275391"/>
      <use xlink:href="#DejaVuSans-65" x="455.359375"/>
      <use xlink:href="#DejaVuSans-6c" x="516.882812"/>
      <use xlink:href="#DejaVuSans-75" x="544.666016"/>
      <use xlink:href="#DejaVuSans-73" x="608.044922"/>
      <use xlink:href="#DejaVuSans-20" x="660.144531"/>
      <use xlink:href="#DejaVuSans-31" x="691.931641"/>
      <use xlink:href="#DejaVuSans-20" x="755.554688"/>
      <use xlink:href="#DejaVuSans-43" x="787.341797"/>
      <use xlink:href="#DejaVuSans-44" x="857.166016"/>
      <use xlink:href="#DejaVuSans-46" x="934.167969"/>
     </g>
    </g>
    <g id="line2d_41">
     <path d="M 108 105.536562 
L 118 105.536562 
L 128 105.536562 
" style="fill: none; stroke: #0000ff; stroke-width: 1.5; stroke-linecap: square"/>
    </g>
    <g id="text_41">
     <!-- Victoria Telus 2 CDF -->
     <g transform="translate(136 109.036562) scale(0.1 -0.1)">
      <use xlink:href="#DejaVuSans-56"/>
      <use xlink:href="#DejaVuSans-69" x="66.158203"/>
      <use xlink:href="#DejaVuSans-63" x="93.941406"/>
      <use xlink:href="#DejaVuSans-74" x="148.921875"/>
      <use xlink:href="#DejaVuSans-6f" x="188.130859"/>
      <use xlink:href="#DejaVuSans-72" x="249.3125"/>
      <use xlink:href="#DejaVuSans-69" x="290.425781"/>
      <use xlink:href="#DejaVuSans-61" x="318.208984"/>
      <use xlink:href="#DejaVuSans-20" x="379.488281"/>
      <use xlink:href="#DejaVuSans-54" x="411.275391"/>
      <use xlink:href="#DejaVuSans-65" x="455.359375"/>
      <use xlink:href="#DejaVuSans-6c" x="516.882812"/>
      <use xlink:href="#DejaVuSans-75" x="544.666016"/>
      <use xlink:href="#DejaVuSans-73" x="608.044922"/>
      <use xlink:href="#DejaVuSans-20" x="660.144531"/>
      <use xlink:href="#DejaVuSans-32" x="691.931641"/>
      <use xlink:href="#DejaVuSans-20" x="755.554688"/>
      <use xlink:href="#DejaVuSans-43" x="787.341797"/>
      <use xlink:href="#DejaVuSans-44" x="857.166016"/>
      <use xlink:href="#DejaVuSans-46" x="934.167969"/>
     </g>
    </g>
   </g>
  </g>
 </g>
 <defs>
  <clipPath id="p50b322fc18">
   <rect x="99" y="77.76" width="613.8" height="498.96"/>
  </clipPath>
 </defs>
</svg>
