<?xml version="1.0" encoding="utf-8" standalone="no"?>
<!DOCTYPE svg PUBLIC "-//W3C//DTD SVG 1.1//EN"
  "http://www.w3.org/Graphics/SVG/1.1/DTD/svg11.dtd">
<svg xmlns:xlink="http://www.w3.org/1999/xlink" width="792pt" height="648pt" viewBox="0 0 792 648" xmlns="http://www.w3.org/2000/svg" version="1.1">
 <metadata>
  <rdf:RDF xmlns:dc="http://purl.org/dc/elements/1.1/" xmlns:cc="http://creativecommons.org/ns#" xmlns:rdf="http://www.w3.org/1999/02/22-rdf-syntax-ns#">
   <cc:Work>
    <dc:type rdf:resource="http://purl.org/dc/dcmitype/StillImage"/>
    <dc:date>2024-01-04T02:41:51.414198</dc:date>
    <dc:format>image/svg+xml</dc:format>
    <dc:creator>
     <cc:Agent>
      <dc:title>Matplotlib v3.8.2, https://matplotlib.org/</dc:title>
     </cc:Agent>
    </dc:creator>
   </cc:Work>
  </rdf:RDF>
 </metadata>
 <defs>
  <style type="text/css">*{stroke-linejoin: round; stroke-linecap: butt}</style>
 </defs>
 <g id="figure_1">
  <g id="patch_1">
   <path d="M 0 648 
L 792 648 
L 792 0 
L 0 0 
z
" style="fill: #ffffff"/>
  </g>
  <g id="axes_1">
   <g id="patch_2">
    <path d="M 99 576.72 
L 712.8 576.72 
L 712.8 77.76 
L 99 77.76 
z
" style="fill: #ffffff"/>
   </g>
   <g id="matplotlib.axis_1">
    <g id="xtick_1">
     <g id="line2d_1">
      <defs>
       <path id="m26a6165ea7" d="M 0 0 
L 0 3.5 
" style="stroke: #000000; stroke-width: 0.8"/>
      </defs>
      <g>
       <use xlink:href="#m26a6165ea7" x="99" y="576.72" style="stroke: #000000; stroke-width: 0.8"/>
      </g>
     </g>
     <g id="text_1">
      <!-- 0 -->
      <g transform="translate(95.81875 591.318438) scale(0.1 -0.1)">
       <defs>
        <path id="DejaVuSans-30" d="M 2034 4250 
Q 1547 4250 1301 3770 
Q 1056 3291 1056 2328 
Q 1056 1369 1301 889 
Q 1547 409 2034 409 
Q 2525 409 2770 889 
Q 3016 1369 3016 2328 
Q 3016 3291 2770 3770 
Q 2525 4250 2034 4250 
z
M 2034 4750 
Q 2819 4750 3233 4129 
Q 3647 3509 3647 2328 
Q 3647 1150 3233 529 
Q 2819 -91 2034 -91 
Q 1250 -91 836 529 
Q 422 1150 422 2328 
Q 422 3509 836 4129 
Q 1250 4750 2034 4750 
z
" transform="scale(0.015625)"/>
       </defs>
       <use xlink:href="#DejaVuSans-30"/>
      </g>
     </g>
    </g>
    <g id="xtick_2">
     <g id="line2d_2">
      <g>
       <use xlink:href="#m26a6165ea7" x="122.607692" y="576.72" style="stroke: #000000; stroke-width: 0.8"/>
      </g>
     </g>
     <g id="text_2">
      <!-- 10 -->
      <g transform="translate(116.245192 591.318438) scale(0.1 -0.1)">
       <defs>
        <path id="DejaVuSans-31" d="M 794 531 
L 1825 531 
L 1825 4091 
L 703 3866 
L 703 4441 
L 1819 4666 
L 2450 4666 
L 2450 531 
L 3481 531 
L 3481 0 
L 794 0 
L 794 531 
z
" transform="scale(0.015625)"/>
       </defs>
       <use xlink:href="#DejaVuSans-31"/>
       <use xlink:href="#DejaVuSans-30" x="63.623047"/>
      </g>
     </g>
    </g>
    <g id="xtick_3">
     <g id="line2d_3">
      <g>
       <use xlink:href="#m26a6165ea7" x="146.215385" y="576.72" style="stroke: #000000; stroke-width: 0.8"/>
      </g>
     </g>
     <g id="text_3">
      <!-- 20 -->
      <g transform="translate(139.852885 591.318438) scale(0.1 -0.1)">
       <defs>
        <path id="DejaVuSans-32" d="M 1228 531 
L 3431 531 
L 3431 0 
L 469 0 
L 469 531 
Q 828 903 1448 1529 
Q 2069 2156 2228 2338 
Q 2531 2678 2651 2914 
Q 2772 3150 2772 3378 
Q 2772 3750 2511 3984 
Q 2250 4219 1831 4219 
Q 1534 4219 1204 4116 
Q 875 4013 500 3803 
L 500 4441 
Q 881 4594 1212 4672 
Q 1544 4750 1819 4750 
Q 2544 4750 2975 4387 
Q 3406 4025 3406 3419 
Q 3406 3131 3298 2873 
Q 3191 2616 2906 2266 
Q 2828 2175 2409 1742 
Q 1991 1309 1228 531 
z
" transform="scale(0.015625)"/>
       </defs>
       <use xlink:href="#DejaVuSans-32"/>
       <use xlink:href="#DejaVuSans-30" x="63.623047"/>
      </g>
     </g>
    </g>
    <g id="xtick_4">
     <g id="line2d_4">
      <g>
       <use xlink:href="#m26a6165ea7" x="169.823077" y="576.72" style="stroke: #000000; stroke-width: 0.8"/>
      </g>
     </g>
     <g id="text_4">
      <!-- 30 -->
      <g transform="translate(163.460577 591.318438) scale(0.1 -0.1)">
       <defs>
        <path id="DejaVuSans-33" d="M 2597 2516 
Q 3050 2419 3304 2112 
Q 3559 1806 3559 1356 
Q 3559 666 3084 287 
Q 2609 -91 1734 -91 
Q 1441 -91 1130 -33 
Q 819 25 488 141 
L 488 750 
Q 750 597 1062 519 
Q 1375 441 1716 441 
Q 2309 441 2620 675 
Q 2931 909 2931 1356 
Q 2931 1769 2642 2001 
Q 2353 2234 1838 2234 
L 1294 2234 
L 1294 2753 
L 1863 2753 
Q 2328 2753 2575 2939 
Q 2822 3125 2822 3475 
Q 2822 3834 2567 4026 
Q 2313 4219 1838 4219 
Q 1578 4219 1281 4162 
Q 984 4106 628 3988 
L 628 4550 
Q 988 4650 1302 4700 
Q 1616 4750 1894 4750 
Q 2613 4750 3031 4423 
Q 3450 4097 3450 3541 
Q 3450 3153 3228 2886 
Q 3006 2619 2597 2516 
z
" transform="scale(0.015625)"/>
       </defs>
       <use xlink:href="#DejaVuSans-33"/>
       <use xlink:href="#DejaVuSans-30" x="63.623047"/>
      </g>
     </g>
    </g>
    <g id="xtick_5">
     <g id="line2d_5">
      <g>
       <use xlink:href="#m26a6165ea7" x="193.430769" y="576.72" style="stroke: #000000; stroke-width: 0.8"/>
      </g>
     </g>
     <g id="text_5">
      <!-- 40 -->
      <g transform="translate(187.068269 591.318438) scale(0.1 -0.1)">
       <defs>
        <path id="DejaVuSans-34" d="M 2419 4116 
L 825 1625 
L 2419 1625 
L 2419 4116 
z
M 2253 4666 
L 3047 4666 
L 3047 1625 
L 3713 1625 
L 3713 1100 
L 3047 1100 
L 3047 0 
L 2419 0 
L 2419 1100 
L 313 1100 
L 313 1709 
L 2253 4666 
z
" transform="scale(0.015625)"/>
       </defs>
       <use xlink:href="#DejaVuSans-34"/>
       <use xlink:href="#DejaVuSans-30" x="63.623047"/>
      </g>
     </g>
    </g>
    <g id="xtick_6">
     <g id="line2d_6">
      <g>
       <use xlink:href="#m26a6165ea7" x="217.038462" y="576.72" style="stroke: #000000; stroke-width: 0.8"/>
      </g>
     </g>
     <g id="text_6">
      <!-- 50 -->
      <g transform="translate(210.675962 591.318438) scale(0.1 -0.1)">
       <defs>
        <path id="DejaVuSans-35" d="M 691 4666 
L 3169 4666 
L 3169 4134 
L 1269 4134 
L 1269 2991 
Q 1406 3038 1543 3061 
Q 1681 3084 1819 3084 
Q 2600 3084 3056 2656 
Q 3513 2228 3513 1497 
Q 3513 744 3044 326 
Q 2575 -91 1722 -91 
Q 1428 -91 1123 -41 
Q 819 9 494 109 
L 494 744 
Q 775 591 1075 516 
Q 1375 441 1709 441 
Q 2250 441 2565 725 
Q 2881 1009 2881 1497 
Q 2881 1984 2565 2268 
Q 2250 2553 1709 2553 
Q 1456 2553 1204 2497 
Q 953 2441 691 2322 
L 691 4666 
z
" transform="scale(0.015625)"/>
       </defs>
       <use xlink:href="#DejaVuSans-35"/>
       <use xlink:href="#DejaVuSans-30" x="63.623047"/>
      </g>
     </g>
    </g>
    <g id="xtick_7">
     <g id="line2d_7">
      <g>
       <use xlink:href="#m26a6165ea7" x="240.646154" y="576.72" style="stroke: #000000; stroke-width: 0.8"/>
      </g>
     </g>
     <g id="text_7">
      <!-- 60 -->
      <g transform="translate(234.283654 591.318438) scale(0.1 -0.1)">
       <defs>
        <path id="DejaVuSans-36" d="M 2113 2584 
Q 1688 2584 1439 2293 
Q 1191 2003 1191 1497 
Q 1191 994 1439 701 
Q 1688 409 2113 409 
Q 2538 409 2786 701 
Q 3034 994 3034 1497 
Q 3034 2003 2786 2293 
Q 2538 2584 2113 2584 
z
M 3366 4563 
L 3366 3988 
Q 3128 4100 2886 4159 
Q 2644 4219 2406 4219 
Q 1781 4219 1451 3797 
Q 1122 3375 1075 2522 
Q 1259 2794 1537 2939 
Q 1816 3084 2150 3084 
Q 2853 3084 3261 2657 
Q 3669 2231 3669 1497 
Q 3669 778 3244 343 
Q 2819 -91 2113 -91 
Q 1303 -91 875 529 
Q 447 1150 447 2328 
Q 447 3434 972 4092 
Q 1497 4750 2381 4750 
Q 2619 4750 2861 4703 
Q 3103 4656 3366 4563 
z
" transform="scale(0.015625)"/>
       </defs>
       <use xlink:href="#DejaVuSans-36"/>
       <use xlink:href="#DejaVuSans-30" x="63.623047"/>
      </g>
     </g>
    </g>
    <g id="xtick_8">
     <g id="line2d_8">
      <g>
       <use xlink:href="#m26a6165ea7" x="264.253846" y="576.72" style="stroke: #000000; stroke-width: 0.8"/>
      </g>
     </g>
     <g id="text_8">
      <!-- 70 -->
      <g transform="translate(257.891346 591.318438) scale(0.1 -0.1)">
       <defs>
        <path id="DejaVuSans-37" d="M 525 4666 
L 3525 4666 
L 3525 4397 
L 1831 0 
L 1172 0 
L 2766 4134 
L 525 4134 
L 525 4666 
z
" transform="scale(0.015625)"/>
       </defs>
       <use xlink:href="#DejaVuSans-37"/>
       <use xlink:href="#DejaVuSans-30" x="63.623047"/>
      </g>
     </g>
    </g>
    <g id="xtick_9">
     <g id="line2d_9">
      <g>
       <use xlink:href="#m26a6165ea7" x="287.861538" y="576.72" style="stroke: #000000; stroke-width: 0.8"/>
      </g>
     </g>
     <g id="text_9">
      <!-- 80 -->
      <g transform="translate(281.499038 591.318438) scale(0.1 -0.1)">
       <defs>
        <path id="DejaVuSans-38" d="M 2034 2216 
Q 1584 2216 1326 1975 
Q 1069 1734 1069 1313 
Q 1069 891 1326 650 
Q 1584 409 2034 409 
Q 2484 409 2743 651 
Q 3003 894 3003 1313 
Q 3003 1734 2745 1975 
Q 2488 2216 2034 2216 
z
M 1403 2484 
Q 997 2584 770 2862 
Q 544 3141 544 3541 
Q 544 4100 942 4425 
Q 1341 4750 2034 4750 
Q 2731 4750 3128 4425 
Q 3525 4100 3525 3541 
Q 3525 3141 3298 2862 
Q 3072 2584 2669 2484 
Q 3125 2378 3379 2068 
Q 3634 1759 3634 1313 
Q 3634 634 3220 271 
Q 2806 -91 2034 -91 
Q 1263 -91 848 271 
Q 434 634 434 1313 
Q 434 1759 690 2068 
Q 947 2378 1403 2484 
z
M 1172 3481 
Q 1172 3119 1398 2916 
Q 1625 2713 2034 2713 
Q 2441 2713 2670 2916 
Q 2900 3119 2900 3481 
Q 2900 3844 2670 4047 
Q 2441 4250 2034 4250 
Q 1625 4250 1398 4047 
Q 1172 3844 1172 3481 
z
" transform="scale(0.015625)"/>
       </defs>
       <use xlink:href="#DejaVuSans-38"/>
       <use xlink:href="#DejaVuSans-30" x="63.623047"/>
      </g>
     </g>
    </g>
    <g id="xtick_10">
     <g id="line2d_10">
      <g>
       <use xlink:href="#m26a6165ea7" x="311.469231" y="576.72" style="stroke: #000000; stroke-width: 0.8"/>
      </g>
     </g>
     <g id="text_10">
      <!-- 90 -->
      <g transform="translate(305.106731 591.318438) scale(0.1 -0.1)">
       <defs>
        <path id="DejaVuSans-39" d="M 703 97 
L 703 672 
Q 941 559 1184 500 
Q 1428 441 1663 441 
Q 2288 441 2617 861 
Q 2947 1281 2994 2138 
Q 2813 1869 2534 1725 
Q 2256 1581 1919 1581 
Q 1219 1581 811 2004 
Q 403 2428 403 3163 
Q 403 3881 828 4315 
Q 1253 4750 1959 4750 
Q 2769 4750 3195 4129 
Q 3622 3509 3622 2328 
Q 3622 1225 3098 567 
Q 2575 -91 1691 -91 
Q 1453 -91 1209 -44 
Q 966 3 703 97 
z
M 1959 2075 
Q 2384 2075 2632 2365 
Q 2881 2656 2881 3163 
Q 2881 3666 2632 3958 
Q 2384 4250 1959 4250 
Q 1534 4250 1286 3958 
Q 1038 3666 1038 3163 
Q 1038 2656 1286 2365 
Q 1534 2075 1959 2075 
z
" transform="scale(0.015625)"/>
       </defs>
       <use xlink:href="#DejaVuSans-39"/>
       <use xlink:href="#DejaVuSans-30" x="63.623047"/>
      </g>
     </g>
    </g>
    <g id="xtick_11">
     <g id="line2d_11">
      <g>
       <use xlink:href="#m26a6165ea7" x="335.076923" y="576.72" style="stroke: #000000; stroke-width: 0.8"/>
      </g>
     </g>
     <g id="text_11">
      <!-- 100 -->
      <g transform="translate(325.533173 591.318438) scale(0.1 -0.1)">
       <use xlink:href="#DejaVuSans-31"/>
       <use xlink:href="#DejaVuSans-30" x="63.623047"/>
       <use xlink:href="#DejaVuSans-30" x="127.246094"/>
      </g>
     </g>
    </g>
    <g id="xtick_12">
     <g id="line2d_12">
      <g>
       <use xlink:href="#m26a6165ea7" x="358.684615" y="576.72" style="stroke: #000000; stroke-width: 0.8"/>
      </g>
     </g>
     <g id="text_12">
      <!-- 110 -->
      <g transform="translate(349.140865 591.318438) scale(0.1 -0.1)">
       <use xlink:href="#DejaVuSans-31"/>
       <use xlink:href="#DejaVuSans-31" x="63.623047"/>
       <use xlink:href="#DejaVuSans-30" x="127.246094"/>
      </g>
     </g>
    </g>
    <g id="xtick_13">
     <g id="line2d_13">
      <g>
       <use xlink:href="#m26a6165ea7" x="382.292308" y="576.72" style="stroke: #000000; stroke-width: 0.8"/>
      </g>
     </g>
     <g id="text_13">
      <!-- 120 -->
      <g transform="translate(372.748558 591.318438) scale(0.1 -0.1)">
       <use xlink:href="#DejaVuSans-31"/>
       <use xlink:href="#DejaVuSans-32" x="63.623047"/>
       <use xlink:href="#DejaVuSans-30" x="127.246094"/>
      </g>
     </g>
    </g>
    <g id="xtick_14">
     <g id="line2d_14">
      <g>
       <use xlink:href="#m26a6165ea7" x="405.9" y="576.72" style="stroke: #000000; stroke-width: 0.8"/>
      </g>
     </g>
     <g id="text_14">
      <!-- 130 -->
      <g transform="translate(396.35625 591.318438) scale(0.1 -0.1)">
       <use xlink:href="#DejaVuSans-31"/>
       <use xlink:href="#DejaVuSans-33" x="63.623047"/>
       <use xlink:href="#DejaVuSans-30" x="127.246094"/>
      </g>
     </g>
    </g>
    <g id="xtick_15">
     <g id="line2d_15">
      <g>
       <use xlink:href="#m26a6165ea7" x="429.507692" y="576.72" style="stroke: #000000; stroke-width: 0.8"/>
      </g>
     </g>
     <g id="text_15">
      <!-- 140 -->
      <g transform="translate(419.963942 591.318438) scale(0.1 -0.1)">
       <use xlink:href="#DejaVuSans-31"/>
       <use xlink:href="#DejaVuSans-34" x="63.623047"/>
       <use xlink:href="#DejaVuSans-30" x="127.246094"/>
      </g>
     </g>
    </g>
    <g id="xtick_16">
     <g id="line2d_16">
      <g>
       <use xlink:href="#m26a6165ea7" x="453.115385" y="576.72" style="stroke: #000000; stroke-width: 0.8"/>
      </g>
     </g>
     <g id="text_16">
      <!-- 150 -->
      <g transform="translate(443.571635 591.318438) scale(0.1 -0.1)">
       <use xlink:href="#DejaVuSans-31"/>
       <use xlink:href="#DejaVuSans-35" x="63.623047"/>
       <use xlink:href="#DejaVuSans-30" x="127.246094"/>
      </g>
     </g>
    </g>
    <g id="xtick_17">
     <g id="line2d_17">
      <g>
       <use xlink:href="#m26a6165ea7" x="476.723077" y="576.72" style="stroke: #000000; stroke-width: 0.8"/>
      </g>
     </g>
     <g id="text_17">
      <!-- 160 -->
      <g transform="translate(467.179327 591.318438) scale(0.1 -0.1)">
       <use xlink:href="#DejaVuSans-31"/>
       <use xlink:href="#DejaVuSans-36" x="63.623047"/>
       <use xlink:href="#DejaVuSans-30" x="127.246094"/>
      </g>
     </g>
    </g>
    <g id="xtick_18">
     <g id="line2d_18">
      <g>
       <use xlink:href="#m26a6165ea7" x="500.330769" y="576.72" style="stroke: #000000; stroke-width: 0.8"/>
      </g>
     </g>
     <g id="text_18">
      <!-- 170 -->
      <g transform="translate(490.787019 591.318438) scale(0.1 -0.1)">
       <use xlink:href="#DejaVuSans-31"/>
       <use xlink:href="#DejaVuSans-37" x="63.623047"/>
       <use xlink:href="#DejaVuSans-30" x="127.246094"/>
      </g>
     </g>
    </g>
    <g id="xtick_19">
     <g id="line2d_19">
      <g>
       <use xlink:href="#m26a6165ea7" x="523.938462" y="576.72" style="stroke: #000000; stroke-width: 0.8"/>
      </g>
     </g>
     <g id="text_19">
      <!-- 180 -->
      <g transform="translate(514.394712 591.318438) scale(0.1 -0.1)">
       <use xlink:href="#DejaVuSans-31"/>
       <use xlink:href="#DejaVuSans-38" x="63.623047"/>
       <use xlink:href="#DejaVuSans-30" x="127.246094"/>
      </g>
     </g>
    </g>
    <g id="xtick_20">
     <g id="line2d_20">
      <g>
       <use xlink:href="#m26a6165ea7" x="547.546154" y="576.72" style="stroke: #000000; stroke-width: 0.8"/>
      </g>
     </g>
     <g id="text_20">
      <!-- 190 -->
      <g transform="translate(538.002404 591.318438) scale(0.1 -0.1)">
       <use xlink:href="#DejaVuSans-31"/>
       <use xlink:href="#DejaVuSans-39" x="63.623047"/>
       <use xlink:href="#DejaVuSans-30" x="127.246094"/>
      </g>
     </g>
    </g>
    <g id="xtick_21">
     <g id="line2d_21">
      <g>
       <use xlink:href="#m26a6165ea7" x="571.153846" y="576.72" style="stroke: #000000; stroke-width: 0.8"/>
      </g>
     </g>
     <g id="text_21">
      <!-- 200 -->
      <g transform="translate(561.610096 591.318438) scale(0.1 -0.1)">
       <use xlink:href="#DejaVuSans-32"/>
       <use xlink:href="#DejaVuSans-30" x="63.623047"/>
       <use xlink:href="#DejaVuSans-30" x="127.246094"/>
      </g>
     </g>
    </g>
    <g id="xtick_22">
     <g id="line2d_22">
      <g>
       <use xlink:href="#m26a6165ea7" x="594.761538" y="576.72" style="stroke: #000000; stroke-width: 0.8"/>
      </g>
     </g>
     <g id="text_22">
      <!-- 210 -->
      <g transform="translate(585.217788 591.318438) scale(0.1 -0.1)">
       <use xlink:href="#DejaVuSans-32"/>
       <use xlink:href="#DejaVuSans-31" x="63.623047"/>
       <use xlink:href="#DejaVuSans-30" x="127.246094"/>
      </g>
     </g>
    </g>
    <g id="xtick_23">
     <g id="line2d_23">
      <g>
       <use xlink:href="#m26a6165ea7" x="618.369231" y="576.72" style="stroke: #000000; stroke-width: 0.8"/>
      </g>
     </g>
     <g id="text_23">
      <!-- 220 -->
      <g transform="translate(608.825481 591.318438) scale(0.1 -0.1)">
       <use xlink:href="#DejaVuSans-32"/>
       <use xlink:href="#DejaVuSans-32" x="63.623047"/>
       <use xlink:href="#DejaVuSans-30" x="127.246094"/>
      </g>
     </g>
    </g>
    <g id="xtick_24">
     <g id="line2d_24">
      <g>
       <use xlink:href="#m26a6165ea7" x="641.976923" y="576.72" style="stroke: #000000; stroke-width: 0.8"/>
      </g>
     </g>
     <g id="text_24">
      <!-- 230 -->
      <g transform="translate(632.433173 591.318438) scale(0.1 -0.1)">
       <use xlink:href="#DejaVuSans-32"/>
       <use xlink:href="#DejaVuSans-33" x="63.623047"/>
       <use xlink:href="#DejaVuSans-30" x="127.246094"/>
      </g>
     </g>
    </g>
    <g id="xtick_25">
     <g id="line2d_25">
      <g>
       <use xlink:href="#m26a6165ea7" x="665.584615" y="576.72" style="stroke: #000000; stroke-width: 0.8"/>
      </g>
     </g>
     <g id="text_25">
      <!-- 240 -->
      <g transform="translate(656.040865 591.318438) scale(0.1 -0.1)">
       <use xlink:href="#DejaVuSans-32"/>
       <use xlink:href="#DejaVuSans-34" x="63.623047"/>
       <use xlink:href="#DejaVuSans-30" x="127.246094"/>
      </g>
     </g>
    </g>
    <g id="xtick_26">
     <g id="line2d_26">
      <g>
       <use xlink:href="#m26a6165ea7" x="689.192308" y="576.72" style="stroke: #000000; stroke-width: 0.8"/>
      </g>
     </g>
     <g id="text_26">
      <!-- 250 -->
      <g transform="translate(679.648558 591.318438) scale(0.1 -0.1)">
       <use xlink:href="#DejaVuSans-32"/>
       <use xlink:href="#DejaVuSans-35" x="63.623047"/>
       <use xlink:href="#DejaVuSans-30" x="127.246094"/>
      </g>
     </g>
    </g>
    <g id="text_27">
     <!-- Input Latency (ms) -->
     <g transform="translate(358.634375 604.996562) scale(0.1 -0.1)">
      <defs>
       <path id="DejaVuSans-49" d="M 628 4666 
L 1259 4666 
L 1259 0 
L 628 0 
L 628 4666 
z
" transform="scale(0.015625)"/>
       <path id="DejaVuSans-6e" d="M 3513 2113 
L 3513 0 
L 2938 0 
L 2938 2094 
Q 2938 2591 2744 2837 
Q 2550 3084 2163 3084 
Q 1697 3084 1428 2787 
Q 1159 2491 1159 1978 
L 1159 0 
L 581 0 
L 581 3500 
L 1159 3500 
L 1159 2956 
Q 1366 3272 1645 3428 
Q 1925 3584 2291 3584 
Q 2894 3584 3203 3211 
Q 3513 2838 3513 2113 
z
" transform="scale(0.015625)"/>
       <path id="DejaVuSans-70" d="M 1159 525 
L 1159 -1331 
L 581 -1331 
L 581 3500 
L 1159 3500 
L 1159 2969 
Q 1341 3281 1617 3432 
Q 1894 3584 2278 3584 
Q 2916 3584 3314 3078 
Q 3713 2572 3713 1747 
Q 3713 922 3314 415 
Q 2916 -91 2278 -91 
Q 1894 -91 1617 61 
Q 1341 213 1159 525 
z
M 3116 1747 
Q 3116 2381 2855 2742 
Q 2594 3103 2138 3103 
Q 1681 3103 1420 2742 
Q 1159 2381 1159 1747 
Q 1159 1113 1420 752 
Q 1681 391 2138 391 
Q 2594 391 2855 752 
Q 3116 1113 3116 1747 
z
" transform="scale(0.015625)"/>
       <path id="DejaVuSans-75" d="M 544 1381 
L 544 3500 
L 1119 3500 
L 1119 1403 
Q 1119 906 1312 657 
Q 1506 409 1894 409 
Q 2359 409 2629 706 
Q 2900 1003 2900 1516 
L 2900 3500 
L 3475 3500 
L 3475 0 
L 2900 0 
L 2900 538 
Q 2691 219 2414 64 
Q 2138 -91 1772 -91 
Q 1169 -91 856 284 
Q 544 659 544 1381 
z
M 1991 3584 
L 1991 3584 
z
" transform="scale(0.015625)"/>
       <path id="DejaVuSans-74" d="M 1172 4494 
L 1172 3500 
L 2356 3500 
L 2356 3053 
L 1172 3053 
L 1172 1153 
Q 1172 725 1289 603 
Q 1406 481 1766 481 
L 2356 481 
L 2356 0 
L 1766 0 
Q 1100 0 847 248 
Q 594 497 594 1153 
L 594 3053 
L 172 3053 
L 172 3500 
L 594 3500 
L 594 4494 
L 1172 4494 
z
" transform="scale(0.015625)"/>
       <path id="DejaVuSans-20" transform="scale(0.015625)"/>
       <path id="DejaVuSans-4c" d="M 628 4666 
L 1259 4666 
L 1259 531 
L 3531 531 
L 3531 0 
L 628 0 
L 628 4666 
z
" transform="scale(0.015625)"/>
       <path id="DejaVuSans-61" d="M 2194 1759 
Q 1497 1759 1228 1600 
Q 959 1441 959 1056 
Q 959 750 1161 570 
Q 1363 391 1709 391 
Q 2188 391 2477 730 
Q 2766 1069 2766 1631 
L 2766 1759 
L 2194 1759 
z
M 3341 1997 
L 3341 0 
L 2766 0 
L 2766 531 
Q 2569 213 2275 61 
Q 1981 -91 1556 -91 
Q 1019 -91 701 211 
Q 384 513 384 1019 
Q 384 1609 779 1909 
Q 1175 2209 1959 2209 
L 2766 2209 
L 2766 2266 
Q 2766 2663 2505 2880 
Q 2244 3097 1772 3097 
Q 1472 3097 1187 3025 
Q 903 2953 641 2809 
L 641 3341 
Q 956 3463 1253 3523 
Q 1550 3584 1831 3584 
Q 2591 3584 2966 3190 
Q 3341 2797 3341 1997 
z
" transform="scale(0.015625)"/>
       <path id="DejaVuSans-65" d="M 3597 1894 
L 3597 1613 
L 953 1613 
Q 991 1019 1311 708 
Q 1631 397 2203 397 
Q 2534 397 2845 478 
Q 3156 559 3463 722 
L 3463 178 
Q 3153 47 2828 -22 
Q 2503 -91 2169 -91 
Q 1331 -91 842 396 
Q 353 884 353 1716 
Q 353 2575 817 3079 
Q 1281 3584 2069 3584 
Q 2775 3584 3186 3129 
Q 3597 2675 3597 1894 
z
M 3022 2063 
Q 3016 2534 2758 2815 
Q 2500 3097 2075 3097 
Q 1594 3097 1305 2825 
Q 1016 2553 972 2059 
L 3022 2063 
z
" transform="scale(0.015625)"/>
       <path id="DejaVuSans-63" d="M 3122 3366 
L 3122 2828 
Q 2878 2963 2633 3030 
Q 2388 3097 2138 3097 
Q 1578 3097 1268 2742 
Q 959 2388 959 1747 
Q 959 1106 1268 751 
Q 1578 397 2138 397 
Q 2388 397 2633 464 
Q 2878 531 3122 666 
L 3122 134 
Q 2881 22 2623 -34 
Q 2366 -91 2075 -91 
Q 1284 -91 818 406 
Q 353 903 353 1747 
Q 353 2603 823 3093 
Q 1294 3584 2113 3584 
Q 2378 3584 2631 3529 
Q 2884 3475 3122 3366 
z
" transform="scale(0.015625)"/>
       <path id="DejaVuSans-79" d="M 2059 -325 
Q 1816 -950 1584 -1140 
Q 1353 -1331 966 -1331 
L 506 -1331 
L 506 -850 
L 844 -850 
Q 1081 -850 1212 -737 
Q 1344 -625 1503 -206 
L 1606 56 
L 191 3500 
L 800 3500 
L 1894 763 
L 2988 3500 
L 3597 3500 
L 2059 -325 
z
" transform="scale(0.015625)"/>
       <path id="DejaVuSans-28" d="M 1984 4856 
Q 1566 4138 1362 3434 
Q 1159 2731 1159 2009 
Q 1159 1288 1364 580 
Q 1569 -128 1984 -844 
L 1484 -844 
Q 1016 -109 783 600 
Q 550 1309 550 2009 
Q 550 2706 781 3412 
Q 1013 4119 1484 4856 
L 1984 4856 
z
" transform="scale(0.015625)"/>
       <path id="DejaVuSans-6d" d="M 3328 2828 
Q 3544 3216 3844 3400 
Q 4144 3584 4550 3584 
Q 5097 3584 5394 3201 
Q 5691 2819 5691 2113 
L 5691 0 
L 5113 0 
L 5113 2094 
Q 5113 2597 4934 2840 
Q 4756 3084 4391 3084 
Q 3944 3084 3684 2787 
Q 3425 2491 3425 1978 
L 3425 0 
L 2847 0 
L 2847 2094 
Q 2847 2600 2669 2842 
Q 2491 3084 2119 3084 
Q 1678 3084 1418 2786 
Q 1159 2488 1159 1978 
L 1159 0 
L 581 0 
L 581 3500 
L 1159 3500 
L 1159 2956 
Q 1356 3278 1631 3431 
Q 1906 3584 2284 3584 
Q 2666 3584 2933 3390 
Q 3200 3197 3328 2828 
z
" transform="scale(0.015625)"/>
       <path id="DejaVuSans-73" d="M 2834 3397 
L 2834 2853 
Q 2591 2978 2328 3040 
Q 2066 3103 1784 3103 
Q 1356 3103 1142 2972 
Q 928 2841 928 2578 
Q 928 2378 1081 2264 
Q 1234 2150 1697 2047 
L 1894 2003 
Q 2506 1872 2764 1633 
Q 3022 1394 3022 966 
Q 3022 478 2636 193 
Q 2250 -91 1575 -91 
Q 1294 -91 989 -36 
Q 684 19 347 128 
L 347 722 
Q 666 556 975 473 
Q 1284 391 1588 391 
Q 1994 391 2212 530 
Q 2431 669 2431 922 
Q 2431 1156 2273 1281 
Q 2116 1406 1581 1522 
L 1381 1569 
Q 847 1681 609 1914 
Q 372 2147 372 2553 
Q 372 3047 722 3315 
Q 1072 3584 1716 3584 
Q 2034 3584 2315 3537 
Q 2597 3491 2834 3397 
z
" transform="scale(0.015625)"/>
       <path id="DejaVuSans-29" d="M 513 4856 
L 1013 4856 
Q 1481 4119 1714 3412 
Q 1947 2706 1947 2009 
Q 1947 1309 1714 600 
Q 1481 -109 1013 -844 
L 513 -844 
Q 928 -128 1133 580 
Q 1338 1288 1338 2009 
Q 1338 2731 1133 3434 
Q 928 4138 513 4856 
z
" transform="scale(0.015625)"/>
      </defs>
      <use xlink:href="#DejaVuSans-49"/>
      <use xlink:href="#DejaVuSans-6e" x="29.492188"/>
      <use xlink:href="#DejaVuSans-70" x="92.871094"/>
      <use xlink:href="#DejaVuSans-75" x="156.347656"/>
      <use xlink:href="#DejaVuSans-74" x="219.726562"/>
      <use xlink:href="#DejaVuSans-20" x="258.935547"/>
      <use xlink:href="#DejaVuSans-4c" x="290.722656"/>
      <use xlink:href="#DejaVuSans-61" x="346.435547"/>
      <use xlink:href="#DejaVuSans-74" x="407.714844"/>
      <use xlink:href="#DejaVuSans-65" x="446.923828"/>
      <use xlink:href="#DejaVuSans-6e" x="508.447266"/>
      <use xlink:href="#DejaVuSans-63" x="571.826172"/>
      <use xlink:href="#DejaVuSans-79" x="626.806641"/>
      <use xlink:href="#DejaVuSans-20" x="685.986328"/>
      <use xlink:href="#DejaVuSans-28" x="717.773438"/>
      <use xlink:href="#DejaVuSans-6d" x="756.787109"/>
      <use xlink:href="#DejaVuSans-73" x="854.199219"/>
      <use xlink:href="#DejaVuSans-29" x="906.298828"/>
     </g>
    </g>
   </g>
   <g id="matplotlib.axis_2">
    <g id="ytick_1">
     <g id="line2d_27">
      <defs>
       <path id="mcce2808878" d="M 0 0 
L -3.5 0 
" style="stroke: #000000; stroke-width: 0.8"/>
      </defs>
      <g>
       <use xlink:href="#mcce2808878" x="99" y="576.72" style="stroke: #000000; stroke-width: 0.8"/>
      </g>
     </g>
     <g id="text_28">
      <!-- 0.0 -->
      <g transform="translate(76.096875 580.519219) scale(0.1 -0.1)">
       <defs>
        <path id="DejaVuSans-2e" d="M 684 794 
L 1344 794 
L 1344 0 
L 684 0 
L 684 794 
z
" transform="scale(0.015625)"/>
       </defs>
       <use xlink:href="#DejaVuSans-30"/>
       <use xlink:href="#DejaVuSans-2e" x="63.623047"/>
       <use xlink:href="#DejaVuSans-30" x="95.410156"/>
      </g>
     </g>
    </g>
    <g id="ytick_2">
     <g id="line2d_28">
      <g>
       <use xlink:href="#mcce2808878" x="99" y="531.36" style="stroke: #000000; stroke-width: 0.8"/>
      </g>
     </g>
     <g id="text_29">
      <!-- 0.1 -->
      <g transform="translate(76.096875 535.159219) scale(0.1 -0.1)">
       <use xlink:href="#DejaVuSans-30"/>
       <use xlink:href="#DejaVuSans-2e" x="63.623047"/>
       <use xlink:href="#DejaVuSans-31" x="95.410156"/>
      </g>
     </g>
    </g>
    <g id="ytick_3">
     <g id="line2d_29">
      <g>
       <use xlink:href="#mcce2808878" x="99" y="486" style="stroke: #000000; stroke-width: 0.8"/>
      </g>
     </g>
     <g id="text_30">
      <!-- 0.2 -->
      <g transform="translate(76.096875 489.799219) scale(0.1 -0.1)">
       <use xlink:href="#DejaVuSans-30"/>
       <use xlink:href="#DejaVuSans-2e" x="63.623047"/>
       <use xlink:href="#DejaVuSans-32" x="95.410156"/>
      </g>
     </g>
    </g>
    <g id="ytick_4">
     <g id="line2d_30">
      <g>
       <use xlink:href="#mcce2808878" x="99" y="440.64" style="stroke: #000000; stroke-width: 0.8"/>
      </g>
     </g>
     <g id="text_31">
      <!-- 0.3 -->
      <g transform="translate(76.096875 444.439219) scale(0.1 -0.1)">
       <use xlink:href="#DejaVuSans-30"/>
       <use xlink:href="#DejaVuSans-2e" x="63.623047"/>
       <use xlink:href="#DejaVuSans-33" x="95.410156"/>
      </g>
     </g>
    </g>
    <g id="ytick_5">
     <g id="line2d_31">
      <g>
       <use xlink:href="#mcce2808878" x="99" y="395.28" style="stroke: #000000; stroke-width: 0.8"/>
      </g>
     </g>
     <g id="text_32">
      <!-- 0.4 -->
      <g transform="translate(76.096875 399.079219) scale(0.1 -0.1)">
       <use xlink:href="#DejaVuSans-30"/>
       <use xlink:href="#DejaVuSans-2e" x="63.623047"/>
       <use xlink:href="#DejaVuSans-34" x="95.410156"/>
      </g>
     </g>
    </g>
    <g id="ytick_6">
     <g id="line2d_32">
      <g>
       <use xlink:href="#mcce2808878" x="99" y="349.92" style="stroke: #000000; stroke-width: 0.8"/>
      </g>
     </g>
     <g id="text_33">
      <!-- 0.5 -->
      <g transform="translate(76.096875 353.719219) scale(0.1 -0.1)">
       <use xlink:href="#DejaVuSans-30"/>
       <use xlink:href="#DejaVuSans-2e" x="63.623047"/>
       <use xlink:href="#DejaVuSans-35" x="95.410156"/>
      </g>
     </g>
    </g>
    <g id="ytick_7">
     <g id="line2d_33">
      <g>
       <use xlink:href="#mcce2808878" x="99" y="304.56" style="stroke: #000000; stroke-width: 0.8"/>
      </g>
     </g>
     <g id="text_34">
      <!-- 0.6 -->
      <g transform="translate(76.096875 308.359219) scale(0.1 -0.1)">
       <use xlink:href="#DejaVuSans-30"/>
       <use xlink:href="#DejaVuSans-2e" x="63.623047"/>
       <use xlink:href="#DejaVuSans-36" x="95.410156"/>
      </g>
     </g>
    </g>
    <g id="ytick_8">
     <g id="line2d_34">
      <g>
       <use xlink:href="#mcce2808878" x="99" y="259.2" style="stroke: #000000; stroke-width: 0.8"/>
      </g>
     </g>
     <g id="text_35">
      <!-- 0.7 -->
      <g transform="translate(76.096875 262.999219) scale(0.1 -0.1)">
       <use xlink:href="#DejaVuSans-30"/>
       <use xlink:href="#DejaVuSans-2e" x="63.623047"/>
       <use xlink:href="#DejaVuSans-37" x="95.410156"/>
      </g>
     </g>
    </g>
    <g id="ytick_9">
     <g id="line2d_35">
      <g>
       <use xlink:href="#mcce2808878" x="99" y="213.84" style="stroke: #000000; stroke-width: 0.8"/>
      </g>
     </g>
     <g id="text_36">
      <!-- 0.8 -->
      <g transform="translate(76.096875 217.639219) scale(0.1 -0.1)">
       <use xlink:href="#DejaVuSans-30"/>
       <use xlink:href="#DejaVuSans-2e" x="63.623047"/>
       <use xlink:href="#DejaVuSans-38" x="95.410156"/>
      </g>
     </g>
    </g>
    <g id="ytick_10">
     <g id="line2d_36">
      <g>
       <use xlink:href="#mcce2808878" x="99" y="168.48" style="stroke: #000000; stroke-width: 0.8"/>
      </g>
     </g>
     <g id="text_37">
      <!-- 0.9 -->
      <g transform="translate(76.096875 172.279219) scale(0.1 -0.1)">
       <use xlink:href="#DejaVuSans-30"/>
       <use xlink:href="#DejaVuSans-2e" x="63.623047"/>
       <use xlink:href="#DejaVuSans-39" x="95.410156"/>
      </g>
     </g>
    </g>
    <g id="ytick_11">
     <g id="line2d_37">
      <g>
       <use xlink:href="#mcce2808878" x="99" y="123.12" style="stroke: #000000; stroke-width: 0.8"/>
      </g>
     </g>
     <g id="text_38">
      <!-- 1.0 -->
      <g transform="translate(76.096875 126.919219) scale(0.1 -0.1)">
       <use xlink:href="#DejaVuSans-31"/>
       <use xlink:href="#DejaVuSans-2e" x="63.623047"/>
       <use xlink:href="#DejaVuSans-30" x="95.410156"/>
      </g>
     </g>
    </g>
    <g id="text_39">
     <!-- Likelihood of occurrence -->
     <g transform="translate(70.017187 388.151719) rotate(-90) scale(0.1 -0.1)">
      <defs>
       <path id="DejaVuSans-69" d="M 603 3500 
L 1178 3500 
L 1178 0 
L 603 0 
L 603 3500 
z
M 603 4863 
L 1178 4863 
L 1178 4134 
L 603 4134 
L 603 4863 
z
" transform="scale(0.015625)"/>
       <path id="DejaVuSans-6b" d="M 581 4863 
L 1159 4863 
L 1159 1991 
L 2875 3500 
L 3609 3500 
L 1753 1863 
L 3688 0 
L 2938 0 
L 1159 1709 
L 1159 0 
L 581 0 
L 581 4863 
z
" transform="scale(0.015625)"/>
       <path id="DejaVuSans-6c" d="M 603 4863 
L 1178 4863 
L 1178 0 
L 603 0 
L 603 4863 
z
" transform="scale(0.015625)"/>
       <path id="DejaVuSans-68" d="M 3513 2113 
L 3513 0 
L 2938 0 
L 2938 2094 
Q 2938 2591 2744 2837 
Q 2550 3084 2163 3084 
Q 1697 3084 1428 2787 
Q 1159 2491 1159 1978 
L 1159 0 
L 581 0 
L 581 4863 
L 1159 4863 
L 1159 2956 
Q 1366 3272 1645 3428 
Q 1925 3584 2291 3584 
Q 2894 3584 3203 3211 
Q 3513 2838 3513 2113 
z
" transform="scale(0.015625)"/>
       <path id="DejaVuSans-6f" d="M 1959 3097 
Q 1497 3097 1228 2736 
Q 959 2375 959 1747 
Q 959 1119 1226 758 
Q 1494 397 1959 397 
Q 2419 397 2687 759 
Q 2956 1122 2956 1747 
Q 2956 2369 2687 2733 
Q 2419 3097 1959 3097 
z
M 1959 3584 
Q 2709 3584 3137 3096 
Q 3566 2609 3566 1747 
Q 3566 888 3137 398 
Q 2709 -91 1959 -91 
Q 1206 -91 779 398 
Q 353 888 353 1747 
Q 353 2609 779 3096 
Q 1206 3584 1959 3584 
z
" transform="scale(0.015625)"/>
       <path id="DejaVuSans-64" d="M 2906 2969 
L 2906 4863 
L 3481 4863 
L 3481 0 
L 2906 0 
L 2906 525 
Q 2725 213 2448 61 
Q 2172 -91 1784 -91 
Q 1150 -91 751 415 
Q 353 922 353 1747 
Q 353 2572 751 3078 
Q 1150 3584 1784 3584 
Q 2172 3584 2448 3432 
Q 2725 3281 2906 2969 
z
M 947 1747 
Q 947 1113 1208 752 
Q 1469 391 1925 391 
Q 2381 391 2643 752 
Q 2906 1113 2906 1747 
Q 2906 2381 2643 2742 
Q 2381 3103 1925 3103 
Q 1469 3103 1208 2742 
Q 947 2381 947 1747 
z
" transform="scale(0.015625)"/>
       <path id="DejaVuSans-66" d="M 2375 4863 
L 2375 4384 
L 1825 4384 
Q 1516 4384 1395 4259 
Q 1275 4134 1275 3809 
L 1275 3500 
L 2222 3500 
L 2222 3053 
L 1275 3053 
L 1275 0 
L 697 0 
L 697 3053 
L 147 3053 
L 147 3500 
L 697 3500 
L 697 3744 
Q 697 4328 969 4595 
Q 1241 4863 1831 4863 
L 2375 4863 
z
" transform="scale(0.015625)"/>
       <path id="DejaVuSans-72" d="M 2631 2963 
Q 2534 3019 2420 3045 
Q 2306 3072 2169 3072 
Q 1681 3072 1420 2755 
Q 1159 2438 1159 1844 
L 1159 0 
L 581 0 
L 581 3500 
L 1159 3500 
L 1159 2956 
Q 1341 3275 1631 3429 
Q 1922 3584 2338 3584 
Q 2397 3584 2469 3576 
Q 2541 3569 2628 3553 
L 2631 2963 
z
" transform="scale(0.015625)"/>
      </defs>
      <use xlink:href="#DejaVuSans-4c"/>
      <use xlink:href="#DejaVuSans-69" x="55.712891"/>
      <use xlink:href="#DejaVuSans-6b" x="83.496094"/>
      <use xlink:href="#DejaVuSans-65" x="137.78125"/>
      <use xlink:href="#DejaVuSans-6c" x="199.304688"/>
      <use xlink:href="#DejaVuSans-69" x="227.087891"/>
      <use xlink:href="#DejaVuSans-68" x="254.871094"/>
      <use xlink:href="#DejaVuSans-6f" x="318.25"/>
      <use xlink:href="#DejaVuSans-6f" x="379.431641"/>
      <use xlink:href="#DejaVuSans-64" x="440.613281"/>
      <use xlink:href="#DejaVuSans-20" x="504.089844"/>
      <use xlink:href="#DejaVuSans-6f" x="535.876953"/>
      <use xlink:href="#DejaVuSans-66" x="597.058594"/>
      <use xlink:href="#DejaVuSans-20" x="632.263672"/>
      <use xlink:href="#DejaVuSans-6f" x="664.050781"/>
      <use xlink:href="#DejaVuSans-63" x="725.232422"/>
      <use xlink:href="#DejaVuSans-63" x="780.212891"/>
      <use xlink:href="#DejaVuSans-75" x="835.193359"/>
      <use xlink:href="#DejaVuSans-72" x="898.572266"/>
      <use xlink:href="#DejaVuSans-72" x="937.935547"/>
      <use xlink:href="#DejaVuSans-65" x="976.798828"/>
      <use xlink:href="#DejaVuSans-6e" x="1038.322266"/>
      <use xlink:href="#DejaVuSans-63" x="1101.701172"/>
      <use xlink:href="#DejaVuSans-65" x="1156.681641"/>
     </g>
    </g>
   </g>
   <g id="line2d_38">
    <path d="M 178.79525 576.72 
L 197.655441 575.830976 
L 198.295402 575.633415 
L 200.197277 575.435854 
L 200.993149 575.238293 
L 203.637424 575.040732 
L 204.063502 574.843171 
L 204.118661 574.74439 
L 204.411344 574.546829 
L 207.100647 574.250488 
L 208.257307 573.954146 
L 210.53798 573.657805 
L 210.749049 573.559024 
L 216.116399 572.76878 
L 218.843413 572.077317 
L 220.471179 571.780976 
L 220.985625 571.583415 
L 221.064987 571.484634 
L 222.987687 570.793171 
L 223.912451 570.002927 
L 224.419017 569.805366 
L 225.95729 569.212683 
L 226.147534 569.113902 
L 227.12408 568.916341 
L 228.12877 568.323659 
L 228.335899 568.126098 
L 228.783929 567.928537 
L 228.836274 567.829756 
L 229.172859 567.730976 
L 230.573233 567.533415 
L 230.853533 567.335854 
L 231.435521 567.138293 
L 231.486178 566.940732 
L 231.746215 566.743171 
L 231.965727 566.446829 
L 232.48749 566.249268 
L 232.688991 566.051707 
L 232.810567 565.854146 
L 233.643024 565.557805 
L 235.645085 564.66878 
L 235.86122 564.372439 
L 236.046961 564.076098 
L 236.649775 563.878537 
L 237.25484 562.693171 
L 237.37923 562.298049 
L 237.381482 562.199268 
L 237.960093 561.705366 
L 238.063094 561.507805 
L 238.511124 560.915122 
L 238.686734 560.717561 
L 239.281667 560.42122 
L 239.290673 560.322439 
L 239.551273 560.124878 
L 239.964969 559.630976 
L 240.673036 559.137073 
L 240.82388 558.741951 
L 241.184667 558.44561 
L 241.30174 558.149268 
L 241.484104 557.951707 
L 241.557275 557.655366 
L 241.944517 557.359024 
L 241.976599 557.161463 
L 242.088044 557.062683 
L 242.950332 556.865122 
L 243.713558 555.877317 
L 243.786729 555.580976 
L 244.055772 555.284634 
L 244.081663 555.087073 
L 245.014307 554.198049 
L 245.046953 554.099268 
L 245.327815 553.802927 
L 245.376783 553.605366 
L 245.953706 553.210244 
L 246.070216 552.815122 
L 246.481098 552.51878 
L 246.610553 552.222439 
L 247.129502 551.926098 
L 247.33832 551.432195 
L 248.758957 550.44439 
L 249.214866 549.851707 
L 249.93419 549.160244 
L 250.004546 548.765122 
L 250.288786 548.567561 
L 250.384471 548.172439 
L 251.16008 547.777317 
L 251.301919 547.382195 
L 251.598541 546.888293 
L 252.961767 546.39439 
L 253.038315 546.29561 
L 253.288221 546.098049 
L 253.379965 545.900488 
L 253.794787 545.702927 
L 254.835499 545.110244 
L 255.627993 544.912683 
L 255.853134 544.715122 
L 255.976398 544.41878 
L 256.498724 543.332195 
L 257.167954 542.937073 
L 257.30135 542.739512 
L 257.712794 542.541951 
L 258.364013 542.34439 
L 259.472267 541.652927 
L 259.65238 541.455366 
L 259.762136 541.159024 
L 259.800972 540.961463 
L 260.788776 540.665122 
L 260.914855 540.36878 
L 261.111853 540.072439 
L 261.140558 539.973659 
L 261.756318 539.677317 
L 261.768137 539.578537 
L 262.083334 539.380976 
L 262.375454 539.084634 
L 262.480144 538.985854 
L 262.812227 538.788293 
L 263.404346 538.393171 
L 264.336428 537.405366 
L 265.34956 536.812683 
L 265.740179 536.516341 
L 266.18652 536.31878 
L 266.31485 536.022439 
L 266.745994 535.824878 
L 267.241303 535.133415 
L 267.361753 534.935854 
L 267.365693 534.837073 
L 267.947118 534.343171 
L 268.183516 534.046829 
L 268.907343 533.454146 
L 269.191583 533.157805 
L 269.336235 532.960244 
L 269.592333 532.762683 
L 269.930606 532.565122 
L 270.289142 532.367561 
L 270.349368 532.17 
L 271.038297 531.774878 
L 271.061937 531.676098 
L 271.47507 531.379756 
L 271.629854 531.182195 
L 272.058747 530.688293 
L 272.278259 530.490732 
L 272.282762 530.391951 
L 272.685763 530.19439 
L 273.079759 529.601707 
L 273.242986 529.404146 
L 273.380322 528.910244 
L 274.007901 528.02122 
L 274.011278 527.922439 
L 274.194767 527.724878 
L 274.642234 526.835854 
L 275.268125 526.04561 
L 275.270939 525.946829 
L 276.227786 525.551707 
L 276.95893 524.860244 
L 277.368123 524.267561 
L 277.778441 523.97122 
L 277.91634 523.576098 
L 277.968685 523.477317 
L 278.304707 523.180976 
L 278.699829 522.390732 
L 278.891761 522.193171 
L 279.069622 521.896829 
L 279.084819 521.798049 
L 279.336413 521.600488 
L 279.474312 521.304146 
L 279.636413 521.106585 
L 279.890259 520.909024 
L 279.97131 520.711463 
L 280.075437 520.316341 
L 280.10358 520.11878 
L 280.542604 519.822439 
L 280.691759 519.526098 
L 280.848795 519.328537 
L 281.229282 518.933415 
L 281.589507 518.439512 
L 281.696449 518.04439 
L 281.792696 517.846829 
L 282.217649 517.550488 
L 282.241289 517.451707 
L 282.469243 517.254146 
L 282.749543 516.661463 
L 282.774309 516.562683 
L 283.109205 516.266341 
L 283.128905 516.167561 
L 283.33716 515.97 
L 283.670368 515.278537 
L 283.982188 514.883415 
L 284.195508 514.290732 
L 284.380123 514.093171 
L 284.44654 513.796829 
L 286.558358 511.228537 
L 286.624774 510.932195 
L 286.822898 510.438293 
L 286.929277 509.94439 
L 287.266987 509.648049 
L 287.372241 509.351707 
L 287.71164 508.660244 
L 287.965486 508.462683 
L 288.316142 507.87 
L 288.442784 507.474878 
L 288.710138 506.783415 
L 289.063609 506.388293 
L 289.184622 505.993171 
L 290.1516 503.622439 
L 290.391375 503.326098 
L 290.519142 503.029756 
L 290.581618 502.733415 
L 290.753288 502.437073 
L 290.850098 502.041951 
L 290.995877 501.74561 
L 291.261543 501.152927 
L 291.481618 500.856585 
L 291.621768 500.263902 
L 291.796814 500.066341 
L 291.942593 499.67122 
L 292.168859 499.473659 
L 292.208821 499.078537 
L 292.702442 498.683415 
L 293.006382 498.387073 
L 294.36229 497.004146 
L 294.439964 496.806585 
L 294.976924 496.510244 
L 295.284241 495.423659 
L 295.454222 495.127317 
L 295.592683 494.830976 
L 295.657974 494.534634 
L 296.699249 492.559024 
L 297.043151 491.966341 
L 297.585739 491.274878 
L 297.704501 490.780976 
L 297.823263 490.385854 
L 298.115382 489.496829 
L 298.286489 489.299268 
L 298.45253 489.002927 
L 298.543149 488.706585 
L 299.036207 487.126098 
L 299.160597 486.829756 
L 299.201685 486.533415 
L 299.362098 486.335854 
L 299.486488 485.54561 
L 299.734705 485.051707 
L 299.912004 484.854146 
L 300.372979 483.372439 
L 300.586862 482.977317 
L 300.785549 482.187073 
L 301.007875 481.989512 
L 301.666411 480.013902 
L 301.821195 479.717561 
L 301.975416 479.124878 
L 302.104309 478.630976 
L 302.579356 477.643171 
L 303.001494 476.161463 
L 303.11125 475.963902 
L 303.236766 475.667561 
L 303.509749 474.877317 
L 303.626822 474.580976 
L 303.730386 474.087073 
L 303.873351 473.790732 
L 303.971287 473.49439 
L 304.143519 473.000488 
L 304.274101 472.802927 
L 304.58198 471.815122 
L 305.085732 471.123659 
L 305.198865 470.629756 
L 305.452148 469.740732 
L 305.612561 469.543171 
L 305.768471 468.950488 
L 306.114624 468.752927 
L 306.184418 468.555366 
L 306.482166 467.863902 
L 307.038826 465.789512 
L 307.166593 465.591951 
L 307.293235 465.29561 
L 307.458713 464.999268 
L 307.569032 464.604146 
L 307.883666 464.307805 
L 308.012559 463.616341 
L 309.658336 458.973659 
L 309.814245 458.677317 
L 310.3225 456.800488 
L 310.47841 456.010244 
L 310.612369 455.713902 
L 310.650642 455.516341 
L 310.888729 455.22 
L 311.144826 454.824878 
L 311.225314 454.528537 
L 311.312555 454.232195 
L 311.440323 453.935854 
L 311.57597 453.24439 
L 311.845013 452.552927 
L 311.917621 452.157805 
L 312.609928 450.873659 
L 312.999421 449.688293 
L 313.305612 449.09561 
L 313.44351 448.206585 
L 313.600546 447.910244 
L 313.841446 447.317561 
L 313.949514 447.12 
L 314.226999 446.329756 
L 315.224935 443.662683 
L 315.420244 442.279756 
L 315.504109 441.983415 
L 315.614428 441.489512 
L 315.846322 440.99561 
L 315.972401 440.600488 
L 316.408611 439.513902 
L 316.677654 438.822439 
L 316.796978 438.427317 
L 316.879154 438.130976 
L 317.00861 437.834634 
L 317.146509 437.538293 
L 319.226807 430.92 
L 319.563955 430.722439 
L 319.813861 429.833415 
L 320.301853 429.141951 
L 320.406543 428.549268 
L 320.545567 428.154146 
L 320.740314 427.561463 
L 320.888907 427.166341 
L 321.026242 426.77122 
L 321.186655 426.573659 
L 321.332996 425.585854 
L 321.509732 425.289512 
L 321.77596 424.89439 
L 322.214421 423.313902 
L 322.371457 422.91878 
L 322.548755 422.128537 
L 322.84594 421.437073 
L 323.229242 420.449268 
L 323.459448 420.054146 
L 323.59003 419.757805 
L 323.758322 419.066341 
L 323.868641 418.374878 
L 323.96714 418.078537 
L 324.219297 417.485854 
L 324.333556 417.189512 
L 324.449504 416.893171 
L 324.472018 416.79439 
L 324.616108 416.596829 
L 324.673518 416.300488 
L 324.770329 415.806585 
L 325.026989 414.917561 
L 325.154756 414.522439 
L 325.539184 413.830976 
L 325.723236 412.64561 
L 325.85832 412.349268 
L 325.972016 411.855366 
L 327.38421 407.706585 
L 327.540683 407.311463 
L 327.684773 406.224878 
L 328.278581 404.446829 
L 328.50541 403.459024 
L 328.642182 403.261463 
L 328.668074 402.965122 
L 328.822858 402.767561 
L 328.928674 402.372439 
L 329.086835 402.076098 
L 329.297341 401.483415 
L 329.701469 400.100488 
L 329.872575 399.902927 
L 329.946872 399.606585 
L 330.069573 399.310244 
L 330.276703 398.915122 
L 330.371262 398.322439 
L 330.456252 397.927317 
L 330.593588 397.729756 
L 330.804657 396.939512 
L 331.062443 396.643171 
L 331.088334 396.54439 
L 331.297152 396.346829 
L 331.420416 395.754146 
L 331.620791 395.359024 
L 331.683268 395.062683 
L 331.85156 394.865122 
L 331.985519 394.47 
L 332.305218 393.679756 
L 332.699214 392.296829 
L 332.838239 392.000488 
L 332.943492 391.407805 
L 333.574448 389.629756 
L 333.63805 389.333415 
L 333.753435 388.938293 
L 333.885142 388.740732 
L 334.225104 387.357805 
L 334.413659 387.061463 
L 334.49077 386.666341 
L 334.665817 386.27122 
L 334.77895 385.678537 
L 334.899963 385.283415 
L 335.027167 384.690732 
L 335.317035 384.196829 
L 335.46 383.801707 
L 335.666003 383.307805 
L 336.368442 381.233415 
L 336.532794 381.035854 
L 336.643676 380.541951 
L 337.136171 379.257805 
L 337.48345 378.961463 
L 337.688328 378.36878 
L 337.798647 377.874878 
L 338.412717 375.998049 
L 338.862998 374.911463 
L 339.059433 374.22 
L 339.989264 371.552927 
L 340.129976 371.355366 
L 340.243672 370.762683 
L 340.478944 370.367561 
L 340.648362 369.676098 
L 341.187574 367.305366 
L 341.309713 367.009024 
L 341.552302 366.416341 
L 342.219843 363.946829 
L 342.304834 363.650488 
L 342.366747 363.452927 
L 342.54686 363.255366 
L 342.781006 362.366341 
L 342.866559 361.872439 
L 342.93579 361.674878 
L 343.043294 361.477317 
L 343.185696 360.983415 
L 343.981567 359.798049 
L 344.140854 359.501707 
L 344.831473 357.822439 
L 344.981191 357.032195 
L 345.232223 356.04439 
L 345.442729 355.748049 
L 345.621153 355.056585 
L 345.949858 354.365122 
L 346.18513 353.97 
L 346.317963 353.574878 
L 346.662428 352.685854 
L 346.856612 352.389512 
L 347.345167 351.599268 
L 347.488694 351.204146 
L 347.81965 351.006585 
L 348.078562 349.623659 
L 348.446104 348.438293 
L 348.623965 348.240732 
L 349.162613 346.561463 
L 349.807078 344.882195 
L 349.844789 344.684634 
L 349.979873 344.388293 
L 350.01083 344.190732 
L 350.151543 343.993171 
L 350.240473 343.79561 
L 350.662612 343.005366 
L 350.914769 341.82 
L 351.003137 341.523659 
L 352.678745 336.979756 
L 352.718707 336.782195 
L 352.83972 336.584634 
L 353.149289 334.905366 
L 353.335029 334.510244 
L 353.669926 333.423659 
L 353.788688 333.226098 
L 353.922083 332.732195 
L 354.302571 331.941951 
L 354.602008 331.151707 
L 354.857542 330.460244 
L 355.020206 330.163902 
L 355.196941 329.57122 
L 355.383245 329.077317 
L 355.43165 328.780976 
L 355.601069 328.583415 
L 355.853789 328.188293 
L 355.993939 327.990732 
L 356.220768 327.101707 
L 356.516828 326.706585 
L 356.637278 326.410244 
L 356.930523 325.817561 
L 357.970672 323.841951 
L 358.104068 323.348049 
L 358.21101 323.150488 
L 358.220015 323.051707 
L 358.427145 322.854146 
L 359.299001 320.088293 
L 359.493185 319.791951 
L 359.509508 319.693171 
L 359.69356 319.49561 
L 359.832021 319.298049 
L 360.022828 319.100488 
L 360.445529 318.409024 
L 360.754535 318.211463 
L 360.908756 317.816341 
L 361.240275 317.61878 
L 361.933145 316.137073 
L 362.082301 315.741951 
L 362.248342 315.248049 
L 362.563539 314.556585 
L 362.574233 314.457805 
L 362.779673 314.161463 
L 362.953594 313.56878 
L 364.119259 310.012683 
L 364.526764 309.51878 
L 364.633705 308.926098 
L 364.946088 308.037073 
L 365.208377 307.839512 
L 365.411566 307.246829 
L 365.825824 306.259024 
L 366.177606 305.962683 
L 366.255843 305.567561 
L 366.351527 305.27122 
L 366.450589 304.777317 
L 366.649276 304.480976 
L 367.531264 301.912683 
L 367.716442 301.715122 
L 367.719256 301.616341 
L 368.042895 301.41878 
L 368.240456 301.023659 
L 368.339518 300.628537 
L 368.341769 300.529756 
L 368.514565 300.332195 
L 369.673475 298.652927 
L 369.941393 297.566341 
L 370.113625 297.36878 
L 370.205933 296.973659 
L 370.516627 296.578537 
L 370.677602 296.084634 
L 370.86278 295.491951 
L 371.083418 295.096829 
L 371.580415 293.911463 
L 371.737451 293.516341 
L 372.050396 292.824878 
L 372.162967 292.528537 
L 372.445518 292.330976 
L 372.582854 292.034634 
L 372.68473 291.639512 
L 372.878913 290.750488 
L 372.980789 290.552927 
L 373.122628 290.256585 
L 373.155836 290.059024 
L 373.532946 289.861463 
L 373.98379 288.280976 
L 374.199925 287.688293 
L 374.238199 287.490732 
L 374.412683 287.19439 
L 374.495422 286.700488 
L 374.759399 286.502927 
L 374.918123 285.910244 
L 375.348705 285.02122 
L 375.652644 284.823659 
L 376.621311 282.749268 
L 377.037258 281.16878 
L 377.418871 280.773659 
L 377.591104 280.477317 
L 378.319433 279.390732 
L 378.331253 279.193171 
L 378.546262 278.99561 
L 378.79842 278.600488 
L 378.929001 278.205366 
L 378.990915 277.909024 
L 379.082097 277.711463 
L 380.122246 275.241951 
L 380.263522 275.04439 
L 380.379469 274.748049 
L 381.099356 273.760244 
L 381.864833 272.179756 
L 381.875528 272.080976 
L 382.038754 271.883415 
L 382.170462 271.587073 
L 382.495227 271.191951 
L 382.742881 270.401707 
L 383.116052 270.105366 
L 383.130686 269.907805 
L 383.335001 269.710244 
L 383.447571 269.512683 
L 383.663143 269.315122 
L 383.851698 268.722439 
L 383.960891 268.426098 
L 384.581154 267.438293 
L 384.755075 267.240732 
L 384.873836 266.746829 
L 384.980778 266.450488 
L 385.14907 266.154146 
L 385.266706 265.759024 
L 385.476087 265.561463 
L 385.981527 265.265122 
L 386.441377 265.067561 
L 386.502165 264.87 
L 386.707043 264.672439 
L 386.708168 264.573659 
L 386.934997 264.277317 
L 387.434809 263.091951 
L 387.52374 262.79561 
L 387.609856 262.400488 
L 387.927304 262.104146 
L 388.083777 261.313902 
L 388.237435 261.116341 
L 388.347754 260.523659 
L 388.821675 260.029756 
L 388.89372 259.733415 
L 389.276459 258.943171 
L 389.478522 258.548049 
L 389.592781 258.054146 
L 389.822987 257.263902 
L 390.189403 256.572439 
L 390.327302 256.078537 
L 391.807601 253.312683 
L 392.001222 252.522439 
L 392.277581 252.226098 
L 392.732928 251.238293 
L 393.12805 250.448049 
L 393.335179 250.250488 
L 393.490526 250.052927 
L 393.654878 249.855366 
L 393.840057 249.559024 
L 394.062383 249.361463 
L 394.217167 249.163902 
L 394.452439 248.176098 
L 394.537429 247.978537 
L 394.852063 247.780976 
L 395.272513 246.990732 
L 395.611912 246.496829 
L 395.629923 246.398049 
L 395.939492 246.200488 
L 396.367821 245.509024 
L 396.427484 245.311463 
L 396.940241 244.422439 
L 397.040992 244.224878 
L 397.396714 243.928537 
L 397.676451 243.632195 
L 397.781141 243.237073 
L 398.592772 242.446829 
L 398.745868 242.150488 
L 398.954123 241.557805 
L 399.192209 241.360244 
L 399.672321 240.57 
L 399.915473 240.076098 
L 400.059 239.878537 
L 400.22673 239.384634 
L 400.633108 238.791951 
L 400.687705 238.59439 
L 401.392957 238.100488 
L 401.564064 237.804146 
L 401.56519 237.705366 
L 401.775696 237.507805 
L 401.915846 237.211463 
L 402.241174 236.52 
L 402.272694 236.42122 
L 402.556934 236.223659 
L 402.582262 236.026098 
L 402.822037 235.729756 
L 402.855808 235.532195 
L 403.120911 235.137073 
L 403.667439 234.346829 
L 403.929165 234.050488 
L 404.126726 233.457805 
L 404.290516 233.260244 
L 404.779633 232.865122 
L 404.906275 232.667561 
L 405.326725 232.37122 
L 405.547925 232.074878 
L 405.75224 231.877317 
L 406.163122 231.383415 
L 406.600457 231.185854 
L 407.298956 230.000488 
L 408.161244 229.506585 
L 408.281131 229.309024 
L 408.406084 228.815122 
L 408.645296 228.617561 
L 408.732538 228.32122 
L 409.225595 227.827317 
L 409.402331 227.530976 
L 409.929159 227.037073 
L 410.432911 225.950488 
L 410.666495 225.752927 
L 410.803267 225.259024 
L 410.900078 225.061463 
L 411.177563 224.863902 
L 411.731972 224.27122 
L 411.949233 224.073659 
L 412.096137 223.777317 
L 412.339288 223.579756 
L 412.384317 223.480976 
L 412.625217 223.283415 
L 412.853172 222.888293 
L 413.261802 222.591951 
L 413.445291 222.39439 
L 413.466117 222.29561 
L 414.494446 221.505366 
L 414.537785 221.307805 
L 414.787128 221.110244 
L 414.997635 220.517561 
L 415.304389 220.32 
L 415.74285 219.826098 
L 415.750167 219.727317 
L 416.096883 219.529756 
L 416.426151 219.035854 
L 416.454857 218.937073 
L 416.612455 218.739512 
L 416.725025 218.541951 
L 417.467426 218.048049 
L 417.91827 217.751707 
L 418.231778 217.356585 
L 418.534029 217.159024 
L 418.5678 216.862683 
L 419.070989 216.566341 
L 419.676054 215.973659 
L 419.759356 215.677317 
L 420.467423 214.590732 
L 420.48656 214.393171 
L 420.918267 214.096829 
L 421.445659 213.899268 
L 422.40926 213.109024 
L 422.451474 212.911463 
L 423.388058 212.31878 
L 423.729709 211.429756 
L 423.831022 211.330976 
L 424.150722 211.133415 
L 424.163105 211.034634 
L 424.319014 210.837073 
L 424.515449 210.343171 
L 425.431771 209.059024 
L 426.178112 207.972439 
L 426.624453 207.478537 
L 426.75222 207.182195 
L 427.179424 206.885854 
L 427.622951 206.293171 
L 428.011319 206.09561 
L 428.194245 205.700488 
L 428.215634 205.601707 
L 428.807753 205.206585 
L 428.831956 205.107805 
L 429.575482 204.613902 
L 429.688615 204.416341 
L 429.73702 204.21878 
L 429.922761 203.922439 
L 429.935707 203.823659 
L 430.356157 203.527317 
L 430.654468 203.230976 
L 431.365912 202.835854 
L 431.757656 202.638293 
L 432.158406 201.848049 
L 433.255404 201.354146 
L 433.380919 201.057805 
L 433.99105 200.761463 
L 434.047335 200.563902 
L 434.392926 200.366341 
L 434.853901 199.773659 
L 435.605308 199.576098 
L 435.875476 199.279756 
L 435.995926 198.983415 
L 436.331948 198.687073 
L 436.630822 198.390732 
L 436.937014 198.193171 
L 436.984293 197.99561 
L 437.919189 197.798049 
L 438.060465 197.600488 
L 438.280539 197.402927 
L 438.462903 197.205366 
L 438.653147 196.909024 
L 438.707181 196.711463 
L 439.2993 196.513902 
L 439.421439 195.92122 
L 439.951082 195.723659 
L 440.255584 195.427317 
L 440.27247 195.328537 
L 440.811119 195.130976 
L 441.049768 194.637073 
L 441.699298 194.439512 
L 441.760086 194.143171 
L 441.995921 193.94561 
L 442.604363 193.056585 
L 443.069841 192.760244 
L 443.895544 191.87122 
L 444.592353 191.673659 
L 444.630064 191.476098 
L 444.894604 191.278537 
L 445.08316 191.080976 
L 445.681471 190.883415 
L 447.272088 189.796829 
L 447.303608 189.698049 
L 447.718992 189.500488 
L 447.963832 189.302927 
L 448.377528 188.611463 
L 451.031372 185.648049 
L 451.325743 185.450488 
L 451.730996 184.660244 
L 452.081089 184.363902 
L 452.17002 184.166341 
L 452.312984 183.87 
L 452.345066 183.77122 
L 452.84713 183.573659 
L 453.317111 183.178537 
L 453.427429 182.882195 
L 453.677335 182.684634 
L 453.799474 182.585854 
L 454.31786 182.388293 
L 454.826115 181.696829 
L 454.889154 181.400488 
L 455.299473 180.906585 
L 455.417671 180.610244 
L 455.985025 180.313902 
L 456.467389 179.72122 
L 456.754443 179.523659 
L 457.108476 179.128537 
L 457.557069 178.930976 
L 458.040558 178.634634 
L 458.049001 178.535854 
L 458.843184 178.140732 
L 459.191026 177.74561 
L 459.210163 177.646829 
L 460.048249 177.350488 
L 460.279018 177.152927 
L 461.197028 176.659024 
L 462.099841 176.362683 
L 462.404907 175.86878 
L 462.761192 175.67122 
L 463.620665 175.473659 
L 463.6353 175.276098 
L 463.806969 175.078537 
L 463.885768 174.880976 
L 464.864567 174.387073 
L 465.057062 174.090732 
L 465.597399 173.893171 
L 467.083889 172.609024 
L 467.957997 172.312683 
L 468.009779 172.213902 
L 468.536045 172.016341 
L 469.053868 171.72 
L 469.994956 171.324878 
L 470.057995 171.226098 
L 470.521785 171.028537 
L 470.724974 170.830976 
L 471.004711 170.534634 
L 471.91259 170.337073 
L 472.322909 169.941951 
L 472.775441 169.74439 
L 472.890825 169.448049 
L 473.105835 169.349268 
L 474.281068 169.052927 
L 475.651048 168.163902 
L 476.226282 167.966341 
L 476.393449 167.867561 
L 477.048608 167.67 
L 477.13191 167.472439 
L 478.003766 167.176098 
L 478.026843 167.077317 
L 478.45855 166.879756 
L 478.584629 166.583415 
L 481.526089 164.607805 
L 481.600948 164.509024 
L 481.912205 164.311463 
L 483.280497 163.62 
L 484.255918 163.422439 
L 485.973177 162.434634 
L 487.421956 162.138293 
L 488.02083 161.743171 
L 488.263419 161.54561 
L 489.185932 161.249268 
L 489.521391 160.952927 
L 489.800565 160.755366 
L 490.730396 160.261463 
L 490.925142 160.063902 
L 491.095123 159.965122 
L 491.590432 159.767561 
L 491.602252 159.66878 
L 492.018199 159.372439 
L 492.134147 159.273659 
L 493.199061 158.878537 
L 493.355534 158.582195 
L 493.963413 158.285854 
L 496.495681 156.705366 
L 497.799807 156.310244 
L 498.554591 155.61878 
L 499.347648 155.42122 
L 499.539018 155.223659 
L 500.68442 155.026098 
L 500.765471 154.927317 
L 501.596802 154.729756 
L 501.761717 154.433415 
L 501.953087 154.334634 
L 502.904868 154.137073 
L 503.168282 153.939512 
L 503.189671 153.840732 
L 505.566029 153.54439 
L 505.573909 153.44561 
L 506.27297 153.248049 
L 506.282538 153.050488 
L 507.255145 152.754146 
L 507.937884 152.457805 
L 508.02006 152.260244 
L 509.323624 151.963902 
L 509.352329 151.865122 
L 510.220246 151.667561 
L 510.635067 151.37122 
L 511.846886 150.976098 
L 513.159455 150.679756 
L 513.747072 150.482195 
L 514.439942 150.284634 
L 515.020804 150.087073 
L 515.184031 149.988293 
L 516.009171 149.790732 
L 516.18478 149.691951 
L 518.258324 149.296829 
L 518.54369 149.198049 
L 519.666578 149.000488 
L 520.465264 148.704146 
L 520.595283 148.605366 
L 522.706538 148.111463 
L 522.971078 148.012683 
L 523.71573 147.815122 
L 524.235805 147.617561 
L 524.742371 147.42 
L 524.776142 147.32122 
L 525.980081 147.024878 
L 526.045371 146.926098 
L 526.819855 146.629756 
L 526.906534 146.530976 
L 527.771636 146.333415 
L 527.834113 146.135854 
L 528.495463 145.839512 
L 529.583454 145.543171 
L 529.663379 145.44439 
L 531.293396 145.246829 
L 531.294522 145.148049 
L 531.698086 144.950488 
L 531.822477 144.851707 
L 532.728667 144.654146 
L 532.942551 144.555366 
L 536.688888 144.160244 
L 537.060933 144.061463 
L 538.12641 143.863902 
L 538.252489 143.666341 
L 540.820217 143.37 
L 541.961116 142.876098 
L 542.526219 142.678537 
L 542.529596 142.579756 
L 543.376124 142.382195 
L 543.488694 142.283415 
L 547.387002 141.591951 
L 547.457358 141.39439 
L 548.921335 141.098049 
L 550.177619 140.900488 
L 555.453786 139.813902 
L 557.268981 139.517561 
L 560.97592 138.727317 
L 566.098992 138.332195 
L 568.148896 138.134634 
L 569.299364 137.937073 
L 571.360525 137.640732 
L 574.148327 137.443171 
L 574.238946 137.34439 
L 574.486601 137.24561 
L 577.840632 137.048049 
L 581.563893 136.850488 
L 584.341563 136.554146 
L 584.385466 136.455366 
L 585.019236 136.356585 
L 590.692777 135.961463 
L 590.79409 135.862683 
L 595.062754 135.566341 
L 596.134423 135.36878 
L 598.545115 135.072439 
L 603.103647 134.776098 
L 604.40327 134.578537 
L 607.552423 134.282195 
L 607.75505 134.183415 
L 608.458614 134.084634 
L 613.025026 133.788293 
L 614.035907 133.590732 
L 614.766487 133.393171 
L 614.791816 133.29439 
L 618.001756 133.096829 
L 618.717703 132.998049 
L 622.282803 132.800488 
L 623.197436 132.701707 
L 630.974915 132.504146 
L 632.311687 132.306585 
L 632.422005 132.207805 
L 632.979791 132.109024 
L 637.721813 131.812683 
L 643.608111 131.615122 
L 644.01449 131.417561 
L 647.082592 131.12122 
L 665.554244 130.232195 
L 665.763062 130.133415 
L 669.313527 129.935854 
L 676.93003 129.738293 
L 685.416702 129.540732 
L 699.225694 129.343171 
L 713.282341 128.948049 
L 713.282341 128.948049 
" clip-path="url(#pee3b3f6381)" style="fill: none; stroke: #ff0000; stroke-width: 1.5; stroke-linecap: square"/>
   </g>
   <g id="line2d_39">
    <path d="M 172.589252 576.72 
L 187.886594 576.027481 
L 188.344755 575.92855 
L 194.513042 575.631756 
L 194.58171 575.532824 
L 195.988275 575.334962 
L 196.556755 575.137099 
L 196.79259 575.038168 
L 204.14399 574.543511 
L 206.643612 574.048855 
L 209.568187 573.752061 
L 215.515273 573.158473 
L 215.689757 573.059542 
L 216.392196 572.960611 
L 218.728591 572.762748 
L 218.831593 572.663817 
L 221.367238 572.465954 
L 222.163672 572.268092 
L 223.200444 572.070229 
L 223.422771 571.872366 
L 223.531964 571.674504 
L 227.388058 571.080916 
L 227.823142 570.883053 
L 228.931396 570.58626 
L 229.488619 570.289466 
L 230.193308 570.091603 
L 230.954846 569.794809 
L 231.906627 569.498015 
L 232.005126 569.201221 
L 232.8843 568.706565 
L 233.010942 568.508702 
L 233.613755 568.31084 
L 234.237957 567.816183 
L 234.345462 567.717252 
L 234.83852 567.519389 
L 235.0282 567.321527 
L 235.490864 566.727939 
L 235.832515 566.530076 
L 236.335141 565.738626 
L 236.395366 565.540763 
L 236.462345 565.441832 
L 236.758405 565.243969 
L 236.808499 565.145038 
L 237.518817 564.947176 
L 238.239267 564.749313 
L 238.252775 564.650382 
L 238.847146 564.155725 
L 238.913563 564.056794 
L 239.695363 563.562137 
L 240.266094 562.473893 
L 240.671347 562.177099 
L 240.845831 561.781374 
L 241.405305 561.583511 
L 241.427819 561.48458 
L 241.580352 561.286718 
L 242.088607 560.297405 
L 242.456711 560.000611 
L 242.511308 559.901679 
L 242.744891 559.703817 
L 242.870407 559.407023 
L 243.943764 558.219847 
L 244.345077 557.824122 
L 244.500424 557.62626 
L 244.541512 557.527328 
L 244.92594 557.329466 
L 244.934382 557.230534 
L 245.688603 556.735878 
L 245.733631 556.439084 
L 246.788977 555.251908 
L 247.05802 554.757252 
L 247.438508 554.460458 
L 247.637757 553.86687 
L 247.78635 553.669008 
L 247.90286 553.372214 
L 248.566461 553.07542 
L 248.606424 552.976489 
L 249.164772 552.679695 
L 249.199106 552.580763 
L 249.492352 552.283969 
L 249.539631 552.086107 
L 249.832314 551.789313 
L 250.094603 551.492519 
L 250.144134 551.294656 
L 250.64282 551.096794 
L 250.74357 550.8 
L 251.279404 550.503206 
L 251.463457 550.107481 
L 251.614864 549.513893 
L 252.321805 548.722443 
L 252.617302 548.52458 
L 252.777715 548.227786 
L 253.081654 547.73313 
L 253.095725 547.634198 
L 253.753136 547.238473 
L 253.858952 547.040611 
L 254.106606 546.842748 
L 254.201728 546.545954 
L 254.774711 545.259847 
L 254.957075 545.160916 
L 255.605479 544.963053 
L 255.791783 544.765191 
L 256.09516 544.567328 
L 256.096285 544.468397 
L 256.60454 544.072672 
L 256.792532 543.676947 
L 257.148254 543.281221 
L 257.26589 542.786565 
L 257.624989 542.588702 
L 258.313919 542.39084 
L 258.518797 541.698321 
L 258.918984 541.500458 
L 259.028178 541.302595 
L 259.633243 540.90687 
L 259.685025 540.511145 
L 260.007539 540.214351 
L 260.203974 539.917557 
L 260.500034 539.719695 
L 261.073016 538.829313 
L 261.712415 538.63145 
L 262.696842 537.741069 
L 262.810538 537.543206 
L 263.040744 537.345344 
L 263.464571 537.147481 
L 263.660443 536.751756 
L 264.28352 536.553893 
L 264.371887 536.454962 
L 265.060254 536.158168 
L 265.169448 535.861374 
L 265.311849 535.663511 
L 265.951248 535.465649 
L 266.179766 535.267786 
L 266.81635 534.080611 
L 267.212035 533.882748 
L 267.398901 533.684885 
L 267.502466 533.28916 
L 267.731546 532.992366 
L 267.859314 532.695573 
L 267.91785 532.596641 
L 268.210533 532.398779 
L 268.243178 532.299847 
L 268.668131 532.101985 
L 268.761001 532.003053 
L 269.01935 531.805191 
L 269.033421 531.70626 
L 269.900775 531.409466 
L 269.903589 531.310534 
L 270.492332 531.112672 
L 270.575071 531.01374 
L 271.395708 530.618015 
L 272.100961 529.826565 
L 272.251805 529.529771 
L 272.986888 528.738321 
L 273.251991 528.540458 
L 273.97413 528.144733 
L 274.301709 527.847939 
L 274.328163 527.650076 
L 274.601146 527.353282 
L 274.744673 527.15542 
L 275.081821 526.561832 
L 275.285573 526.363969 
L 275.716717 525.572519 
L 275.838293 525.374656 
L 275.84955 525.275725 
L 276.122533 525.077863 
L 276.181069 524.781069 
L 276.804146 524.286412 
L 277.119342 523.890687 
L 277.47619 523.692824 
L 278.189323 523.494962 
L 278.193825 523.396031 
L 278.457803 523.198168 
L 278.641855 522.802443 
L 278.953112 522.307786 
L 278.984069 522.208855 
L 279.37131 522.010992 
L 279.509772 521.714198 
L 279.70283 521.516336 
L 280.08782 521.318473 
L 280.209959 521.120611 
L 280.393448 520.922748 
L 280.403579 520.823817 
L 280.893823 520.625954 
L 280.936037 520.527023 
L 281.533785 520.32916 
L 282.284065 518.944122 
L 282.483315 518.350534 
L 282.989881 517.064427 
L 283.310143 516.866565 
L 283.557235 516.47084 
L 283.750293 516.174046 
L 283.923651 515.580458 
L 284.221399 515.382595 
L 284.727965 514.591145 
L 285.244663 513.799695 
L 285.292505 513.700763 
L 285.510329 513.502901 
L 285.5638 513.403969 
L 285.799634 513.206107 
L 286.032092 512.71145 
L 286.269615 512.513588 
L 286.45423 511.821069 
L 286.472804 511.722137 
L 286.666425 511.524275 
L 286.811078 511.227481 
L 287.000759 511.029618 
L 287.265299 510.633893 
L 289.101882 508.457405 
L 289.61464 507.36916 
L 290.251225 506.379847 
L 290.344658 506.181985 
L 290.563044 505.885191 
L 290.665483 505.687328 
L 290.927209 505.390534 
L 291.511449 504.599084 
L 291.892499 504.30229 
L 292.404694 503.609771 
L 292.518952 503.214046 
L 292.904506 502.719389 
L 293.009196 502.521527 
L 293.650283 502.02687 
L 293.749345 501.730076 
L 293.920452 501.532214 
L 294.004317 501.23542 
L 294.456286 501.037557 
L 294.579551 500.542901 
L 294.968481 499.850382 
L 295.170545 499.652519 
L 295.316323 499.256794 
L 295.530769 498.465344 
L 295.663039 498.267481 
L 296.157223 497.772824 
L 296.163414 497.673893 
L 296.367729 497.476031 
L 296.534333 496.882443 
L 297.254783 495.695267 
L 297.340899 495.497405 
L 297.482175 495.299542 
L 297.630767 494.903817 
L 297.866039 494.310229 
L 298.24709 494.013435 
L 298.326452 493.716641 
L 298.507127 493.419847 
L 299.516319 491.243359 
L 299.649715 491.045496 
L 299.707126 490.847634 
L 299.882172 490.649771 
L 300.236206 489.660458 
L 300.513129 489.363664 
L 300.648213 488.770076 
L 301.347837 487.385038 
L 301.394554 487.187176 
L 301.583109 486.890382 
L 301.708625 486.395725 
L 301.87748 486.098931 
L 302.040144 485.604275 
L 302.263596 485.307481 
L 302.636766 484.614962 
L 302.826447 484.417099 
L 302.896241 483.922443 
L 303.208623 483.526718 
L 303.260968 483.427786 
L 303.522131 483.229924 
L 303.557028 483.032061 
L 303.690424 482.834198 
L 303.842394 482.636336 
L 304.046709 482.438473 
L 304.227384 481.844885 
L 304.58198 481.251298 
L 304.692862 480.855573 
L 305.345769 479.470534 
L 305.46622 479.074809 
L 305.508996 478.975878 
L 305.715563 478.778015 
L 305.981791 478.085496 
L 306.690421 476.898321 
L 306.841265 476.403664 
L 307.063591 476.007939 
L 307.244267 475.810076 
L 307.400739 474.820763 
L 307.739576 474.326107 
L 307.885917 474.029313 
L 308.148206 473.435725 
L 308.287793 473.237863 
L 308.3998 472.545344 
L 308.630569 472.347481 
L 308.752145 471.556031 
L 308.932258 471.259237 
L 309.164715 470.467786 
L 309.346516 469.181679 
L 309.801863 468.192366 
L 309.896985 467.895573 
L 309.986478 467.69771 
L 310.011243 467.499847 
L 310.157585 467.301985 
L 310.166028 467.104122 
L 310.453082 466.807328 
L 310.590417 466.21374 
L 310.896046 465.026565 
L 311.314807 464.334046 
L 311.653643 464.037252 
L 311.788728 463.542595 
L 311.967151 463.344733 
L 312.652141 460.87145 
L 312.756269 460.574656 
L 312.952704 459.585344 
L 313.016869 459.090687 
L 313.253267 458.200305 
L 313.3664 457.80458 
L 313.450827 457.507786 
L 313.601672 457.309924 
L 313.6467 457.01313 
L 313.843698 456.815267 
L 314.087412 455.825954 
L 314.257393 455.628092 
L 314.3891 455.034504 
L 314.619869 454.73771 
L 315.176529 453.154809 
L 315.181032 453.055878 
L 315.536754 452.660153 
L 315.64257 452.264427 
L 315.820994 451.571908 
L 315.93863 451.077252 
L 316.131125 450.582595 
L 316.22681 449.989008 
L 316.329811 449.791145 
L 316.637691 448.208244 
L 316.833001 447.317863 
L 316.945571 447.021069 
L 317.12512 446.229618 
L 319.687782 436.633282 
L 319.927557 435.446107 
L 320.275962 435.050382 
L 320.385718 434.456794 
L 320.506168 434.061069 
L 320.86977 432.873893 
L 320.999788 432.082443 
L 321.284028 431.192061 
L 321.7799 429.510229 
L 322.039375 429.114504 
L 322.249318 428.02626 
L 322.390594 427.33374 
L 322.531307 427.036947 
L 322.623051 426.740153 
L 322.720987 426.146565 
L 322.850443 425.651908 
L 323.022113 425.256183 
L 323.194908 424.761527 
L 323.483651 423.871145 
L 323.794908 422.683969 
L 323.892844 422.090382 
L 323.986277 421.793588 
L 325.026426 417.242748 
L 325.211604 416.748092 
L 325.744624 414.274809 
L 325.936557 413.879084 
L 326.169014 413.58229 
L 327.496217 408.932519 
L 327.62511 407.844275 
L 327.847437 407.44855 
L 328.0298 407.250687 
L 328.297155 406.360305 
L 328.437305 405.96458 
L 328.982145 403.887023 
L 329.122295 402.89771 
L 329.592275 401.611603 
L 329.755502 401.215878 
L 329.903532 400.721221 
L 330.148935 399.731908 
L 330.757377 397.55542 
L 330.92567 396.961832 
L 331.517227 393.894962 
L 331.640491 393.202443 
L 331.751373 392.905649 
L 332.081204 391.817405 
L 332.348558 391.124885 
L 332.410472 390.927023 
L 332.650246 390.333435 
L 332.92548 389.245191 
L 333.032985 389.047328 
L 333.134861 388.45374 
L 333.296962 388.058015 
L 333.363379 387.464427 
L 333.515349 387.167634 
L 333.522103 387.068702 
L 333.708969 386.87084 
L 333.80578 386.574046 
L 333.931859 386.277252 
L 334.135048 384.892214 
L 334.328669 384.100763 
L 334.430545 383.507176 
L 334.594334 383.210382 
L 335.275947 381.132824 
L 335.429043 380.836031 
L 336.171444 378.065954 
L 336.310468 377.868092 
L 336.546865 376.384122 
L 336.658873 376.18626 
L 336.788891 375.790534 
L 337.204838 374.801221 
L 337.405214 374.009771 
L 337.499773 373.712977 
L 337.610091 372.723664 
L 337.769941 372.42687 
L 338.144237 371.140763 
L 338.495456 370.448244 
L 338.615907 370.15145 
L 338.910278 368.964275 
L 339.108401 368.667481 
L 339.219283 368.370687 
L 339.754555 366.490992 
L 339.877256 366.194198 
L 339.993204 365.897405 
L 340.218907 365.402748 
L 340.405211 364.611298 
L 341.054741 362.830534 
L 341.680632 360.851908 
L 341.805585 360.357252 
L 342.052676 359.763664 
L 342.155678 359.367939 
L 342.457366 359.170076 
L 342.571062 358.774351 
L 342.68307 358.477557 
L 342.838417 358.180763 
L 343.263369 356.993588 
L 343.406334 356.4 
L 343.655677 355.60855 
L 343.796952 355.311756 
L 343.991136 354.718168 
L 344.111023 354.223511 
L 344.41046 353.036336 
L 344.622092 352.838473 
L 344.929972 351.750229 
L 344.992448 351.453435 
L 345.122467 351.156641 
L 345.241229 350.760916 
L 345.404455 350.068397 
L 345.520403 349.474809 
L 346.032597 348.386565 
L 346.222841 347.891908 
L 346.361865 347.397252 
L 346.704642 346.704733 
L 346.861677 346.111145 
L 346.981565 345.913282 
L 347.301827 344.528244 
L 347.676123 343.538931 
L 347.810645 343.242137 
L 348.270494 341.956031 
L 348.311582 341.758168 
L 348.625653 341.362443 
L 349.058486 340.175267 
L 349.227904 339.779542 
L 349.379874 339.087023 
L 349.656797 338.09771 
L 349.735596 337.800916 
L 349.922462 337.405191 
L 350.077246 337.009466 
L 350.189254 336.61374 
L 350.244976 336.218015 
L 350.453794 335.921221 
L 350.749854 335.426565 
L 350.981748 334.437252 
L 351.150041 333.744733 
L 351.399384 333.151145 
L 351.644787 332.953282 
L 351.740472 332.656489 
L 351.893567 332.161832 
L 352.153605 331.766107 
L 352.284186 331.27145 
L 352.415893 331.073588 
L 352.527901 330.677863 
L 352.897131 329.787481 
L 353.020396 329.490687 
L 353.109326 329.193893 
L 353.928275 327.017405 
L 354.013828 326.720611 
L 354.48606 325.92916 
L 354.625085 325.335573 
L 354.803508 324.840916 
L 355.10182 324.049466 
L 355.302195 323.65374 
L 355.37424 323.356947 
L 356.721143 321.180458 
L 356.824144 320.784733 
L 357.002568 320.191145 
L 357.088684 319.993282 
L 357.168609 319.696489 
L 357.358853 319.201832 
L 358.010072 317.816794 
L 358.264481 317.52 
L 358.3354 317.322137 
L 358.447407 317.124275 
L 358.558289 316.926412 
L 358.983242 316.431756 
L 359.130709 315.937099 
L 359.202754 315.640305 
L 359.333898 315.145649 
L 359.569733 314.848855 
L 359.848907 314.255267 
L 360.137087 314.057405 
L 360.283991 313.562748 
L 360.928456 311.880916 
L 361.15641 311.683053 
L 361.248155 311.287328 
L 361.308943 311.089466 
L 361.421513 310.891603 
L 361.508755 310.594809 
L 362.161663 309.11084 
L 362.31307 308.912977 
L 362.884927 307.330076 
L 362.97442 307.033282 
L 363.182112 306.439695 
L 363.51138 305.549313 
L 364.156408 304.856794 
L 364.389428 303.669618 
L 364.507064 303.471756 
L 364.71757 302.680305 
L 364.826763 302.482443 
L 365.187551 301.690992 
L 365.466162 301.49313 
L 365.479671 301.394198 
L 365.69074 301.196336 
L 365.877607 300.800611 
L 366.035205 300.602748 
L 366.192803 300.108092 
L 366.315505 299.514504 
L 366.918881 298.030534 
L 367.137268 297.73374 
L 367.151339 297.535878 
L 367.330326 297.338015 
L 367.393365 297.041221 
L 367.821695 296.15084 
L 367.835203 296.051908 
L 367.973665 295.854046 
L 368.136892 295.359389 
L 368.293927 294.864733 
L 368.468411 294.66687 
L 368.724508 294.469008 
L 368.845521 294.172214 
L 369.281731 293.974351 
L 369.290174 293.87542 
L 369.430887 293.677557 
L 369.638579 293.281832 
L 369.953775 292.589313 
L 370.128822 292.193588 
L 370.161467 291.995725 
L 370.435576 291.6 
L 370.61794 291.204275 
L 370.713062 290.709618 
L 370.968596 290.412824 
L 371.368221 289.32458 
L 371.516813 288.928855 
L 371.651898 288.632061 
L 371.86353 288.236336 
L 372.020565 287.741679 
L 372.673473 285.861985 
L 373.023003 285.565191 
L 373.03426 285.46626 
L 373.216061 285.268397 
L 373.307243 284.971603 
L 373.73501 284.081221 
L 373.971408 283.586565 
L 374.211745 283.388702 
L 374.273096 282.894046 
L 374.419437 282.696183 
L 374.698611 282.003664 
L 374.891669 281.70687 
L 375.049831 281.014351 
L 375.195046 280.816489 
L 375.255271 280.025038 
L 375.403864 279.827176 
L 375.903113 278.837863 
L 376.167653 278.442137 
L 376.364088 278.145344 
L 376.818309 276.859237 
L 377.003487 276.562443 
L 377.005739 276.463511 
L 377.166714 276.265649 
L 377.399172 275.177405 
L 377.530879 274.880611 
L 377.578721 274.682748 
L 377.972717 274.484885 
L 378.110616 274.08916 
L 378.349827 273.792366 
L 378.618307 273.495573 
L 378.861459 273.29771 
L 379.059583 272.605191 
L 379.397294 272.209466 
L 380.110989 270.329771 
L 380.354141 269.835115 
L 380.37778 269.736183 
L 380.606298 269.538321 
L 380.717743 268.944733 
L 381.13763 268.351145 
L 381.228812 267.856489 
L 381.644196 267.065038 
L 381.804608 266.273588 
L 381.971775 265.976794 
L 382.265021 265.185344 
L 382.589223 264.987481 
L 382.731061 264.393893 
L 382.960142 264.196031 
L 383.078904 263.800305 
L 383.341755 263.107786 
L 383.611361 262.810992 
L 384.144944 262.019542 
L 384.208546 261.722748 
L 384.547945 261.030229 
L 384.602542 260.832366 
L 384.826557 260.535573 
L 385.00892 259.941985 
L 385.123179 259.744122 
L 385.203104 259.54626 
L 385.643817 259.348397 
L 385.959013 258.556947 
L 386.088469 258.359084 
L 386.172897 257.864427 
L 386.43012 257.666565 
L 386.584904 257.468702 
L 386.86633 256.974046 
L 387.430307 256.776183 
L 387.894096 255.885802 
L 387.898599 255.78687 
L 388.103477 255.589008 
L 388.213795 254.99542 
L 389.208354 252.917863 
L 389.317547 252.72 
L 389.769516 252.027481 
L 389.875895 251.730687 
L 390.023362 251.433893 
L 390.401598 250.345649 
L 390.791654 249.65313 
L 391.07308 248.663817 
L 391.299909 248.465954 
L 391.442873 248.16916 
L 391.766513 247.674504 
L 391.869514 247.37771 
L 392.745311 246.981985 
L 393.043622 246.388397 
L 393.289588 246.091603 
L 393.395404 245.695878 
L 393.860319 244.508702 
L 394.03424 244.112977 
L 394.146248 243.816183 
L 394.459756 243.024733 
L 394.874577 242.431145 
L 395.00741 242.233282 
L 395.472888 241.738626 
L 395.602907 241.243969 
L 395.910786 240.947176 
L 396.294651 240.749313 
L 396.432549 240.55145 
L 396.665007 240.353588 
L 396.790523 240.155725 
L 396.944181 239.858931 
L 397.208158 239.067481 
L 397.837989 237.979237 
L 397.865006 237.781374 
L 398.026544 237.583511 
L 398.519039 236.297405 
L 398.719414 236.000611 
L 399.030108 234.813435 
L 399.300839 234.120916 
L 399.379638 233.923053 
L 399.564254 233.725191 
L 399.64249 233.131603 
L 400.040989 232.93374 
L 400.391082 232.241221 
L 400.544178 232.043359 
L 400.701776 231.449771 
L 401.1014 231.251908 
L 401.17232 230.955115 
L 401.51003 230.757252 
L 401.642863 230.361527 
L 401.836484 230.163664 
L 402.088079 229.767939 
L 402.319973 229.570076 
L 402.415095 229.174351 
L 402.553557 228.877557 
L 402.602525 228.679695 
L 402.898584 228.481832 
L 403.111342 227.987176 
L 403.285263 227.096794 
L 403.578509 226.305344 
L 403.726539 226.00855 
L 403.973068 225.810687 
L 404.334418 225.019237 
L 404.465562 224.821374 
L 404.618095 224.326718 
L 404.837044 224.029924 
L 405.23104 223.634198 
L 405.298582 223.337405 
L 405.646987 223.040611 
L 405.984135 222.644885 
L 406.444547 222.447023 
L 406.528412 222.150229 
L 406.746798 221.655573 
L 406.775504 221.556641 
L 406.96631 221.358779 
L 407.047361 221.160916 
L 407.484134 220.765191 
L 407.556179 220.468397 
L 407.856178 220.270534 
L 407.877004 220.171603 
L 408.512463 219.676947 
L 409.419779 218.094046 
L 409.673625 217.896183 
L 409.778315 217.599389 
L 409.965182 217.401527 
L 410.096889 217.104733 
L 410.606832 216.709008 
L 410.692386 216.214351 
L 411.083004 216.016489 
L 411.269871 215.422901 
L 411.707206 214.928244 
L 411.827657 214.730382 
L 412.528406 214.433588 
L 413.028781 213.543206 
L 413.352421 213.147481 
L 413.749794 212.751756 
L 413.877561 212.454962 
L 414.13591 212.158168 
L 414.26424 211.960305 
L 414.482063 211.663511 
L 414.507391 211.56458 
L 414.946978 211.366718 
L 415.444539 210.872061 
L 416.182437 210.179542 
L 417.204575 208.893435 
L 417.354856 208.695573 
L 418.040409 208.299847 
L 418.08206 208.200916 
L 418.677556 207.805191 
L 418.73159 207.607328 
L 419.674366 206.618015 
L 419.782996 206.22229 
L 420.036842 205.727634 
L 420.049225 205.628702 
L 420.693127 205.232977 
L 421.03928 204.639389 
L 421.633651 204.441527 
L 421.8526 204.144733 
L 422.072675 203.94687 
L 422.115452 203.650076 
L 422.411511 203.452214 
L 423.109447 202.363969 
L 423.588433 201.968244 
L 423.59969 201.770382 
L 423.860291 201.572519 
L 423.95091 201.374656 
L 424.654474 200.781069 
L 424.713573 200.484275 
L 424.859914 200.187481 
L 424.98543 199.989618 
L 425.400814 199.791756 
L 425.735711 199.297099 
L 425.84209 198.901374 
L 426.058788 198.60458 
L 426.820325 198.307786 
L 426.975109 198.109924 
L 427.497998 197.318473 
L 427.770418 197.120611 
L 427.796309 197.021679 
L 427.987116 196.823817 
L 428.53083 196.032366 
L 428.628203 195.834504 
L 429.070605 195.636641 
L 429.167415 195.438779 
L 429.514131 195.240916 
L 429.534957 195.141985 
L 430.08824 194.944122 
L 430.495181 194.74626 
L 430.582986 194.548397 
L 430.723136 194.251603 
L 430.848089 193.954809 
L 431.485236 193.163359 
L 432.339645 192.965496 
L 432.940207 192.668702 
L 433.254841 192.47084 
L 433.840769 192.075115 
L 434.016378 191.679389 
L 434.647898 190.98687 
L 434.721631 190.789008 
L 435.149961 190.393282 
L 435.313188 190.096489 
L 435.711124 189.898626 
L 436.455213 189.008244 
L 437.490859 188.71145 
L 438.140952 187.623206 
L 438.430821 187.425344 
L 438.666655 187.227481 
L 439.126505 187.029618 
L 439.320689 186.930687 
L 440.071532 186.732824 
L 440.486354 186.040305 
L 442.117496 184.754198 
L 442.243575 184.457405 
L 442.47547 183.764885 
L 442.559897 183.665954 
L 443.24545 183.36916 
L 443.788602 183.072366 
L 444.256894 182.775573 
L 444.371153 182.57771 
L 444.795543 182.379847 
L 444.964398 181.984122 
L 445.190664 181.78626 
L 445.199107 181.687328 
L 446.121057 180.994809 
L 446.380532 180.698015 
L 446.477342 180.599084 
L 448.751824 179.708702 
L 448.834 179.51084 
L 449.255013 179.312977 
L 449.659703 178.719389 
L 449.888784 178.521527 
L 449.925932 178.422595 
L 450.518614 178.02687 
L 450.644693 177.829008 
L 450.779777 177.631145 
L 451.360077 177.433282 
L 451.564392 177.23542 
L 451.888594 176.839695 
L 452.772833 176.443969 
L 453.043002 176.147176 
L 453.963264 175.949313 
L 454.042626 175.850382 
L 454.779398 175.652519 
L 455.288778 175.355725 
L 455.9642 175.157863 
L 456.06495 174.96 
L 456.382961 174.762137 
L 456.471329 174.564275 
L 456.900222 174.366412 
L 457.488401 173.970687 
L 457.565512 173.772824 
L 457.977519 173.476031 
L 458.024798 173.377099 
L 458.549376 173.179237 
L 458.607349 172.981374 
L 460.201344 172.783511 
L 460.491775 172.288855 
L 462.107721 171.497405 
L 462.159504 171.299542 
L 462.430235 170.903817 
L 462.492149 170.705954 
L 462.690835 170.508092 
L 463.141679 169.914504 
L 463.705093 169.716641 
L 463.971322 169.320916 
L 464.672072 169.123053 
L 464.725542 169.024122 
L 465.439801 168.727328 
L 465.828168 168.529466 
L 465.953684 168.430534 
L 466.931356 168.232672 
L 467.300024 168.034809 
L 467.54993 167.836947 
L 467.95856 167.639084 
L 468.115033 167.243359 
L 468.855182 166.748702 
L 468.897959 166.55084 
L 469.960059 165.957252 
L 470.000584 165.858321 
L 471.283885 165.462595 
L 471.35199 165.264733 
L 472.925722 164.572214 
L 472.963996 164.473282 
L 473.71484 164.077557 
L 473.79195 163.978626 
L 474.763994 163.681832 
L 474.914276 163.582901 
L 475.303769 163.483969 
L 476.276376 163.286107 
L 476.325344 163.088244 
L 477.09251 162.890382 
L 477.718963 162.593588 
L 478.211458 162.296794 
L 478.273372 162.098931 
L 479.877498 161.307481 
L 480.78594 160.614962 
L 481.748415 160.417099 
L 481.818209 160.318168 
L 483.337345 159.72458 
L 483.534342 159.526718 
L 483.935655 159.032061 
L 484.07074 158.735267 
L 485.122709 158.339542 
L 485.171114 158.141679 
L 485.601695 157.647023 
L 486.429086 157.44916 
L 486.507886 157.152366 
L 486.963795 156.954504 
L 487.036966 156.756641 
L 487.276178 156.558779 
L 487.369048 156.459847 
L 488.260042 156.261985 
L 489.421767 155.470534 
L 490.760227 155.074809 
L 493.307692 154.778015 
L 493.664539 154.481221 
L 495.073356 154.283359 
L 495.228703 153.986565 
L 495.497746 153.788702 
L 496.137708 153.59084 
L 496.530015 153.195115 
L 496.867726 152.898321 
L 498.875416 152.601527 
L 499.993239 152.10687 
L 500.078229 151.909008 
L 500.473351 151.711145 
L 500.520067 151.513282 
L 500.935452 151.31542 
L 501.414438 150.820763 
L 502.451773 150.523969 
L 502.479353 150.425038 
L 503.077663 150.227176 
L 503.678789 149.930382 
L 503.970345 149.732519 
L 504.353647 149.435725 
L 504.517437 149.336794 
L 505.429256 149.138931 
L 506.218373 148.743206 
L 507.438072 148.545344 
L 507.625501 148.446412 
L 508.697733 148.24855 
L 508.71293 148.149618 
L 509.55383 147.951756 
L 509.661897 147.753893 
L 509.820058 147.556031 
L 510.060396 147.457099 
L 511.217618 147.160305 
L 511.475967 146.962443 
L 511.497355 146.863511 
L 513.796603 146.566718 
L 514.48497 146.269924 
L 514.565457 146.170992 
L 515.11874 145.97313 
L 516.739189 145.775267 
L 517.15795 145.577405 
L 517.243504 145.478473 
L 517.539 145.280611 
L 517.966205 145.082748 
L 519.003539 144.884885 
L 519.967141 144.687023 
L 520.952693 143.994504 
L 520.958322 143.895573 
L 521.919672 143.598779 
L 522.050253 143.400916 
L 528.131298 142.807328 
L 530.085518 142.21374 
L 531.150432 142.015878 
L 531.391332 141.719084 
L 531.855122 141.42229 
L 532.6009 141.224427 
L 534.33617 141.026565 
L 535.522098 140.729771 
L 535.649865 140.63084 
L 537.713278 140.235115 
L 541.425282 140.037252 
L 542.98438 139.740458 
L 544.27162 139.14687 
L 544.979687 138.949008 
L 545.034284 138.850076 
L 551.392814 137.959695 
L 551.635966 137.662901 
L 555.887182 137.267176 
L 555.899564 137.168244 
L 556.247969 137.069313 
L 560.885301 136.772519 
L 561.879859 136.475725 
L 564.214003 136.277863 
L 567.926007 135.783206 
L 568.048146 135.684275 
L 570.515123 135.387481 
L 570.740263 135.28855 
L 576.086787 134.892824 
L 580.958265 134.299237 
L 585.691844 134.101374 
L 589.632365 133.80458 
L 590.629738 133.606718 
L 597.18808 133.309924 
L 597.243803 133.210992 
L 605.214902 132.815267 
L 605.6922 132.617405 
L 609.444729 132.419542 
L 618.122769 132.221679 
L 618.405884 132.122748 
L 622.766292 131.924885 
L 624.159349 131.825954 
L 631.131387 131.52916 
L 670.98407 130.243053 
L 687.851033 129.94626 
L 687.965292 129.847328 
L 688.752158 129.649466 
L 709.374465 129.451603 
L 724.529235 129.352672 
L 724.529235 129.352672 
" clip-path="url(#pee3b3f6381)" style="fill: none; stroke: #0000ff; stroke-width: 1.5; stroke-linecap: square"/>
   </g>
   <g id="patch_3">
    <path d="M 99 576.72 
L 99 77.76 
" style="fill: none; stroke: #000000; stroke-width: 0.8; stroke-linejoin: miter; stroke-linecap: square"/>
   </g>
   <g id="patch_4">
    <path d="M 712.8 576.72 
L 712.8 77.76 
" style="fill: none; stroke: #000000; stroke-width: 0.8; stroke-linejoin: miter; stroke-linecap: square"/>
   </g>
   <g id="patch_5">
    <path d="M 99 576.72 
L 712.8 576.72 
" style="fill: none; stroke: #000000; stroke-width: 0.8; stroke-linejoin: miter; stroke-linecap: square"/>
   </g>
   <g id="patch_6">
    <path d="M 99 77.76 
L 712.8 77.76 
" style="fill: none; stroke: #000000; stroke-width: 0.8; stroke-linejoin: miter; stroke-linecap: square"/>
   </g>
   <g id="legend_1">
    <g id="patch_7">
     <path d="M 106 115.11625 
L 255.651563 115.11625 
Q 257.651563 115.11625 257.651563 113.11625 
L 257.651563 84.76 
Q 257.651563 82.76 255.651563 82.76 
L 106 82.76 
Q 104 82.76 104 84.76 
L 104 113.11625 
Q 104 115.11625 106 115.11625 
z
" style="fill: #ffffff; opacity: 0.8; stroke: #cccccc; stroke-linejoin: miter"/>
    </g>
    <g id="line2d_40">
     <path d="M 108 90.858437 
L 118 90.858437 
L 128 90.858437 
" style="fill: none; stroke: #ff0000; stroke-width: 1.5; stroke-linecap: square"/>
    </g>
    <g id="text_40">
     <!-- Victoria Starlink CDF -->
     <g transform="translate(136 94.358437) scale(0.1 -0.1)">
      <defs>
       <path id="DejaVuSans-56" d="M 1831 0 
L 50 4666 
L 709 4666 
L 2188 738 
L 3669 4666 
L 4325 4666 
L 2547 0 
L 1831 0 
z
" transform="scale(0.015625)"/>
       <path id="DejaVuSans-53" d="M 3425 4513 
L 3425 3897 
Q 3066 4069 2747 4153 
Q 2428 4238 2131 4238 
Q 1616 4238 1336 4038 
Q 1056 3838 1056 3469 
Q 1056 3159 1242 3001 
Q 1428 2844 1947 2747 
L 2328 2669 
Q 3034 2534 3370 2195 
Q 3706 1856 3706 1288 
Q 3706 609 3251 259 
Q 2797 -91 1919 -91 
Q 1588 -91 1214 -16 
Q 841 59 441 206 
L 441 856 
Q 825 641 1194 531 
Q 1563 422 1919 422 
Q 2459 422 2753 634 
Q 3047 847 3047 1241 
Q 3047 1584 2836 1778 
Q 2625 1972 2144 2069 
L 1759 2144 
Q 1053 2284 737 2584 
Q 422 2884 422 3419 
Q 422 4038 858 4394 
Q 1294 4750 2059 4750 
Q 2388 4750 2728 4690 
Q 3069 4631 3425 4513 
z
" transform="scale(0.015625)"/>
       <path id="DejaVuSans-43" d="M 4122 4306 
L 4122 3641 
Q 3803 3938 3442 4084 
Q 3081 4231 2675 4231 
Q 1875 4231 1450 3742 
Q 1025 3253 1025 2328 
Q 1025 1406 1450 917 
Q 1875 428 2675 428 
Q 3081 428 3442 575 
Q 3803 722 4122 1019 
L 4122 359 
Q 3791 134 3420 21 
Q 3050 -91 2638 -91 
Q 1578 -91 968 557 
Q 359 1206 359 2328 
Q 359 3453 968 4101 
Q 1578 4750 2638 4750 
Q 3056 4750 3426 4639 
Q 3797 4528 4122 4306 
z
" transform="scale(0.015625)"/>
       <path id="DejaVuSans-44" d="M 1259 4147 
L 1259 519 
L 2022 519 
Q 2988 519 3436 956 
Q 3884 1394 3884 2338 
Q 3884 3275 3436 3711 
Q 2988 4147 2022 4147 
L 1259 4147 
z
M 628 4666 
L 1925 4666 
Q 3281 4666 3915 4102 
Q 4550 3538 4550 2338 
Q 4550 1131 3912 565 
Q 3275 0 1925 0 
L 628 0 
L 628 4666 
z
" transform="scale(0.015625)"/>
       <path id="DejaVuSans-46" d="M 628 4666 
L 3309 4666 
L 3309 4134 
L 1259 4134 
L 1259 2759 
L 3109 2759 
L 3109 2228 
L 1259 2228 
L 1259 0 
L 628 0 
L 628 4666 
z
" transform="scale(0.015625)"/>
      </defs>
      <use xlink:href="#DejaVuSans-56"/>
      <use xlink:href="#DejaVuSans-69" x="66.158203"/>
      <use xlink:href="#DejaVuSans-63" x="93.941406"/>
      <use xlink:href="#DejaVuSans-74" x="148.921875"/>
      <use xlink:href="#DejaVuSans-6f" x="188.130859"/>
      <use xlink:href="#DejaVuSans-72" x="249.3125"/>
      <use xlink:href="#DejaVuSans-69" x="290.425781"/>
      <use xlink:href="#DejaVuSans-61" x="318.208984"/>
      <use xlink:href="#DejaVuSans-20" x="379.488281"/>
      <use xlink:href="#DejaVuSans-53" x="411.275391"/>
      <use xlink:href="#DejaVuSans-74" x="474.751953"/>
      <use xlink:href="#DejaVuSans-61" x="513.960938"/>
      <use xlink:href="#DejaVuSans-72" x="575.240234"/>
      <use xlink:href="#DejaVuSans-6c" x="616.353516"/>
      <use xlink:href="#DejaVuSans-69" x="644.136719"/>
      <use xlink:href="#DejaVuSans-6e" x="671.919922"/>
      <use xlink:href="#DejaVuSans-6b" x="735.298828"/>
      <use xlink:href="#DejaVuSans-20" x="793.208984"/>
      <use xlink:href="#DejaVuSans-43" x="824.996094"/>
      <use xlink:href="#DejaVuSans-44" x="894.820312"/>
      <use xlink:href="#DejaVuSans-46" x="971.822266"/>
     </g>
    </g>
    <g id="line2d_41">
     <path d="M 108 105.536562 
L 118 105.536562 
L 128 105.536562 
" style="fill: none; stroke: #0000ff; stroke-width: 1.5; stroke-linecap: square"/>
    </g>
    <g id="text_41">
     <!-- Vancouver Starlink CDF -->
     <g transform="translate(136 109.036562) scale(0.1 -0.1)">
      <defs>
       <path id="DejaVuSans-76" d="M 191 3500 
L 800 3500 
L 1894 563 
L 2988 3500 
L 3597 3500 
L 2284 0 
L 1503 0 
L 191 3500 
z
" transform="scale(0.015625)"/>
      </defs>
      <use xlink:href="#DejaVuSans-56"/>
      <use xlink:href="#DejaVuSans-61" x="60.658203"/>
      <use xlink:href="#DejaVuSans-6e" x="121.9375"/>
      <use xlink:href="#DejaVuSans-63" x="185.316406"/>
      <use xlink:href="#DejaVuSans-6f" x="240.296875"/>
      <use xlink:href="#DejaVuSans-75" x="301.478516"/>
      <use xlink:href="#DejaVuSans-76" x="364.857422"/>
      <use xlink:href="#DejaVuSans-65" x="424.037109"/>
      <use xlink:href="#DejaVuSans-72" x="485.560547"/>
      <use xlink:href="#DejaVuSans-20" x="526.673828"/>
      <use xlink:href="#DejaVuSans-53" x="558.460938"/>
      <use xlink:href="#DejaVuSans-74" x="621.9375"/>
      <use xlink:href="#DejaVuSans-61" x="661.146484"/>
      <use xlink:href="#DejaVuSans-72" x="722.425781"/>
      <use xlink:href="#DejaVuSans-6c" x="763.539062"/>
      <use xlink:href="#DejaVuSans-69" x="791.322266"/>
      <use xlink:href="#DejaVuSans-6e" x="819.105469"/>
      <use xlink:href="#DejaVuSans-6b" x="882.484375"/>
      <use xlink:href="#DejaVuSans-20" x="940.394531"/>
      <use xlink:href="#DejaVuSans-43" x="972.181641"/>
      <use xlink:href="#DejaVuSans-44" x="1042.005859"/>
      <use xlink:href="#DejaVuSans-46" x="1119.007812"/>
     </g>
    </g>
   </g>
  </g>
 </g>
 <defs>
  <clipPath id="pee3b3f6381">
   <rect x="99" y="77.76" width="613.8" height="498.96"/>
  </clipPath>
 </defs>
</svg>
