<?xml version="1.0" encoding="utf-8" standalone="no"?>
<!DOCTYPE svg PUBLIC "-//W3C//DTD SVG 1.1//EN"
  "http://www.w3.org/Graphics/SVG/1.1/DTD/svg11.dtd">
<svg xmlns:xlink="http://www.w3.org/1999/xlink" width="792pt" height="648pt" viewBox="0 0 792 648" xmlns="http://www.w3.org/2000/svg" version="1.1">
 <metadata>
  <rdf:RDF xmlns:dc="http://purl.org/dc/elements/1.1/" xmlns:cc="http://creativecommons.org/ns#" xmlns:rdf="http://www.w3.org/1999/02/22-rdf-syntax-ns#">
   <cc:Work>
    <dc:type rdf:resource="http://purl.org/dc/dcmitype/StillImage"/>
    <dc:date>2024-01-04T02:41:58.098038</dc:date>
    <dc:format>image/svg+xml</dc:format>
    <dc:creator>
     <cc:Agent>
      <dc:title>Matplotlib v3.8.2, https://matplotlib.org/</dc:title>
     </cc:Agent>
    </dc:creator>
   </cc:Work>
  </rdf:RDF>
 </metadata>
 <defs>
  <style type="text/css">*{stroke-linejoin: round; stroke-linecap: butt}</style>
 </defs>
 <g id="figure_1">
  <g id="patch_1">
   <path d="M 0 648 
L 792 648 
L 792 0 
L 0 0 
z
" style="fill: #ffffff"/>
  </g>
  <g id="axes_1">
   <g id="patch_2">
    <path d="M 99 576.72 
L 712.8 576.72 
L 712.8 77.76 
L 99 77.76 
z
" style="fill: #ffffff"/>
   </g>
   <g id="matplotlib.axis_1">
    <g id="xtick_1">
     <g id="line2d_1">
      <defs>
       <path id="m3a416e0719" d="M 0 0 
L 0 3.5 
" style="stroke: #000000; stroke-width: 0.8"/>
      </defs>
      <g>
       <use xlink:href="#m3a416e0719" x="99" y="576.72" style="stroke: #000000; stroke-width: 0.8"/>
      </g>
     </g>
     <g id="text_1">
      <!-- 0 -->
      <g transform="translate(95.81875 591.318438) scale(0.1 -0.1)">
       <defs>
        <path id="DejaVuSans-30" d="M 2034 4250 
Q 1547 4250 1301 3770 
Q 1056 3291 1056 2328 
Q 1056 1369 1301 889 
Q 1547 409 2034 409 
Q 2525 409 2770 889 
Q 3016 1369 3016 2328 
Q 3016 3291 2770 3770 
Q 2525 4250 2034 4250 
z
M 2034 4750 
Q 2819 4750 3233 4129 
Q 3647 3509 3647 2328 
Q 3647 1150 3233 529 
Q 2819 -91 2034 -91 
Q 1250 -91 836 529 
Q 422 1150 422 2328 
Q 422 3509 836 4129 
Q 1250 4750 2034 4750 
z
" transform="scale(0.015625)"/>
       </defs>
       <use xlink:href="#DejaVuSans-30"/>
      </g>
     </g>
    </g>
    <g id="xtick_2">
     <g id="line2d_2">
      <g>
       <use xlink:href="#m3a416e0719" x="122.607692" y="576.72" style="stroke: #000000; stroke-width: 0.8"/>
      </g>
     </g>
     <g id="text_2">
      <!-- 10 -->
      <g transform="translate(116.245192 591.318438) scale(0.1 -0.1)">
       <defs>
        <path id="DejaVuSans-31" d="M 794 531 
L 1825 531 
L 1825 4091 
L 703 3866 
L 703 4441 
L 1819 4666 
L 2450 4666 
L 2450 531 
L 3481 531 
L 3481 0 
L 794 0 
L 794 531 
z
" transform="scale(0.015625)"/>
       </defs>
       <use xlink:href="#DejaVuSans-31"/>
       <use xlink:href="#DejaVuSans-30" x="63.623047"/>
      </g>
     </g>
    </g>
    <g id="xtick_3">
     <g id="line2d_3">
      <g>
       <use xlink:href="#m3a416e0719" x="146.215385" y="576.72" style="stroke: #000000; stroke-width: 0.8"/>
      </g>
     </g>
     <g id="text_3">
      <!-- 20 -->
      <g transform="translate(139.852885 591.318438) scale(0.1 -0.1)">
       <defs>
        <path id="DejaVuSans-32" d="M 1228 531 
L 3431 531 
L 3431 0 
L 469 0 
L 469 531 
Q 828 903 1448 1529 
Q 2069 2156 2228 2338 
Q 2531 2678 2651 2914 
Q 2772 3150 2772 3378 
Q 2772 3750 2511 3984 
Q 2250 4219 1831 4219 
Q 1534 4219 1204 4116 
Q 875 4013 500 3803 
L 500 4441 
Q 881 4594 1212 4672 
Q 1544 4750 1819 4750 
Q 2544 4750 2975 4387 
Q 3406 4025 3406 3419 
Q 3406 3131 3298 2873 
Q 3191 2616 2906 2266 
Q 2828 2175 2409 1742 
Q 1991 1309 1228 531 
z
" transform="scale(0.015625)"/>
       </defs>
       <use xlink:href="#DejaVuSans-32"/>
       <use xlink:href="#DejaVuSans-30" x="63.623047"/>
      </g>
     </g>
    </g>
    <g id="xtick_4">
     <g id="line2d_4">
      <g>
       <use xlink:href="#m3a416e0719" x="169.823077" y="576.72" style="stroke: #000000; stroke-width: 0.8"/>
      </g>
     </g>
     <g id="text_4">
      <!-- 30 -->
      <g transform="translate(163.460577 591.318438) scale(0.1 -0.1)">
       <defs>
        <path id="DejaVuSans-33" d="M 2597 2516 
Q 3050 2419 3304 2112 
Q 3559 1806 3559 1356 
Q 3559 666 3084 287 
Q 2609 -91 1734 -91 
Q 1441 -91 1130 -33 
Q 819 25 488 141 
L 488 750 
Q 750 597 1062 519 
Q 1375 441 1716 441 
Q 2309 441 2620 675 
Q 2931 909 2931 1356 
Q 2931 1769 2642 2001 
Q 2353 2234 1838 2234 
L 1294 2234 
L 1294 2753 
L 1863 2753 
Q 2328 2753 2575 2939 
Q 2822 3125 2822 3475 
Q 2822 3834 2567 4026 
Q 2313 4219 1838 4219 
Q 1578 4219 1281 4162 
Q 984 4106 628 3988 
L 628 4550 
Q 988 4650 1302 4700 
Q 1616 4750 1894 4750 
Q 2613 4750 3031 4423 
Q 3450 4097 3450 3541 
Q 3450 3153 3228 2886 
Q 3006 2619 2597 2516 
z
" transform="scale(0.015625)"/>
       </defs>
       <use xlink:href="#DejaVuSans-33"/>
       <use xlink:href="#DejaVuSans-30" x="63.623047"/>
      </g>
     </g>
    </g>
    <g id="xtick_5">
     <g id="line2d_5">
      <g>
       <use xlink:href="#m3a416e0719" x="193.430769" y="576.72" style="stroke: #000000; stroke-width: 0.8"/>
      </g>
     </g>
     <g id="text_5">
      <!-- 40 -->
      <g transform="translate(187.068269 591.318438) scale(0.1 -0.1)">
       <defs>
        <path id="DejaVuSans-34" d="M 2419 4116 
L 825 1625 
L 2419 1625 
L 2419 4116 
z
M 2253 4666 
L 3047 4666 
L 3047 1625 
L 3713 1625 
L 3713 1100 
L 3047 1100 
L 3047 0 
L 2419 0 
L 2419 1100 
L 313 1100 
L 313 1709 
L 2253 4666 
z
" transform="scale(0.015625)"/>
       </defs>
       <use xlink:href="#DejaVuSans-34"/>
       <use xlink:href="#DejaVuSans-30" x="63.623047"/>
      </g>
     </g>
    </g>
    <g id="xtick_6">
     <g id="line2d_6">
      <g>
       <use xlink:href="#m3a416e0719" x="217.038462" y="576.72" style="stroke: #000000; stroke-width: 0.8"/>
      </g>
     </g>
     <g id="text_6">
      <!-- 50 -->
      <g transform="translate(210.675962 591.318438) scale(0.1 -0.1)">
       <defs>
        <path id="DejaVuSans-35" d="M 691 4666 
L 3169 4666 
L 3169 4134 
L 1269 4134 
L 1269 2991 
Q 1406 3038 1543 3061 
Q 1681 3084 1819 3084 
Q 2600 3084 3056 2656 
Q 3513 2228 3513 1497 
Q 3513 744 3044 326 
Q 2575 -91 1722 -91 
Q 1428 -91 1123 -41 
Q 819 9 494 109 
L 494 744 
Q 775 591 1075 516 
Q 1375 441 1709 441 
Q 2250 441 2565 725 
Q 2881 1009 2881 1497 
Q 2881 1984 2565 2268 
Q 2250 2553 1709 2553 
Q 1456 2553 1204 2497 
Q 953 2441 691 2322 
L 691 4666 
z
" transform="scale(0.015625)"/>
       </defs>
       <use xlink:href="#DejaVuSans-35"/>
       <use xlink:href="#DejaVuSans-30" x="63.623047"/>
      </g>
     </g>
    </g>
    <g id="xtick_7">
     <g id="line2d_7">
      <g>
       <use xlink:href="#m3a416e0719" x="240.646154" y="576.72" style="stroke: #000000; stroke-width: 0.8"/>
      </g>
     </g>
     <g id="text_7">
      <!-- 60 -->
      <g transform="translate(234.283654 591.318438) scale(0.1 -0.1)">
       <defs>
        <path id="DejaVuSans-36" d="M 2113 2584 
Q 1688 2584 1439 2293 
Q 1191 2003 1191 1497 
Q 1191 994 1439 701 
Q 1688 409 2113 409 
Q 2538 409 2786 701 
Q 3034 994 3034 1497 
Q 3034 2003 2786 2293 
Q 2538 2584 2113 2584 
z
M 3366 4563 
L 3366 3988 
Q 3128 4100 2886 4159 
Q 2644 4219 2406 4219 
Q 1781 4219 1451 3797 
Q 1122 3375 1075 2522 
Q 1259 2794 1537 2939 
Q 1816 3084 2150 3084 
Q 2853 3084 3261 2657 
Q 3669 2231 3669 1497 
Q 3669 778 3244 343 
Q 2819 -91 2113 -91 
Q 1303 -91 875 529 
Q 447 1150 447 2328 
Q 447 3434 972 4092 
Q 1497 4750 2381 4750 
Q 2619 4750 2861 4703 
Q 3103 4656 3366 4563 
z
" transform="scale(0.015625)"/>
       </defs>
       <use xlink:href="#DejaVuSans-36"/>
       <use xlink:href="#DejaVuSans-30" x="63.623047"/>
      </g>
     </g>
    </g>
    <g id="xtick_8">
     <g id="line2d_8">
      <g>
       <use xlink:href="#m3a416e0719" x="264.253846" y="576.72" style="stroke: #000000; stroke-width: 0.8"/>
      </g>
     </g>
     <g id="text_8">
      <!-- 70 -->
      <g transform="translate(257.891346 591.318438) scale(0.1 -0.1)">
       <defs>
        <path id="DejaVuSans-37" d="M 525 4666 
L 3525 4666 
L 3525 4397 
L 1831 0 
L 1172 0 
L 2766 4134 
L 525 4134 
L 525 4666 
z
" transform="scale(0.015625)"/>
       </defs>
       <use xlink:href="#DejaVuSans-37"/>
       <use xlink:href="#DejaVuSans-30" x="63.623047"/>
      </g>
     </g>
    </g>
    <g id="xtick_9">
     <g id="line2d_9">
      <g>
       <use xlink:href="#m3a416e0719" x="287.861538" y="576.72" style="stroke: #000000; stroke-width: 0.8"/>
      </g>
     </g>
     <g id="text_9">
      <!-- 80 -->
      <g transform="translate(281.499038 591.318438) scale(0.1 -0.1)">
       <defs>
        <path id="DejaVuSans-38" d="M 2034 2216 
Q 1584 2216 1326 1975 
Q 1069 1734 1069 1313 
Q 1069 891 1326 650 
Q 1584 409 2034 409 
Q 2484 409 2743 651 
Q 3003 894 3003 1313 
Q 3003 1734 2745 1975 
Q 2488 2216 2034 2216 
z
M 1403 2484 
Q 997 2584 770 2862 
Q 544 3141 544 3541 
Q 544 4100 942 4425 
Q 1341 4750 2034 4750 
Q 2731 4750 3128 4425 
Q 3525 4100 3525 3541 
Q 3525 3141 3298 2862 
Q 3072 2584 2669 2484 
Q 3125 2378 3379 2068 
Q 3634 1759 3634 1313 
Q 3634 634 3220 271 
Q 2806 -91 2034 -91 
Q 1263 -91 848 271 
Q 434 634 434 1313 
Q 434 1759 690 2068 
Q 947 2378 1403 2484 
z
M 1172 3481 
Q 1172 3119 1398 2916 
Q 1625 2713 2034 2713 
Q 2441 2713 2670 2916 
Q 2900 3119 2900 3481 
Q 2900 3844 2670 4047 
Q 2441 4250 2034 4250 
Q 1625 4250 1398 4047 
Q 1172 3844 1172 3481 
z
" transform="scale(0.015625)"/>
       </defs>
       <use xlink:href="#DejaVuSans-38"/>
       <use xlink:href="#DejaVuSans-30" x="63.623047"/>
      </g>
     </g>
    </g>
    <g id="xtick_10">
     <g id="line2d_10">
      <g>
       <use xlink:href="#m3a416e0719" x="311.469231" y="576.72" style="stroke: #000000; stroke-width: 0.8"/>
      </g>
     </g>
     <g id="text_10">
      <!-- 90 -->
      <g transform="translate(305.106731 591.318438) scale(0.1 -0.1)">
       <defs>
        <path id="DejaVuSans-39" d="M 703 97 
L 703 672 
Q 941 559 1184 500 
Q 1428 441 1663 441 
Q 2288 441 2617 861 
Q 2947 1281 2994 2138 
Q 2813 1869 2534 1725 
Q 2256 1581 1919 1581 
Q 1219 1581 811 2004 
Q 403 2428 403 3163 
Q 403 3881 828 4315 
Q 1253 4750 1959 4750 
Q 2769 4750 3195 4129 
Q 3622 3509 3622 2328 
Q 3622 1225 3098 567 
Q 2575 -91 1691 -91 
Q 1453 -91 1209 -44 
Q 966 3 703 97 
z
M 1959 2075 
Q 2384 2075 2632 2365 
Q 2881 2656 2881 3163 
Q 2881 3666 2632 3958 
Q 2384 4250 1959 4250 
Q 1534 4250 1286 3958 
Q 1038 3666 1038 3163 
Q 1038 2656 1286 2365 
Q 1534 2075 1959 2075 
z
" transform="scale(0.015625)"/>
       </defs>
       <use xlink:href="#DejaVuSans-39"/>
       <use xlink:href="#DejaVuSans-30" x="63.623047"/>
      </g>
     </g>
    </g>
    <g id="xtick_11">
     <g id="line2d_11">
      <g>
       <use xlink:href="#m3a416e0719" x="335.076923" y="576.72" style="stroke: #000000; stroke-width: 0.8"/>
      </g>
     </g>
     <g id="text_11">
      <!-- 100 -->
      <g transform="translate(325.533173 591.318438) scale(0.1 -0.1)">
       <use xlink:href="#DejaVuSans-31"/>
       <use xlink:href="#DejaVuSans-30" x="63.623047"/>
       <use xlink:href="#DejaVuSans-30" x="127.246094"/>
      </g>
     </g>
    </g>
    <g id="xtick_12">
     <g id="line2d_12">
      <g>
       <use xlink:href="#m3a416e0719" x="358.684615" y="576.72" style="stroke: #000000; stroke-width: 0.8"/>
      </g>
     </g>
     <g id="text_12">
      <!-- 110 -->
      <g transform="translate(349.140865 591.318438) scale(0.1 -0.1)">
       <use xlink:href="#DejaVuSans-31"/>
       <use xlink:href="#DejaVuSans-31" x="63.623047"/>
       <use xlink:href="#DejaVuSans-30" x="127.246094"/>
      </g>
     </g>
    </g>
    <g id="xtick_13">
     <g id="line2d_13">
      <g>
       <use xlink:href="#m3a416e0719" x="382.292308" y="576.72" style="stroke: #000000; stroke-width: 0.8"/>
      </g>
     </g>
     <g id="text_13">
      <!-- 120 -->
      <g transform="translate(372.748558 591.318438) scale(0.1 -0.1)">
       <use xlink:href="#DejaVuSans-31"/>
       <use xlink:href="#DejaVuSans-32" x="63.623047"/>
       <use xlink:href="#DejaVuSans-30" x="127.246094"/>
      </g>
     </g>
    </g>
    <g id="xtick_14">
     <g id="line2d_14">
      <g>
       <use xlink:href="#m3a416e0719" x="405.9" y="576.72" style="stroke: #000000; stroke-width: 0.8"/>
      </g>
     </g>
     <g id="text_14">
      <!-- 130 -->
      <g transform="translate(396.35625 591.318438) scale(0.1 -0.1)">
       <use xlink:href="#DejaVuSans-31"/>
       <use xlink:href="#DejaVuSans-33" x="63.623047"/>
       <use xlink:href="#DejaVuSans-30" x="127.246094"/>
      </g>
     </g>
    </g>
    <g id="xtick_15">
     <g id="line2d_15">
      <g>
       <use xlink:href="#m3a416e0719" x="429.507692" y="576.72" style="stroke: #000000; stroke-width: 0.8"/>
      </g>
     </g>
     <g id="text_15">
      <!-- 140 -->
      <g transform="translate(419.963942 591.318438) scale(0.1 -0.1)">
       <use xlink:href="#DejaVuSans-31"/>
       <use xlink:href="#DejaVuSans-34" x="63.623047"/>
       <use xlink:href="#DejaVuSans-30" x="127.246094"/>
      </g>
     </g>
    </g>
    <g id="xtick_16">
     <g id="line2d_16">
      <g>
       <use xlink:href="#m3a416e0719" x="453.115385" y="576.72" style="stroke: #000000; stroke-width: 0.8"/>
      </g>
     </g>
     <g id="text_16">
      <!-- 150 -->
      <g transform="translate(443.571635 591.318438) scale(0.1 -0.1)">
       <use xlink:href="#DejaVuSans-31"/>
       <use xlink:href="#DejaVuSans-35" x="63.623047"/>
       <use xlink:href="#DejaVuSans-30" x="127.246094"/>
      </g>
     </g>
    </g>
    <g id="xtick_17">
     <g id="line2d_17">
      <g>
       <use xlink:href="#m3a416e0719" x="476.723077" y="576.72" style="stroke: #000000; stroke-width: 0.8"/>
      </g>
     </g>
     <g id="text_17">
      <!-- 160 -->
      <g transform="translate(467.179327 591.318438) scale(0.1 -0.1)">
       <use xlink:href="#DejaVuSans-31"/>
       <use xlink:href="#DejaVuSans-36" x="63.623047"/>
       <use xlink:href="#DejaVuSans-30" x="127.246094"/>
      </g>
     </g>
    </g>
    <g id="xtick_18">
     <g id="line2d_18">
      <g>
       <use xlink:href="#m3a416e0719" x="500.330769" y="576.72" style="stroke: #000000; stroke-width: 0.8"/>
      </g>
     </g>
     <g id="text_18">
      <!-- 170 -->
      <g transform="translate(490.787019 591.318438) scale(0.1 -0.1)">
       <use xlink:href="#DejaVuSans-31"/>
       <use xlink:href="#DejaVuSans-37" x="63.623047"/>
       <use xlink:href="#DejaVuSans-30" x="127.246094"/>
      </g>
     </g>
    </g>
    <g id="xtick_19">
     <g id="line2d_19">
      <g>
       <use xlink:href="#m3a416e0719" x="523.938462" y="576.72" style="stroke: #000000; stroke-width: 0.8"/>
      </g>
     </g>
     <g id="text_19">
      <!-- 180 -->
      <g transform="translate(514.394712 591.318438) scale(0.1 -0.1)">
       <use xlink:href="#DejaVuSans-31"/>
       <use xlink:href="#DejaVuSans-38" x="63.623047"/>
       <use xlink:href="#DejaVuSans-30" x="127.246094"/>
      </g>
     </g>
    </g>
    <g id="xtick_20">
     <g id="line2d_20">
      <g>
       <use xlink:href="#m3a416e0719" x="547.546154" y="576.72" style="stroke: #000000; stroke-width: 0.8"/>
      </g>
     </g>
     <g id="text_20">
      <!-- 190 -->
      <g transform="translate(538.002404 591.318438) scale(0.1 -0.1)">
       <use xlink:href="#DejaVuSans-31"/>
       <use xlink:href="#DejaVuSans-39" x="63.623047"/>
       <use xlink:href="#DejaVuSans-30" x="127.246094"/>
      </g>
     </g>
    </g>
    <g id="xtick_21">
     <g id="line2d_21">
      <g>
       <use xlink:href="#m3a416e0719" x="571.153846" y="576.72" style="stroke: #000000; stroke-width: 0.8"/>
      </g>
     </g>
     <g id="text_21">
      <!-- 200 -->
      <g transform="translate(561.610096 591.318438) scale(0.1 -0.1)">
       <use xlink:href="#DejaVuSans-32"/>
       <use xlink:href="#DejaVuSans-30" x="63.623047"/>
       <use xlink:href="#DejaVuSans-30" x="127.246094"/>
      </g>
     </g>
    </g>
    <g id="xtick_22">
     <g id="line2d_22">
      <g>
       <use xlink:href="#m3a416e0719" x="594.761538" y="576.72" style="stroke: #000000; stroke-width: 0.8"/>
      </g>
     </g>
     <g id="text_22">
      <!-- 210 -->
      <g transform="translate(585.217788 591.318438) scale(0.1 -0.1)">
       <use xlink:href="#DejaVuSans-32"/>
       <use xlink:href="#DejaVuSans-31" x="63.623047"/>
       <use xlink:href="#DejaVuSans-30" x="127.246094"/>
      </g>
     </g>
    </g>
    <g id="xtick_23">
     <g id="line2d_23">
      <g>
       <use xlink:href="#m3a416e0719" x="618.369231" y="576.72" style="stroke: #000000; stroke-width: 0.8"/>
      </g>
     </g>
     <g id="text_23">
      <!-- 220 -->
      <g transform="translate(608.825481 591.318438) scale(0.1 -0.1)">
       <use xlink:href="#DejaVuSans-32"/>
       <use xlink:href="#DejaVuSans-32" x="63.623047"/>
       <use xlink:href="#DejaVuSans-30" x="127.246094"/>
      </g>
     </g>
    </g>
    <g id="xtick_24">
     <g id="line2d_24">
      <g>
       <use xlink:href="#m3a416e0719" x="641.976923" y="576.72" style="stroke: #000000; stroke-width: 0.8"/>
      </g>
     </g>
     <g id="text_24">
      <!-- 230 -->
      <g transform="translate(632.433173 591.318438) scale(0.1 -0.1)">
       <use xlink:href="#DejaVuSans-32"/>
       <use xlink:href="#DejaVuSans-33" x="63.623047"/>
       <use xlink:href="#DejaVuSans-30" x="127.246094"/>
      </g>
     </g>
    </g>
    <g id="xtick_25">
     <g id="line2d_25">
      <g>
       <use xlink:href="#m3a416e0719" x="665.584615" y="576.72" style="stroke: #000000; stroke-width: 0.8"/>
      </g>
     </g>
     <g id="text_25">
      <!-- 240 -->
      <g transform="translate(656.040865 591.318438) scale(0.1 -0.1)">
       <use xlink:href="#DejaVuSans-32"/>
       <use xlink:href="#DejaVuSans-34" x="63.623047"/>
       <use xlink:href="#DejaVuSans-30" x="127.246094"/>
      </g>
     </g>
    </g>
    <g id="xtick_26">
     <g id="line2d_26">
      <g>
       <use xlink:href="#m3a416e0719" x="689.192308" y="576.72" style="stroke: #000000; stroke-width: 0.8"/>
      </g>
     </g>
     <g id="text_26">
      <!-- 250 -->
      <g transform="translate(679.648558 591.318438) scale(0.1 -0.1)">
       <use xlink:href="#DejaVuSans-32"/>
       <use xlink:href="#DejaVuSans-35" x="63.623047"/>
       <use xlink:href="#DejaVuSans-30" x="127.246094"/>
      </g>
     </g>
    </g>
    <g id="text_27">
     <!-- Input Latency (ms) -->
     <g transform="translate(358.634375 604.996562) scale(0.1 -0.1)">
      <defs>
       <path id="DejaVuSans-49" d="M 628 4666 
L 1259 4666 
L 1259 0 
L 628 0 
L 628 4666 
z
" transform="scale(0.015625)"/>
       <path id="DejaVuSans-6e" d="M 3513 2113 
L 3513 0 
L 2938 0 
L 2938 2094 
Q 2938 2591 2744 2837 
Q 2550 3084 2163 3084 
Q 1697 3084 1428 2787 
Q 1159 2491 1159 1978 
L 1159 0 
L 581 0 
L 581 3500 
L 1159 3500 
L 1159 2956 
Q 1366 3272 1645 3428 
Q 1925 3584 2291 3584 
Q 2894 3584 3203 3211 
Q 3513 2838 3513 2113 
z
" transform="scale(0.015625)"/>
       <path id="DejaVuSans-70" d="M 1159 525 
L 1159 -1331 
L 581 -1331 
L 581 3500 
L 1159 3500 
L 1159 2969 
Q 1341 3281 1617 3432 
Q 1894 3584 2278 3584 
Q 2916 3584 3314 3078 
Q 3713 2572 3713 1747 
Q 3713 922 3314 415 
Q 2916 -91 2278 -91 
Q 1894 -91 1617 61 
Q 1341 213 1159 525 
z
M 3116 1747 
Q 3116 2381 2855 2742 
Q 2594 3103 2138 3103 
Q 1681 3103 1420 2742 
Q 1159 2381 1159 1747 
Q 1159 1113 1420 752 
Q 1681 391 2138 391 
Q 2594 391 2855 752 
Q 3116 1113 3116 1747 
z
" transform="scale(0.015625)"/>
       <path id="DejaVuSans-75" d="M 544 1381 
L 544 3500 
L 1119 3500 
L 1119 1403 
Q 1119 906 1312 657 
Q 1506 409 1894 409 
Q 2359 409 2629 706 
Q 2900 1003 2900 1516 
L 2900 3500 
L 3475 3500 
L 3475 0 
L 2900 0 
L 2900 538 
Q 2691 219 2414 64 
Q 2138 -91 1772 -91 
Q 1169 -91 856 284 
Q 544 659 544 1381 
z
M 1991 3584 
L 1991 3584 
z
" transform="scale(0.015625)"/>
       <path id="DejaVuSans-74" d="M 1172 4494 
L 1172 3500 
L 2356 3500 
L 2356 3053 
L 1172 3053 
L 1172 1153 
Q 1172 725 1289 603 
Q 1406 481 1766 481 
L 2356 481 
L 2356 0 
L 1766 0 
Q 1100 0 847 248 
Q 594 497 594 1153 
L 594 3053 
L 172 3053 
L 172 3500 
L 594 3500 
L 594 4494 
L 1172 4494 
z
" transform="scale(0.015625)"/>
       <path id="DejaVuSans-20" transform="scale(0.015625)"/>
       <path id="DejaVuSans-4c" d="M 628 4666 
L 1259 4666 
L 1259 531 
L 3531 531 
L 3531 0 
L 628 0 
L 628 4666 
z
" transform="scale(0.015625)"/>
       <path id="DejaVuSans-61" d="M 2194 1759 
Q 1497 1759 1228 1600 
Q 959 1441 959 1056 
Q 959 750 1161 570 
Q 1363 391 1709 391 
Q 2188 391 2477 730 
Q 2766 1069 2766 1631 
L 2766 1759 
L 2194 1759 
z
M 3341 1997 
L 3341 0 
L 2766 0 
L 2766 531 
Q 2569 213 2275 61 
Q 1981 -91 1556 -91 
Q 1019 -91 701 211 
Q 384 513 384 1019 
Q 384 1609 779 1909 
Q 1175 2209 1959 2209 
L 2766 2209 
L 2766 2266 
Q 2766 2663 2505 2880 
Q 2244 3097 1772 3097 
Q 1472 3097 1187 3025 
Q 903 2953 641 2809 
L 641 3341 
Q 956 3463 1253 3523 
Q 1550 3584 1831 3584 
Q 2591 3584 2966 3190 
Q 3341 2797 3341 1997 
z
" transform="scale(0.015625)"/>
       <path id="DejaVuSans-65" d="M 3597 1894 
L 3597 1613 
L 953 1613 
Q 991 1019 1311 708 
Q 1631 397 2203 397 
Q 2534 397 2845 478 
Q 3156 559 3463 722 
L 3463 178 
Q 3153 47 2828 -22 
Q 2503 -91 2169 -91 
Q 1331 -91 842 396 
Q 353 884 353 1716 
Q 353 2575 817 3079 
Q 1281 3584 2069 3584 
Q 2775 3584 3186 3129 
Q 3597 2675 3597 1894 
z
M 3022 2063 
Q 3016 2534 2758 2815 
Q 2500 3097 2075 3097 
Q 1594 3097 1305 2825 
Q 1016 2553 972 2059 
L 3022 2063 
z
" transform="scale(0.015625)"/>
       <path id="DejaVuSans-63" d="M 3122 3366 
L 3122 2828 
Q 2878 2963 2633 3030 
Q 2388 3097 2138 3097 
Q 1578 3097 1268 2742 
Q 959 2388 959 1747 
Q 959 1106 1268 751 
Q 1578 397 2138 397 
Q 2388 397 2633 464 
Q 2878 531 3122 666 
L 3122 134 
Q 2881 22 2623 -34 
Q 2366 -91 2075 -91 
Q 1284 -91 818 406 
Q 353 903 353 1747 
Q 353 2603 823 3093 
Q 1294 3584 2113 3584 
Q 2378 3584 2631 3529 
Q 2884 3475 3122 3366 
z
" transform="scale(0.015625)"/>
       <path id="DejaVuSans-79" d="M 2059 -325 
Q 1816 -950 1584 -1140 
Q 1353 -1331 966 -1331 
L 506 -1331 
L 506 -850 
L 844 -850 
Q 1081 -850 1212 -737 
Q 1344 -625 1503 -206 
L 1606 56 
L 191 3500 
L 800 3500 
L 1894 763 
L 2988 3500 
L 3597 3500 
L 2059 -325 
z
" transform="scale(0.015625)"/>
       <path id="DejaVuSans-28" d="M 1984 4856 
Q 1566 4138 1362 3434 
Q 1159 2731 1159 2009 
Q 1159 1288 1364 580 
Q 1569 -128 1984 -844 
L 1484 -844 
Q 1016 -109 783 600 
Q 550 1309 550 2009 
Q 550 2706 781 3412 
Q 1013 4119 1484 4856 
L 1984 4856 
z
" transform="scale(0.015625)"/>
       <path id="DejaVuSans-6d" d="M 3328 2828 
Q 3544 3216 3844 3400 
Q 4144 3584 4550 3584 
Q 5097 3584 5394 3201 
Q 5691 2819 5691 2113 
L 5691 0 
L 5113 0 
L 5113 2094 
Q 5113 2597 4934 2840 
Q 4756 3084 4391 3084 
Q 3944 3084 3684 2787 
Q 3425 2491 3425 1978 
L 3425 0 
L 2847 0 
L 2847 2094 
Q 2847 2600 2669 2842 
Q 2491 3084 2119 3084 
Q 1678 3084 1418 2786 
Q 1159 2488 1159 1978 
L 1159 0 
L 581 0 
L 581 3500 
L 1159 3500 
L 1159 2956 
Q 1356 3278 1631 3431 
Q 1906 3584 2284 3584 
Q 2666 3584 2933 3390 
Q 3200 3197 3328 2828 
z
" transform="scale(0.015625)"/>
       <path id="DejaVuSans-73" d="M 2834 3397 
L 2834 2853 
Q 2591 2978 2328 3040 
Q 2066 3103 1784 3103 
Q 1356 3103 1142 2972 
Q 928 2841 928 2578 
Q 928 2378 1081 2264 
Q 1234 2150 1697 2047 
L 1894 2003 
Q 2506 1872 2764 1633 
Q 3022 1394 3022 966 
Q 3022 478 2636 193 
Q 2250 -91 1575 -91 
Q 1294 -91 989 -36 
Q 684 19 347 128 
L 347 722 
Q 666 556 975 473 
Q 1284 391 1588 391 
Q 1994 391 2212 530 
Q 2431 669 2431 922 
Q 2431 1156 2273 1281 
Q 2116 1406 1581 1522 
L 1381 1569 
Q 847 1681 609 1914 
Q 372 2147 372 2553 
Q 372 3047 722 3315 
Q 1072 3584 1716 3584 
Q 2034 3584 2315 3537 
Q 2597 3491 2834 3397 
z
" transform="scale(0.015625)"/>
       <path id="DejaVuSans-29" d="M 513 4856 
L 1013 4856 
Q 1481 4119 1714 3412 
Q 1947 2706 1947 2009 
Q 1947 1309 1714 600 
Q 1481 -109 1013 -844 
L 513 -844 
Q 928 -128 1133 580 
Q 1338 1288 1338 2009 
Q 1338 2731 1133 3434 
Q 928 4138 513 4856 
z
" transform="scale(0.015625)"/>
      </defs>
      <use xlink:href="#DejaVuSans-49"/>
      <use xlink:href="#DejaVuSans-6e" x="29.492188"/>
      <use xlink:href="#DejaVuSans-70" x="92.871094"/>
      <use xlink:href="#DejaVuSans-75" x="156.347656"/>
      <use xlink:href="#DejaVuSans-74" x="219.726562"/>
      <use xlink:href="#DejaVuSans-20" x="258.935547"/>
      <use xlink:href="#DejaVuSans-4c" x="290.722656"/>
      <use xlink:href="#DejaVuSans-61" x="346.435547"/>
      <use xlink:href="#DejaVuSans-74" x="407.714844"/>
      <use xlink:href="#DejaVuSans-65" x="446.923828"/>
      <use xlink:href="#DejaVuSans-6e" x="508.447266"/>
      <use xlink:href="#DejaVuSans-63" x="571.826172"/>
      <use xlink:href="#DejaVuSans-79" x="626.806641"/>
      <use xlink:href="#DejaVuSans-20" x="685.986328"/>
      <use xlink:href="#DejaVuSans-28" x="717.773438"/>
      <use xlink:href="#DejaVuSans-6d" x="756.787109"/>
      <use xlink:href="#DejaVuSans-73" x="854.199219"/>
      <use xlink:href="#DejaVuSans-29" x="906.298828"/>
     </g>
    </g>
   </g>
   <g id="matplotlib.axis_2">
    <g id="ytick_1">
     <g id="line2d_27">
      <defs>
       <path id="m62663e3004" d="M 0 0 
L -3.5 0 
" style="stroke: #000000; stroke-width: 0.8"/>
      </defs>
      <g>
       <use xlink:href="#m62663e3004" x="99" y="576.72" style="stroke: #000000; stroke-width: 0.8"/>
      </g>
     </g>
     <g id="text_28">
      <!-- 0.0 -->
      <g transform="translate(76.096875 580.519219) scale(0.1 -0.1)">
       <defs>
        <path id="DejaVuSans-2e" d="M 684 794 
L 1344 794 
L 1344 0 
L 684 0 
L 684 794 
z
" transform="scale(0.015625)"/>
       </defs>
       <use xlink:href="#DejaVuSans-30"/>
       <use xlink:href="#DejaVuSans-2e" x="63.623047"/>
       <use xlink:href="#DejaVuSans-30" x="95.410156"/>
      </g>
     </g>
    </g>
    <g id="ytick_2">
     <g id="line2d_28">
      <g>
       <use xlink:href="#m62663e3004" x="99" y="531.36" style="stroke: #000000; stroke-width: 0.8"/>
      </g>
     </g>
     <g id="text_29">
      <!-- 0.1 -->
      <g transform="translate(76.096875 535.159219) scale(0.1 -0.1)">
       <use xlink:href="#DejaVuSans-30"/>
       <use xlink:href="#DejaVuSans-2e" x="63.623047"/>
       <use xlink:href="#DejaVuSans-31" x="95.410156"/>
      </g>
     </g>
    </g>
    <g id="ytick_3">
     <g id="line2d_29">
      <g>
       <use xlink:href="#m62663e3004" x="99" y="486" style="stroke: #000000; stroke-width: 0.8"/>
      </g>
     </g>
     <g id="text_30">
      <!-- 0.2 -->
      <g transform="translate(76.096875 489.799219) scale(0.1 -0.1)">
       <use xlink:href="#DejaVuSans-30"/>
       <use xlink:href="#DejaVuSans-2e" x="63.623047"/>
       <use xlink:href="#DejaVuSans-32" x="95.410156"/>
      </g>
     </g>
    </g>
    <g id="ytick_4">
     <g id="line2d_30">
      <g>
       <use xlink:href="#m62663e3004" x="99" y="440.64" style="stroke: #000000; stroke-width: 0.8"/>
      </g>
     </g>
     <g id="text_31">
      <!-- 0.3 -->
      <g transform="translate(76.096875 444.439219) scale(0.1 -0.1)">
       <use xlink:href="#DejaVuSans-30"/>
       <use xlink:href="#DejaVuSans-2e" x="63.623047"/>
       <use xlink:href="#DejaVuSans-33" x="95.410156"/>
      </g>
     </g>
    </g>
    <g id="ytick_5">
     <g id="line2d_31">
      <g>
       <use xlink:href="#m62663e3004" x="99" y="395.28" style="stroke: #000000; stroke-width: 0.8"/>
      </g>
     </g>
     <g id="text_32">
      <!-- 0.4 -->
      <g transform="translate(76.096875 399.079219) scale(0.1 -0.1)">
       <use xlink:href="#DejaVuSans-30"/>
       <use xlink:href="#DejaVuSans-2e" x="63.623047"/>
       <use xlink:href="#DejaVuSans-34" x="95.410156"/>
      </g>
     </g>
    </g>
    <g id="ytick_6">
     <g id="line2d_32">
      <g>
       <use xlink:href="#m62663e3004" x="99" y="349.92" style="stroke: #000000; stroke-width: 0.8"/>
      </g>
     </g>
     <g id="text_33">
      <!-- 0.5 -->
      <g transform="translate(76.096875 353.719219) scale(0.1 -0.1)">
       <use xlink:href="#DejaVuSans-30"/>
       <use xlink:href="#DejaVuSans-2e" x="63.623047"/>
       <use xlink:href="#DejaVuSans-35" x="95.410156"/>
      </g>
     </g>
    </g>
    <g id="ytick_7">
     <g id="line2d_33">
      <g>
       <use xlink:href="#m62663e3004" x="99" y="304.56" style="stroke: #000000; stroke-width: 0.8"/>
      </g>
     </g>
     <g id="text_34">
      <!-- 0.6 -->
      <g transform="translate(76.096875 308.359219) scale(0.1 -0.1)">
       <use xlink:href="#DejaVuSans-30"/>
       <use xlink:href="#DejaVuSans-2e" x="63.623047"/>
       <use xlink:href="#DejaVuSans-36" x="95.410156"/>
      </g>
     </g>
    </g>
    <g id="ytick_8">
     <g id="line2d_34">
      <g>
       <use xlink:href="#m62663e3004" x="99" y="259.2" style="stroke: #000000; stroke-width: 0.8"/>
      </g>
     </g>
     <g id="text_35">
      <!-- 0.7 -->
      <g transform="translate(76.096875 262.999219) scale(0.1 -0.1)">
       <use xlink:href="#DejaVuSans-30"/>
       <use xlink:href="#DejaVuSans-2e" x="63.623047"/>
       <use xlink:href="#DejaVuSans-37" x="95.410156"/>
      </g>
     </g>
    </g>
    <g id="ytick_9">
     <g id="line2d_35">
      <g>
       <use xlink:href="#m62663e3004" x="99" y="213.84" style="stroke: #000000; stroke-width: 0.8"/>
      </g>
     </g>
     <g id="text_36">
      <!-- 0.8 -->
      <g transform="translate(76.096875 217.639219) scale(0.1 -0.1)">
       <use xlink:href="#DejaVuSans-30"/>
       <use xlink:href="#DejaVuSans-2e" x="63.623047"/>
       <use xlink:href="#DejaVuSans-38" x="95.410156"/>
      </g>
     </g>
    </g>
    <g id="ytick_10">
     <g id="line2d_36">
      <g>
       <use xlink:href="#m62663e3004" x="99" y="168.48" style="stroke: #000000; stroke-width: 0.8"/>
      </g>
     </g>
     <g id="text_37">
      <!-- 0.9 -->
      <g transform="translate(76.096875 172.279219) scale(0.1 -0.1)">
       <use xlink:href="#DejaVuSans-30"/>
       <use xlink:href="#DejaVuSans-2e" x="63.623047"/>
       <use xlink:href="#DejaVuSans-39" x="95.410156"/>
      </g>
     </g>
    </g>
    <g id="ytick_11">
     <g id="line2d_37">
      <g>
       <use xlink:href="#m62663e3004" x="99" y="123.12" style="stroke: #000000; stroke-width: 0.8"/>
      </g>
     </g>
     <g id="text_38">
      <!-- 1.0 -->
      <g transform="translate(76.096875 126.919219) scale(0.1 -0.1)">
       <use xlink:href="#DejaVuSans-31"/>
       <use xlink:href="#DejaVuSans-2e" x="63.623047"/>
       <use xlink:href="#DejaVuSans-30" x="95.410156"/>
      </g>
     </g>
    </g>
    <g id="text_39">
     <!-- Likelihood of occurrence -->
     <g transform="translate(70.017187 388.151719) rotate(-90) scale(0.1 -0.1)">
      <defs>
       <path id="DejaVuSans-69" d="M 603 3500 
L 1178 3500 
L 1178 0 
L 603 0 
L 603 3500 
z
M 603 4863 
L 1178 4863 
L 1178 4134 
L 603 4134 
L 603 4863 
z
" transform="scale(0.015625)"/>
       <path id="DejaVuSans-6b" d="M 581 4863 
L 1159 4863 
L 1159 1991 
L 2875 3500 
L 3609 3500 
L 1753 1863 
L 3688 0 
L 2938 0 
L 1159 1709 
L 1159 0 
L 581 0 
L 581 4863 
z
" transform="scale(0.015625)"/>
       <path id="DejaVuSans-6c" d="M 603 4863 
L 1178 4863 
L 1178 0 
L 603 0 
L 603 4863 
z
" transform="scale(0.015625)"/>
       <path id="DejaVuSans-68" d="M 3513 2113 
L 3513 0 
L 2938 0 
L 2938 2094 
Q 2938 2591 2744 2837 
Q 2550 3084 2163 3084 
Q 1697 3084 1428 2787 
Q 1159 2491 1159 1978 
L 1159 0 
L 581 0 
L 581 4863 
L 1159 4863 
L 1159 2956 
Q 1366 3272 1645 3428 
Q 1925 3584 2291 3584 
Q 2894 3584 3203 3211 
Q 3513 2838 3513 2113 
z
" transform="scale(0.015625)"/>
       <path id="DejaVuSans-6f" d="M 1959 3097 
Q 1497 3097 1228 2736 
Q 959 2375 959 1747 
Q 959 1119 1226 758 
Q 1494 397 1959 397 
Q 2419 397 2687 759 
Q 2956 1122 2956 1747 
Q 2956 2369 2687 2733 
Q 2419 3097 1959 3097 
z
M 1959 3584 
Q 2709 3584 3137 3096 
Q 3566 2609 3566 1747 
Q 3566 888 3137 398 
Q 2709 -91 1959 -91 
Q 1206 -91 779 398 
Q 353 888 353 1747 
Q 353 2609 779 3096 
Q 1206 3584 1959 3584 
z
" transform="scale(0.015625)"/>
       <path id="DejaVuSans-64" d="M 2906 2969 
L 2906 4863 
L 3481 4863 
L 3481 0 
L 2906 0 
L 2906 525 
Q 2725 213 2448 61 
Q 2172 -91 1784 -91 
Q 1150 -91 751 415 
Q 353 922 353 1747 
Q 353 2572 751 3078 
Q 1150 3584 1784 3584 
Q 2172 3584 2448 3432 
Q 2725 3281 2906 2969 
z
M 947 1747 
Q 947 1113 1208 752 
Q 1469 391 1925 391 
Q 2381 391 2643 752 
Q 2906 1113 2906 1747 
Q 2906 2381 2643 2742 
Q 2381 3103 1925 3103 
Q 1469 3103 1208 2742 
Q 947 2381 947 1747 
z
" transform="scale(0.015625)"/>
       <path id="DejaVuSans-66" d="M 2375 4863 
L 2375 4384 
L 1825 4384 
Q 1516 4384 1395 4259 
Q 1275 4134 1275 3809 
L 1275 3500 
L 2222 3500 
L 2222 3053 
L 1275 3053 
L 1275 0 
L 697 0 
L 697 3053 
L 147 3053 
L 147 3500 
L 697 3500 
L 697 3744 
Q 697 4328 969 4595 
Q 1241 4863 1831 4863 
L 2375 4863 
z
" transform="scale(0.015625)"/>
       <path id="DejaVuSans-72" d="M 2631 2963 
Q 2534 3019 2420 3045 
Q 2306 3072 2169 3072 
Q 1681 3072 1420 2755 
Q 1159 2438 1159 1844 
L 1159 0 
L 581 0 
L 581 3500 
L 1159 3500 
L 1159 2956 
Q 1341 3275 1631 3429 
Q 1922 3584 2338 3584 
Q 2397 3584 2469 3576 
Q 2541 3569 2628 3553 
L 2631 2963 
z
" transform="scale(0.015625)"/>
      </defs>
      <use xlink:href="#DejaVuSans-4c"/>
      <use xlink:href="#DejaVuSans-69" x="55.712891"/>
      <use xlink:href="#DejaVuSans-6b" x="83.496094"/>
      <use xlink:href="#DejaVuSans-65" x="137.78125"/>
      <use xlink:href="#DejaVuSans-6c" x="199.304688"/>
      <use xlink:href="#DejaVuSans-69" x="227.087891"/>
      <use xlink:href="#DejaVuSans-68" x="254.871094"/>
      <use xlink:href="#DejaVuSans-6f" x="318.25"/>
      <use xlink:href="#DejaVuSans-6f" x="379.431641"/>
      <use xlink:href="#DejaVuSans-64" x="440.613281"/>
      <use xlink:href="#DejaVuSans-20" x="504.089844"/>
      <use xlink:href="#DejaVuSans-6f" x="535.876953"/>
      <use xlink:href="#DejaVuSans-66" x="597.058594"/>
      <use xlink:href="#DejaVuSans-20" x="632.263672"/>
      <use xlink:href="#DejaVuSans-6f" x="664.050781"/>
      <use xlink:href="#DejaVuSans-63" x="725.232422"/>
      <use xlink:href="#DejaVuSans-63" x="780.212891"/>
      <use xlink:href="#DejaVuSans-75" x="835.193359"/>
      <use xlink:href="#DejaVuSans-72" x="898.572266"/>
      <use xlink:href="#DejaVuSans-72" x="937.935547"/>
      <use xlink:href="#DejaVuSans-65" x="976.798828"/>
      <use xlink:href="#DejaVuSans-6e" x="1038.322266"/>
      <use xlink:href="#DejaVuSans-63" x="1101.701172"/>
      <use xlink:href="#DejaVuSans-65" x="1156.681641"/>
     </g>
    </g>
   </g>
   <g id="line2d_38">
    <path d="M 171.884562 576.72 
L 175.165031 576.522525 
L 186.116427 576.32505 
L 187.703105 576.028838 
L 187.963705 575.831363 
L 189.544191 575.53515 
L 191.57327 575.337675 
L 193.028241 574.942725 
L 194.747188 574.74525 
L 197.497279 574.449038 
L 197.787711 574.251563 
L 199.184145 573.95535 
L 199.776264 573.757875 
L 201.615099 573.560401 
L 201.92523 573.461663 
L 203.169131 573.264188 
L 203.658249 572.967976 
L 204.025228 572.770501 
L 213.583568 571.190701 
L 217.08394 570.894488 
L 219.601574 570.598276 
L 219.617896 570.499539 
L 221.934029 570.203326 
L 223.026523 570.005851 
L 223.436842 569.808376 
L 223.516767 569.709639 
L 223.853352 569.512164 
L 223.875866 569.413426 
L 225.168172 569.215951 
L 225.270048 569.117214 
L 226.299503 568.919739 
L 226.396877 568.821001 
L 227.026707 568.623526 
L 227.034024 568.524789 
L 228.987118 567.833626 
L 229.052972 567.734889 
L 229.607943 567.438677 
L 230.16404 566.846252 
L 230.491057 566.648777 
L 230.513008 566.550039 
L 231.593119 566.155089 
L 231.816571 565.760139 
L 232.318635 565.463927 
L 232.960285 565.266452 
L 233.297996 565.068977 
L 233.579421 564.871502 
L 234.034205 564.476552 
L 234.761972 564.279077 
L 234.976418 564.081602 
L 235.810564 563.686652 
L 235.864035 563.489177 
L 236.26591 563.291702 
L 236.96666 562.60054 
L 237.373039 562.304327 
L 238.130074 561.218215 
L 238.609623 560.132103 
L 238.831949 559.934628 
L 239.627821 559.638415 
L 239.80737 559.342203 
L 240.455775 558.65104 
L 240.557651 558.453566 
L 241.319752 557.861141 
L 241.660277 557.663666 
L 241.822941 557.466191 
L 242.395923 556.676291 
L 242.650895 556.478816 
L 242.653146 556.380078 
L 243.447329 555.590178 
L 243.502489 555.392704 
L 244.163839 555.195229 
L 245.189917 554.010379 
L 245.339635 553.911641 
L 245.926689 553.714166 
L 246.062899 553.516691 
L 246.456895 552.825529 
L 246.806988 552.628054 
L 246.933067 552.430579 
L 247.493104 552.233104 
L 248.704923 551.344467 
L 248.952577 550.949517 
L 249.339256 550.554567 
L 249.818243 550.357092 
L 250.301169 550.159617 
L 250.91524 549.863404 
L 251.017679 549.665929 
L 251.930623 548.87603 
L 252.111299 548.579817 
L 253.973211 547.493705 
L 253.98503 547.394967 
L 254.15276 547.197492 
L 254.295724 547.000017 
L 254.847319 546.802542 
L 255.611671 546.012643 
L 255.953884 545.815168 
L 256.945628 545.124005 
L 257.546753 544.92653 
L 258.485589 544.235368 
L 259.387277 543.939155 
L 261.119733 542.853043 
L 262.920294 542.063143 
L 263.033427 541.668193 
L 263.213539 541.371981 
L 263.215791 541.273243 
L 263.804533 540.779556 
L 264.373013 540.582081 
L 264.64093 540.384606 
L 264.688773 540.187131 
L 265.327046 539.594706 
L 265.356314 539.495969 
L 265.949559 539.101019 
L 266.29515 538.508594 
L 266.476951 538.212381 
L 266.791585 538.014906 
L 267.562691 536.830057 
L 268.277512 536.533844 
L 268.364754 536.336369 
L 268.621977 536.138894 
L 269.156123 535.941419 
L 269.261939 535.743944 
L 269.674509 535.546469 
L 269.84843 535.250257 
L 270.684264 534.559094 
L 270.714658 534.36162 
L 271.154245 534.164145 
L 271.17507 534.065407 
L 271.858935 533.670457 
L 272.367752 533.078032 
L 272.707714 532.880557 
L 272.80171 532.683082 
L 273.212592 532.38687 
L 273.239609 532.189395 
L 273.573942 531.99192 
L 273.63867 531.498232 
L 274.563998 531.004545 
L 274.913528 530.313383 
L 275.283884 530.115908 
L 275.475817 529.918433 
L 275.793265 529.720958 
L 276.085947 529.523483 
L 276.555928 529.128533 
L 276.815966 528.931058 
L 276.83848 528.733583 
L 277.026472 528.536108 
L 277.657428 528.338633 
L 277.790824 528.141158 
L 278.021593 527.943683 
L 279.155175 525.771458 
L 279.2351 525.376508 
L 279.554237 525.179034 
L 279.803017 524.784084 
L 279.853674 524.685346 
L 280.343354 524.487871 
L 280.923654 523.895446 
L 281.346355 523.204284 
L 281.56249 522.908071 
L 281.699263 522.611859 
L 282.506954 521.427009 
L 282.639224 521.130797 
L 283.533595 520.242159 
L 283.809955 520.044684 
L 283.949542 519.847209 
L 283.979936 519.748472 
L 284.256296 519.550997 
L 284.511268 519.05731 
L 284.587253 518.66236 
L 284.885001 518.464885 
L 285.562111 517.280035 
L 285.874493 516.885085 
L 286.000572 516.193923 
L 286.17393 515.89771 
L 286.339971 515.10781 
L 286.576369 514.811598 
L 286.979933 513.429273 
L 287.494379 512.639373 
L 287.633404 512.244423 
L 287.915955 511.948211 
L 288.328525 510.960836 
L 288.378056 510.565886 
L 288.833965 510.072199 
L 289.056292 509.578511 
L 289.397379 509.381036 
L 289.791375 508.196186 
L 289.907323 507.998711 
L 290.142032 507.505024 
L 290.26811 507.110074 
L 290.521393 506.813862 
L 290.961543 505.826487 
L 291.206383 505.530274 
L 291.562105 504.839112 
L 291.687058 504.542899 
L 291.715201 504.444162 
L 291.92627 504.246687 
L 292.061354 503.753 
L 292.151411 503.35805 
L 292.290998 502.666887 
L 292.396814 502.469412 
L 292.476176 502.271937 
L 292.635463 502.1732 
L 292.709196 501.876987 
L 292.805444 501.580775 
L 292.824581 501.482037 
L 293.125143 501.284562 
L 293.166794 500.98835 
L 293.363229 500.790875 
L 293.500002 500.494663 
L 294.340902 498.914863 
L 294.49456 498.717388 
L 294.545217 498.519913 
L 295.073734 498.026226 
L 295.185742 497.532538 
L 296.646341 494.274201 
L 296.79437 493.879251 
L 297.199623 492.990614 
L 297.272794 492.694401 
L 297.711818 492.003239 
L 298.705813 490.028489 
L 299.006376 489.139852 
L 299.192117 488.84364 
L 299.379546 487.955002 
L 300.708438 485.585303 
L 301.336017 484.301715 
L 301.557781 484.005503 
L 301.816692 483.215603 
L 302.021007 482.919391 
L 302.183671 482.425703 
L 302.718943 481.240853 
L 302.870913 480.549691 
L 303.008811 480.352216 
L 303.325696 479.364841 
L 303.514251 479.167366 
L 303.716878 478.377466 
L 303.727572 478.179991 
L 303.905433 477.982516 
L 304.173913 476.402717 
L 304.311812 475.711554 
L 305.295113 472.946905 
L 305.315938 472.74943 
L 305.442017 472.551955 
L 305.666032 471.860792 
L 305.873161 471.663317 
L 306.2362 470.478468 
L 306.409558 470.280993 
L 306.569408 469.787305 
L 306.571659 469.688568 
L 306.746143 469.491093 
L 306.891359 468.898668 
L 307.173347 468.503718 
L 307.3377 467.417606 
L 307.579163 466.627706 
L 307.805429 465.936543 
L 308.502802 463.961794 
L 308.672783 463.764319 
L 308.808993 463.171894 
L 309.097173 461.592094 
L 309.208618 460.999669 
L 309.354959 460.111032 
L 309.541263 459.814819 
L 310.173345 458.037545 
L 310.590417 457.148907 
L 310.679348 456.65522 
L 311.029441 455.964057 
L 311.122312 455.766582 
L 311.274282 455.569108 
L 311.418372 454.976683 
L 311.799422 453.001933 
L 312.005988 452.508246 
L 312.195106 451.915821 
L 312.741635 450.336021 
L 312.869965 450.039808 
L 313.177845 448.657484 
L 313.699608 446.880209 
L 314.090789 446.583997 
L 314.290601 445.892834 
L 314.542196 445.102934 
L 314.660395 444.806722 
L 316.168836 440.264798 
L 316.294915 439.77111 
L 317.508422 435.722873 
L 317.732437 435.525398 
L 317.876527 435.031711 
L 318.089284 434.735498 
L 318.337502 433.748124 
L 318.455701 433.254436 
L 318.905982 431.082212 
L 319.138439 430.785999 
L 319.299978 429.897362 
L 319.538626 429.304937 
L 319.718176 428.317562 
L 320.00917 427.922612 
L 320.134686 427.6264 
L 320.225305 427.330187 
L 320.981214 425.2567 
L 321.101664 424.565538 
L 321.866579 422.195838 
L 322.038249 421.800888 
L 322.380462 420.319826 
L 322.566766 419.233714 
L 322.700162 419.036239 
L 322.831306 418.542551 
L 322.871832 418.345076 
L 323.004102 418.147601 
L 323.245565 417.061489 
L 323.341812 416.864014 
L 323.544439 416.271589 
L 323.700349 415.777902 
L 324.53562 412.223352 
L 325.039372 411.13724 
L 325.114794 410.643552 
L 325.274643 410.248603 
L 325.383274 410.051128 
L 325.573518 408.668803 
L 325.871829 407.878903 
L 326.015356 407.681428 
L 326.13862 406.891528 
L 326.331678 406.200366 
L 326.534305 404.916778 
L 326.743122 404.620566 
L 327.034679 403.336979 
L 327.258131 402.843291 
L 327.314416 402.645816 
L 327.52042 402.250866 
L 327.742183 401.658441 
L 327.953815 401.460966 
L 328.21329 400.572329 
L 328.342746 400.177379 
L 328.899968 398.301367 
L 328.944996 397.906417 
L 329.215728 397.610205 
L 329.841619 395.734192 
L 329.969949 395.536717 
L 330.277828 394.944293 
L 330.541805 394.64808 
L 330.768072 394.25313 
L 330.929047 394.055655 
L 331.180642 393.364493 
L 331.496401 392.67333 
L 331.593774 392.179643 
L 331.747433 391.784693 
L 331.864506 391.389743 
L 331.959065 391.192268 
L 332.113849 390.698581 
L 332.258502 390.402368 
L 332.362629 389.908681 
L 332.480265 389.711206 
L 332.57201 389.118781 
L 332.798839 388.723831 
L 332.966569 388.328881 
L 333.08927 388.032669 
L 333.412347 387.144031 
L 334.165442 385.465494 
L 334.266755 384.774332 
L 334.538049 384.478119 
L 334.996773 383.293269 
L 335.118349 382.799582 
L 335.28439 382.602107 
L 335.352495 382.305895 
L 335.612532 381.219782 
L 335.846116 380.726095 
L 336.077447 379.73872 
L 336.376884 378.850083 
L 336.490017 378.060183 
L 336.694332 377.76397 
L 336.807466 377.270283 
L 337.216658 375.986696 
L 337.437296 375.690483 
L 337.820598 374.406896 
L 337.960185 374.110684 
L 338.586075 372.037196 
L 338.704274 371.642246 
L 338.858495 371.444771 
L 339.207463 370.259922 
L 339.511966 369.470022 
L 339.762435 368.976334 
L 340.061871 368.680122 
L 340.172753 368.482647 
L 340.236355 368.087697 
L 340.369751 367.59401 
L 340.406336 367.396535 
L 340.626974 367.19906 
L 340.91628 366.112947 
L 341.900706 363.150823 
L 342.369562 362.558398 
L 342.487197 361.965973 
L 342.861494 361.176073 
L 343.282506 360.583648 
L 343.42941 360.089961 
L 343.728284 359.003848 
L 343.853237 358.707636 
L 343.944419 358.312686 
L 344.622092 356.930361 
L 344.793762 356.337936 
L 346.320777 352.2897 
L 346.691133 351.697275 
L 346.907831 351.10485 
L 347.026593 350.512425 
L 347.214585 350.31495 
L 347.535973 349.031363 
L 348.219837 347.451563 
L 348.314959 346.957875 
L 348.448918 346.760401 
L 349.254358 343.995751 
L 349.350043 343.699539 
L 349.436159 343.304589 
L 349.663551 343.008376 
L 350.00295 342.021001 
L 350.15098 341.823526 
L 350.261299 341.428576 
L 350.455483 341.231101 
L 350.554544 340.737414 
L 350.736345 340.441202 
L 350.989628 340.046252 
L 351.269365 339.848777 
L 351.414581 339.453827 
L 351.479872 339.157614 
L 351.935218 338.268977 
L 352.136719 337.77529 
L 352.366925 337.084127 
L 352.659045 336.886652 
L 352.794692 336.096752 
L 353.299007 334.911902 
L 353.493754 334.714428 
L 353.619832 334.319478 
L 354.087562 333.03589 
L 354.2491 332.739678 
L 354.473115 331.85104 
L 354.907073 331.357353 
L 355.003883 331.159878 
L 355.3112 330.567453 
L 355.476116 329.678816 
L 355.612326 329.481341 
L 355.800318 328.987653 
L 356.091875 328.493966 
L 356.449848 327.407854 
L 356.543844 327.111641 
L 356.856227 326.519216 
L 356.973863 326.420479 
L 357.250786 325.433104 
L 357.459603 325.136892 
L 357.625082 324.643204 
L 357.769172 324.149517 
L 357.842905 323.952042 
L 357.923956 323.458354 
L 358.063543 322.964667 
L 358.442342 321.582342 
L 359.024893 319.607593 
L 359.240465 319.410118 
L 359.391872 319.212643 
L 359.880427 318.12653 
L 360.125267 317.73158 
L 360.273297 317.237893 
L 361.941588 313.485869 
L 362.042338 313.189656 
L 362.175734 312.893444 
L 362.451531 312.399756 
L 362.689054 311.511119 
L 362.941775 311.017431 
L 363.792243 308.845207 
L 364.1035 308.647732 
L 364.166539 308.252782 
L 364.304437 307.956569 
L 364.412505 307.759094 
L 364.490741 307.462882 
L 364.603311 306.969195 
L 364.747401 306.278032 
L 364.857157 306.080557 
L 365.309127 305.290657 
L 365.486425 304.895707 
L 365.673854 304.698232 
L 365.890552 303.710858 
L 365.99862 303.513383 
L 366.144398 303.019695 
L 366.254717 302.82222 
L 366.440458 302.131058 
L 366.592991 301.736108 
L 366.832202 301.044946 
L 366.979107 300.847471 
L 367.183984 300.452521 
L 367.477793 300.255046 
L 368.249462 299.563883 
L 368.425071 299.070196 
L 368.772351 298.379034 
L 368.998617 298.181559 
L 369.160718 297.490396 
L 369.451712 296.700496 
L 369.467472 296.601759 
L 369.68811 296.404284 
L 370.060154 295.614384 
L 370.226758 294.824484 
L 370.587546 293.540897 
L 370.751336 293.343422 
L 370.897114 292.948472 
L 371.098615 292.750997 
L 372.456775 289.88761 
L 372.804054 289.49266 
L 373.28698 288.604023 
L 373.597674 288.209073 
L 373.724316 287.814123 
L 373.951708 287.51791 
L 374.266904 286.925485 
L 374.343452 286.530535 
L 374.593358 286.036848 
L 374.695234 285.740636 
L 374.810056 285.543161 
L 374.906303 285.345686 
L 375.142138 285.148211 
L 375.563151 284.259573 
L 375.950955 283.864623 
L 376.311743 282.975986 
L 376.320749 282.877249 
L 376.526189 282.679774 
L 376.778347 281.791136 
L 376.830129 281.593661 
L 376.996733 281.396186 
L 377.375532 280.507549 
L 378.932941 277.051737 
L 379.093354 276.854262 
L 379.348888 276.360575 
L 379.349451 276.261837 
L 379.541946 276.064362 
L 379.743447 275.274462 
L 379.979282 274.97825 
L 380.035567 274.780775 
L 380.338944 274.5833 
L 380.382283 274.287088 
L 380.999731 273.892138 
L 381.451701 273.0035 
L 381.838379 272.806025 
L 382.006109 272.411075 
L 382.201981 272.114863 
L 382.291475 271.719913 
L 382.768773 270.831276 
L 382.868397 270.238851 
L 383.17684 269.843901 
L 383.567458 268.856526 
L 383.877027 268.362838 
L 383.920929 268.066626 
L 384.041379 267.869151 
L 384.321679 266.881776 
L 384.468583 266.585564 
L 385.02862 265.400714 
L 385.535186 265.005764 
L 385.647757 264.610814 
L 385.858263 264.314602 
L 385.991096 264.117127 
L 386.166705 263.919652 
L 386.888281 262.04364 
L 387.11117 261.747427 
L 387.587905 260.957527 
L 387.855259 260.661315 
L 387.862576 260.46384 
L 388.118111 260.266365 
L 388.434433 259.27899 
L 388.696159 258.785303 
L 388.985465 257.69919 
L 389.367641 257.30424 
L 389.485276 256.613078 
L 389.87477 255.823178 
L 390.070079 255.526966 
L 390.211355 255.230753 
L 390.54794 253.848428 
L 390.625613 253.650953 
L 390.865951 253.256003 
L 390.984149 252.663579 
L 391.176644 252.466104 
L 391.552629 251.478729 
L 391.722047 251.182516 
L 391.788464 250.985041 
L 392.092403 250.688829 
L 392.112666 250.590091 
L 392.408726 250.293879 
L 392.64456 249.701454 
L 392.646812 249.602717 
L 392.919795 249.405242 
L 393.225423 248.714079 
L 393.37289 248.417867 
L 393.577205 248.022917 
L 393.652627 247.726704 
L 393.975704 247.331754 
L 394.115854 247.035542 
L 394.32242 246.640592 
L 394.393902 246.443117 
L 394.651125 246.245642 
L 394.86726 245.94943 
L 395.094652 245.455742 
L 395.269699 245.258267 
L 395.377766 245.060792 
L 395.399717 244.962055 
L 396.017165 244.567105 
L 396.167446 244.172155 
L 396.223732 244.073418 
L 396.582831 243.875943 
L 396.731423 243.678468 
L 396.806845 243.283518 
L 396.949247 243.086043 
L 397.129922 242.888568 
L 397.3151 242.691093 
L 397.798026 242.197405 
L 398.056938 241.99993 
L 398.203842 241.703718 
L 398.55675 241.21003 
L 398.754311 241.012556 
L 398.874198 240.716343 
L 399.100464 240.321393 
L 399.473635 239.630231 
L 399.639113 239.531493 
L 399.758437 239.136543 
L 399.976824 238.939068 
L 400.23461 238.445381 
L 400.477198 238.149168 
L 400.650557 237.951694 
L 400.869506 237.556744 
L 401.071006 237.161794 
L 401.103089 237.063056 
L 401.555621 236.865581 
L 401.807779 236.470631 
L 402.326728 235.976944 
L 402.474195 235.483256 
L 402.540611 235.285781 
L 402.786014 235.088306 
L 402.875508 234.890832 
L 403.00834 234.594619 
L 403.589766 233.409769 
L 403.824475 233.212294 
L 404.004587 233.014819 
L 404.203837 232.718607 
L 405.28226 231.336282 
L 405.532165 231.138807 
L 405.572691 230.941332 
L 405.847925 230.743857 
L 405.903084 230.348907 
L 405.979632 229.953957 
L 406.084885 229.756482 
L 406.200833 229.46027 
L 406.419782 229.262795 
L 406.568375 228.966582 
L 407.757679 228.077945 
L 407.864058 227.88047 
L 408.030662 227.584258 
L 408.069499 227.288045 
L 408.253551 227.09057 
L 408.433101 226.69562 
L 408.695952 226.498145 
L 409.56612 224.918346 
L 409.732724 224.424658 
L 411.018839 222.746121 
L 411.155049 222.449909 
L 411.428032 221.857484 
L 411.877188 221.660009 
L 411.918276 221.462534 
L 412.548669 220.968846 
L 412.675311 220.771371 
L 412.890883 220.277684 
L 413.010207 219.981471 
L 413.301764 219.586522 
L 413.413771 219.290309 
L 413.4391 219.092834 
L 413.682814 218.895359 
L 413.946792 218.302934 
L 414.395384 218.105459 
L 414.683564 217.513034 
L 414.854108 217.118084 
L 415.227841 216.821872 
L 415.259361 216.624397 
L 415.710767 216.328185 
L 416.099698 215.933235 
L 416.275307 215.637022 
L 416.553919 215.34081 
L 416.698571 215.143335 
L 416.780748 214.847122 
L 417.33009 214.55091 
L 417.565925 214.15596 
L 417.909264 213.958485 
L 417.917707 213.859747 
L 418.273992 213.662273 
L 418.638157 212.97111 
L 418.801384 212.279948 
L 419.067612 211.983735 
L 419.256167 211.687523 
L 419.646223 211.292573 
L 419.815079 210.99636 
L 420.310951 210.107723 
L 420.740406 209.910248 
L 421.551475 208.527923 
L 421.916765 208.132973 
L 422.319767 207.639286 
L 422.614701 207.145599 
L 423.23834 206.553174 
L 423.411135 206.256961 
L 423.748846 205.467061 
L 424.069671 205.170849 
L 424.494061 204.973374 
L 425.266856 204.282212 
L 425.319764 204.183474 
L 425.902878 203.887262 
L 425.918638 203.788524 
L 426.13421 203.591049 
L 426.226517 203.492312 
L 426.863665 203.294837 
L 426.993683 203.097362 
L 427.451844 202.801149 
L 427.819949 202.603674 
L 428.032144 202.109987 
L 428.194245 201.912512 
L 428.333832 201.715037 
L 429.395933 200.727662 
L 429.54734 200.43145 
L 429.885613 200.0365 
L 429.915444 199.937762 
L 430.271166 199.64155 
L 430.660096 198.950387 
L 430.788427 198.654175 
L 431.155406 198.4567 
L 431.331015 198.259225 
L 431.471165 197.963013 
L 432.214129 197.27185 
L 432.651464 197.074375 
L 432.771914 196.679425 
L 432.91319 196.383213 
L 433.603808 195.494576 
L 433.76197 195.000888 
L 434.052401 194.704676 
L 434.198742 194.507201 
L 434.812813 194.112251 
L 434.958591 193.618563 
L 435.086922 193.519826 
L 435.599679 193.322351 
L 435.697615 193.124876 
L 436.47041 192.038764 
L 436.560466 191.643814 
L 438.012059 190.360226 
L 438.07341 190.261489 
L 438.451083 190.064014 
L 438.80568 189.669064 
L 439.247518 188.977902 
L 439.270032 188.879164 
L 439.971907 188.385477 
L 440.216748 187.990527 
L 440.378286 187.595577 
L 440.70474 187.299364 
L 441.020499 186.410727 
L 441.384101 186.015777 
L 441.386916 185.91704 
L 441.644701 185.719565 
L 441.721812 185.52209 
L 442.162525 185.324615 
L 442.310554 185.028402 
L 443.546576 184.139765 
L 443.704737 183.843552 
L 443.976031 183.646077 
L 444.301359 183.448603 
L 444.49498 183.053653 
L 444.733066 182.856178 
L 444.981846 182.165015 
L 445.58072 181.868803 
L 445.875091 181.276378 
L 446.002859 180.980165 
L 446.528562 180.683953 
L 446.538693 180.585215 
L 447.104358 180.190266 
L 447.782031 179.696578 
L 448.251449 179.499103 
L 448.309986 179.400366 
L 449.052949 179.005416 
L 449.104169 178.906678 
L 449.514487 178.709203 
L 449.642255 178.511728 
L 449.700228 178.412991 
L 450.242817 178.215516 
L 450.734186 177.820566 
L 450.878839 177.425616 
L 451.557638 177.129404 
L 451.763078 176.833191 
L 453.396473 175.747079 
L 454.197973 175.450866 
L 454.273958 175.253391 
L 454.564389 174.858441 
L 454.628554 174.562229 
L 455.274707 173.871067 
L 455.296095 173.772329 
L 455.557821 173.574854 
L 456.008102 172.883692 
L 456.35313 172.686217 
L 456.362699 172.587479 
L 457.803598 171.797579 
L 458.565698 170.711467 
L 460.025734 170.020305 
L 460.125922 169.921567 
L 461.012413 169.526617 
L 461.069261 169.42788 
L 461.384457 169.230405 
L 461.818416 168.835455 
L 462.864193 168.63798 
L 463.253686 168.341768 
L 463.349934 168.144293 
L 463.642054 167.946818 
L 463.781078 167.650605 
L 464.679389 167.45313 
L 464.727231 167.354393 
L 465.541677 167.156918 
L 466.194021 166.761968 
L 466.223852 166.465755 
L 467.785202 165.675855 
L 468.188766 165.083431 
L 469.457433 164.589743 
L 469.972442 164.293531 
L 470.002273 164.096056 
L 472.378068 163.306156 
L 472.405648 163.207418 
L 472.677505 163.009943 
L 472.70621 162.911206 
L 473.495328 162.516256 
L 473.511087 162.417519 
L 475.923468 161.627619 
L 476.143543 161.331406 
L 476.934912 161.035194 
L 477.977875 160.344031 
L 479.310144 159.652869 
L 479.334346 159.455394 
L 479.685003 159.257919 
L 479.731157 159.159182 
L 480.210706 158.862969 
L 480.212957 158.764232 
L 480.992506 158.566757 
L 481.624588 158.369282 
L 482.690066 158.073069 
L 482.71258 157.974332 
L 483.124024 157.776857 
L 484.105074 156.986957 
L 484.402822 156.690744 
L 484.589689 156.493269 
L 484.937531 156.295795 
L 485.065298 156.09832 
L 485.676554 155.900845 
L 485.728337 155.802107 
L 487.362294 155.110945 
L 487.497941 154.91347 
L 487.587434 154.715995 
L 488.179554 154.419782 
L 488.869609 154.222307 
L 489.037902 153.827357 
L 489.950847 153.531145 
L 490.389871 153.33367 
L 490.537338 153.136195 
L 491.53471 152.642508 
L 491.597749 152.445033 
L 491.984428 152.247558 
L 492.581613 152.050083 
L 493.271106 151.457658 
L 494.171105 151.260183 
L 494.796996 150.766495 
L 495.324388 150.56902 
L 495.895682 150.371545 
L 497.822321 149.877858 
L 499.816503 149.680383 
L 500.651775 149.482908 
L 501.241643 149.285433 
L 502.447833 148.890483 
L 503.24089 148.199321 
L 505.811432 147.508158 
L 507.563025 147.211946 
L 508.009929 147.014471 
L 509.749702 146.816996 
L 510.149326 146.520784 
L 512.344446 145.928359 
L 512.822307 145.632146 
L 512.917429 145.533409 
L 515.44632 145.335934 
L 516.66039 145.138459 
L 517.794535 144.644771 
L 518.802039 144.447296 
L 519.129618 144.249822 
L 520.760198 144.052347 
L 521.073706 143.854872 
L 521.981585 143.657397 
L 523.406162 143.163709 
L 524.259444 142.966234 
L 526.84462 142.077597 
L 528.197715 141.880122 
L 528.395838 141.781384 
L 529.043117 141.682647 
L 532.443864 141.386434 
L 532.645928 141.090222 
L 533.28195 140.892747 
L 537.219094 140.596535 
L 538.996016 140.39906 
L 539.106897 140.300322 
L 540.245545 140.102847 
L 549.397507 139.411685 
L 549.508388 139.312947 
L 554.510447 138.325572 
L 555.992998 138.128098 
L 556.058288 138.02936 
L 564.741957 137.63441 
L 567.740829 137.338198 
L 568.273286 137.23946 
L 570.493171 137.041985 
L 571.098236 136.84451 
L 571.330131 136.647035 
L 574.981347 136.44956 
L 575.330315 136.350823 
L 577.693727 136.153348 
L 578.592601 135.955873 
L 581.445694 135.758398 
L 581.770459 135.65966 
L 585.444752 135.363448 
L 590.40516 135.165973 
L 591.320356 134.968498 
L 592.144933 134.672286 
L 602.193516 133.783648 
L 615.977181 133.586173 
L 616.239469 133.388698 
L 618.582619 133.191223 
L 619.489935 132.993748 
L 621.546031 132.895011 
L 629.888612 132.697536 
L 630.047336 132.598798 
L 631.393676 132.500061 
L 640.461773 132.302586 
L 647.3567 132.105111 
L 648.981652 132.006374 
L 661.40603 131.710161 
L 661.505655 131.611424 
L 662.183328 131.512686 
L 669.294953 131.315211 
L 671.437728 131.117736 
L 675.625904 130.920261 
L 691.418384 130.722786 
L 693.930389 130.525311 
L 694.229263 130.426574 
L 695.133765 130.327836 
L 714.637124 129.537936 
L 714.637124 129.537936 
" clip-path="url(#pee5b92c260)" style="fill: none; stroke: #ff0000; stroke-width: 1.5; stroke-linecap: square"/>
   </g>
   <g id="line2d_39">
    <path d="M 166.320215 576.72 
L 168.680984 576.621839 
L 175.86972 576.425518 
L 181.940071 576.131037 
L 184.612489 575.934715 
L 184.664271 575.836555 
L 186.495789 575.542073 
L 186.549823 575.443913 
L 192.376459 575.149431 
L 192.845877 574.95311 
L 197.30985 574.560467 
L 199.546621 574.069665 
L 199.892774 573.971504 
L 202.549432 573.677022 
L 202.995773 573.480701 
L 205.141925 573.28438 
L 209.60421 572.597256 
L 209.646424 572.499095 
L 210.635353 572.302774 
L 211.428411 572.008293 
L 212.150549 571.811971 
L 213.067996 571.61565 
L 213.178878 571.419329 
L 214.546607 571.026687 
L 214.847169 570.830366 
L 214.851672 570.732205 
L 216.067993 570.535884 
L 216.082628 570.437723 
L 216.798011 570.143242 
L 216.826154 569.946921 
L 217.521275 569.750599 
L 219.834031 569.161636 
L 219.985438 568.965315 
L 220.934405 568.670833 
L 221.035719 568.474512 
L 221.610952 568.278191 
L 221.720708 567.983709 
L 222.93309 567.787388 
L 222.96461 567.689227 
L 224.432526 567.198425 
L 226.009635 566.903943 
L 226.045657 566.805782 
L 226.548846 566.609461 
L 226.560666 566.511301 
L 226.892749 566.314979 
L 227.03121 566.020498 
L 227.504568 565.824177 
L 227.592373 565.529695 
L 227.989746 565.333374 
L 228.772672 564.64625 
L 229.285992 564.057286 
L 229.92314 563.860965 
L 230.001376 563.664644 
L 230.518636 563.468323 
L 230.643589 563.272002 
L 230.937398 562.97752 
L 230.940775 562.879359 
L 231.77492 562.290396 
L 231.843025 562.094075 
L 232.267978 561.897754 
L 232.421074 561.406951 
L 233.104938 560.523506 
L 233.424074 560.229024 
L 233.573793 560.032703 
L 233.836644 559.836382 
L 233.840022 559.738221 
L 234.023511 559.5419 
L 234.11019 559.345579 
L 234.369665 559.149258 
L 235.127825 558.462134 
L 235.664222 557.87317 
L 235.857843 557.480528 
L 236.412815 557.087886 
L 236.42576 556.989725 
L 236.661595 556.793404 
L 236.735891 556.597083 
L 237.287485 556.302601 
L 238.529135 554.633871 
L 239.174726 554.241229 
L 239.577727 553.652266 
L 239.648646 553.357784 
L 239.895738 553.161463 
L 240.038139 552.866981 
L 240.22388 552.67066 
L 240.445644 552.474339 
L 240.570034 552.081697 
L 241.050709 551.198251 
L 241.133448 550.90377 
L 241.298926 550.707449 
L 241.513935 550.118485 
L 241.58992 549.922164 
L 242.210745 548.940558 
L 242.322753 548.646077 
L 242.575473 548.155274 
L 242.864216 547.860792 
L 243.154084 547.369989 
L 243.16309 547.271829 
L 243.375847 547.075507 
L 243.639262 546.486544 
L 244.051269 545.995741 
L 245.085227 544.03253 
L 245.407177 543.639887 
L 245.835507 542.854603 
L 246.040948 542.560121 
L 246.190104 542.167479 
L 246.343199 541.676676 
L 246.670216 541.480355 
L 246.803049 541.087713 
L 247.383348 539.517143 
L 247.544324 539.222662 
L 247.76665 538.535538 
L 248.126312 538.241056 
L 248.395918 537.946574 
L 248.419557 537.848414 
L 248.7477 537.652093 
L 248.901358 537.357611 
L 248.999857 537.063129 
L 249.102859 536.768647 
L 249.234003 536.474166 
L 249.393853 535.983363 
L 249.604922 535.49256 
L 250.62312 533.431188 
L 250.900043 533.038546 
L 251.087472 532.645903 
L 251.523682 531.762458 
L 251.565896 531.566137 
L 251.737565 531.271655 
L 252.010548 530.093729 
L 252.035877 529.995568 
L 252.284657 529.799247 
L 252.430998 529.112123 
L 252.698352 528.326838 
L 252.946007 528.130517 
L 253.03944 527.836035 
L 253.073211 527.737875 
L 253.231935 527.639714 
L 253.46383 526.95259 
L 253.76777 526.756269 
L 254.171897 525.872824 
L 254.407732 525.676503 
L 255.053885 524.302255 
L 255.42987 524.105934 
L 255.454072 523.909613 
L 255.703415 523.713291 
L 255.707355 523.51697 
L 255.965141 523.320649 
L 256.204916 522.731686 
L 256.428368 522.437204 
L 256.492533 522.240883 
L 256.705291 522.044562 
L 257.258573 521.259277 
L 257.263076 521.062956 
L 257.533245 520.866635 
L 257.644689 520.572153 
L 257.762325 520.08135 
L 257.775271 519.98319 
L 258.38709 519.492387 
L 258.562137 519.099745 
L 258.957258 518.510781 
L 259.086151 518.2163 
L 259.382211 517.823657 
L 259.512793 517.627336 
L 259.71373 517.038373 
L 260.066075 516.842052 
L 260.510165 515.664125 
L 260.683523 515.467804 
L 260.821985 515.075161 
L 261.047688 514.682519 
L 261.389339 514.289877 
L 262.086711 513.504592 
L 262.249938 513.21011 
L 262.534178 513.013789 
L 262.85838 512.817468 
L 263.165134 512.228505 
L 263.451626 511.934023 
L 263.814665 511.541381 
L 264.02686 511.148738 
L 264.085396 511.050578 
L 264.326296 510.854257 
L 265.135676 509.77449 
L 265.440742 509.578169 
L 265.571323 509.283688 
L 265.695151 509.087366 
L 265.973762 508.203921 
L 266.15894 507.90944 
L 266.414474 506.633352 
L 266.751622 506.33887 
L 267.080328 505.946228 
L 267.28802 505.455425 
L 267.533423 504.866462 
L 268.160439 504.57198 
L 268.585955 503.786696 
L 268.621414 503.688535 
L 269.064378 503.295893 
L 269.19496 502.80509 
L 270.158561 502.216126 
L 271.746927 500.056594 
L 271.995707 499.860273 
L 272.102086 499.565791 
L 272.191017 499.36947 
L 272.384638 499.074988 
L 273.011654 497.995222 
L 273.288577 497.798901 
L 273.459121 497.209937 
L 273.671878 496.915456 
L 274.227413 496.03201 
L 274.650114 495.737529 
L 275.239982 494.854084 
L 275.400395 494.461441 
L 275.529288 493.970638 
L 275.559119 493.774317 
L 275.69758 493.577996 
L 275.751051 493.381675 
L 276.100019 492.989033 
L 276.35893 492.792712 
L 276.576191 492.400069 
L 276.750112 492.203748 
L 276.955553 491.811106 
L 276.96287 491.614785 
L 277.323094 491.222142 
L 277.381631 491.123982 
L 277.615777 490.927661 
L 277.999079 490.044216 
L 278.787071 489.06261 
L 278.891198 488.473646 
L 279.154612 488.179165 
L 279.280691 487.688362 
L 279.682567 487.39388 
L 279.941478 487.197559 
L 280.620277 487.001238 
L 280.84204 486.706756 
L 280.929845 486.412274 
L 281.104892 486.215953 
L 281.139226 486.117793 
L 281.416149 485.921472 
L 281.7381 484.743545 
L 282.369056 483.565618 
L 282.633033 483.369297 
L 282.921776 482.682173 
L 283.572995 482.093209 
L 283.630968 481.995049 
L 283.867929 481.798728 
L 283.923088 481.602406 
L 284.25123 481.209764 
L 284.368866 480.817122 
L 284.558547 480.326319 
L 285.11183 479.050232 
L 285.204138 478.657589 
L 285.329653 478.461268 
L 285.463049 478.166786 
L 285.747289 477.970465 
L 285.920647 477.479662 
L 286.363611 477.283341 
L 286.550478 476.98886 
L 286.715393 476.498057 
L 286.852729 476.203575 
L 287.036781 475.614612 
L 287.281059 475.221969 
L 287.403197 474.927488 
L 288.259294 473.258758 
L 288.5486 472.964276 
L 288.65723 472.669794 
L 288.983121 472.375313 
L 289.125522 471.786349 
L 289.350663 471.197386 
L 289.355166 471.099225 
L 289.868486 470.706583 
L 289.945597 470.412101 
L 290.140906 470.11762 
L 290.256853 469.724977 
L 290.604132 469.037853 
L 290.677866 468.645211 
L 290.833776 468.350729 
L 290.896815 468.154408 
L 291.131524 467.859926 
L 291.192312 467.663605 
L 291.303194 467.467284 
L 291.436589 466.878321 
L 291.531148 466.583839 
L 291.571111 466.387518 
L 291.745032 466.191197 
L 291.884619 465.798554 
L 292.286495 464.718788 
L 292.650097 463.24638 
L 293.054224 462.657416 
L 293.133023 462.264774 
L 293.484242 462.068453 
L 293.869233 460.399723 
L 293.997563 460.203402 
L 294.42139 459.025475 
L 294.511446 458.730993 
L 295.011258 457.454906 
L 295.158162 456.964103 
L 295.823452 454.902731 
L 296.018199 454.510089 
L 296.1606 453.822965 
L 296.474108 453.626644 
L 296.55347 453.332162 
L 297.090993 452.252396 
L 297.273357 452.056074 
L 297.456846 451.761593 
L 298.248778 449.798381 
L 298.325326 449.209418 
L 298.450279 448.914936 
L 298.512755 448.522294 
L 298.802624 448.325973 
L 299.511253 446.16644 
L 299.667726 445.970119 
L 299.843899 445.381156 
L 299.959283 444.890353 
L 300.304311 443.712426 
L 300.465286 443.123462 
L 301.127199 441.749214 
L 301.257781 441.258412 
L 302.093052 439.2952 
L 302.26641 439.000718 
L 302.275979 438.902558 
L 302.417254 438.706237 
L 302.530388 438.117273 
L 302.539393 438.019113 
L 302.86641 437.724631 
L 302.873164 437.62647 
L 303.079167 437.430149 
L 303.545208 436.252222 
L 303.625133 435.76142 
L 303.883482 435.466938 
L 304.115939 434.877974 
L 304.279729 434.583493 
L 304.3726 434.289011 
L 304.75365 433.405566 
L 304.860592 433.012924 
L 305.026633 432.129478 
L 305.199991 431.933157 
L 305.507308 431.344194 
L 305.673912 431.049712 
L 305.790422 430.75523 
L 306.33695 429.282822 
L 306.455149 428.98834 
L 306.53226 428.693858 
L 306.690984 428.104895 
L 307.222315 427.025129 
L 307.846518 424.571114 
L 308.03451 424.178472 
L 308.176348 423.589509 
L 308.370532 423.393188 
L 308.483665 422.902385 
L 308.581601 422.607903 
L 308.752145 421.920779 
L 308.998674 420.546531 
L 309.142201 420.35021 
L 309.2604 419.957568 
L 309.381976 419.564925 
L 310.256084 416.521948 
L 310.3225 416.129305 
L 310.899423 413.57713 
L 311.000736 412.988167 
L 311.985163 409.945189 
L 312.095482 409.258065 
L 312.22156 408.865423 
L 312.383661 408.669102 
L 312.54914 407.883817 
L 312.63413 407.491175 
L 312.773717 407.098533 
L 312.948764 406.411409 
L 313.07428 405.527964 
L 313.183473 404.84084 
L 313.280846 404.546358 
L 314.04351 401.307059 
L 314.176343 400.325453 
L 314.270339 400.129132 
L 314.435254 399.245687 
L 314.501671 399.049366 
L 314.629438 398.558563 
L 314.743134 397.871439 
L 314.883284 397.086155 
L 315.017805 396.791673 
L 315.120244 396.006388 
L 315.386473 395.613746 
L 316.406359 392.472608 
L 316.581406 391.589163 
L 316.70073 391.294681 
L 316.870712 390.902039 
L 317.013113 390.116754 
L 317.438628 388.742506 
L 317.9542 386.975616 
L 318.182155 385.895849 
L 318.400541 385.405047 
L 318.483843 385.012404 
L 318.680278 384.22712 
L 318.979715 383.539996 
L 319.636 381.184142 
L 319.742379 380.88966 
L 319.851009 380.104376 
L 319.939939 379.711733 
L 320.016487 379.319091 
L 320.234873 378.730128 
L 320.340127 378.435646 
L 320.533747 378.043004 
L 320.662078 377.159559 
L 321.173709 375.68715 
L 321.501852 374.705544 
L 321.614422 373.822099 
L 321.725866 372.840493 
L 321.849694 372.546012 
L 321.980838 372.25153 
L 322.149693 371.368085 
L 322.346691 371.073603 
L 322.46489 370.779121 
L 323.04519 368.521428 
L 323.203914 368.226947 
L 323.411043 367.441662 
L 323.746502 365.478451 
L 323.856821 364.987648 
L 324.790029 360.766743 
L 324.990404 359.588816 
L 325.171079 358.607211 
L 325.290403 358.410889 
L 325.413105 357.723765 
L 325.516107 357.429284 
L 325.635431 356.938481 
L 325.782898 356.349517 
L 325.954568 355.466072 
L 326.117232 355.07343 
L 326.11892 354.975269 
L 326.268639 354.778948 
L 327.242371 350.754365 
L 327.462446 350.067241 
L 327.569388 349.478277 
L 328.652877 345.944497 
L 328.76995 345.061052 
L 328.869012 344.472088 
L 328.959631 344.079446 
L 329.02661 343.490483 
L 329.408786 341.134629 
L 329.626046 340.545665 
L 329.744245 340.251184 
L 330.117978 338.778775 
L 330.267697 337.600848 
L 330.403344 337.306367 
L 330.537303 336.521082 
L 330.68871 336.2266 
L 330.959441 335.441316 
L 331.095088 334.557871 
L 331.247621 334.361549 
L 331.312912 334.067068 
L 331.529047 332.594659 
L 331.963568 331.711214 
L 332.10822 330.827769 
L 332.238239 330.435127 
L 332.377826 329.649842 
L 332.654749 328.177433 
L 332.982328 327.293988 
L 333.23336 326.410543 
L 333.320039 326.116061 
L 333.49002 325.330777 
L 333.760752 324.054689 
L 333.847994 323.760208 
L 333.966192 323.465726 
L 334.022478 323.171244 
L 334.231858 322.189639 
L 334.349494 321.895157 
L 334.355685 321.796996 
L 334.574635 321.600675 
L 334.841989 320.520909 
L 335.02773 320.226427 
L 335.197711 319.244821 
L 335.333358 318.361376 
L 335.421726 318.165055 
L 335.875947 317.183449 
L 336.139361 316.300004 
L 336.746678 314.434953 
L 336.94255 314.140472 
L 337.048929 313.84599 
L 337.405776 312.962545 
L 337.669191 311.686457 
L 337.836358 311.490136 
L 337.964688 311.097494 
L 338.051367 310.803012 
L 338.555119 309.428764 
L 338.625475 309.134283 
L 338.78645 308.839801 
L 338.893955 308.545319 
L 339.119658 308.152677 
L 339.432041 306.778429 
L 339.976881 305.600502 
L 340.142359 305.109699 
L 340.613466 303.53913 
L 340.777818 302.753845 
L 340.889826 302.459364 
L 341.007462 301.8704 
L 341.183071 301.379597 
L 341.42566 300.986955 
L 341.552302 300.10351 
L 341.895078 299.121904 
L 342.000331 298.43478 
L 342.103896 298.140299 
L 342.190575 297.649496 
L 342.364496 297.256853 
L 342.436541 296.864211 
L 342.657741 296.569729 
L 342.760743 296.177087 
L 342.846859 295.882605 
L 342.981944 295.391803 
L 343.145733 295.097321 
L 343.322469 294.704679 
L 345.246294 289.207687 
L 345.369559 289.011366 
L 345.452861 288.618723 
L 345.584568 288.226081 
L 345.761866 287.440796 
L 345.91665 286.459191 
L 346.177813 286.164709 
L 346.335411 285.183103 
L 346.611209 284.59414 
L 346.715336 284.005176 
L 347.405954 282.336447 
L 348.126967 280.275075 
L 348.260926 280.078754 
L 349.236347 277.232097 
L 349.407454 276.741294 
L 350.326027 273.796477 
L 350.471242 273.403835 
L 350.866927 272.127747 
L 350.973869 271.833266 
L 351.079685 271.538784 
L 351.322836 270.459018 
L 351.628465 269.771894 
L 351.81702 269.18293 
L 351.922273 268.986609 
L 352.099571 268.201324 
L 352.276869 267.906843 
L 352.343848 267.710522 
L 353.069364 266.139952 
L 354.317205 262.802493 
L 354.565985 262.606172 
L 354.714578 262.31169 
L 354.967861 261.330084 
L 355.255478 260.937442 
L 355.453039 260.64296 
L 355.584183 260.348479 
L 356.067109 258.87607 
L 356.302381 258.679749 
L 356.456603 258.385267 
L 356.607447 257.894464 
L 356.635026 257.698143 
L 356.82921 257.501822 
L 356.926583 256.814698 
L 357.125833 256.618377 
L 357.467483 255.44045 
L 358.876863 251.415867 
L 359.138589 251.121385 
L 359.305193 250.925064 
L 359.779676 249.943458 
L 359.861853 249.550816 
L 360.008757 249.158174 
L 360.616636 247.685765 
L 360.663916 247.293123 
L 360.920013 246.998641 
L 361.086054 246.605999 
L 361.17217 246.017035 
L 361.354534 245.722554 
L 361.565603 245.526232 
L 361.584177 245.428072 
L 361.874609 245.13359 
L 361.949468 244.740948 
L 362.27367 244.250145 
L 362.414946 243.955663 
L 362.483614 243.759342 
L 362.887178 243.268539 
L 362.968791 243.072218 
L 363.164664 242.875897 
L 363.626202 241.796131 
L 363.79956 241.59981 
L 364.338208 239.734759 
L 364.440647 239.538438 
L 364.520009 239.047635 
L 364.903311 238.851314 
L 365.336144 237.575226 
L 365.539333 237.378905 
L 365.78755 236.691781 
L 366.135955 236.200978 
L 366.273291 235.415694 
L 366.443272 235.219372 
L 366.892427 234.041446 
L 367.704622 233.158 
L 368.1701 231.587431 
L 368.30631 231.29295 
L 368.41494 230.998468 
L 368.772351 230.213183 
L 368.914752 229.918702 
L 369.112313 229.72238 
L 369.218692 229.329738 
L 370.157528 227.661008 
L 370.169347 227.562848 
L 370.798052 227.072045 
L 370.977039 226.581242 
L 371.158277 226.28676 
L 371.425069 225.697797 
L 371.69186 225.403315 
L 371.888295 225.010673 
L 372.170846 224.618031 
L 372.310996 224.225388 
L 373.690545 222.065856 
L 373.787918 221.673214 
L 373.916248 221.378732 
L 373.953396 221.182411 
L 374.176848 220.789768 
L 374.18698 220.691608 
L 374.861275 220.200805 
L 375.218123 219.121039 
L 375.332945 218.826557 
L 375.415121 218.630236 
L 375.969529 218.433915 
L 375.995983 218.237594 
L 376.391668 217.943112 
L 376.50255 217.746791 
L 376.924125 217.354148 
L 376.943825 217.255988 
L 377.307427 217.059667 
L 377.418871 216.765185 
L 377.599547 216.372543 
L 377.614181 216.274382 
L 377.909678 215.9799 
L 378.06615 215.783579 
L 378.28116 215.292776 
L 378.425812 215.096455 
L 378.492792 214.605652 
L 379.049451 214.311171 
L 379.263898 213.722207 
L 380.53369 212.249799 
L 380.646823 211.660835 
L 381.292414 211.464514 
L 381.361082 211.170032 
L 381.567085 210.973711 
L 381.769712 210.581069 
L 381.965584 210.286587 
L 382.45245 209.206821 
L 382.522807 209.0105 
L 382.854326 208.814179 
L 383.010799 208.617858 
L 383.254513 208.421536 
L 383.400854 208.127055 
L 383.874775 207.047288 
L 384.104419 206.752807 
L 384.225994 206.360164 
L 384.549071 205.967522 
L 384.65939 205.67304 
L 384.910422 205.280398 
L 385.234624 204.789595 
L 385.447382 204.298792 
L 385.6168 204.102471 
L 386.149257 203.219026 
L 386.524116 202.531902 
L 386.58209 202.13926 
L 387.611545 201.157654 
L 387.696535 200.765012 
L 387.930118 200.47053 
L 388.088843 200.176048 
L 388.091094 200.077888 
L 388.319612 199.881567 
L 388.441187 199.587085 
L 388.586403 199.390764 
L 388.836872 199.096282 
L 389.418297 198.8018 
L 389.57477 198.507319 
L 390.128615 198.016516 
L 390.400473 197.820195 
L 390.579459 197.623874 
L 390.584525 197.525713 
L 391.286963 196.838589 
L 391.537432 196.347786 
L 391.777207 196.053304 
L 392.137432 195.856983 
L 392.327675 195.464341 
L 392.739682 195.169859 
L 392.937806 194.973538 
L 393.072327 194.777217 
L 393.281708 194.384575 
L 393.371764 194.188254 
L 393.617167 193.893772 
L 393.697092 193.697451 
L 393.834991 193.50113 
L 394.116416 192.814006 
L 394.359005 192.519524 
L 394.60666 192.126882 
L 395.230299 191.734239 
L 395.531425 190.752634 
L 396.179266 190.359991 
L 396.446621 189.869188 
L 396.869885 189.476546 
L 396.993149 189.182064 
L 397.420916 188.985743 
L 397.576826 188.691262 
L 397.847557 188.200459 
L 398.716037 187.022532 
L 399.170258 186.72805 
L 399.305342 186.335408 
L 399.489394 186.139087 
L 399.738738 185.746444 
L 399.742115 185.550123 
L 400.004403 185.353802 
L 400.006092 185.255642 
L 400.198024 185.05932 
L 400.368568 184.764839 
L 400.472696 184.470357 
L 400.477198 184.274036 
L 400.989956 183.881394 
L 401.458811 183.685072 
L 401.470068 183.488751 
L 401.982263 183.29243 
L 402.081887 183.096109 
L 402.402713 182.801627 
L 402.648116 182.310824 
L 403.171567 182.016343 
L 403.243049 181.918182 
L 403.492955 181.721861 
L 404.460497 180.838416 
L 405.053742 179.75865 
L 405.411715 179.464168 
L 405.912653 179.267847 
L 406.069688 179.071526 
L 406.428225 178.875205 
L 406.42935 178.777044 
L 408.259743 177.795438 
L 408.417904 177.500957 
L 408.487134 177.304635 
L 408.660493 177.108314 
L 408.830474 176.617511 
L 409.14961 176.32303 
L 409.467621 176.028548 
L 409.855989 175.832227 
L 409.873437 175.635906 
L 410.615838 175.145103 
L 410.624844 175.046942 
L 411.34079 174.752461 
L 412.017338 173.869015 
L 412.371934 173.378213 
L 412.400076 173.280052 
L 412.599889 173.083731 
L 412.853172 172.691089 
L 413.389569 172.396607 
L 414.525403 171.611322 
L 414.700449 171.415001 
L 415.243038 171.022359 
L 415.324089 170.924198 
L 416.458797 170.727877 
L 416.567427 170.531556 
L 417.415081 170.335235 
L 417.494443 170.237074 
L 417.875493 170.040753 
L 418.249226 169.648111 
L 418.704573 169.353629 
L 420.632339 168.273863 
L 420.782057 168.077542 
L 421.408511 167.78306 
L 421.802506 167.390418 
L 422.632712 167.194097 
L 422.753725 166.703294 
L 422.826333 166.506973 
L 423.124644 166.310651 
L 423.286745 166.11433 
L 423.930647 165.721688 
L 425.238713 165.230885 
L 425.31301 165.034564 
L 425.535899 164.740082 
L 426.435335 164.445601 
L 428.709817 162.973192 
L 428.73008 162.875031 
L 429.331768 162.67871 
L 429.39931 162.482389 
L 430.354468 162.286068 
L 430.367414 162.187907 
L 430.87004 161.991586 
L 430.886926 161.893426 
L 431.55897 161.500783 
L 431.69912 161.304462 
L 432.35259 161.108141 
L 432.535517 160.715499 
L 432.603059 160.617338 
L 433.388236 160.224696 
L 433.411313 160.126535 
L 434.036641 159.930214 
L 434.238142 159.733893 
L 436.821066 158.654127 
L 436.8554 158.555966 
L 437.750334 158.163324 
L 438.128007 157.967003 
L 438.839451 157.4762 
L 439.088231 157.083558 
L 441.207366 156.690915 
L 441.891793 156.298273 
L 442.590291 155.905631 
L 442.626877 155.80747 
L 443.235319 155.611149 
L 443.327064 155.512989 
L 444.918807 155.218507 
L 445.217681 154.924025 
L 445.906048 154.629543 
L 446.076592 154.433222 
L 446.505485 154.138741 
L 446.644509 153.942419 
L 447.520868 153.746098 
L 447.673964 153.647938 
L 448.701167 153.451617 
L 449.115426 153.255295 
L 449.301167 152.960814 
L 450.471335 152.27369 
L 450.488783 152.175529 
L 451.576212 151.979208 
L 452.462139 151.586566 
L 452.481839 151.488405 
L 453.269268 151.095763 
L 456.470203 150.408639 
L 456.68465 150.015997 
L 457.152379 149.819675 
L 457.169264 149.721515 
L 457.786712 149.525194 
L 457.85932 149.427033 
L 458.195905 149.328873 
L 459.050313 149.132551 
L 459.113353 149.034391 
L 460.969636 148.739909 
L 461.033801 148.641749 
L 461.882018 148.445427 
L 462.990835 148.052785 
L 463.205844 147.954625 
L 465.091396 147.660143 
L 465.461189 147.365661 
L 465.982389 147.16934 
L 466.105091 146.973019 
L 466.625728 146.776698 
L 466.773758 146.580377 
L 467.229668 146.384055 
L 467.463814 146.285895 
L 470.16944 145.991413 
L 470.609589 145.795092 
L 470.782948 145.696931 
L 475.960053 145.009807 
L 475.963993 144.911647 
L 476.246545 144.813486 
L 477.868682 144.617165 
L 478.249732 144.519005 
L 479.985003 144.322683 
L 481.152919 144.028202 
L 481.920085 143.831881 
L 482.141286 143.635559 
L 483.265862 143.439238 
L 483.314268 143.341078 
L 483.515206 143.242917 
L 484.881808 143.046596 
L 484.934154 142.948435 
L 487.272238 142.752114 
L 487.31614 142.653954 
L 491.636023 142.261311 
L 492.954784 141.868669 
L 493.007692 141.574187 
L 493.776547 141.279706 
L 493.991556 141.181545 
L 501.323256 139.709137 
L 504.305805 139.512815 
L 504.656461 139.414655 
L 507.556271 139.218334 
L 508.442761 138.825691 
L 510.349702 138.62937 
L 519.87427 137.451443 
L 520.392656 137.353283 
L 524.247062 137.156962 
L 524.495279 137.058801 
L 525.411601 136.86248 
L 525.418355 136.764319 
L 525.833176 136.567998 
L 525.865822 136.469838 
L 529.807469 135.979035 
L 530.335986 135.782714 
L 533.448554 135.586393 
L 540.696952 134.899269 
L 552.661481 134.604787 
L 553.696002 134.310305 
L 553.707259 134.212145 
L 556.695999 134.015823 
L 558.181926 133.721342 
L 559.496747 133.623181 
L 564.220194 133.42686 
L 564.514003 133.328699 
L 569.495799 133.132378 
L 570.989606 132.936057 
L 571.031257 132.837897 
L 574.161273 132.445254 
L 589.209101 132.150773 
L 596.446805 131.65997 
L 596.625792 131.561809 
L 607.34642 131.169167 
L 609.567431 131.071006 
L 630.643958 130.580203 
L 631.088611 130.482043 
L 632.206433 130.383882 
L 643.394228 130.089401 
L 671.620092 129.598598 
L 676.096448 129.402277 
L 708.072027 129.107795 
L 713.219302 129.009634 
L 713.219302 129.009634 
" clip-path="url(#pee5b92c260)" style="fill: none; stroke: #0000ff; stroke-width: 1.5; stroke-linecap: square"/>
   </g>
   <g id="patch_3">
    <path d="M 99 576.72 
L 99 77.76 
" style="fill: none; stroke: #000000; stroke-width: 0.8; stroke-linejoin: miter; stroke-linecap: square"/>
   </g>
   <g id="patch_4">
    <path d="M 712.8 576.72 
L 712.8 77.76 
" style="fill: none; stroke: #000000; stroke-width: 0.8; stroke-linejoin: miter; stroke-linecap: square"/>
   </g>
   <g id="patch_5">
    <path d="M 99 576.72 
L 712.8 576.72 
" style="fill: none; stroke: #000000; stroke-width: 0.8; stroke-linejoin: miter; stroke-linecap: square"/>
   </g>
   <g id="patch_6">
    <path d="M 99 77.76 
L 712.8 77.76 
" style="fill: none; stroke: #000000; stroke-width: 0.8; stroke-linejoin: miter; stroke-linecap: square"/>
   </g>
   <g id="legend_1">
    <g id="patch_7">
     <path d="M 106 115.11625 
L 240.93125 115.11625 
Q 242.93125 115.11625 242.93125 113.11625 
L 242.93125 84.76 
Q 242.93125 82.76 240.93125 82.76 
L 106 82.76 
Q 104 82.76 104 84.76 
L 104 113.11625 
Q 104 115.11625 106 115.11625 
z
" style="fill: #ffffff; opacity: 0.8; stroke: #cccccc; stroke-linejoin: miter"/>
    </g>
    <g id="line2d_40">
     <path d="M 108 90.858437 
L 118 90.858437 
L 128 90.858437 
" style="fill: none; stroke: #ff0000; stroke-width: 1.5; stroke-linecap: square"/>
    </g>
    <g id="text_40">
     <!-- Victoria Starlink CDF -->
     <g transform="translate(136 94.358437) scale(0.1 -0.1)">
      <defs>
       <path id="DejaVuSans-56" d="M 1831 0 
L 50 4666 
L 709 4666 
L 2188 738 
L 3669 4666 
L 4325 4666 
L 2547 0 
L 1831 0 
z
" transform="scale(0.015625)"/>
       <path id="DejaVuSans-53" d="M 3425 4513 
L 3425 3897 
Q 3066 4069 2747 4153 
Q 2428 4238 2131 4238 
Q 1616 4238 1336 4038 
Q 1056 3838 1056 3469 
Q 1056 3159 1242 3001 
Q 1428 2844 1947 2747 
L 2328 2669 
Q 3034 2534 3370 2195 
Q 3706 1856 3706 1288 
Q 3706 609 3251 259 
Q 2797 -91 1919 -91 
Q 1588 -91 1214 -16 
Q 841 59 441 206 
L 441 856 
Q 825 641 1194 531 
Q 1563 422 1919 422 
Q 2459 422 2753 634 
Q 3047 847 3047 1241 
Q 3047 1584 2836 1778 
Q 2625 1972 2144 2069 
L 1759 2144 
Q 1053 2284 737 2584 
Q 422 2884 422 3419 
Q 422 4038 858 4394 
Q 1294 4750 2059 4750 
Q 2388 4750 2728 4690 
Q 3069 4631 3425 4513 
z
" transform="scale(0.015625)"/>
       <path id="DejaVuSans-43" d="M 4122 4306 
L 4122 3641 
Q 3803 3938 3442 4084 
Q 3081 4231 2675 4231 
Q 1875 4231 1450 3742 
Q 1025 3253 1025 2328 
Q 1025 1406 1450 917 
Q 1875 428 2675 428 
Q 3081 428 3442 575 
Q 3803 722 4122 1019 
L 4122 359 
Q 3791 134 3420 21 
Q 3050 -91 2638 -91 
Q 1578 -91 968 557 
Q 359 1206 359 2328 
Q 359 3453 968 4101 
Q 1578 4750 2638 4750 
Q 3056 4750 3426 4639 
Q 3797 4528 4122 4306 
z
" transform="scale(0.015625)"/>
       <path id="DejaVuSans-44" d="M 1259 4147 
L 1259 519 
L 2022 519 
Q 2988 519 3436 956 
Q 3884 1394 3884 2338 
Q 3884 3275 3436 3711 
Q 2988 4147 2022 4147 
L 1259 4147 
z
M 628 4666 
L 1925 4666 
Q 3281 4666 3915 4102 
Q 4550 3538 4550 2338 
Q 4550 1131 3912 565 
Q 3275 0 1925 0 
L 628 0 
L 628 4666 
z
" transform="scale(0.015625)"/>
       <path id="DejaVuSans-46" d="M 628 4666 
L 3309 4666 
L 3309 4134 
L 1259 4134 
L 1259 2759 
L 3109 2759 
L 3109 2228 
L 1259 2228 
L 1259 0 
L 628 0 
L 628 4666 
z
" transform="scale(0.015625)"/>
      </defs>
      <use xlink:href="#DejaVuSans-56"/>
      <use xlink:href="#DejaVuSans-69" x="66.158203"/>
      <use xlink:href="#DejaVuSans-63" x="93.941406"/>
      <use xlink:href="#DejaVuSans-74" x="148.921875"/>
      <use xlink:href="#DejaVuSans-6f" x="188.130859"/>
      <use xlink:href="#DejaVuSans-72" x="249.3125"/>
      <use xlink:href="#DejaVuSans-69" x="290.425781"/>
      <use xlink:href="#DejaVuSans-61" x="318.208984"/>
      <use xlink:href="#DejaVuSans-20" x="379.488281"/>
      <use xlink:href="#DejaVuSans-53" x="411.275391"/>
      <use xlink:href="#DejaVuSans-74" x="474.751953"/>
      <use xlink:href="#DejaVuSans-61" x="513.960938"/>
      <use xlink:href="#DejaVuSans-72" x="575.240234"/>
      <use xlink:href="#DejaVuSans-6c" x="616.353516"/>
      <use xlink:href="#DejaVuSans-69" x="644.136719"/>
      <use xlink:href="#DejaVuSans-6e" x="671.919922"/>
      <use xlink:href="#DejaVuSans-6b" x="735.298828"/>
      <use xlink:href="#DejaVuSans-20" x="793.208984"/>
      <use xlink:href="#DejaVuSans-43" x="824.996094"/>
      <use xlink:href="#DejaVuSans-44" x="894.820312"/>
      <use xlink:href="#DejaVuSans-46" x="971.822266"/>
     </g>
    </g>
    <g id="line2d_41">
     <path d="M 108 105.536562 
L 118 105.536562 
L 128 105.536562 
" style="fill: none; stroke: #0000ff; stroke-width: 1.5; stroke-linecap: square"/>
    </g>
    <g id="text_41">
     <!-- Ottawa Starlink CDF -->
     <g transform="translate(136 109.036562) scale(0.1 -0.1)">
      <defs>
       <path id="DejaVuSans-4f" d="M 2522 4238 
Q 1834 4238 1429 3725 
Q 1025 3213 1025 2328 
Q 1025 1447 1429 934 
Q 1834 422 2522 422 
Q 3209 422 3611 934 
Q 4013 1447 4013 2328 
Q 4013 3213 3611 3725 
Q 3209 4238 2522 4238 
z
M 2522 4750 
Q 3503 4750 4090 4092 
Q 4678 3434 4678 2328 
Q 4678 1225 4090 567 
Q 3503 -91 2522 -91 
Q 1538 -91 948 565 
Q 359 1222 359 2328 
Q 359 3434 948 4092 
Q 1538 4750 2522 4750 
z
" transform="scale(0.015625)"/>
       <path id="DejaVuSans-77" d="M 269 3500 
L 844 3500 
L 1563 769 
L 2278 3500 
L 2956 3500 
L 3675 769 
L 4391 3500 
L 4966 3500 
L 4050 0 
L 3372 0 
L 2619 2869 
L 1863 0 
L 1184 0 
L 269 3500 
z
" transform="scale(0.015625)"/>
      </defs>
      <use xlink:href="#DejaVuSans-4f"/>
      <use xlink:href="#DejaVuSans-74" x="78.710938"/>
      <use xlink:href="#DejaVuSans-74" x="117.919922"/>
      <use xlink:href="#DejaVuSans-61" x="157.128906"/>
      <use xlink:href="#DejaVuSans-77" x="218.408203"/>
      <use xlink:href="#DejaVuSans-61" x="300.195312"/>
      <use xlink:href="#DejaVuSans-20" x="361.474609"/>
      <use xlink:href="#DejaVuSans-53" x="393.261719"/>
      <use xlink:href="#DejaVuSans-74" x="456.738281"/>
      <use xlink:href="#DejaVuSans-61" x="495.947266"/>
      <use xlink:href="#DejaVuSans-72" x="557.226562"/>
      <use xlink:href="#DejaVuSans-6c" x="598.339844"/>
      <use xlink:href="#DejaVuSans-69" x="626.123047"/>
      <use xlink:href="#DejaVuSans-6e" x="653.90625"/>
      <use xlink:href="#DejaVuSans-6b" x="717.285156"/>
      <use xlink:href="#DejaVuSans-20" x="775.195312"/>
      <use xlink:href="#DejaVuSans-43" x="806.982422"/>
      <use xlink:href="#DejaVuSans-44" x="876.806641"/>
      <use xlink:href="#DejaVuSans-46" x="953.808594"/>
     </g>
    </g>
   </g>
  </g>
 </g>
 <defs>
  <clipPath id="pee5b92c260">
   <rect x="99" y="77.76" width="613.8" height="498.96"/>
  </clipPath>
 </defs>
</svg>
